# MagicaVoxel @ Ephtracy

# group
o 

# material
mtllib Cutter_tower.mtl
usemtl palette

# normals
vn -1 0 0
vn 1 0 0
vn 0 0 1
vn 0 0 -1
vn 0 -1 0
vn 0 1 0

# texcoords
vt 0.533203 0.5
vt 0.537109 0.5
vt 0.541016 0.5
vt 0.693359 0.5

# verts
v -1.4 0 1.9
v -1.4 0 1.8
v -1.4 0 -1.8
v -1.4 0 -1.9
v -1.4 1 1.8
v -1.4 1 -1.8
v -1.4 1.1 1.8
v -1.4 1.1 -1.8
v -1.4 2 1.8
v -1.4 2 -1.8
v -1.4 2.1 1.8
v -1.4 2.1 -1.8
v -1.4 3 1.8
v -1.4 3 -1.8
v -1.4 3.1 1.8
v -1.4 3.1 -1.8
v -1.4 4 1.8
v -1.4 4 -1.8
v -1.4 4.1 1.8
v -1.4 4.1 -1.8
v -1.4 4.9 1.8
v -1.4 4.9 -1.8
v -1.4 5 1.8
v -1.4 5 -1.8
v -1.4 5.9 1.8
v -1.4 5.9 -1.8
v -1.4 6 1.9
v -1.4 6 -1.9
v -0.5 0 2
v -0.5 0 1.9
v -0.5 0 -1.9
v -0.5 0 -2
v -0.5 0.9 2
v -0.5 0.9 1.9
v -0.5 0.9 -1.9
v -0.5 0.9 -2
v -0.1 0 2
v -0.1 0 1.9
v -0.1 0 -1.9
v -0.1 0 -2
v -0.1 0.3 2
v -0.1 0.3 1.9
v -0.1 0.3 -1.9
v -0.1 0.3 -2
v -0.1 0.4 2
v -0.1 0.4 1.9
v -0.1 0.4 -1.9
v -0.1 0.4 -2
v -0.1 0.8 2
v -0.1 0.8 1.9
v -0.1 0.8 -1.9
v -0.1 0.8 -2
v 0.4 0 2
v 0.4 0 1.9
v 0.4 0 -1.9
v 0.4 0 -2
v 0.4 0.8 2
v 0.4 0.8 1.9
v 0.4 0.8 -1.9
v 0.4 0.8 -2
v -1.2 5.9 1.9
v -1.2 5.9 -1.9
v -1.2 6 1.9
v -1.2 6 -1.9
v -1 5.8 1.9
v -1 5.8 -1.9
v -1 5.9 1.9
v -1 5.9 -1.9
v -0.8 5.7 1.9
v -0.8 5.7 -1.9
v -0.8 5.8 1.9
v -0.8 5.8 -1.9
v -0.6 5.6 1.9
v -0.6 5.6 -1.9
v -0.6 5.7 1.9
v -0.6 5.7 -1.9
v -0.4 0 2
v -0.4 0 1.9
v -0.4 0 -1.9
v -0.4 0 -2
v -0.4 0.8 2
v -0.4 0.8 1.9
v -0.4 0.8 -1.9
v -0.4 0.8 -2
v -0.4 5.5 1.9
v -0.4 5.5 -1.9
v -0.4 5.6 1.9
v -0.4 5.6 -1.9
v -0.2 5.4 1.9
v -0.2 5.4 -1.9
v -0.2 5.5 1.9
v -0.2 5.5 -1.9
v 0 5.3 1.9
v 0 5.3 -1.9
v 0 5.4 1.9
v 0 5.4 -1.9
v 0.1 0 2
v 0.1 0 1.9
v 0.1 0 -1.9
v 0.1 0 -2
v 0.1 0.3 2
v 0.1 0.3 1.9
v 0.1 0.3 -1.9
v 0.1 0.3 -2
v 0.1 0.4 2
v 0.1 0.4 1.9
v 0.1 0.4 -1.9
v 0.1 0.4 -2
v 0.1 0.8 2
v 0.1 0.8 1.9
v 0.1 0.8 -1.9
v 0.1 0.8 -2
v 0.2 5.2 1.9
v 0.2 5.2 -1.9
v 0.2 5.3 1.9
v 0.2 5.3 -1.9
v 0.4 5.1 1.9
v 0.4 5.1 -1.9
v 0.4 5.2 1.9
v 0.4 5.2 -1.9
v 0.5 0 2
v 0.5 0 1.9
v 0.5 0 -1.9
v 0.5 0 -2
v 0.5 0.9 2
v 0.5 0.9 1.9
v 0.5 0.9 -1.9
v 0.5 0.9 -2
v 0.6 5 1.9
v 0.6 5 -1.9
v 0.6 5.1 1.9
v 0.6 5.1 -1.9
v 0.8 4.9 1.9
v 0.8 4.9 -1.9
v 0.8 5 1.9
v 0.8 5 -1.9
v 1 4.8 1.9
v 1 4.8 -1.9
v 1 4.9 1.9
v 1 4.9 -1.9
v 1.2 4.7 1.9
v 1.2 4.7 -1.9
v 1.2 4.8 1.9
v 1.2 4.8 -1.9
v 1.4 0 1.9
v 1.4 0 1.8
v 1.4 0 -1.8
v 1.4 0 -1.9
v 1.4 1 1.8
v 1.4 1 -1.8
v 1.4 1.1 1.8
v 1.4 1.1 -1.8
v 1.4 2 1.8
v 1.4 2 -1.8
v 1.4 2.1 1.8
v 1.4 2.1 -1.8
v 1.4 3 1.8
v 1.4 3 -1.8
v 1.4 3.1 1.8
v 1.4 3.1 -1.8
v 1.4 4 1.8
v 1.4 4 -1.8
v 1.4 4.1 1.8
v 1.4 4.1 -1.8
v 1.4 4.6 1.8
v 1.4 4.6 -1.8
v 1.4 4.7 1.9
v 1.4 4.7 -1.9
v -0.5 0 2
v -0.5 0.9 2
v -0.4 0 2
v -0.4 0.8 2
v -0.1 0 2
v -0.1 0.3 2
v -0.1 0.4 2
v -0.1 0.8 2
v 0.1 0 2
v 0.1 0.3 2
v 0.1 0.4 2
v 0.1 0.8 2
v 0.4 0 2
v 0.4 0.8 2
v 0.5 0 2
v 0.5 0.9 2
v -1.4 0 1.9
v -1.4 6 1.9
v -1.3 0 1.9
v -1.3 1 1.9
v -1.3 1.1 1.9
v -1.3 2 1.9
v -1.3 2.1 1.9
v -1.3 3 1.9
v -1.3 3.1 1.9
v -1.3 4 1.9
v -1.3 4.1 1.9
v -1.3 4.6 1.9
v -1.3 4.7 1.9
v -1.3 4.9 1.9
v -1.3 5 1.9
v -1.3 5.2 1.9
v -1.3 5.3 1.9
v -1.3 5.5 1.9
v -1.3 5.6 1.9
v -1.3 5.9 1.9
v -1.2 5.8 1.9
v -1.2 5.9 1.9
v -1.2 6 1.9
v -1 5.7 1.9
v -1 5.8 1.9
v -1 5.9 1.9
v -0.8 5.6 1.9
v -0.8 5.7 1.9
v -0.8 5.8 1.9
v -0.6 5.6 1.9
v -0.6 5.7 1.9
v -0.5 0 1.9
v -0.5 0.9 1.9
v -0.4 0 1.9
v -0.4 0.8 1.9
v -0.4 5.4 1.9
v -0.4 5.5 1.9
v -0.4 5.6 1.9
v -0.2 5.3 1.9
v -0.2 5.4 1.9
v -0.2 5.5 1.9
v -0.1 0 1.9
v -0.1 0.3 1.9
v -0.1 0.4 1.9
v -0.1 0.8 1.9
v 0 5.3 1.9
v 0 5.4 1.9
v 0.1 0 1.9
v 0.1 0.3 1.9
v 0.1 0.4 1.9
v 0.1 0.8 1.9
v 0.2 5.1 1.9
v 0.2 5.2 1.9
v 0.2 5.3 1.9
v 0.4 0 1.9
v 0.4 0.8 1.9
v 0.4 5 1.9
v 0.4 5.1 1.9
v 0.4 5.2 1.9
v 0.5 0 1.9
v 0.5 0.9 1.9
v 0.6 5 1.9
v 0.6 5.1 1.9
v 0.8 4.8 1.9
v 0.8 4.9 1.9
v 0.8 5 1.9
v 1 4.7 1.9
v 1 4.8 1.9
v 1 4.9 1.9
v 1.2 4.7 1.9
v 1.2 4.8 1.9
v 1.3 0 1.9
v 1.3 1 1.9
v 1.3 1.1 1.9
v 1.3 2 1.9
v 1.3 2.1 1.9
v 1.3 3 1.9
v 1.3 3.1 1.9
v 1.3 4 1.9
v 1.3 4.1 1.9
v 1.3 4.6 1.9
v 1.4 0 1.9
v 1.4 4.7 1.9
v -1.4 0 -1.9
v -1.4 6 -1.9
v -1.3 0 -1.9
v -1.3 1 -1.9
v -1.3 1.1 -1.9
v -1.3 2 -1.9
v -1.3 2.1 -1.9
v -1.3 3 -1.9
v -1.3 3.1 -1.9
v -1.3 4 -1.9
v -1.3 4.1 -1.9
v -1.3 4.6 -1.9
v -1.3 4.7 -1.9
v -1.3 4.9 -1.9
v -1.3 5 -1.9
v -1.3 5.2 -1.9
v -1.3 5.3 -1.9
v -1.3 5.5 -1.9
v -1.3 5.6 -1.9
v -1.3 5.9 -1.9
v -1.2 5.8 -1.9
v -1.2 5.9 -1.9
v -1.2 6 -1.9
v -1 5.7 -1.9
v -1 5.8 -1.9
v -1 5.9 -1.9
v -0.8 5.6 -1.9
v -0.8 5.7 -1.9
v -0.8 5.8 -1.9
v -0.6 5.6 -1.9
v -0.6 5.7 -1.9
v -0.5 0 -1.9
v -0.5 0.9 -1.9
v -0.4 0 -1.9
v -0.4 0.8 -1.9
v -0.4 5.4 -1.9
v -0.4 5.5 -1.9
v -0.4 5.6 -1.9
v -0.2 5.3 -1.9
v -0.2 5.4 -1.9
v -0.2 5.5 -1.9
v -0.1 0 -1.9
v -0.1 0.3 -1.9
v -0.1 0.4 -1.9
v -0.1 0.8 -1.9
v 0 5.3 -1.9
v 0 5.4 -1.9
v 0.1 0 -1.9
v 0.1 0.3 -1.9
v 0.1 0.4 -1.9
v 0.1 0.8 -1.9
v 0.2 5.1 -1.9
v 0.2 5.2 -1.9
v 0.2 5.3 -1.9
v 0.4 0 -1.9
v 0.4 0.8 -1.9
v 0.4 5 -1.9
v 0.4 5.1 -1.9
v 0.4 5.2 -1.9
v 0.5 0 -1.9
v 0.5 0.9 -1.9
v 0.6 5 -1.9
v 0.6 5.1 -1.9
v 0.8 4.8 -1.9
v 0.8 4.9 -1.9
v 0.8 5 -1.9
v 1 4.7 -1.9
v 1 4.8 -1.9
v 1 4.9 -1.9
v 1.2 4.7 -1.9
v 1.2 4.8 -1.9
v 1.3 0 -1.9
v 1.3 1 -1.9
v 1.3 1.1 -1.9
v 1.3 2 -1.9
v 1.3 2.1 -1.9
v 1.3 3 -1.9
v 1.3 3.1 -1.9
v 1.3 4 -1.9
v 1.3 4.1 -1.9
v 1.3 4.6 -1.9
v 1.4 0 -1.9
v 1.4 4.7 -1.9
v -0.5 0 -2
v -0.5 0.9 -2
v -0.4 0 -2
v -0.4 0.8 -2
v -0.1 0 -2
v -0.1 0.3 -2
v -0.1 0.4 -2
v -0.1 0.8 -2
v 0.1 0 -2
v 0.1 0.3 -2
v 0.1 0.4 -2
v 0.1 0.8 -2
v 0.4 0 -2
v 0.4 0.8 -2
v 0.5 0 -2
v 0.5 0.9 -2
v -0.5 0 2
v -0.4 0 2
v -0.1 0 2
v 0.1 0 2
v 0.4 0 2
v 0.5 0 2
v -1.4 0 1.9
v -1.3 0 1.9
v -0.5 0 1.9
v -0.4 0 1.9
v -0.1 0 1.9
v 0.1 0 1.9
v 0.4 0 1.9
v 0.5 0 1.9
v 1.3 0 1.9
v 1.4 0 1.9
v -1.4 0 1.8
v -1.3 0 1.8
v -0.4 0 1.8
v 0.4 0 1.8
v 1.3 0 1.8
v 1.4 0 1.8
v -1.4 0 -1.8
v -1.3 0 -1.8
v -0.4 0 -1.8
v 0.4 0 -1.8
v 1.3 0 -1.8
v 1.4 0 -1.8
v -1.4 0 -1.9
v -1.3 0 -1.9
v -0.5 0 -1.9
v -0.4 0 -1.9
v -0.1 0 -1.9
v 0.1 0 -1.9
v 0.4 0 -1.9
v 0.5 0 -1.9
v 1.3 0 -1.9
v 1.4 0 -1.9
v -0.5 0 -2
v -0.4 0 -2
v -0.1 0 -2
v 0.1 0 -2
v 0.4 0 -2
v 0.5 0 -2
v -0.4 0.8 2
v -0.1 0.8 2
v 0.1 0.8 2
v 0.4 0.8 2
v -0.4 0.8 1.9
v -0.1 0.8 1.9
v 0.1 0.8 1.9
v 0.4 0.8 1.9
v -0.4 0.8 -1.9
v -0.1 0.8 -1.9
v 0.1 0.8 -1.9
v 0.4 0.8 -1.9
v -0.4 0.8 -2
v -0.1 0.8 -2
v 0.1 0.8 -2
v 0.4 0.8 -2
v -0.5 0.9 2
v 0.5 0.9 2
v -0.5 0.9 1.9
v 0.5 0.9 1.9
v -0.5 0.9 -1.9
v 0.5 0.9 -1.9
v -0.5 0.9 -2
v 0.5 0.9 -2
v 1.2 4.7 1.9
v 1.4 4.7 1.9
v 1.2 4.7 -1.9
v 1.4 4.7 -1.9
v 1 4.8 1.9
v 1.2 4.8 1.9
v 1 4.8 -1.9
v 1.2 4.8 -1.9
v 0.8 4.9 1.9
v 1 4.9 1.9
v 0.8 4.9 -1.9
v 1 4.9 -1.9
v 0.6 5 1.9
v 0.8 5 1.9
v 0.6 5 -1.9
v 0.8 5 -1.9
v 0.4 5.1 1.9
v 0.6 5.1 1.9
v 0.4 5.1 -1.9
v 0.6 5.1 -1.9
v 0.2 5.2 1.9
v 0.4 5.2 1.9
v 0.2 5.2 -1.9
v 0.4 5.2 -1.9
v 0 5.3 1.9
v 0.2 5.3 1.9
v 0 5.3 -1.9
v 0.2 5.3 -1.9
v -0.2 5.4 1.9
v 0 5.4 1.9
v -0.2 5.4 -1.9
v 0 5.4 -1.9
v -0.4 5.5 1.9
v -0.2 5.5 1.9
v -0.4 5.5 -1.9
v -0.2 5.5 -1.9
v -0.6 5.6 1.9
v -0.4 5.6 1.9
v -0.6 5.6 -1.9
v -0.4 5.6 -1.9
v -0.8 5.7 1.9
v -0.6 5.7 1.9
v -0.8 5.7 -1.9
v -0.6 5.7 -1.9
v -1 5.8 1.9
v -0.8 5.8 1.9
v -1 5.8 -1.9
v -0.8 5.8 -1.9
v -1.2 5.9 1.9
v -1 5.9 1.9
v -1.2 5.9 -1.9
v -1 5.9 -1.9
v -1.4 6 1.9
v -1.2 6 1.9
v -1.4 6 -1.9
v -1.2 6 -1.9

# faces
f 5/2/1 2/2/1 1/2/1
f 5/3/1 3/3/1 2/3/1
f 6/2/1 4/2/1 3/2/1
f 6/3/1 3/3/1 5/3/1
f 7/2/1 5/2/1 1/2/1
f 7/2/1 6/2/1 5/2/1
f 8/2/1 4/2/1 6/2/1
f 8/2/1 6/2/1 7/2/1
f 9/2/1 7/2/1 1/2/1
f 9/3/1 8/3/1 7/3/1
f 10/2/1 4/2/1 8/2/1
f 10/3/1 8/3/1 9/3/1
f 11/2/1 9/2/1 1/2/1
f 11/2/1 10/2/1 9/2/1
f 12/2/1 4/2/1 10/2/1
f 12/2/1 10/2/1 11/2/1
f 13/2/1 11/2/1 1/2/1
f 13/3/1 12/3/1 11/3/1
f 14/2/1 4/2/1 12/2/1
f 14/3/1 12/3/1 13/3/1
f 15/2/1 13/2/1 1/2/1
f 15/2/1 14/2/1 13/2/1
f 16/2/1 4/2/1 14/2/1
f 16/2/1 14/2/1 15/2/1
f 17/2/1 15/2/1 1/2/1
f 17/3/1 16/3/1 15/3/1
f 18/2/1 4/2/1 16/2/1
f 18/3/1 16/3/1 17/3/1
f 19/2/1 17/2/1 1/2/1
f 19/2/1 18/2/1 17/2/1
f 20/2/1 4/2/1 18/2/1
f 20/2/1 18/2/1 19/2/1
f 21/2/1 19/2/1 1/2/1
f 21/3/1 20/3/1 19/3/1
f 22/2/1 4/2/1 20/2/1
f 22/3/1 20/3/1 21/3/1
f 23/2/1 21/2/1 1/2/1
f 23/2/1 22/2/1 21/2/1
f 24/2/1 4/2/1 22/2/1
f 24/2/1 22/2/1 23/2/1
f 25/2/1 23/2/1 1/2/1
f 25/3/1 24/3/1 23/3/1
f 26/2/1 4/2/1 24/2/1
f 26/3/1 24/3/1 25/3/1
f 27/2/1 25/2/1 1/2/1
f 27/2/1 26/2/1 25/2/1
f 28/2/1 4/2/1 26/2/1
f 28/2/1 26/2/1 27/2/1
f 33/2/1 30/2/1 29/2/1
f 34/2/1 30/2/1 33/2/1
f 35/2/1 32/2/1 31/2/1
f 36/2/1 32/2/1 35/2/1
f 41/2/1 38/2/1 37/2/1
f 42/2/1 38/2/1 41/2/1
f 43/2/1 40/2/1 39/2/1
f 44/2/1 40/2/1 43/2/1
f 45/4/1 42/4/1 41/4/1
f 46/4/1 42/4/1 45/4/1
f 47/4/1 44/4/1 43/4/1
f 48/4/1 44/4/1 47/4/1
f 49/2/1 46/2/1 45/2/1
f 50/2/1 46/2/1 49/2/1
f 51/2/1 48/2/1 47/2/1
f 52/2/1 48/2/1 51/2/1
f 57/2/1 54/2/1 53/2/1
f 58/2/1 54/2/1 57/2/1
f 59/2/1 56/2/1 55/2/1
f 60/2/1 56/2/1 59/2/1
f 61/2/2 62/2/2 63/2/2
f 63/2/2 62/2/2 64/2/2
f 65/2/2 66/2/2 67/2/2
f 67/2/2 66/2/2 68/2/2
f 69/2/2 70/2/2 71/2/2
f 71/2/2 70/2/2 72/2/2
f 73/2/2 74/2/2 75/2/2
f 75/2/2 74/2/2 76/2/2
f 77/2/2 78/2/2 81/2/2
f 81/2/2 78/2/2 82/2/2
f 79/2/2 80/2/2 83/2/2
f 83/2/2 80/2/2 84/2/2
f 85/2/2 86/2/2 87/2/2
f 87/2/2 86/2/2 88/2/2
f 89/2/2 90/2/2 91/2/2
f 91/2/2 90/2/2 92/2/2
f 93/2/2 94/2/2 95/2/2
f 95/2/2 94/2/2 96/2/2
f 97/2/2 98/2/2 101/2/2
f 101/2/2 98/2/2 102/2/2
f 99/2/2 100/2/2 103/2/2
f 103/2/2 100/2/2 104/2/2
f 101/4/2 102/4/2 105/4/2
f 105/4/2 102/4/2 106/4/2
f 103/4/2 104/4/2 107/4/2
f 107/4/2 104/4/2 108/4/2
f 105/2/2 106/2/2 109/2/2
f 109/2/2 106/2/2 110/2/2
f 107/2/2 108/2/2 111/2/2
f 111/2/2 108/2/2 112/2/2
f 113/2/2 114/2/2 115/2/2
f 115/2/2 114/2/2 116/2/2
f 117/2/2 118/2/2 119/2/2
f 119/2/2 118/2/2 120/2/2
f 121/2/2 122/2/2 125/2/2
f 125/2/2 122/2/2 126/2/2
f 123/2/2 124/2/2 127/2/2
f 127/2/2 124/2/2 128/2/2
f 129/2/2 130/2/2 131/2/2
f 131/2/2 130/2/2 132/2/2
f 133/2/2 134/2/2 135/2/2
f 135/2/2 134/2/2 136/2/2
f 137/2/2 138/2/2 139/2/2
f 139/2/2 138/2/2 140/2/2
f 141/2/2 142/2/2 143/2/2
f 143/2/2 142/2/2 144/2/2
f 145/2/2 146/2/2 149/2/2
f 146/3/2 147/3/2 149/3/2
f 147/2/2 148/2/2 150/2/2
f 149/3/2 147/3/2 150/3/2
f 145/2/2 149/2/2 151/2/2
f 149/2/2 150/2/2 151/2/2
f 150/2/2 148/2/2 152/2/2
f 151/2/2 150/2/2 152/2/2
f 145/2/2 151/2/2 153/2/2
f 151/3/2 152/3/2 153/3/2
f 152/2/2 148/2/2 154/2/2
f 153/3/2 152/3/2 154/3/2
f 145/2/2 153/2/2 155/2/2
f 153/2/2 154/2/2 155/2/2
f 154/2/2 148/2/2 156/2/2
f 155/2/2 154/2/2 156/2/2
f 145/2/2 155/2/2 157/2/2
f 155/3/2 156/3/2 157/3/2
f 156/2/2 148/2/2 158/2/2
f 157/3/2 156/3/2 158/3/2
f 145/2/2 157/2/2 159/2/2
f 157/2/2 158/2/2 159/2/2
f 158/2/2 148/2/2 160/2/2
f 159/2/2 158/2/2 160/2/2
f 145/2/2 159/2/2 161/2/2
f 159/3/2 160/3/2 161/3/2
f 160/2/2 148/2/2 162/2/2
f 161/3/2 160/3/2 162/3/2
f 145/2/2 161/2/2 163/2/2
f 161/2/2 162/2/2 163/2/2
f 162/2/2 148/2/2 164/2/2
f 163/2/2 162/2/2 164/2/2
f 145/2/2 163/2/2 165/2/2
f 163/3/2 164/3/2 165/3/2
f 164/2/2 148/2/2 166/2/2
f 165/3/2 164/3/2 166/3/2
f 145/2/2 165/2/2 167/2/2
f 165/2/2 166/2/2 167/2/2
f 166/2/2 148/2/2 168/2/2
f 167/2/2 166/2/2 168/2/2
f 171/2/3 170/2/3 169/2/3
f 172/2/3 170/2/3 171/2/3
f 176/2/3 170/2/3 172/2/3
f 177/2/3 174/2/3 173/2/3
f 178/4/3 175/4/3 174/4/3
f 178/2/3 174/2/3 177/2/3
f 179/2/3 176/2/3 175/2/3
f 179/4/3 175/4/3 178/4/3
f 180/2/3 170/2/3 176/2/3
f 180/2/3 176/2/3 179/2/3
f 182/2/3 170/2/3 180/2/3
f 183/2/3 182/2/3 181/2/3
f 184/2/3 170/2/3 182/2/3
f 184/2/3 182/2/3 183/2/3
f 187/2/3 186/2/3 185/2/3
f 188/2/3 186/2/3 187/2/3
f 189/2/3 186/2/3 188/2/3
f 190/2/3 186/2/3 189/2/3
f 191/2/3 186/2/3 190/2/3
f 192/2/3 186/2/3 191/2/3
f 193/2/3 186/2/3 192/2/3
f 194/2/3 186/2/3 193/2/3
f 195/2/3 186/2/3 194/2/3
f 196/2/3 186/2/3 195/2/3
f 197/2/3 186/2/3 196/2/3
f 198/2/3 186/2/3 197/2/3
f 199/2/3 186/2/3 198/2/3
f 200/2/3 186/2/3 199/2/3
f 201/2/3 186/2/3 200/2/3
f 202/2/3 186/2/3 201/2/3
f 203/2/3 186/2/3 202/2/3
f 204/2/3 186/2/3 203/2/3
f 205/3/3 204/3/3 203/3/3
f 206/2/3 186/2/3 204/2/3
f 206/3/3 204/3/3 205/3/3
f 207/2/3 186/2/3 206/2/3
f 208/3/3 205/3/3 203/3/3
f 209/2/3 206/2/3 205/2/3
f 209/3/3 205/3/3 208/3/3
f 210/2/3 206/2/3 209/2/3
f 211/2/3 203/2/3 202/2/3
f 211/3/3 208/3/3 203/3/3
f 212/2/3 209/2/3 208/2/3
f 212/3/3 208/3/3 211/3/3
f 213/2/3 209/2/3 212/2/3
f 214/2/3 211/2/3 202/2/3
f 214/2/3 212/2/3 211/2/3
f 215/2/3 212/2/3 214/2/3
f 216/3/3 188/3/3 187/3/3
f 217/3/3 188/3/3 216/3/3
f 220/3/3 202/3/3 201/3/3
f 221/2/3 214/2/3 202/2/3
f 221/3/3 202/3/3 220/3/3
f 222/2/3 214/2/3 221/2/3
f 223/2/3 201/2/3 200/2/3
f 223/3/3 220/3/3 201/3/3
f 224/2/3 221/2/3 220/2/3
f 224/3/3 220/3/3 223/3/3
f 225/2/3 221/2/3 224/2/3
f 226/1/3 219/1/3 218/1/3
f 227/1/3 219/1/3 226/1/3
f 228/1/3 219/1/3 227/1/3
f 229/1/3 219/1/3 228/1/3
f 230/2/3 223/2/3 200/2/3
f 230/2/3 224/2/3 223/2/3
f 231/2/3 224/2/3 230/2/3
f 236/3/3 200/3/3 199/3/3
f 237/2/3 230/2/3 200/2/3
f 237/3/3 200/3/3 236/3/3
f 238/2/3 230/2/3 237/2/3
f 239/1/3 235/1/3 234/1/3
f 239/1/3 233/1/3 232/1/3
f 239/1/3 234/1/3 233/1/3
f 240/1/3 235/1/3 239/1/3
f 241/2/3 199/2/3 198/2/3
f 241/3/3 236/3/3 199/3/3
f 242/2/3 237/2/3 236/2/3
f 242/3/3 236/3/3 241/3/3
f 243/2/3 237/2/3 242/2/3
f 245/3/3 188/3/3 217/3/3
f 246/2/3 242/2/3 241/2/3
f 246/2/3 241/2/3 198/2/3
f 247/2/3 242/2/3 246/2/3
f 248/3/3 198/3/3 197/3/3
f 249/2/3 246/2/3 198/2/3
f 249/3/3 198/3/3 248/3/3
f 250/2/3 246/2/3 249/2/3
f 251/2/3 197/2/3 196/2/3
f 251/3/3 248/3/3 197/3/3
f 252/2/3 249/2/3 248/2/3
f 252/3/3 248/3/3 251/3/3
f 253/2/3 249/2/3 252/2/3
f 254/2/3 251/2/3 196/2/3
f 254/2/3 252/2/3 251/2/3
f 255/2/3 252/2/3 254/2/3
f 256/3/3 245/3/3 244/3/3
f 257/2/3 189/2/3 188/2/3
f 257/3/3 245/3/3 256/3/3
f 257/3/3 188/3/3 245/3/3
f 258/3/3 190/3/3 189/3/3
f 258/2/3 189/2/3 257/2/3
f 259/2/3 191/2/3 190/2/3
f 259/3/3 190/3/3 258/3/3
f 260/3/3 192/3/3 191/3/3
f 260/2/3 191/2/3 259/2/3
f 261/2/3 193/2/3 192/2/3
f 261/3/3 192/3/3 260/3/3
f 262/3/3 194/3/3 193/3/3
f 262/2/3 193/2/3 261/2/3
f 263/2/3 195/2/3 194/2/3
f 263/3/3 194/3/3 262/3/3
f 264/3/3 196/3/3 195/3/3
f 264/2/3 195/2/3 263/2/3
f 265/2/3 254/2/3 196/2/3
f 265/3/3 196/3/3 264/3/3
f 266/2/3 257/2/3 256/2/3
f 266/2/3 258/2/3 257/2/3
f 266/2/3 265/2/3 264/2/3
f 266/2/3 259/2/3 258/2/3
f 266/2/3 260/2/3 259/2/3
f 266/2/3 264/2/3 263/2/3
f 266/2/3 261/2/3 260/2/3
f 266/2/3 262/2/3 261/2/3
f 266/2/3 263/2/3 262/2/3
f 267/2/3 254/2/3 265/2/3
f 267/2/3 265/2/3 266/2/3
f 268/2/4 269/2/4 270/2/4
f 270/2/4 269/2/4 271/2/4
f 271/2/4 269/2/4 272/2/4
f 272/2/4 269/2/4 273/2/4
f 273/2/4 269/2/4 274/2/4
f 274/2/4 269/2/4 275/2/4
f 275/2/4 269/2/4 276/2/4
f 276/2/4 269/2/4 277/2/4
f 277/2/4 269/2/4 278/2/4
f 278/2/4 269/2/4 279/2/4
f 279/2/4 269/2/4 280/2/4
f 280/2/4 269/2/4 281/2/4
f 281/2/4 269/2/4 282/2/4
f 282/2/4 269/2/4 283/2/4
f 283/2/4 269/2/4 284/2/4
f 284/2/4 269/2/4 285/2/4
f 285/2/4 269/2/4 286/2/4
f 286/2/4 269/2/4 287/2/4
f 286/3/4 287/3/4 288/3/4
f 287/2/4 269/2/4 289/2/4
f 288/3/4 287/3/4 289/3/4
f 289/2/4 269/2/4 290/2/4
f 286/3/4 288/3/4 291/3/4
f 288/2/4 289/2/4 292/2/4
f 291/3/4 288/3/4 292/3/4
f 292/2/4 289/2/4 293/2/4
f 285/2/4 286/2/4 294/2/4
f 286/3/4 291/3/4 294/3/4
f 291/2/4 292/2/4 295/2/4
f 294/3/4 291/3/4 295/3/4
f 295/2/4 292/2/4 296/2/4
f 285/2/4 294/2/4 297/2/4
f 294/2/4 295/2/4 297/2/4
f 297/2/4 295/2/4 298/2/4
f 270/3/4 271/3/4 299/3/4
f 299/3/4 271/3/4 300/3/4
f 284/3/4 285/3/4 303/3/4
f 285/2/4 297/2/4 304/2/4
f 303/3/4 285/3/4 304/3/4
f 304/2/4 297/2/4 305/2/4
f 283/2/4 284/2/4 306/2/4
f 284/3/4 303/3/4 306/3/4
f 303/2/4 304/2/4 307/2/4
f 306/3/4 303/3/4 307/3/4
f 307/2/4 304/2/4 308/2/4
f 301/1/4 302/1/4 309/1/4
f 309/1/4 302/1/4 310/1/4
f 310/1/4 302/1/4 311/1/4
f 311/1/4 302/1/4 312/1/4
f 283/2/4 306/2/4 313/2/4
f 306/2/4 307/2/4 313/2/4
f 313/2/4 307/2/4 314/2/4
f 282/3/4 283/3/4 319/3/4
f 283/2/4 313/2/4 320/2/4
f 319/3/4 283/3/4 320/3/4
f 320/2/4 313/2/4 321/2/4
f 317/1/4 318/1/4 322/1/4
f 315/1/4 316/1/4 322/1/4
f 316/1/4 317/1/4 322/1/4
f 322/1/4 318/1/4 323/1/4
f 281/2/4 282/2/4 324/2/4
f 282/3/4 319/3/4 324/3/4
f 319/2/4 320/2/4 325/2/4
f 324/3/4 319/3/4 325/3/4
f 325/2/4 320/2/4 326/2/4
f 300/3/4 271/3/4 328/3/4
f 324/2/4 325/2/4 329/2/4
f 281/2/4 324/2/4 329/2/4
f 329/2/4 325/2/4 330/2/4
f 280/3/4 281/3/4 331/3/4
f 281/2/4 329/2/4 332/2/4
f 331/3/4 281/3/4 332/3/4
f 332/2/4 329/2/4 333/2/4
f 279/2/4 280/2/4 334/2/4
f 280/3/4 331/3/4 334/3/4
f 331/2/4 332/2/4 335/2/4
f 334/3/4 331/3/4 335/3/4
f 335/2/4 332/2/4 336/2/4
f 279/2/4 334/2/4 337/2/4
f 334/2/4 335/2/4 337/2/4
f 337/2/4 335/2/4 338/2/4
f 327/3/4 328/3/4 339/3/4
f 271/2/4 272/2/4 340/2/4
f 339/3/4 328/3/4 340/3/4
f 328/3/4 271/3/4 340/3/4
f 272/3/4 273/3/4 341/3/4
f 340/2/4 272/2/4 341/2/4
f 273/2/4 274/2/4 342/2/4
f 341/3/4 273/3/4 342/3/4
f 274/3/4 275/3/4 343/3/4
f 342/2/4 274/2/4 343/2/4
f 275/2/4 276/2/4 344/2/4
f 343/3/4 275/3/4 344/3/4
f 276/3/4 277/3/4 345/3/4
f 344/2/4 276/2/4 345/2/4
f 277/2/4 278/2/4 346/2/4
f 345/3/4 277/3/4 346/3/4
f 278/3/4 279/3/4 347/3/4
f 346/2/4 278/2/4 347/2/4
f 279/2/4 337/2/4 348/2/4
f 347/3/4 279/3/4 348/3/4
f 339/2/4 340/2/4 349/2/4
f 340/2/4 341/2/4 349/2/4
f 347/2/4 348/2/4 349/2/4
f 341/2/4 342/2/4 349/2/4
f 342/2/4 343/2/4 349/2/4
f 346/2/4 347/2/4 349/2/4
f 343/2/4 344/2/4 349/2/4
f 344/2/4 345/2/4 349/2/4
f 345/2/4 346/2/4 349/2/4
f 348/2/4 337/2/4 350/2/4
f 349/2/4 348/2/4 350/2/4
f 351/2/4 352/2/4 353/2/4
f 353/2/4 352/2/4 354/2/4
f 354/2/4 352/2/4 358/2/4
f 355/2/4 356/2/4 359/2/4
f 356/4/4 357/4/4 360/4/4
f 359/2/4 356/2/4 360/2/4
f 357/2/4 358/2/4 361/2/4
f 360/4/4 357/4/4 361/4/4
f 358/2/4 352/2/4 362/2/4
f 361/2/4 358/2/4 362/2/4
f 362/2/4 352/2/4 364/2/4
f 363/2/4 364/2/4 365/2/4
f 364/2/4 352/2/4 366/2/4
f 365/2/4 364/2/4 366/2/4
f 375/2/5 368/2/5 367/2/5
f 376/2/5 368/2/5 375/2/5
f 377/2/5 370/2/5 369/2/5
f 378/2/5 370/2/5 377/2/5
f 379/2/5 372/2/5 371/2/5
f 380/2/5 372/2/5 379/2/5
f 383/2/5 374/2/5 373/2/5
f 384/3/5 376/3/5 375/3/5
f 384/2/5 374/2/5 383/2/5
f 384/3/5 375/3/5 374/3/5
f 385/1/5 378/1/5 377/1/5
f 385/3/5 376/3/5 384/3/5
f 385/1/5 377/1/5 376/1/5
f 385/1/5 379/1/5 378/1/5
f 386/3/5 381/3/5 380/3/5
f 386/1/5 379/1/5 385/1/5
f 386/3/5 380/3/5 379/3/5
f 387/2/5 382/2/5 381/2/5
f 387/3/5 381/3/5 386/3/5
f 388/2/5 382/2/5 387/2/5
f 389/3/5 386/3/5 385/3/5
f 389/3/5 384/3/5 383/3/5
f 389/3/5 388/3/5 387/3/5
f 389/3/5 387/3/5 386/3/5
f 389/3/5 385/3/5 384/3/5
f 390/3/5 388/3/5 389/3/5
f 391/3/5 388/3/5 390/3/5
f 392/3/5 388/3/5 391/3/5
f 393/3/5 388/3/5 392/3/5
f 394/3/5 388/3/5 393/3/5
f 395/2/5 390/2/5 389/2/5
f 396/3/5 391/3/5 390/3/5
f 396/2/5 390/2/5 395/2/5
f 397/3/5 391/3/5 396/3/5
f 398/1/5 392/1/5 391/1/5
f 398/3/5 391/3/5 397/3/5
f 399/1/5 392/1/5 398/1/5
f 400/1/5 392/1/5 399/1/5
f 401/3/5 393/3/5 392/3/5
f 401/1/5 392/1/5 400/1/5
f 402/3/5 393/3/5 401/3/5
f 403/2/5 394/2/5 393/2/5
f 403/3/5 393/3/5 402/3/5
f 404/2/5 394/2/5 403/2/5
f 405/2/5 398/2/5 397/2/5
f 406/2/5 398/2/5 405/2/5
f 407/2/5 400/2/5 399/2/5
f 408/2/5 400/2/5 407/2/5
f 409/2/5 402/2/5 401/2/5
f 410/2/5 402/2/5 409/2/5
f 415/2/5 412/2/5 411/2/5
f 416/2/5 412/2/5 415/2/5
f 417/2/5 414/2/5 413/2/5
f 418/2/5 414/2/5 417/2/5
f 423/2/5 420/2/5 419/2/5
f 424/2/5 420/2/5 423/2/5
f 425/2/5 422/2/5 421/2/5
f 426/2/5 422/2/5 425/2/5
f 427/2/6 428/2/6 429/2/6
f 429/2/6 428/2/6 430/2/6
f 431/2/6 432/2/6 433/2/6
f 433/2/6 432/2/6 434/2/6
f 435/2/6 436/2/6 437/2/6
f 437/2/6 436/2/6 438/2/6
f 439/2/6 440/2/6 441/2/6
f 441/2/6 440/2/6 442/2/6
f 443/2/6 444/2/6 445/2/6
f 445/2/6 444/2/6 446/2/6
f 447/2/6 448/2/6 449/2/6
f 449/2/6 448/2/6 450/2/6
f 451/2/6 452/2/6 453/2/6
f 453/2/6 452/2/6 454/2/6
f 455/2/6 456/2/6 457/2/6
f 457/2/6 456/2/6 458/2/6
f 459/2/6 460/2/6 461/2/6
f 461/2/6 460/2/6 462/2/6
f 463/2/6 464/2/6 465/2/6
f 465/2/6 464/2/6 466/2/6
f 467/2/6 468/2/6 469/2/6
f 469/2/6 468/2/6 470/2/6
f 471/2/6 472/2/6 473/2/6
f 473/2/6 472/2/6 474/2/6
f 475/2/6 476/2/6 477/2/6
f 477/2/6 476/2/6 478/2/6
f 479/2/6 480/2/6 481/2/6
f 481/2/6 480/2/6 482/2/6
f 483/2/6 484/2/6 485/2/6
f 485/2/6 484/2/6 486/2/6
f 487/2/6 488/2/6 489/2/6
f 489/2/6 488/2/6 490/2/6
