# MagicaVoxel @ Ephtracy

# group
o Clear

# material
mtllib Cupboard_1-4-Clear.mtl
usemtl palette

# normals
vn -1 0 0
vn 1 0 0
vn 0 0 1
vn 0 0 -1
vn 0 -1 0
vn 0 1 0

# texcoords
vt 0.302734 0.5
vt 0.341797 0.5

# verts
v -0.5 0 2.1
v -0.5 0 -2.2
v -0.5 1.1 2.1
v -0.5 1.1 -2.2
v -0.5 3.2 2.1
v -0.5 3.2 -2.2
v -0.4 0.1 2
v -0.4 0.1 0.8
v -0.4 0.1 0.7
v -0.4 0.1 -0.6
v -0.4 0.1 -0.7
v -0.4 0.1 -2.1
v -0.4 1 2
v -0.4 1 0.8
v -0.4 1 0.7
v -0.4 1 -0.6
v -0.4 1 -0.7
v -0.4 1 -2.1
v -0.4 1.2 2
v -0.4 1.2 0.7
v -0.4 1.2 0.6
v -0.4 1.2 -0.4
v -0.4 1.2 -0.5
v -0.4 1.2 -2.1
v -0.4 2.1 2
v -0.4 2.1 0.7
v -0.4 2.1 0.6
v -0.4 2.1 -0.4
v -0.4 2.1 -0.5
v -0.4 2.1 -2.1
v -0.4 2.2 2
v -0.4 2.2 0.2
v -0.4 2.2 0.1
v -0.4 2.2 -1.3
v -0.4 2.2 -1.4
v -0.4 2.2 -2.1
v -0.4 3.1 2
v -0.4 3.1 0.2
v -0.4 3.1 0.1
v -0.4 3.1 -1.3
v -0.4 3.1 -1.4
v -0.4 3.1 -2.1
v 0.5 0 2.1
v 0.5 0 -2.2
v 0.5 0.1 2
v 0.5 0.1 0.8
v 0.5 0.1 0.7
v 0.5 0.1 -0.6
v 0.5 0.1 -0.7
v 0.5 0.1 -2.1
v 0.5 1 2
v 0.5 1 0.8
v 0.5 1 0.7
v 0.5 1 -0.6
v 0.5 1 -0.7
v 0.5 1 -2.1
v 0.5 1.1 2.1
v 0.5 1.1 -2.2
v 0.5 1.2 2
v 0.5 1.2 0.7
v 0.5 1.2 0.6
v 0.5 1.2 -0.4
v 0.5 1.2 -0.5
v 0.5 1.2 -2.1
v 0.5 2.1 2
v 0.5 2.1 0.7
v 0.5 2.1 0.6
v 0.5 2.1 -0.4
v 0.5 2.1 -0.5
v 0.5 2.1 -2.1
v 0.5 2.2 2
v 0.5 2.2 0.2
v 0.5 2.2 0.1
v 0.5 2.2 -1.3
v 0.5 2.2 -1.4
v 0.5 2.2 -2.1
v 0.5 3.1 2
v 0.5 3.1 0.2
v 0.5 3.1 0.1
v 0.5 3.1 -1.3
v 0.5 3.1 -1.4
v 0.5 3.1 -2.1
v 0.5 3.2 2.1
v 0.5 3.2 -2.2
v -0.5 0 2.1
v -0.5 1.1 2.1
v -0.5 3.2 2.1
v 0.5 0 2.1
v 0.5 1.1 2.1
v 0.5 3.2 2.1
v -0.4 0.1 0.8
v -0.4 1 0.8
v 0.5 0.1 0.8
v 0.5 1 0.8
v -0.4 1.2 0.7
v -0.4 2.1 0.7
v 0.5 1.2 0.7
v 0.5 2.1 0.7
v -0.4 2.2 0.2
v -0.4 3.1 0.2
v 0.5 2.2 0.2
v 0.5 3.1 0.2
v -0.4 1.2 -0.4
v -0.4 2.1 -0.4
v 0.5 1.2 -0.4
v 0.5 2.1 -0.4
v -0.4 0.1 -0.6
v -0.4 1 -0.6
v 0.5 0.1 -0.6
v 0.5 1 -0.6
v -0.4 2.2 -1.3
v -0.4 3.1 -1.3
v 0.5 2.2 -1.3
v 0.5 3.1 -1.3
v -0.4 0.1 -2.1
v -0.4 1 -2.1
v -0.4 1.2 -2.1
v -0.4 2.1 -2.1
v -0.4 2.2 -2.1
v -0.4 3.1 -2.1
v 0.5 0.1 -2.1
v 0.5 1 -2.1
v 0.5 1.2 -2.1
v 0.5 2.1 -2.1
v 0.5 2.2 -2.1
v 0.5 3.1 -2.1
v -0.4 0.1 2
v -0.4 1 2
v -0.4 1.2 2
v -0.4 2.1 2
v -0.4 2.2 2
v -0.4 3.1 2
v 0.5 0.1 2
v 0.5 1 2
v 0.5 1.2 2
v 0.5 2.1 2
v 0.5 2.2 2
v 0.5 3.1 2
v -0.4 0.1 0.7
v -0.4 1 0.7
v 0.5 0.1 0.7
v 0.5 1 0.7
v -0.4 1.2 0.6
v -0.4 2.1 0.6
v 0.5 1.2 0.6
v 0.5 2.1 0.6
v -0.4 2.2 0.1
v -0.4 3.1 0.1
v 0.5 2.2 0.1
v 0.5 3.1 0.1
v -0.4 1.2 -0.5
v -0.4 2.1 -0.5
v 0.5 1.2 -0.5
v 0.5 2.1 -0.5
v -0.4 0.1 -0.7
v -0.4 1 -0.7
v 0.5 0.1 -0.7
v 0.5 1 -0.7
v -0.4 2.2 -1.4
v -0.4 3.1 -1.4
v 0.5 2.2 -1.4
v 0.5 3.1 -1.4
v -0.5 0 -2.2
v -0.5 1.1 -2.2
v -0.5 3.2 -2.2
v 0.5 0 -2.2
v 0.5 1.1 -2.2
v 0.5 3.2 -2.2
v -0.5 0 2.1
v 0.5 0 2.1
v -0.5 0 -2.2
v 0.5 0 -2.2
v -0.4 1 2
v 0.5 1 2
v -0.4 1 0.8
v 0.5 1 0.8
v -0.4 1 0.7
v 0.5 1 0.7
v -0.4 1 -0.6
v 0.5 1 -0.6
v -0.4 1 -0.7
v 0.5 1 -0.7
v -0.4 1 -2.1
v 0.5 1 -2.1
v -0.4 2.1 2
v 0.5 2.1 2
v -0.4 2.1 0.7
v 0.5 2.1 0.7
v -0.4 2.1 0.6
v 0.5 2.1 0.6
v -0.4 2.1 -0.4
v 0.5 2.1 -0.4
v -0.4 2.1 -0.5
v 0.5 2.1 -0.5
v -0.4 2.1 -2.1
v 0.5 2.1 -2.1
v -0.4 3.1 2
v 0.5 3.1 2
v -0.4 3.1 0.2
v 0.5 3.1 0.2
v -0.4 3.1 0.1
v 0.5 3.1 0.1
v -0.4 3.1 -1.3
v 0.5 3.1 -1.3
v -0.4 3.1 -1.4
v 0.5 3.1 -1.4
v -0.4 3.1 -2.1
v 0.5 3.1 -2.1
v -0.4 0.1 2
v 0.5 0.1 2
v -0.4 0.1 0.8
v 0.5 0.1 0.8
v -0.4 0.1 0.7
v 0.5 0.1 0.7
v -0.4 0.1 -0.6
v 0.5 0.1 -0.6
v -0.4 0.1 -0.7
v 0.5 0.1 -0.7
v -0.4 0.1 -2.1
v 0.5 0.1 -2.1
v -0.4 1.2 2
v 0.5 1.2 2
v -0.4 1.2 0.7
v 0.5 1.2 0.7
v -0.4 1.2 0.6
v 0.5 1.2 0.6
v -0.4 1.2 -0.4
v 0.5 1.2 -0.4
v -0.4 1.2 -0.5
v 0.5 1.2 -0.5
v -0.4 1.2 -2.1
v 0.5 1.2 -2.1
v -0.4 2.2 2
v 0.5 2.2 2
v -0.4 2.2 0.2
v 0.5 2.2 0.2
v -0.4 2.2 0.1
v 0.5 2.2 0.1
v -0.4 2.2 -1.3
v 0.5 2.2 -1.3
v -0.4 2.2 -1.4
v 0.5 2.2 -1.4
v -0.4 2.2 -2.1
v 0.5 2.2 -2.1
v -0.5 3.2 2.1
v 0.5 3.2 2.1
v -0.5 3.2 -2.2
v 0.5 3.2 -2.2

# faces
f 3/1/1 2/1/1 1/1/1
f 4/1/1 2/1/1 3/1/1
f 5/2/1 4/2/1 3/2/1
f 6/2/1 4/2/1 5/2/1
f 7/1/2 8/1/2 13/1/2
f 13/1/2 8/1/2 14/1/2
f 9/1/2 10/1/2 15/1/2
f 15/1/2 10/1/2 16/1/2
f 11/1/2 12/1/2 17/1/2
f 17/1/2 12/1/2 18/1/2
f 19/2/2 20/2/2 25/2/2
f 25/2/2 20/2/2 26/2/2
f 21/2/2 22/2/2 27/2/2
f 27/2/2 22/2/2 28/2/2
f 23/2/2 24/2/2 29/2/2
f 29/2/2 24/2/2 30/2/2
f 31/2/2 32/2/2 37/2/2
f 37/2/2 32/2/2 38/2/2
f 33/2/2 34/2/2 39/2/2
f 39/2/2 34/2/2 40/2/2
f 35/2/2 36/2/2 41/2/2
f 41/2/2 36/2/2 42/2/2
f 43/1/2 44/1/2 45/1/2
f 45/1/2 44/1/2 46/1/2
f 46/1/2 44/1/2 47/1/2
f 47/1/2 44/1/2 48/1/2
f 48/1/2 44/1/2 49/1/2
f 49/1/2 44/1/2 50/1/2
f 43/1/2 45/1/2 51/1/2
f 46/1/2 47/1/2 52/1/2
f 52/1/2 47/1/2 53/1/2
f 48/1/2 49/1/2 54/1/2
f 54/1/2 49/1/2 55/1/2
f 50/1/2 44/1/2 56/1/2
f 54/1/2 55/1/2 57/1/2
f 55/1/2 56/1/2 57/1/2
f 52/1/2 53/1/2 57/1/2
f 43/1/2 51/1/2 57/1/2
f 53/1/2 54/1/2 57/1/2
f 51/1/2 52/1/2 57/1/2
f 56/1/2 44/1/2 58/1/2
f 57/1/2 56/1/2 58/1/2
f 57/2/2 58/2/2 59/2/2
f 59/2/2 58/2/2 60/2/2
f 60/2/2 58/2/2 61/2/2
f 61/2/2 58/2/2 62/2/2
f 62/2/2 58/2/2 63/2/2
f 63/2/2 58/2/2 64/2/2
f 57/2/2 59/2/2 65/2/2
f 60/2/2 61/2/2 66/2/2
f 66/2/2 61/2/2 67/2/2
f 62/2/2 63/2/2 68/2/2
f 68/2/2 63/2/2 69/2/2
f 64/2/2 58/2/2 70/2/2
f 68/2/2 69/2/2 71/2/2
f 69/2/2 70/2/2 71/2/2
f 66/2/2 67/2/2 71/2/2
f 57/2/2 65/2/2 71/2/2
f 67/2/2 68/2/2 71/2/2
f 65/2/2 66/2/2 71/2/2
f 71/2/2 70/2/2 72/2/2
f 72/2/2 70/2/2 73/2/2
f 73/2/2 70/2/2 74/2/2
f 74/2/2 70/2/2 75/2/2
f 70/2/2 58/2/2 76/2/2
f 75/2/2 70/2/2 76/2/2
f 57/2/2 71/2/2 77/2/2
f 72/2/2 73/2/2 78/2/2
f 78/2/2 73/2/2 79/2/2
f 74/2/2 75/2/2 80/2/2
f 80/2/2 75/2/2 81/2/2
f 76/2/2 58/2/2 82/2/2
f 78/2/2 79/2/2 83/2/2
f 81/2/2 82/2/2 83/2/2
f 80/2/2 81/2/2 83/2/2
f 57/2/2 77/2/2 83/2/2
f 79/2/2 80/2/2 83/2/2
f 77/2/2 78/2/2 83/2/2
f 82/2/2 58/2/2 84/2/2
f 83/2/2 82/2/2 84/2/2
f 88/1/3 86/1/3 85/1/3
f 89/2/3 87/2/3 86/2/3
f 89/1/3 86/1/3 88/1/3
f 90/2/3 87/2/3 89/2/3
f 93/1/3 92/1/3 91/1/3
f 94/1/3 92/1/3 93/1/3
f 97/2/3 96/2/3 95/2/3
f 98/2/3 96/2/3 97/2/3
f 101/2/3 100/2/3 99/2/3
f 102/2/3 100/2/3 101/2/3
f 105/2/3 104/2/3 103/2/3
f 106/2/3 104/2/3 105/2/3
f 109/1/3 108/1/3 107/1/3
f 110/1/3 108/1/3 109/1/3
f 113/2/3 112/2/3 111/2/3
f 114/2/3 112/2/3 113/2/3
f 121/1/3 116/1/3 115/1/3
f 122/1/3 116/1/3 121/1/3
f 123/2/3 118/2/3 117/2/3
f 124/2/3 118/2/3 123/2/3
f 125/2/3 120/2/3 119/2/3
f 126/2/3 120/2/3 125/2/3
f 127/1/4 128/1/4 133/1/4
f 133/1/4 128/1/4 134/1/4
f 129/2/4 130/2/4 135/2/4
f 135/2/4 130/2/4 136/2/4
f 131/2/4 132/2/4 137/2/4
f 137/2/4 132/2/4 138/2/4
f 139/1/4 140/1/4 141/1/4
f 141/1/4 140/1/4 142/1/4
f 143/2/4 144/2/4 145/2/4
f 145/2/4 144/2/4 146/2/4
f 147/2/4 148/2/4 149/2/4
f 149/2/4 148/2/4 150/2/4
f 151/2/4 152/2/4 153/2/4
f 153/2/4 152/2/4 154/2/4
f 155/1/4 156/1/4 157/1/4
f 157/1/4 156/1/4 158/1/4
f 159/2/4 160/2/4 161/2/4
f 161/2/4 160/2/4 162/2/4
f 163/1/4 164/1/4 166/1/4
f 164/2/4 165/2/4 167/2/4
f 166/1/4 164/1/4 167/1/4
f 167/2/4 165/2/4 168/2/4
f 171/1/5 170/1/5 169/1/5
f 172/1/5 170/1/5 171/1/5
f 175/1/5 174/1/5 173/1/5
f 176/1/5 174/1/5 175/1/5
f 179/1/5 178/1/5 177/1/5
f 180/1/5 178/1/5 179/1/5
f 183/1/5 182/1/5 181/1/5
f 184/1/5 182/1/5 183/1/5
f 187/2/5 186/2/5 185/2/5
f 188/2/5 186/2/5 187/2/5
f 191/2/5 190/2/5 189/2/5
f 192/2/5 190/2/5 191/2/5
f 195/2/5 194/2/5 193/2/5
f 196/2/5 194/2/5 195/2/5
f 199/2/5 198/2/5 197/2/5
f 200/2/5 198/2/5 199/2/5
f 203/2/5 202/2/5 201/2/5
f 204/2/5 202/2/5 203/2/5
f 207/2/5 206/2/5 205/2/5
f 208/2/5 206/2/5 207/2/5
f 209/1/6 210/1/6 211/1/6
f 211/1/6 210/1/6 212/1/6
f 213/1/6 214/1/6 215/1/6
f 215/1/6 214/1/6 216/1/6
f 217/1/6 218/1/6 219/1/6
f 219/1/6 218/1/6 220/1/6
f 221/2/6 222/2/6 223/2/6
f 223/2/6 222/2/6 224/2/6
f 225/2/6 226/2/6 227/2/6
f 227/2/6 226/2/6 228/2/6
f 229/2/6 230/2/6 231/2/6
f 231/2/6 230/2/6 232/2/6
f 233/2/6 234/2/6 235/2/6
f 235/2/6 234/2/6 236/2/6
f 237/2/6 238/2/6 239/2/6
f 239/2/6 238/2/6 240/2/6
f 241/2/6 242/2/6 243/2/6
f 243/2/6 242/2/6 244/2/6
f 245/2/6 246/2/6 247/2/6
f 247/2/6 246/2/6 248/2/6
