# MagicaVoxel @ Ephtracy

# group
o Box3

# material
mtllib Cupboard_1-2-Box3.mtl
usemtl palette

# normals
vn -1 0 0
vn 1 0 0
vn 0 0 1
vn 0 0 -1
vn 0 -1 0
vn 0 1 0

# texcoords
vt 0.302734 0.5
vt 0.310547 0.5
vt 0.990234 0.5

# verts
v -0.5 0 0.6
v -0.5 0 -0.6
v -0.5 0.8 0.6
v -0.5 0.8 -0.6
v 0.3 0 0.7
v 0.3 0 0.6
v 0.3 0 -0.6
v 0.3 0 -0.7
v 0.3 0.1 0.5
v 0.3 0.1 -0.5
v 0.3 0.8 0.6
v 0.3 0.8 0.5
v 0.3 0.8 -0.5
v 0.3 0.8 -0.6
v 0.3 0.9 0.7
v 0.3 0.9 -0.7
v -0.4 0.1 0.5
v -0.4 0.1 -0.5
v -0.4 0.8 0.5
v -0.4 0.8 -0.5
v 0.4 0 0.7
v 0.4 0 -0.7
v 0.4 0.3 0.1
v 0.4 0.3 -0.1
v 0.4 0.5 0.1
v 0.4 0.5 -0.1
v 0.4 0.9 0.7
v 0.4 0.9 -0.7
v 0.5 0.3 0.1
v 0.5 0.3 -0.1
v 0.5 0.5 0.1
v 0.5 0.5 -0.1
v 0.3 0 0.7
v 0.3 0.9 0.7
v 0.4 0 0.7
v 0.4 0.9 0.7
v -0.5 0 0.6
v -0.5 0.8 0.6
v 0.3 0 0.6
v 0.3 0.8 0.6
v 0.4 0.3 0.1
v 0.4 0.5 0.1
v 0.5 0.3 0.1
v 0.5 0.5 0.1
v -0.4 0.1 -0.5
v -0.4 0.8 -0.5
v 0.3 0.1 -0.5
v 0.3 0.8 -0.5
v -0.4 0.1 0.5
v -0.4 0.8 0.5
v 0.3 0.1 0.5
v 0.3 0.8 0.5
v 0.4 0.3 -0.1
v 0.4 0.5 -0.1
v 0.5 0.3 -0.1
v 0.5 0.5 -0.1
v -0.5 0 -0.6
v -0.5 0.8 -0.6
v 0.3 0 -0.6
v 0.3 0.8 -0.6
v 0.3 0 -0.7
v 0.3 0.9 -0.7
v 0.4 0 -0.7
v 0.4 0.9 -0.7
v 0.3 0 0.7
v 0.4 0 0.7
v -0.5 0 0.6
v 0.3 0 0.6
v -0.5 0 -0.6
v 0.3 0 -0.6
v 0.3 0 -0.7
v 0.4 0 -0.7
v 0.4 0.3 0.1
v 0.5 0.3 0.1
v 0.4 0.3 -0.1
v 0.5 0.3 -0.1
v -0.4 0.1 0.5
v 0.3 0.1 0.5
v -0.4 0.1 -0.5
v 0.3 0.1 -0.5
v 0.4 0.5 0.1
v 0.5 0.5 0.1
v 0.4 0.5 -0.1
v 0.5 0.5 -0.1
v -0.5 0.8 0.6
v 0.3 0.8 0.6
v -0.4 0.8 0.5
v 0.3 0.8 0.5
v -0.4 0.8 -0.5
v 0.3 0.8 -0.5
v -0.5 0.8 -0.6
v 0.3 0.8 -0.6
v 0.3 0.9 0.7
v 0.4 0.9 0.7
v 0.3 0.9 -0.7
v 0.4 0.9 -0.7

# faces
f 3/3/1 2/3/1 1/3/1
f 4/3/1 2/3/1 3/3/1
f 11/2/1 6/2/1 5/2/1
f 12/2/1 10/2/1 9/2/1
f 13/2/1 10/2/1 12/2/1
f 14/2/1 8/2/1 7/2/1
f 15/2/1 11/2/1 5/2/1
f 15/2/1 14/2/1 13/2/1
f 15/2/1 13/2/1 12/2/1
f 15/2/1 12/2/1 11/2/1
f 16/2/1 8/2/1 14/2/1
f 16/2/1 14/2/1 15/2/1
f 17/3/2 18/3/2 19/3/2
f 19/3/2 18/3/2 20/3/2
f 21/2/2 22/2/2 23/2/2
f 23/2/2 22/2/2 24/2/2
f 21/2/2 23/2/2 25/2/2
f 24/2/2 22/2/2 26/2/2
f 21/2/2 25/2/2 27/2/2
f 25/2/2 26/2/2 27/2/2
f 26/2/2 22/2/2 28/2/2
f 27/2/2 26/2/2 28/2/2
f 29/1/2 30/1/2 31/1/2
f 31/1/2 30/1/2 32/1/2
f 35/2/3 34/2/3 33/2/3
f 36/2/3 34/2/3 35/2/3
f 39/3/3 38/3/3 37/3/3
f 40/3/3 38/3/3 39/3/3
f 43/1/3 42/1/3 41/1/3
f 44/1/3 42/1/3 43/1/3
f 47/3/3 46/3/3 45/3/3
f 48/3/3 46/3/3 47/3/3
f 49/3/4 50/3/4 51/3/4
f 51/3/4 50/3/4 52/3/4
f 53/1/4 54/1/4 55/1/4
f 55/1/4 54/1/4 56/1/4
f 57/3/4 58/3/4 59/3/4
f 59/3/4 58/3/4 60/3/4
f 61/2/4 62/2/4 63/2/4
f 63/2/4 62/2/4 64/2/4
f 68/2/5 66/2/5 65/2/5
f 69/3/5 68/3/5 67/3/5
f 70/2/5 66/2/5 68/2/5
f 70/3/5 68/3/5 69/3/5
f 71/2/5 66/2/5 70/2/5
f 72/2/5 66/2/5 71/2/5
f 75/1/5 74/1/5 73/1/5
f 76/1/5 74/1/5 75/1/5
f 77/3/6 78/3/6 79/3/6
f 79/3/6 78/3/6 80/3/6
f 81/1/6 82/1/6 83/1/6
f 83/1/6 82/1/6 84/1/6
f 85/3/6 86/3/6 87/3/6
f 87/3/6 86/3/6 88/3/6
f 85/3/6 87/3/6 89/3/6
f 85/3/6 89/3/6 91/3/6
f 89/3/6 90/3/6 91/3/6
f 91/3/6 90/3/6 92/3/6
f 93/2/6 94/2/6 95/2/6
f 95/2/6 94/2/6 96/2/6
