# MagicaVoxel @ Ephtracy

# group
o 

# material
mtllib letrero.mtl
usemtl palette

# normals
vn -1 0 0
vn 1 0 0
vn 0 0 1
vn 0 0 -1
vn 0 -1 0
vn 0 1 0

# texcoords
vt 0.958984 0.5
vt 0.966797 0.5
vt 0.990234 0.5

# verts
v -1.6 4 0.2
v -1.6 4 -0.4
v -1.6 5.9 0.2
v -1.6 5.9 -0.4
v -0.5 0 0.4
v -0.5 0 -0.6
v -0.5 0.1 0.4
v -0.5 0.1 -0.6
v -0.2 0.1 0.1
v -0.2 0.1 -0.3
v -0.2 4 0.1
v -0.2 4 -0.3
v 0.6 0.1 0.1
v 0.6 0.1 -0.3
v 0.6 4 0.1
v 0.6 4 -0.3
v 0.9 0 0.4
v 0.9 0 -0.6
v 0.9 0.1 0.4
v 0.9 0.1 -0.6
v 2 4 0.2
v 2 4 -0.4
v 2 5.9 0.2
v 2 5.9 -0.4
v -0.5 0 0.4
v -0.5 0.1 0.4
v 0.9 0 0.4
v 0.9 0.1 0.4
v -1.6 4 0.2
v -1.6 5.9 0.2
v -1.5 4.2 0.2
v -1.5 5.7 0.2
v -1 4.4 0.2
v -1 5.5 0.2
v -0.8 4.4 0.2
v -0.8 4.8 0.2
v -0.8 5 0.2
v -0.8 5.3 0.2
v -0.6 4.8 0.2
v -0.6 5 0.2
v -0.4 5.3 0.2
v -0.4 5.5 0.2
v -0.3 4.4 0.2
v -0.3 5.5 0.2
v -0.1 4.4 0.2
v -0.1 5.5 0.2
v 0.1 4.4 0.2
v 0.1 5.5 0.2
v 0.3 4.6 0.2
v 0.3 5.5 0.2
v 0.6 4.4 0.2
v 0.6 4.6 0.2
v 0.7 4.4 0.2
v 0.7 5.3 0.2
v 0.8 5.3 0.2
v 0.8 5.5 0.2
v 0.9 4.4 0.2
v 0.9 4.8 0.2
v 0.9 5 0.2
v 0.9 5.2 0.2
v 1 5.2 0.2
v 1 5.4 0.2
v 1.1 5.2 0.2
v 1.1 5.4 0.2
v 1.2 4.4 0.2
v 1.2 4.8 0.2
v 1.2 5 0.2
v 1.2 5.2 0.2
v 1.3 5.2 0.2
v 1.3 5.5 0.2
v 1.4 4.4 0.2
v 1.4 5.2 0.2
v 1.8 4.2 0.2
v 1.8 5.7 0.2
v 2 4 0.2
v 2 5.9 0.2
v -0.2 0.1 0.1
v -0.2 4 0.1
v 0.6 0.1 0.1
v 0.6 4 0.1
v -0.2 0.1 -0.3
v -0.2 4 -0.3
v 0.6 0.1 -0.3
v 0.6 4 -0.3
v -1.6 4 -0.4
v -1.6 5.9 -0.4
v -1.5 4.1 -0.4
v -1.5 5.8 -0.4
v 1.9 4.1 -0.4
v 1.9 5.8 -0.4
v 2 4 -0.4
v 2 5.9 -0.4
v -0.5 0 -0.6
v -0.5 0.1 -0.6
v 0.9 0 -0.6
v 0.9 0.1 -0.6
v -0.5 0 0.4
v 0.9 0 0.4
v -0.5 0 -0.6
v 0.9 0 -0.6
v -1.6 4 0.2
v 2 4 0.2
v -0.2 4 0.1
v 0.6 4 0.1
v -0.2 4 -0.3
v 0.6 4 -0.3
v -1.6 4 -0.4
v 2 4 -0.4
v -0.5 0.1 0.4
v 0.9 0.1 0.4
v -0.2 0.1 0.1
v 0.6 0.1 0.1
v -0.2 0.1 -0.3
v 0.6 0.1 -0.3
v -0.5 0.1 -0.6
v 0.9 0.1 -0.6
v -1.6 5.9 0.2
v 2 5.9 0.2
v -1.6 5.9 -0.4
v 2 5.9 -0.4

# faces
f 3/2/1 2/2/1 1/2/1
f 4/2/1 2/2/1 3/2/1
f 7/2/1 6/2/1 5/2/1
f 8/2/1 6/2/1 7/2/1
f 11/1/1 10/1/1 9/1/1
f 12/1/1 10/1/1 11/1/1
f 13/1/2 14/1/2 15/1/2
f 15/1/2 14/1/2 16/1/2
f 17/2/2 18/2/2 19/2/2
f 19/2/2 18/2/2 20/2/2
f 21/2/2 22/2/2 23/2/2
f 23/2/2 22/2/2 24/2/2
f 27/2/3 26/2/3 25/2/3
f 28/2/3 26/2/3 27/2/3
f 31/2/3 30/2/3 29/2/3
f 32/2/3 30/2/3 31/2/3
f 33/1/3 32/1/3 31/1/3
f 34/1/3 32/1/3 33/1/3
f 35/1/3 33/1/3 31/1/3
f 35/3/3 34/3/3 33/3/3
f 36/3/3 34/3/3 35/3/3
f 37/3/3 34/3/3 36/3/3
f 38/3/3 34/3/3 37/3/3
f 39/1/3 36/1/3 35/1/3
f 39/3/3 37/3/3 36/3/3
f 40/1/3 38/1/3 37/1/3
f 40/3/3 37/3/3 39/3/3
f 41/3/3 34/3/3 38/3/3
f 41/1/3 38/1/3 40/1/3
f 41/1/3 40/1/3 39/1/3
f 42/1/3 32/1/3 34/1/3
f 42/3/3 34/3/3 41/3/3
f 43/1/3 41/1/3 39/1/3
f 43/1/3 35/1/3 31/1/3
f 43/1/3 42/1/3 41/1/3
f 43/1/3 39/1/3 35/1/3
f 44/1/3 32/1/3 42/1/3
f 44/1/3 42/1/3 43/1/3
f 45/1/3 43/1/3 31/1/3
f 45/3/3 44/3/3 43/3/3
f 46/1/3 32/1/3 44/1/3
f 46/3/3 44/3/3 45/3/3
f 47/1/3 45/1/3 31/1/3
f 47/1/3 46/1/3 45/1/3
f 48/1/3 32/1/3 46/1/3
f 48/1/3 46/1/3 47/1/3
f 49/3/3 48/3/3 47/3/3
f 50/1/3 32/1/3 48/1/3
f 50/3/3 48/3/3 49/3/3
f 51/1/3 47/1/3 31/1/3
f 51/3/3 49/3/3 47/3/3
f 52/1/3 50/1/3 49/1/3
f 52/3/3 49/3/3 51/3/3
f 53/1/3 51/1/3 31/1/3
f 53/1/3 52/1/3 51/1/3
f 54/1/3 50/1/3 52/1/3
f 54/1/3 52/1/3 53/1/3
f 55/3/3 54/3/3 53/3/3
f 55/1/3 50/1/3 54/1/3
f 56/1/3 32/1/3 50/1/3
f 56/1/3 50/1/3 55/1/3
f 57/3/3 55/3/3 53/3/3
f 57/1/3 53/1/3 31/1/3
f 57/3/3 56/3/3 55/3/3
f 58/3/3 56/3/3 57/3/3
f 59/3/3 56/3/3 58/3/3
f 60/3/3 56/3/3 59/3/3
f 61/1/3 60/1/3 59/1/3
f 61/3/3 56/3/3 60/3/3
f 62/3/3 56/3/3 61/3/3
f 63/1/3 61/1/3 59/1/3
f 63/1/3 62/1/3 61/1/3
f 64/3/3 56/3/3 62/3/3
f 64/1/3 62/1/3 63/1/3
f 65/1/3 57/1/3 31/1/3
f 65/1/3 58/1/3 57/1/3
f 66/3/3 59/3/3 58/3/3
f 66/1/3 58/1/3 65/1/3
f 67/1/3 63/1/3 59/1/3
f 67/3/3 59/3/3 66/3/3
f 68/3/3 64/3/3 63/3/3
f 68/1/3 63/1/3 67/1/3
f 69/3/3 67/3/3 66/3/3
f 69/3/3 64/3/3 68/3/3
f 69/3/3 68/3/3 67/3/3
f 69/3/3 66/3/3 65/3/3
f 70/1/3 32/1/3 56/1/3
f 70/3/3 64/3/3 69/3/3
f 70/3/3 56/3/3 64/3/3
f 71/3/3 69/3/3 65/3/3
f 71/1/3 65/1/3 31/1/3
f 72/1/3 70/1/3 69/1/3
f 72/3/3 69/3/3 71/3/3
f 73/2/3 31/2/3 29/2/3
f 73/1/3 71/1/3 31/1/3
f 73/1/3 72/1/3 71/1/3
f 74/1/3 70/1/3 72/1/3
f 74/1/3 72/1/3 73/1/3
f 74/2/3 30/2/3 32/2/3
f 74/1/3 32/1/3 70/1/3
f 75/2/3 73/2/3 29/2/3
f 75/2/3 74/2/3 73/2/3
f 76/2/3 30/2/3 74/2/3
f 76/2/3 74/2/3 75/2/3
f 79/1/3 78/1/3 77/1/3
f 80/1/3 78/1/3 79/1/3
f 81/1/4 82/1/4 83/1/4
f 83/1/4 82/1/4 84/1/4
f 85/2/4 86/2/4 87/2/4
f 87/2/4 86/2/4 88/2/4
f 85/2/4 87/2/4 89/2/4
f 87/1/4 88/1/4 89/1/4
f 88/2/4 86/2/4 90/2/4
f 89/1/4 88/1/4 90/1/4
f 85/2/4 89/2/4 91/2/4
f 89/2/4 90/2/4 91/2/4
f 90/2/4 86/2/4 92/2/4
f 91/2/4 90/2/4 92/2/4
f 93/2/4 94/2/4 95/2/4
f 95/2/4 94/2/4 96/2/4
f 99/2/5 98/2/5 97/2/5
f 100/2/5 98/2/5 99/2/5
f 103/2/5 102/2/5 101/2/5
f 104/2/5 102/2/5 103/2/5
f 105/2/5 103/2/5 101/2/5
f 106/2/5 102/2/5 104/2/5
f 107/2/5 105/2/5 101/2/5
f 107/2/5 106/2/5 105/2/5
f 108/2/5 102/2/5 106/2/5
f 108/2/5 106/2/5 107/2/5
f 109/2/6 110/2/6 111/2/6
f 111/2/6 110/2/6 112/2/6
f 109/2/6 111/2/6 113/2/6
f 112/2/6 110/2/6 114/2/6
f 109/2/6 113/2/6 115/2/6
f 113/2/6 114/2/6 115/2/6
f 114/2/6 110/2/6 116/2/6
f 115/2/6 114/2/6 116/2/6
f 117/2/6 118/2/6 119/2/6
f 119/2/6 118/2/6 120/2/6
