# MagicaVoxel @ Ephtracy

# group
o 

# material
mtllib pastillas.mtl
usemtl palette

# normals
vn -1 0 0
vn 1 0 0
vn 0 0 1
vn 0 0 -1
vn 0 -1 0
vn 0 1 0

# texcoords
vt 0.841797 0.5
vt 0.958984 0.5
vt 0.982422 0.5

# verts
v 2 2 -1.6
v 2 2 -2.7
v 2 2.2 -1.6
v 2 2.2 -2.7
v 2 2.3 -1.6
v 2 2.3 -2.7
v 2 2.5 -1.6
v 2 2.5 -2.7
v 2.5 2 -1.6
v 2.5 2 -2.7
v 2.5 2.5 -1.6
v 2.5 2.5 -2.7
v 2 2 -1.6
v 2 2.2 -1.6
v 2 2.3 -1.6
v 2 2.5 -1.6
v 2.1 2 -1.6
v 2.1 2.2 -1.6
v 2.1 2.3 -1.6
v 2.5 2 -1.6
v 2.5 2.5 -1.6
v 2 2 -2.7
v 2 2.2 -2.7
v 2 2.3 -2.7
v 2 2.5 -2.7
v 2.1 2 -2.7
v 2.1 2.2 -2.7
v 2.1 2.3 -2.7
v 2.5 2 -2.7
v 2.5 2.5 -2.7
v 2 2 -1.6
v 2.1 2 -1.6
v 2.5 2 -1.6
v 2 2 -2.7
v 2.1 2 -2.7
v 2.5 2 -2.7
v 2 2.5 -1.6
v 2.5 2.5 -1.6
v 2 2.5 -2.7
v 2.5 2.5 -2.7

# faces
f 3/1/1 2/1/1 1/1/1
f 4/1/1 2/1/1 3/1/1
f 5/3/1 4/3/1 3/3/1
f 6/3/1 4/3/1 5/3/1
f 7/2/1 6/2/1 5/2/1
f 8/2/1 6/2/1 7/2/1
f 9/2/2 10/2/2 11/2/2
f 11/2/2 10/2/2 12/2/2
f 17/1/3 14/1/3 13/1/3
f 18/3/3 15/3/3 14/3/3
f 18/1/3 14/1/3 17/1/3
f 19/2/3 16/2/3 15/2/3
f 19/3/3 15/3/3 18/3/3
f 20/2/3 18/2/3 17/2/3
f 20/2/3 19/2/3 18/2/3
f 21/2/3 16/2/3 19/2/3
f 21/2/3 19/2/3 20/2/3
f 22/1/4 23/1/4 26/1/4
f 23/3/4 24/3/4 27/3/4
f 26/1/4 23/1/4 27/1/4
f 24/2/4 25/2/4 28/2/4
f 27/3/4 24/3/4 28/3/4
f 26/2/4 27/2/4 29/2/4
f 27/2/4 28/2/4 29/2/4
f 28/2/4 25/2/4 30/2/4
f 29/2/4 28/2/4 30/2/4
f 34/1/5 32/1/5 31/1/5
f 35/2/5 33/2/5 32/2/5
f 35/1/5 32/1/5 34/1/5
f 36/2/5 33/2/5 35/2/5
f 37/2/6 38/2/6 39/2/6
f 39/2/6 38/2/6 40/2/6
