# MagicaVoxel @ Ephtracy

# group
o 

# material
mtllib puerta.mtl
usemtl palette

# normals
vn -1 0 0
vn 1 0 0
vn 0 0 1
vn 0 0 -1
vn 0 -1 0
vn 0 1 0

# texcoords
vt 0.373047 0.5
vt 0.982422 0.5

# verts
v 1.5 3 -1.5
v 1.5 3 -1.6
v 1.5 3.1 -1.5
v 1.5 3.1 -1.6
v 1.6 2 -1.4
v 1.6 2 -2.6
v 1.6 3 -1.5
v 1.6 3 -1.6
v 1.6 3.1 -1.5
v 1.6 3.1 -1.6
v 1.6 4.3 -1.4
v 1.6 4.3 -2.6
v 1.7 2 -1.4
v 1.7 2 -2.6
v 1.7 3 -1.5
v 1.7 3 -1.6
v 1.7 3.1 -1.5
v 1.7 3.1 -1.6
v 1.7 4.3 -1.4
v 1.7 4.3 -2.6
v 1.6 2 -1.4
v 1.6 4.3 -1.4
v 1.7 2 -1.4
v 1.7 4.3 -1.4
v 1.5 3 -1.5
v 1.5 3.1 -1.5
v 1.6 3 -1.5
v 1.6 3.1 -1.5
v 1.5 3 -1.6
v 1.5 3.1 -1.6
v 1.6 3 -1.6
v 1.6 3.1 -1.6
v 1.6 2 -2.6
v 1.6 4.3 -2.6
v 1.7 2 -2.6
v 1.7 4.3 -2.6
v 1.6 2 -1.4
v 1.7 2 -1.4
v 1.6 2 -2.6
v 1.7 2 -2.6
v 1.5 3 -1.5
v 1.6 3 -1.5
v 1.5 3 -1.6
v 1.6 3 -1.6
v 1.5 3.1 -1.5
v 1.6 3.1 -1.5
v 1.5 3.1 -1.6
v 1.6 3.1 -1.6
v 1.6 4.3 -1.4
v 1.7 4.3 -1.4
v 1.6 4.3 -2.6
v 1.7 4.3 -2.6

# faces
f 3/2/1 2/2/1 1/2/1
f 4/2/1 2/2/1 3/2/1
f 7/1/1 6/1/1 5/1/1
f 8/1/1 6/1/1 7/1/1
f 9/1/1 7/1/1 5/1/1
f 10/1/1 6/1/1 8/1/1
f 11/1/1 9/1/1 5/1/1
f 11/1/1 10/1/1 9/1/1
f 12/1/1 6/1/1 10/1/1
f 12/1/1 10/1/1 11/1/1
f 13/1/2 14/1/2 15/1/2
f 15/1/2 14/1/2 16/1/2
f 13/1/2 15/1/2 17/1/2
f 15/2/2 16/2/2 17/2/2
f 16/1/2 14/1/2 18/1/2
f 17/2/2 16/2/2 18/2/2
f 13/1/2 17/1/2 19/1/2
f 17/1/2 18/1/2 19/1/2
f 18/1/2 14/1/2 20/1/2
f 19/1/2 18/1/2 20/1/2
f 23/1/3 22/1/3 21/1/3
f 24/1/3 22/1/3 23/1/3
f 27/2/3 26/2/3 25/2/3
f 28/2/3 26/2/3 27/2/3
f 29/2/4 30/2/4 31/2/4
f 31/2/4 30/2/4 32/2/4
f 33/1/4 34/1/4 35/1/4
f 35/1/4 34/1/4 36/1/4
f 39/1/5 38/1/5 37/1/5
f 40/1/5 38/1/5 39/1/5
f 43/2/5 42/2/5 41/2/5
f 44/2/5 42/2/5 43/2/5
f 45/2/6 46/2/6 47/2/6
f 47/2/6 46/2/6 48/2/6
f 49/1/6 50/1/6 51/1/6
f 51/1/6 50/1/6 52/1/6
