# MagicaVoxel @ Ephtracy

# group
o 

# material
mtllib Bentley-0.mtl
usemtl palette

# normals
vn -1 0 0
vn 1 0 0
vn 0 -1 0
vn 0 1 0
vn 0 0 -1
vn 0 0 1

# texcoords
vt 0.794922 0.5
vt 0.978516 0.5

# verts
v 17 7 19
v 17 20 19
v 17 5 25
v 17 7 25
v 17 5 26
v 17 20 26
v 18 6 20
v 18 7 20
v 18 5 24
v 18 6 24
v 18 7 24
v 18 5 25
v 18 6 25
v 18 7 25
v 18 7 19
v 18 20 19
v 18 7 20
v 18 20 20
v 19 6 20
v 19 20 20
v 19 5 24
v 19 6 24
v 19 9 24
v 19 6 25
v 19 9 25
v 19 5 26
v 19 20 26
v 17 5 25
v 17 5 26
v 18 5 24
v 18 5 25
v 19 5 24
v 19 5 26
v 18 6 20
v 18 6 24
v 19 6 20
v 19 6 24
v 17 7 19
v 17 7 25
v 18 7 19
v 18 7 20
v 18 7 24
v 18 7 25
v 17 20 19
v 17 20 26
v 18 20 19
v 18 20 20
v 19 20 20
v 19 20 26
v 17 7 19
v 18 7 19
v 17 20 19
v 18 20 19
v 18 6 20
v 19 6 20
v 18 7 20
v 18 20 20
v 19 20 20
v 18 5 24
v 19 5 24
v 18 6 24
v 19 6 24
v 17 5 25
v 18 5 25
v 18 6 25
v 17 7 25
v 18 7 25
v 17 5 26
v 19 5 26
v 17 20 26
v 19 20 26

# faces
f 4/1/1 2/1/1 1/1/1
f 5/1/1 4/1/1 3/1/1
f 6/1/1 2/1/1 4/1/1
f 6/1/1 4/1/1 5/1/1
f 10/1/1 8/1/1 7/1/1
f 11/1/1 8/1/1 10/1/1
f 12/1/1 10/1/1 9/1/1
f 13/2/1 11/2/1 10/2/1
f 13/1/1 10/1/1 12/1/1
f 14/2/1 11/2/1 13/2/1
f 15/1/2 16/1/2 17/1/2
f 17/1/2 16/1/2 18/1/2
f 19/1/2 20/1/2 22/1/2
f 22/1/2 20/1/2 23/1/2
f 21/1/2 22/1/2 24/1/2
f 22/2/2 23/2/2 24/2/2
f 23/1/2 20/1/2 25/1/2
f 24/2/2 23/2/2 25/2/2
f 21/1/2 24/1/2 26/1/2
f 24/1/2 25/1/2 26/1/2
f 25/1/2 20/1/2 27/1/2
f 26/1/2 25/1/2 27/1/2
f 31/1/3 29/1/3 28/1/3
f 32/1/3 31/1/3 30/1/3
f 33/1/3 29/1/3 31/1/3
f 33/1/3 31/1/3 32/1/3
f 36/1/3 35/1/3 34/1/3
f 37/1/3 35/1/3 36/1/3
f 40/1/3 39/1/3 38/1/3
f 41/1/3 39/1/3 40/1/3
f 42/1/3 39/1/3 41/1/3
f 43/1/3 39/1/3 42/1/3
f 44/1/4 45/1/4 46/1/4
f 46/1/4 45/1/4 47/1/4
f 47/1/4 45/1/4 48/1/4
f 48/1/4 45/1/4 49/1/4
f 52/1/5 51/1/5 50/1/5
f 53/1/5 51/1/5 52/1/5
f 56/1/5 55/1/5 54/1/5
f 57/1/5 55/1/5 56/1/5
f 58/1/5 55/1/5 57/1/5
f 61/1/5 60/1/5 59/1/5
f 62/1/5 60/1/5 61/1/5
f 65/1/5 64/1/5 63/1/5
f 66/1/5 65/1/5 63/1/5
f 67/1/5 65/1/5 66/1/5
f 68/1/6 69/1/6 70/1/6
f 70/1/6 69/1/6 71/1/6
