# MagicaVoxel @ Ephtracy

# group
o Desk

# material
mtllib Character_room-1-Desk.mtl
usemtl palette

# normals
vn -1 0 0
vn 1 0 0
vn 0 0 1
vn 0 0 -1
vn 0 -1 0
vn 0 1 0

# texcoords
vt 0.544922 0.5
vt 0.673828 0.5
vt 0.677734 0.5
vt 0.873047 0.5
vt 0.962891 0.5

# verts
v 2.5 0.6 -3.2
v 2.5 0.6 -3.5
v 2.5 0.6 -5.2
v 2.5 0.6 -5.5
v 2.5 2.1 -3.5
v 2.5 2.1 -5.2
v 2.5 2.3 -3.2
v 2.5 2.3 -5.5
v 2.6 2.4 -3.9
v 2.6 2.4 -4.1
v 2.6 2.7 -3.9
v 2.6 2.7 -4.1
v 2.8 2.3 -3.9
v 2.8 2.3 -4.1
v 2.8 2.4 -3.9
v 2.8 2.4 -4.1
v 2.8 2.5 -3.9
v 2.8 2.5 -4.1
v 2.8 2.6 -3.9
v 2.8 2.6 -4.1
v 2.8 2.7 -3.9
v 2.8 2.7 -4.1
v 2.8 2.8 -3.9
v 2.8 2.8 -4.1
v 2.9 2.3 -3.8
v 2.9 2.3 -3.9
v 2.9 2.3 -4.1
v 2.9 2.3 -4.2
v 2.9 2.8 -3.8
v 2.9 2.8 -3.9
v 2.9 2.8 -4.1
v 2.9 2.8 -4.2
v 3.1 2.7 -3.9
v 3.1 2.7 -4.1
v 3.1 2.8 -3.9
v 3.1 2.8 -4.1
v 3.2 2.5 -4.7
v 3.2 2.5 -4.9
v 3.2 4.3 -4.7
v 3.2 4.3 -4.9
v 3.6 2.3 -3.5
v 3.6 2.3 -4.2
v 3.6 2.4 -3.5
v 3.6 2.4 -4.2
v 3.9 2.3 -4.5
v 3.9 2.3 -4.9
v 3.9 2.4 -4.5
v 3.9 2.4 -4.7
v 3.9 2.5 -4.7
v 3.9 2.5 -4.9
v 5.7 2.3 -3.8
v 5.7 2.3 -4.1
v 5.7 2.4 -3.8
v 5.7 2.4 -4.1
v 5.8 2.3 -4.1
v 5.8 2.3 -4.2
v 5.8 2.4 -4.1
v 5.8 2.4 -4.2
v 6.2 0.6 -5.2
v 6.2 0.6 -5.5
v 6.2 2.1 -5.2
v 6.2 2.1 -5.5
v 6.3 0.6 -3.2
v 6.3 0.6 -3.5
v 6.3 2.1 -3.2
v 6.3 2.1 -3.5
v 2.7 0.6 -3.2
v 2.7 0.6 -3.5
v 2.7 2.1 -3.2
v 2.7 2.1 -3.5
v 2.7 2.5 -3.9
v 2.7 2.5 -4.1
v 2.7 2.6 -3.9
v 2.7 2.6 -4.1
v 2.8 0.6 -5.2
v 2.8 0.6 -5.5
v 2.8 2.1 -5.2
v 2.8 2.1 -5.5
v 2.9 2.7 -3.9
v 2.9 2.7 -4.1
v 2.9 2.8 -3.9
v 2.9 2.8 -4.1
v 3.1 2.3 -3.8
v 3.1 2.3 -3.9
v 3.1 2.3 -4.1
v 3.1 2.3 -4.2
v 3.1 2.8 -3.8
v 3.1 2.8 -3.9
v 3.1 2.8 -4.1
v 3.1 2.8 -4.2
v 3.2 2.3 -3.9
v 3.2 2.3 -4.1
v 3.2 2.8 -3.9
v 3.2 2.8 -4.1
v 5.1 2.3 -4.5
v 5.1 2.3 -4.9
v 5.1 2.4 -4.5
v 5.1 2.4 -4.7
v 5.1 2.5 -4.7
v 5.1 2.5 -4.9
v 5.4 2.3 -3.5
v 5.4 2.3 -4.2
v 5.4 2.4 -3.5
v 5.4 2.4 -4.2
v 5.8 2.5 -4.7
v 5.8 2.5 -4.9
v 5.8 4.3 -4.7
v 5.8 4.3 -4.9
v 5.9 2.3 -4.1
v 5.9 2.3 -4.2
v 5.9 2.4 -4.1
v 5.9 2.4 -4.2
v 6 2.3 -3.8
v 6 2.3 -4.1
v 6 2.4 -3.8
v 6 2.4 -4.1
v 6.5 0.6 -3.2
v 6.5 0.6 -3.5
v 6.5 0.6 -5.2
v 6.5 0.6 -5.5
v 6.5 2.1 -3.5
v 6.5 2.1 -5.2
v 6.5 2.3 -3.2
v 6.5 2.3 -5.5
v 2.5 0.6 -3.2
v 2.5 2.3 -3.2
v 2.7 0.6 -3.2
v 2.7 2.1 -3.2
v 6.3 0.6 -3.2
v 6.3 2.1 -3.2
v 6.5 0.6 -3.2
v 6.5 2.3 -3.2
v 3.6 2.3 -3.5
v 3.6 2.4 -3.5
v 5.4 2.3 -3.5
v 5.4 2.4 -3.5
v 2.9 2.3 -3.8
v 2.9 2.8 -3.8
v 3.1 2.3 -3.8
v 3.1 2.8 -3.8
v 5.7 2.3 -3.8
v 5.7 2.4 -3.8
v 6 2.3 -3.8
v 6 2.4 -3.8
v 2.6 2.4 -3.9
v 2.6 2.7 -3.9
v 2.7 2.5 -3.9
v 2.7 2.6 -3.9
v 2.8 2.3 -3.9
v 2.8 2.4 -3.9
v 2.8 2.5 -3.9
v 2.8 2.6 -3.9
v 2.8 2.7 -3.9
v 2.8 2.8 -3.9
v 2.9 2.3 -3.9
v 2.9 2.8 -3.9
v 3.1 2.3 -3.9
v 3.1 2.8 -3.9
v 3.2 2.3 -3.9
v 3.2 2.8 -3.9
v 2.9 2.7 -4.1
v 2.9 2.8 -4.1
v 3.1 2.7 -4.1
v 3.1 2.8 -4.1
v 3.9 2.3 -4.5
v 3.9 2.4 -4.5
v 5.1 2.3 -4.5
v 5.1 2.4 -4.5
v 3.2 2.5 -4.7
v 3.2 4.3 -4.7
v 3.3 2.6 -4.7
v 3.3 4.2 -4.7
v 3.9 2.4 -4.7
v 3.9 2.5 -4.7
v 5.1 2.4 -4.7
v 5.1 2.5 -4.7
v 5.7 2.6 -4.7
v 5.7 4.2 -4.7
v 5.8 2.5 -4.7
v 5.8 4.3 -4.7
v 2.5 0.6 -5.2
v 2.5 2.1 -5.2
v 2.8 0.6 -5.2
v 2.8 2.1 -5.2
v 6.2 0.6 -5.2
v 6.2 2.1 -5.2
v 6.5 0.6 -5.2
v 6.5 2.1 -5.2
v 2.5 0.6 -3.5
v 2.5 2.1 -3.5
v 2.7 0.6 -3.5
v 2.7 2.1 -3.5
v 6.3 0.6 -3.5
v 6.3 2.1 -3.5
v 6.5 0.6 -3.5
v 6.5 2.1 -3.5
v 2.9 2.7 -3.9
v 2.9 2.8 -3.9
v 3.1 2.7 -3.9
v 3.1 2.8 -3.9
v 2.6 2.4 -4.1
v 2.6 2.7 -4.1
v 2.7 2.5 -4.1
v 2.7 2.6 -4.1
v 2.8 2.3 -4.1
v 2.8 2.4 -4.1
v 2.8 2.5 -4.1
v 2.8 2.6 -4.1
v 2.8 2.7 -4.1
v 2.8 2.8 -4.1
v 2.9 2.3 -4.1
v 2.9 2.8 -4.1
v 3.1 2.3 -4.1
v 3.1 2.8 -4.1
v 3.2 2.3 -4.1
v 3.2 2.8 -4.1
v 5.7 2.3 -4.1
v 5.7 2.4 -4.1
v 5.8 2.3 -4.1
v 5.8 2.4 -4.1
v 5.9 2.3 -4.1
v 5.9 2.4 -4.1
v 6 2.3 -4.1
v 6 2.4 -4.1
v 2.9 2.3 -4.2
v 2.9 2.8 -4.2
v 3.1 2.3 -4.2
v 3.1 2.8 -4.2
v 3.6 2.3 -4.2
v 3.6 2.4 -4.2
v 5.4 2.3 -4.2
v 5.4 2.4 -4.2
v 5.8 2.3 -4.2
v 5.8 2.4 -4.2
v 5.9 2.3 -4.2
v 5.9 2.4 -4.2
v 3.2 2.5 -4.9
v 3.2 4.3 -4.9
v 3.9 2.3 -4.9
v 3.9 2.5 -4.9
v 5.1 2.3 -4.9
v 5.1 2.5 -4.9
v 5.8 2.5 -4.9
v 5.8 4.3 -4.9
v 2.5 0.6 -5.5
v 2.5 2.3 -5.5
v 2.8 0.6 -5.5
v 2.8 2.1 -5.5
v 6.2 0.6 -5.5
v 6.2 2.1 -5.5
v 6.5 0.6 -5.5
v 6.5 2.3 -5.5
v 2.5 0.6 -3.2
v 2.7 0.6 -3.2
v 6.3 0.6 -3.2
v 6.5 0.6 -3.2
v 2.5 0.6 -3.5
v 2.7 0.6 -3.5
v 6.3 0.6 -3.5
v 6.5 0.6 -3.5
v 2.5 0.6 -5.2
v 2.8 0.6 -5.2
v 6.2 0.6 -5.2
v 6.5 0.6 -5.2
v 2.5 0.6 -5.5
v 2.8 0.6 -5.5
v 6.2 0.6 -5.5
v 6.5 0.6 -5.5
v 2.7 2.1 -3.2
v 6.3 2.1 -3.2
v 2.5 2.1 -3.5
v 2.7 2.1 -3.5
v 6.3 2.1 -3.5
v 6.5 2.1 -3.5
v 2.5 2.1 -5.2
v 2.8 2.1 -5.2
v 6.2 2.1 -5.2
v 6.5 2.1 -5.2
v 2.8 2.1 -5.5
v 6.2 2.1 -5.5
v 2.6 2.4 -3.9
v 2.8 2.4 -3.9
v 2.6 2.4 -4.1
v 2.8 2.4 -4.1
v 3.2 2.5 -4.7
v 3.9 2.5 -4.7
v 5.1 2.5 -4.7
v 5.8 2.5 -4.7
v 3.2 2.5 -4.9
v 3.9 2.5 -4.9
v 5.1 2.5 -4.9
v 5.8 2.5 -4.9
v 2.7 2.6 -3.9
v 2.8 2.6 -3.9
v 2.7 2.6 -4.1
v 2.8 2.6 -4.1
v 2.5 2.3 -3.2
v 6.5 2.3 -3.2
v 3.6 2.3 -3.5
v 5.4 2.3 -3.5
v 2.9 2.3 -3.8
v 3.1 2.3 -3.8
v 5.7 2.3 -3.8
v 6 2.3 -3.8
v 2.8 2.3 -3.9
v 2.9 2.3 -3.9
v 3.1 2.3 -3.9
v 3.2 2.3 -3.9
v 2.8 2.3 -4.1
v 2.9 2.3 -4.1
v 3.1 2.3 -4.1
v 3.2 2.3 -4.1
v 5.7 2.3 -4.1
v 5.8 2.3 -4.1
v 5.9 2.3 -4.1
v 6 2.3 -4.1
v 2.9 2.3 -4.2
v 3.1 2.3 -4.2
v 3.6 2.3 -4.2
v 5.4 2.3 -4.2
v 5.8 2.3 -4.2
v 5.9 2.3 -4.2
v 3.9 2.3 -4.5
v 5.1 2.3 -4.5
v 3.9 2.3 -4.9
v 5.1 2.3 -4.9
v 2.5 2.3 -5.5
v 6.5 2.3 -5.5
v 3.6 2.4 -3.5
v 5.4 2.4 -3.5
v 5.7 2.4 -3.8
v 6 2.4 -3.8
v 5.7 2.4 -4.1
v 5.8 2.4 -4.1
v 5.9 2.4 -4.1
v 6 2.4 -4.1
v 3.6 2.4 -4.2
v 5.4 2.4 -4.2
v 5.8 2.4 -4.2
v 5.9 2.4 -4.2
v 3.9 2.4 -4.5
v 5.1 2.4 -4.5
v 3.9 2.4 -4.7
v 5.1 2.4 -4.7
v 2.7 2.5 -3.9
v 2.8 2.5 -3.9
v 2.7 2.5 -4.1
v 2.8 2.5 -4.1
v 2.6 2.7 -3.9
v 2.8 2.7 -3.9
v 2.9 2.7 -3.9
v 3.1 2.7 -3.9
v 2.6 2.7 -4.1
v 2.8 2.7 -4.1
v 2.9 2.7 -4.1
v 3.1 2.7 -4.1
v 2.9 2.8 -3.8
v 3.1 2.8 -3.8
v 2.8 2.8 -3.9
v 2.9 2.8 -3.9
v 3.1 2.8 -3.9
v 3.2 2.8 -3.9
v 2.8 2.8 -4.1
v 2.9 2.8 -4.1
v 3.1 2.8 -4.1
v 3.2 2.8 -4.1
v 2.9 2.8 -4.2
v 3.1 2.8 -4.2
v 3.2 4.3 -4.7
v 5.8 4.3 -4.7
v 3.2 4.3 -4.9
v 5.8 4.3 -4.9

# faces
f 5/5/1 2/5/1 1/5/1
f 6/5/1 4/5/1 3/5/1
f 7/5/1 5/5/1 1/5/1
f 7/5/1 6/5/1 5/5/1
f 8/5/1 4/5/1 6/5/1
f 8/5/1 6/5/1 7/5/1
f 11/1/1 10/1/1 9/1/1
f 12/1/1 10/1/1 11/1/1
f 15/1/1 14/1/1 13/1/1
f 16/1/1 14/1/1 15/1/1
f 19/1/1 18/1/1 17/1/1
f 20/1/1 18/1/1 19/1/1
f 23/1/1 22/1/1 21/1/1
f 24/1/1 22/1/1 23/1/1
f 29/1/1 26/1/1 25/1/1
f 30/1/1 26/1/1 29/1/1
f 31/1/1 28/1/1 27/1/1
f 32/1/1 28/1/1 31/1/1
f 35/1/1 34/1/1 33/1/1
f 36/1/1 34/1/1 35/1/1
f 39/3/1 38/3/1 37/3/1
f 40/3/1 38/3/1 39/3/1
f 43/3/1 42/3/1 41/3/1
f 44/3/1 42/3/1 43/3/1
f 47/3/1 46/3/1 45/3/1
f 48/3/1 46/3/1 47/3/1
f 49/3/1 46/3/1 48/3/1
f 50/3/1 46/3/1 49/3/1
f 53/3/1 52/3/1 51/3/1
f 54/3/1 52/3/1 53/3/1
f 57/3/1 56/3/1 55/3/1
f 58/3/1 56/3/1 57/3/1
f 61/5/1 60/5/1 59/5/1
f 62/5/1 60/5/1 61/5/1
f 65/5/1 64/5/1 63/5/1
f 66/5/1 64/5/1 65/5/1
f 67/5/2 68/5/2 69/5/2
f 69/5/2 68/5/2 70/5/2
f 71/1/2 72/1/2 73/1/2
f 73/1/2 72/1/2 74/1/2
f 75/5/2 76/5/2 77/5/2
f 77/5/2 76/5/2 78/5/2
f 79/1/2 80/1/2 81/1/2
f 81/1/2 80/1/2 82/1/2
f 83/1/2 84/1/2 87/1/2
f 87/1/2 84/1/2 88/1/2
f 85/1/2 86/1/2 89/1/2
f 89/1/2 86/1/2 90/1/2
f 91/1/2 92/1/2 93/1/2
f 93/1/2 92/1/2 94/1/2
f 95/3/2 96/3/2 97/3/2
f 97/3/2 96/3/2 98/3/2
f 98/3/2 96/3/2 99/3/2
f 99/3/2 96/3/2 100/3/2
f 101/3/2 102/3/2 103/3/2
f 103/3/2 102/3/2 104/3/2
f 105/3/2 106/3/2 107/3/2
f 107/3/2 106/3/2 108/3/2
f 109/3/2 110/3/2 111/3/2
f 111/3/2 110/3/2 112/3/2
f 113/3/2 114/3/2 115/3/2
f 115/3/2 114/3/2 116/3/2
f 117/5/2 118/5/2 121/5/2
f 119/5/2 120/5/2 122/5/2
f 117/5/2 121/5/2 123/5/2
f 121/5/2 122/5/2 123/5/2
f 122/5/2 120/5/2 124/5/2
f 123/5/2 122/5/2 124/5/2
f 127/5/3 126/5/3 125/5/3
f 128/5/3 126/5/3 127/5/3
f 130/5/3 126/5/3 128/5/3
f 131/5/3 130/5/3 129/5/3
f 132/5/3 126/5/3 130/5/3
f 132/5/3 130/5/3 131/5/3
f 135/3/3 134/3/3 133/3/3
f 136/3/3 134/3/3 135/3/3
f 139/1/3 138/1/3 137/1/3
f 140/1/3 138/1/3 139/1/3
f 143/3/3 142/3/3 141/3/3
f 144/3/3 142/3/3 143/3/3
f 147/1/3 146/1/3 145/1/3
f 148/1/3 146/1/3 147/1/3
f 150/1/3 147/1/3 145/1/3
f 151/1/3 147/1/3 150/1/3
f 152/1/3 146/1/3 148/1/3
f 153/1/3 146/1/3 152/1/3
f 155/1/3 151/1/3 150/1/3
f 155/1/3 154/1/3 153/1/3
f 155/1/3 153/1/3 152/1/3
f 155/1/3 152/1/3 151/1/3
f 155/1/3 150/1/3 149/1/3
f 156/1/3 154/1/3 155/1/3
f 159/1/3 158/1/3 157/1/3
f 160/1/3 158/1/3 159/1/3
f 163/1/3 162/1/3 161/1/3
f 164/1/3 162/1/3 163/1/3
f 167/3/3 166/3/3 165/3/3
f 168/3/3 166/3/3 167/3/3
f 171/3/3 170/3/3 169/3/3
f 172/3/3 170/3/3 171/3/3
f 174/3/3 171/3/3 169/3/3
f 175/3/3 174/3/3 173/3/3
f 176/3/3 171/3/3 174/3/3
f 176/3/3 174/3/3 175/3/3
f 177/2/3 172/2/3 171/2/3
f 177/3/3 171/3/3 176/3/3
f 178/3/3 170/3/3 172/3/3
f 178/2/3 172/2/3 177/2/3
f 179/3/3 177/3/3 176/3/3
f 179/3/3 178/3/3 177/3/3
f 180/3/3 170/3/3 178/3/3
f 180/3/3 178/3/3 179/3/3
f 183/5/3 182/5/3 181/5/3
f 184/5/3 182/5/3 183/5/3
f 187/5/3 186/5/3 185/5/3
f 188/5/3 186/5/3 187/5/3
f 189/5/4 190/5/4 191/5/4
f 191/5/4 190/5/4 192/5/4
f 193/5/4 194/5/4 195/5/4
f 195/5/4 194/5/4 196/5/4
f 197/1/4 198/1/4 199/1/4
f 199/1/4 198/1/4 200/1/4
f 201/1/4 202/1/4 203/1/4
f 203/1/4 202/1/4 204/1/4
f 201/1/4 203/1/4 206/1/4
f 206/1/4 203/1/4 207/1/4
f 204/1/4 202/1/4 208/1/4
f 208/1/4 202/1/4 209/1/4
f 206/1/4 207/1/4 211/1/4
f 209/1/4 210/1/4 211/1/4
f 208/1/4 209/1/4 211/1/4
f 207/1/4 208/1/4 211/1/4
f 205/1/4 206/1/4 211/1/4
f 211/1/4 210/1/4 212/1/4
f 213/1/4 214/1/4 215/1/4
f 215/1/4 214/1/4 216/1/4
f 217/3/4 218/3/4 219/3/4
f 219/3/4 218/3/4 220/3/4
f 221/3/4 222/3/4 223/3/4
f 223/3/4 222/3/4 224/3/4
f 225/1/4 226/1/4 227/1/4
f 227/1/4 226/1/4 228/1/4
f 229/3/4 230/3/4 231/3/4
f 231/3/4 230/3/4 232/3/4
f 233/3/4 234/3/4 235/3/4
f 235/3/4 234/3/4 236/3/4
f 237/3/4 238/3/4 240/3/4
f 239/3/4 240/3/4 241/3/4
f 240/3/4 238/3/4 242/3/4
f 241/3/4 240/3/4 242/3/4
f 242/3/4 238/3/4 243/3/4
f 243/3/4 238/3/4 244/3/4
f 245/5/4 246/5/4 247/5/4
f 247/5/4 246/5/4 248/5/4
f 248/5/4 246/5/4 250/5/4
f 249/5/4 250/5/4 251/5/4
f 250/5/4 246/5/4 252/5/4
f 251/5/4 250/5/4 252/5/4
f 257/5/5 254/5/5 253/5/5
f 258/5/5 254/5/5 257/5/5
f 259/5/5 256/5/5 255/5/5
f 260/5/5 256/5/5 259/5/5
f 265/5/5 262/5/5 261/5/5
f 266/5/5 262/5/5 265/5/5
f 267/5/5 264/5/5 263/5/5
f 268/5/5 264/5/5 267/5/5
f 272/5/5 270/5/5 269/5/5
f 273/5/5 270/5/5 272/5/5
f 275/5/5 272/5/5 271/5/5
f 275/5/5 274/5/5 273/5/5
f 275/5/5 273/5/5 272/5/5
f 276/5/5 274/5/5 275/5/5
f 277/5/5 274/5/5 276/5/5
f 278/5/5 274/5/5 277/5/5
f 279/5/5 277/5/5 276/5/5
f 280/5/5 277/5/5 279/5/5
f 283/1/5 282/1/5 281/1/5
f 284/1/5 282/1/5 283/1/5
f 289/3/5 286/3/5 285/3/5
f 290/3/5 286/3/5 289/3/5
f 291/3/5 288/3/5 287/3/5
f 292/3/5 288/3/5 291/3/5
f 295/1/5 294/1/5 293/1/5
f 296/1/5 294/1/5 295/1/5
f 297/5/6 298/5/6 299/5/6
f 299/5/6 298/5/6 300/5/6
f 297/5/6 299/5/6 301/5/6
f 301/5/6 299/5/6 302/5/6
f 300/5/6 298/5/6 303/5/6
f 303/5/6 298/5/6 304/5/6
f 297/5/6 301/5/6 305/5/6
f 305/5/6 301/5/6 306/5/6
f 302/5/6 299/5/6 307/5/6
f 307/5/6 299/5/6 308/5/6
f 297/5/6 305/5/6 309/5/6
f 308/5/6 299/5/6 312/5/6
f 300/5/6 303/5/6 313/5/6
f 304/5/6 298/5/6 316/5/6
f 309/5/6 310/5/6 317/5/6
f 311/5/6 312/5/6 318/5/6
f 312/5/6 299/5/6 319/5/6
f 318/5/6 312/5/6 319/5/6
f 313/5/6 314/5/6 320/5/6
f 300/5/6 313/5/6 320/5/6
f 320/5/6 314/5/6 321/5/6
f 315/5/6 316/5/6 322/5/6
f 320/5/6 321/5/6 323/5/6
f 321/5/6 322/5/6 323/5/6
f 318/5/6 319/5/6 323/5/6
f 317/5/6 318/5/6 323/5/6
f 319/5/6 320/5/6 323/5/6
f 323/5/6 322/5/6 324/5/6
f 317/5/6 323/5/6 325/5/6
f 324/5/6 322/5/6 326/5/6
f 309/5/6 317/5/6 327/5/6
f 325/5/6 326/5/6 327/5/6
f 297/5/6 309/5/6 327/5/6
f 317/5/6 325/5/6 327/5/6
f 322/5/6 316/5/6 328/5/6
f 327/5/6 326/5/6 328/5/6
f 326/5/6 322/5/6 328/5/6
f 316/5/6 298/5/6 328/5/6
f 331/3/6 332/3/6 333/3/6
f 333/3/6 332/3/6 334/3/6
f 334/3/6 332/3/6 335/3/6
f 335/3/6 332/3/6 336/3/6
f 329/3/6 330/3/6 337/3/6
f 337/3/6 330/3/6 338/3/6
f 334/3/6 335/3/6 339/3/6
f 339/3/6 335/3/6 340/3/6
f 341/3/6 342/3/6 343/3/6
f 343/3/6 342/3/6 344/3/6
f 345/1/6 346/1/6 347/1/6
f 347/1/6 346/1/6 348/1/6
f 349/1/6 350/1/6 353/1/6
f 353/1/6 350/1/6 354/1/6
f 351/4/6 352/4/6 355/4/6
f 355/4/6 352/4/6 356/4/6
f 357/1/6 358/1/6 360/1/6
f 360/1/6 358/1/6 361/1/6
f 359/1/6 360/1/6 363/1/6
f 363/1/6 360/1/6 364/1/6
f 361/1/6 362/1/6 365/1/6
f 365/1/6 362/1/6 366/1/6
f 364/1/6 365/1/6 367/1/6
f 367/1/6 365/1/6 368/1/6
f 369/3/6 370/3/6 371/3/6
f 371/3/6 370/3/6 372/3/6
