# MagicaVoxel @ Ephtracy

# group
o Bed

# material
mtllib Character_room-2-Bed.mtl
usemtl palette

# normals
vn -1 0 0
vn 1 0 0
vn 0 0 1
vn 0 0 -1
vn 0 -1 0
vn 0 1 0

# texcoords
vt 0.544922 0.5
vt 0.591797 0.5
vt 0.958984 0.5
vt 0.962891 0.5

# verts
v 3.4 0.6 6.4
v 3.4 0.6 6.1
v 3.4 0.6 0.7
v 3.4 0.6 0.4
v 3.4 1 6.1
v 3.4 1 0.7
v 3.4 1.2 6.1
v 3.4 1.2 5
v 3.4 1.2 4.4
v 3.4 1.2 0.7
v 3.4 1.3 6.1
v 3.4 1.3 5
v 3.4 1.6 6.1
v 3.4 1.6 5
v 3.4 1.7 4.4
v 3.4 1.7 0.7
v 3.4 1.8 5
v 3.4 1.8 4.4
v 3.4 1.9 0.7
v 3.4 1.9 0.4
v 3.4 2.4 6.4
v 3.4 2.4 6.1
v 3.5 1.2 6.1
v 3.5 1.2 5
v 3.5 1.3 6.1
v 3.5 1.3 5
v 3.9 1.6 6
v 3.9 1.6 5.1
v 3.9 1.8 6
v 3.9 1.8 5.1
v 4 1.6 6.1
v 4 1.6 6
v 4 1.6 5.1
v 4 1.6 5
v 4 1.8 6.1
v 4 1.8 6
v 4 1.8 5.1
v 4 1.8 5
v 4.1 1.8 5.9
v 4.1 1.8 5.2
v 4.1 2 5.9
v 4.1 2 5.2
v 4.2 1.8 6
v 4.2 1.8 5.9
v 4.2 1.8 5.2
v 4.2 1.8 5.1
v 4.2 2 6
v 4.2 2 5.9
v 4.2 2 5.2
v 4.2 2 5.1
v 4.3 2 5.7
v 4.3 2 5.4
v 4.3 2.2 5.7
v 4.3 2.2 5.4
v 4.4 2 5.8
v 4.4 2 5.7
v 4.4 2 5.4
v 4.4 2 5.3
v 4.4 2.2 5.8
v 4.4 2.2 5.7
v 4.4 2.2 5.4
v 4.4 2.2 5.3
v 5.7 1.8 6.2
v 5.7 1.8 6.1
v 5.7 2 6.2
v 5.7 2 6.1
v 6.1 0.6 6.4
v 6.1 0.6 6.1
v 6.1 0.6 0.7
v 6.1 0.6 0.4
v 6.1 1 6.4
v 6.1 1 6.1
v 6.1 1 0.7
v 6.1 1 0.4
v 6.1 1.2 0.5
v 6.1 1.2 0.4
v 6.1 1.7 0.5
v 6.1 1.7 0.4
v 6.2 1.2 6.4
v 6.2 1.2 6.3
v 6.2 2.2 6.4
v 6.2 2.2 6.3
v 3.6 1.2 6.4
v 3.6 1.2 6.3
v 3.6 2.2 6.4
v 3.6 2.2 6.3
v 3.7 0.6 6.4
v 3.7 0.6 6.1
v 3.7 0.6 0.7
v 3.7 0.6 0.4
v 3.7 1 6.4
v 3.7 1 6.1
v 3.7 1 0.7
v 3.7 1 0.4
v 3.7 1.2 0.5
v 3.7 1.2 0.4
v 3.7 1.7 0.5
v 3.7 1.7 0.4
v 4.1 1.8 6.2
v 4.1 1.8 6.1
v 4.1 2 6.2
v 4.1 2 6.1
v 5.4 2 5.8
v 5.4 2 5.7
v 5.4 2 5.4
v 5.4 2 5.3
v 5.4 2.2 5.8
v 5.4 2.2 5.7
v 5.4 2.2 5.4
v 5.4 2.2 5.3
v 5.5 2 5.7
v 5.5 2 5.4
v 5.5 2.2 5.7
v 5.5 2.2 5.4
v 5.6 1.8 6
v 5.6 1.8 5.9
v 5.6 1.8 5.2
v 5.6 1.8 5.1
v 5.6 2 6
v 5.6 2 5.9
v 5.6 2 5.2
v 5.6 2 5.1
v 5.7 1.8 5.9
v 5.7 1.8 5.2
v 5.7 2 5.9
v 5.7 2 5.2
v 5.8 1.6 6.1
v 5.8 1.6 6
v 5.8 1.6 5.1
v 5.8 1.6 5
v 5.8 1.8 6.1
v 5.8 1.8 6
v 5.8 1.8 5.1
v 5.8 1.8 5
v 5.9 1.6 6
v 5.9 1.6 5.1
v 5.9 1.8 6
v 5.9 1.8 5.1
v 6.3 1.2 6.1
v 6.3 1.2 5
v 6.3 1.3 6.1
v 6.3 1.3 5
v 6.4 0.6 6.4
v 6.4 0.6 6.1
v 6.4 0.6 0.7
v 6.4 0.6 0.4
v 6.4 1 6.1
v 6.4 1 0.7
v 6.4 1.2 6.1
v 6.4 1.2 5
v 6.4 1.2 4.4
v 6.4 1.2 0.7
v 6.4 1.3 6.1
v 6.4 1.3 5
v 6.4 1.6 6.1
v 6.4 1.6 5
v 6.4 1.7 4.4
v 6.4 1.7 0.7
v 6.4 1.8 5
v 6.4 1.8 4.4
v 6.4 1.9 0.7
v 6.4 1.9 0.4
v 6.4 2.4 6.4
v 6.4 2.4 6.1
v 3.4 0.6 6.4
v 3.4 2.4 6.4
v 3.6 1.2 6.4
v 3.6 2.2 6.4
v 3.7 0.6 6.4
v 3.7 1 6.4
v 6.1 0.6 6.4
v 6.1 1 6.4
v 6.2 1.2 6.4
v 6.2 2.2 6.4
v 6.4 0.6 6.4
v 6.4 2.4 6.4
v 3.6 1.2 6.3
v 3.6 2.2 6.3
v 6.2 1.2 6.3
v 6.2 2.2 6.3
v 3.9 1.6 6
v 3.9 1.8 6
v 4 1.6 6
v 4 1.8 6
v 4.2 1.8 6
v 4.2 2 6
v 5.6 1.8 6
v 5.6 2 6
v 5.8 1.6 6
v 5.8 1.8 6
v 5.9 1.6 6
v 5.9 1.8 6
v 4.1 1.8 5.9
v 4.1 2 5.9
v 4.2 1.8 5.9
v 4.2 2 5.9
v 5.6 1.8 5.9
v 5.6 2 5.9
v 5.7 1.8 5.9
v 5.7 2 5.9
v 4.4 2 5.8
v 4.4 2.2 5.8
v 5.4 2 5.8
v 5.4 2.2 5.8
v 4.3 2 5.7
v 4.3 2.2 5.7
v 4.4 2 5.7
v 4.4 2.2 5.7
v 5.4 2 5.7
v 5.4 2.2 5.7
v 5.5 2 5.7
v 5.5 2.2 5.7
v 3.4 1.2 5
v 3.4 1.3 5
v 3.4 1.6 5
v 3.4 1.8 5
v 3.5 1.2 5
v 3.5 1.3 5
v 4 1.6 5
v 4 1.8 5
v 5.8 1.6 5
v 5.8 1.8 5
v 6.3 1.2 5
v 6.3 1.3 5
v 6.4 1.2 5
v 6.4 1.3 5
v 6.4 1.6 5
v 6.4 1.8 5
v 3.4 0.6 0.7
v 3.4 1 0.7
v 3.4 1.7 0.7
v 3.4 1.9 0.7
v 3.7 0.6 0.7
v 3.7 1 0.7
v 6.1 0.6 0.7
v 6.1 1 0.7
v 6.4 0.6 0.7
v 6.4 1 0.7
v 6.4 1.7 0.7
v 6.4 1.9 0.7
v 4.1 1.8 6.2
v 4.1 2 6.2
v 5.7 1.8 6.2
v 5.7 2 6.2
v 3.4 0.6 6.1
v 3.4 1 6.1
v 3.4 1.2 6.1
v 3.4 1.3 6.1
v 3.4 1.6 6.1
v 3.4 2.4 6.1
v 3.5 1.2 6.1
v 3.5 1.3 6.1
v 3.7 0.6 6.1
v 3.7 1 6.1
v 4 1.6 6.1
v 4 1.8 6.1
v 4.1 1.8 6.1
v 4.1 2 6.1
v 5.7 1.8 6.1
v 5.7 2 6.1
v 5.8 1.6 6.1
v 5.8 1.8 6.1
v 6.1 0.6 6.1
v 6.1 1 6.1
v 6.3 1.2 6.1
v 6.3 1.3 6.1
v 6.4 0.6 6.1
v 6.4 1 6.1
v 6.4 1.2 6.1
v 6.4 1.3 6.1
v 6.4 1.6 6.1
v 6.4 2.4 6.1
v 4.3 2 5.4
v 4.3 2.2 5.4
v 4.4 2 5.4
v 4.4 2.2 5.4
v 5.4 2 5.4
v 5.4 2.2 5.4
v 5.5 2 5.4
v 5.5 2.2 5.4
v 4.4 2 5.3
v 4.4 2.2 5.3
v 5.4 2 5.3
v 5.4 2.2 5.3
v 4.1 1.8 5.2
v 4.1 2 5.2
v 4.2 1.8 5.2
v 4.2 2 5.2
v 5.6 1.8 5.2
v 5.6 2 5.2
v 5.7 1.8 5.2
v 5.7 2 5.2
v 3.9 1.6 5.1
v 3.9 1.8 5.1
v 4 1.6 5.1
v 4 1.8 5.1
v 4.2 1.8 5.1
v 4.2 2 5.1
v 5.6 1.8 5.1
v 5.6 2 5.1
v 5.8 1.6 5.1
v 5.8 1.8 5.1
v 5.9 1.6 5.1
v 5.9 1.8 5.1
v 3.4 1.7 4.4
v 3.4 1.8 4.4
v 6.4 1.7 4.4
v 6.4 1.8 4.4
v 3.7 1.2 0.5
v 3.7 1.7 0.5
v 6.1 1.2 0.5
v 6.1 1.7 0.5
v 3.4 0.6 0.4
v 3.4 1.9 0.4
v 3.7 0.6 0.4
v 3.7 1 0.4
v 3.7 1.2 0.4
v 3.7 1.7 0.4
v 6.1 0.6 0.4
v 6.1 1 0.4
v 6.1 1.2 0.4
v 6.1 1.7 0.4
v 6.4 0.6 0.4
v 6.4 1.9 0.4
v 3.4 0.6 6.4
v 3.7 0.6 6.4
v 6.1 0.6 6.4
v 6.4 0.6 6.4
v 3.4 0.6 6.1
v 3.7 0.6 6.1
v 6.1 0.6 6.1
v 6.4 0.6 6.1
v 3.4 0.6 0.7
v 3.7 0.6 0.7
v 6.1 0.6 0.7
v 6.4 0.6 0.7
v 3.4 0.6 0.4
v 3.7 0.6 0.4
v 6.1 0.6 0.4
v 6.4 0.6 0.4
v 3.7 1 6.4
v 6.1 1 6.4
v 3.4 1 6.1
v 3.7 1 6.1
v 6.1 1 6.1
v 6.4 1 6.1
v 3.4 1 0.7
v 3.7 1 0.7
v 6.1 1 0.7
v 6.4 1 0.7
v 3.7 1 0.4
v 6.1 1 0.4
v 3.4 1.3 6.1
v 3.5 1.3 6.1
v 6.3 1.3 6.1
v 6.4 1.3 6.1
v 3.4 1.3 5
v 3.5 1.3 5
v 6.3 1.3 5
v 6.4 1.3 5
v 3.7 1.7 0.5
v 6.1 1.7 0.5
v 3.7 1.7 0.4
v 6.1 1.7 0.4
v 4.1 2 6.2
v 5.7 2 6.2
v 4.1 2 6.1
v 5.7 2 6.1
v 3.6 2.2 6.4
v 6.2 2.2 6.4
v 3.6 2.2 6.3
v 6.2 2.2 6.3
v 3.6 1.2 6.4
v 6.2 1.2 6.4
v 3.6 1.2 6.3
v 6.2 1.2 6.3
v 3.4 1.2 6.1
v 3.5 1.2 6.1
v 6.3 1.2 6.1
v 6.4 1.2 6.1
v 3.4 1.2 5
v 3.5 1.2 5
v 6.3 1.2 5
v 6.4 1.2 5
v 3.7 1.2 0.5
v 6.1 1.2 0.5
v 3.7 1.2 0.4
v 6.1 1.2 0.4
v 3.4 1.6 6.1
v 4 1.6 6.1
v 5.8 1.6 6.1
v 6.4 1.6 6.1
v 3.9 1.6 6
v 4 1.6 6
v 5.8 1.6 6
v 5.9 1.6 6
v 3.9 1.6 5.1
v 4 1.6 5.1
v 5.8 1.6 5.1
v 5.9 1.6 5.1
v 3.4 1.6 5
v 4 1.6 5
v 5.8 1.6 5
v 6.4 1.6 5
v 3.4 1.7 4.4
v 6.4 1.7 4.4
v 3.4 1.7 0.7
v 6.4 1.7 0.7
v 4.1 1.8 6.2
v 5.7 1.8 6.2
v 4 1.8 6.1
v 4.1 1.8 6.1
v 5.7 1.8 6.1
v 5.8 1.8 6.1
v 3.9 1.8 6
v 4 1.8 6
v 4.2 1.8 6
v 5.6 1.8 6
v 5.8 1.8 6
v 5.9 1.8 6
v 4.1 1.8 5.9
v 4.2 1.8 5.9
v 5.6 1.8 5.9
v 5.7 1.8 5.9
v 4.1 1.8 5.2
v 4.2 1.8 5.2
v 5.6 1.8 5.2
v 5.7 1.8 5.2
v 3.9 1.8 5.1
v 4 1.8 5.1
v 4.2 1.8 5.1
v 5.6 1.8 5.1
v 5.8 1.8 5.1
v 5.9 1.8 5.1
v 3.4 1.8 5
v 4 1.8 5
v 5.8 1.8 5
v 6.4 1.8 5
v 3.4 1.8 4.4
v 6.4 1.8 4.4
v 3.4 1.9 0.7
v 6.4 1.9 0.7
v 3.4 1.9 0.4
v 6.4 1.9 0.4
v 4.2 2 6
v 5.6 2 6
v 4.1 2 5.9
v 4.2 2 5.9
v 5.6 2 5.9
v 5.7 2 5.9
v 4.4 2 5.8
v 5.4 2 5.8
v 4.3 2 5.7
v 4.4 2 5.7
v 5.4 2 5.7
v 5.5 2 5.7
v 4.3 2 5.4
v 4.4 2 5.4
v 5.4 2 5.4
v 5.5 2 5.4
v 4.4 2 5.3
v 5.4 2 5.3
v 4.1 2 5.2
v 4.2 2 5.2
v 5.6 2 5.2
v 5.7 2 5.2
v 4.2 2 5.1
v 5.6 2 5.1
v 4.4 2.2 5.8
v 5.4 2.2 5.8
v 4.3 2.2 5.7
v 4.4 2.2 5.7
v 5.4 2.2 5.7
v 5.5 2.2 5.7
v 4.3 2.2 5.4
v 4.4 2.2 5.4
v 5.4 2.2 5.4
v 5.5 2.2 5.4
v 4.4 2.2 5.3
v 5.4 2.2 5.3
v 3.4 2.4 6.4
v 6.4 2.4 6.4
v 3.4 2.4 6.1
v 6.4 2.4 6.1

# faces
f 5/4/1 2/4/1 1/4/1
f 6/4/1 4/4/1 3/4/1
f 7/4/1 5/4/1 1/4/1
f 7/4/1 6/4/1 5/4/1
f 8/4/1 6/4/1 7/4/1
f 9/4/1 6/4/1 8/4/1
f 10/4/1 4/4/1 6/4/1
f 10/4/1 6/4/1 9/4/1
f 11/4/1 7/4/1 1/4/1
f 12/2/1 9/2/1 8/2/1
f 13/4/1 11/4/1 1/4/1
f 13/3/1 12/3/1 11/3/1
f 14/2/1 9/2/1 12/2/1
f 14/3/1 12/3/1 13/3/1
f 15/1/1 10/1/1 9/1/1
f 15/2/1 9/2/1 14/2/1
f 16/4/1 4/4/1 10/4/1
f 16/1/1 10/1/1 15/1/1
f 17/2/1 15/2/1 14/2/1
f 18/2/1 15/2/1 17/2/1
f 19/4/1 4/4/1 16/4/1
f 20/4/1 4/4/1 19/4/1
f 21/4/1 13/4/1 1/4/1
f 22/4/1 13/4/1 21/4/1
f 25/3/1 24/3/1 23/3/1
f 26/3/1 24/3/1 25/3/1
f 29/4/1 28/4/1 27/4/1
f 30/4/1 28/4/1 29/4/1
f 35/4/1 32/4/1 31/4/1
f 36/4/1 32/4/1 35/4/1
f 37/4/1 34/4/1 33/4/1
f 38/4/1 34/4/1 37/4/1
f 41/4/1 40/4/1 39/4/1
f 42/4/1 40/4/1 41/4/1
f 47/4/1 44/4/1 43/4/1
f 48/4/1 44/4/1 47/4/1
f 49/4/1 46/4/1 45/4/1
f 50/4/1 46/4/1 49/4/1
f 53/4/1 52/4/1 51/4/1
f 54/4/1 52/4/1 53/4/1
f 59/4/1 56/4/1 55/4/1
f 60/4/1 56/4/1 59/4/1
f 61/4/1 58/4/1 57/4/1
f 62/4/1 58/4/1 61/4/1
f 65/4/1 64/4/1 63/4/1
f 66/4/1 64/4/1 65/4/1
f 71/4/1 68/4/1 67/4/1
f 72/4/1 68/4/1 71/4/1
f 73/4/1 70/4/1 69/4/1
f 74/4/1 70/4/1 73/4/1
f 77/4/1 76/4/1 75/4/1
f 78/4/1 76/4/1 77/4/1
f 81/4/1 80/4/1 79/4/1
f 82/4/1 80/4/1 81/4/1
f 83/4/2 84/4/2 85/4/2
f 85/4/2 84/4/2 86/4/2
f 87/4/2 88/4/2 91/4/2
f 91/4/2 88/4/2 92/4/2
f 89/4/2 90/4/2 93/4/2
f 93/4/2 90/4/2 94/4/2
f 95/4/2 96/4/2 97/4/2
f 97/4/2 96/4/2 98/4/2
f 99/4/2 100/4/2 101/4/2
f 101/4/2 100/4/2 102/4/2
f 103/4/2 104/4/2 107/4/2
f 107/4/2 104/4/2 108/4/2
f 105/4/2 106/4/2 109/4/2
f 109/4/2 106/4/2 110/4/2
f 111/4/2 112/4/2 113/4/2
f 113/4/2 112/4/2 114/4/2
f 115/4/2 116/4/2 119/4/2
f 119/4/2 116/4/2 120/4/2
f 117/4/2 118/4/2 121/4/2
f 121/4/2 118/4/2 122/4/2
f 123/4/2 124/4/2 125/4/2
f 125/4/2 124/4/2 126/4/2
f 127/4/2 128/4/2 131/4/2
f 131/4/2 128/4/2 132/4/2
f 129/4/2 130/4/2 133/4/2
f 133/4/2 130/4/2 134/4/2
f 135/4/2 136/4/2 137/4/2
f 137/4/2 136/4/2 138/4/2
f 139/3/2 140/3/2 141/3/2
f 141/3/2 140/3/2 142/3/2
f 143/4/2 144/4/2 147/4/2
f 145/4/2 146/4/2 148/4/2
f 143/4/2 147/4/2 149/4/2
f 147/4/2 148/4/2 149/4/2
f 149/4/2 148/4/2 150/4/2
f 150/4/2 148/4/2 151/4/2
f 148/4/2 146/4/2 152/4/2
f 151/4/2 148/4/2 152/4/2
f 143/4/2 149/4/2 153/4/2
f 150/2/2 151/2/2 154/2/2
f 143/4/2 153/4/2 155/4/2
f 153/3/2 154/3/2 155/3/2
f 154/2/2 151/2/2 156/2/2
f 155/3/2 154/3/2 156/3/2
f 151/1/2 152/1/2 157/1/2
f 156/2/2 151/2/2 157/2/2
f 152/4/2 146/4/2 158/4/2
f 157/1/2 152/1/2 158/1/2
f 156/2/2 157/2/2 159/2/2
f 159/2/2 157/2/2 160/2/2
f 158/4/2 146/4/2 161/4/2
f 161/4/2 146/4/2 162/4/2
f 143/4/2 155/4/2 163/4/2
f 163/4/2 155/4/2 164/4/2
f 167/4/3 166/4/3 165/4/3
f 168/4/3 166/4/3 167/4/3
f 169/4/3 167/4/3 165/4/3
f 170/4/3 167/4/3 169/4/3
f 172/4/3 167/4/3 170/4/3
f 173/4/3 167/4/3 172/4/3
f 173/4/3 172/4/3 171/4/3
f 174/4/3 166/4/3 168/4/3
f 175/4/3 173/4/3 171/4/3
f 175/4/3 174/4/3 173/4/3
f 176/4/3 166/4/3 174/4/3
f 176/4/3 174/4/3 175/4/3
f 179/4/3 178/4/3 177/4/3
f 180/4/3 178/4/3 179/4/3
f 183/4/3 182/4/3 181/4/3
f 184/4/3 182/4/3 183/4/3
f 187/4/3 186/4/3 185/4/3
f 188/4/3 186/4/3 187/4/3
f 191/4/3 190/4/3 189/4/3
f 192/4/3 190/4/3 191/4/3
f 195/4/3 194/4/3 193/4/3
f 196/4/3 194/4/3 195/4/3
f 199/4/3 198/4/3 197/4/3
f 200/4/3 198/4/3 199/4/3
f 203/4/3 202/4/3 201/4/3
f 204/4/3 202/4/3 203/4/3
f 207/4/3 206/4/3 205/4/3
f 208/4/3 206/4/3 207/4/3
f 211/4/3 210/4/3 209/4/3
f 212/4/3 210/4/3 211/4/3
f 217/2/3 214/2/3 213/2/3
f 218/2/3 214/2/3 217/2/3
f 219/2/3 216/2/3 215/2/3
f 220/2/3 216/2/3 219/2/3
f 225/2/3 224/2/3 223/2/3
f 226/2/3 224/2/3 225/2/3
f 227/2/3 222/2/3 221/2/3
f 228/2/3 222/2/3 227/2/3
f 233/4/3 230/4/3 229/4/3
f 234/4/3 230/4/3 233/4/3
f 237/4/3 236/4/3 235/4/3
f 238/4/3 236/4/3 237/4/3
f 239/4/3 232/4/3 231/4/3
f 240/4/3 232/4/3 239/4/3
f 241/4/4 242/4/4 243/4/4
f 243/4/4 242/4/4 244/4/4
f 247/4/4 248/4/4 251/4/4
f 251/4/4 248/4/4 252/4/4
f 245/4/4 246/4/4 253/4/4
f 253/4/4 246/4/4 254/4/4
f 249/4/4 250/4/4 255/4/4
f 255/4/4 250/4/4 256/4/4
f 256/4/4 250/4/4 257/4/4
f 257/4/4 250/4/4 258/4/4
f 258/4/4 250/4/4 260/4/4
f 259/4/4 260/4/4 262/4/4
f 263/4/4 264/4/4 267/4/4
f 267/4/4 264/4/4 268/4/4
f 265/4/4 266/4/4 269/4/4
f 269/4/4 266/4/4 270/4/4
f 261/4/4 262/4/4 271/4/4
f 260/4/4 250/4/4 272/4/4
f 271/4/4 262/4/4 272/4/4
f 262/4/4 260/4/4 272/4/4
f 273/4/4 274/4/4 275/4/4
f 275/4/4 274/4/4 276/4/4
f 277/4/4 278/4/4 279/4/4
f 279/4/4 278/4/4 280/4/4
f 281/4/4 282/4/4 283/4/4
f 283/4/4 282/4/4 284/4/4
f 285/4/4 286/4/4 287/4/4
f 287/4/4 286/4/4 288/4/4
f 289/4/4 290/4/4 291/4/4
f 291/4/4 290/4/4 292/4/4
f 293/4/4 294/4/4 295/4/4
f 295/4/4 294/4/4 296/4/4
f 297/4/4 298/4/4 299/4/4
f 299/4/4 298/4/4 300/4/4
f 301/4/4 302/4/4 303/4/4
f 303/4/4 302/4/4 304/4/4
f 305/2/4 306/2/4 307/2/4
f 307/2/4 306/2/4 308/2/4
f 309/4/4 310/4/4 311/4/4
f 311/4/4 310/4/4 312/4/4
f 313/4/4 314/4/4 315/4/4
f 315/4/4 314/4/4 316/4/4
f 316/4/4 314/4/4 317/4/4
f 317/4/4 314/4/4 318/4/4
f 316/4/4 317/4/4 320/4/4
f 320/4/4 317/4/4 321/4/4
f 318/4/4 314/4/4 322/4/4
f 320/4/4 321/4/4 323/4/4
f 321/4/4 322/4/4 323/4/4
f 319/4/4 320/4/4 323/4/4
f 322/4/4 314/4/4 324/4/4
f 323/4/4 322/4/4 324/4/4
f 329/4/5 326/4/5 325/4/5
f 330/4/5 326/4/5 329/4/5
f 331/4/5 328/4/5 327/4/5
f 332/4/5 328/4/5 331/4/5
f 337/4/5 334/4/5 333/4/5
f 338/4/5 334/4/5 337/4/5
f 339/4/5 336/4/5 335/4/5
f 340/4/5 336/4/5 339/4/5
f 344/4/5 342/4/5 341/4/5
f 345/4/5 342/4/5 344/4/5
f 347/4/5 344/4/5 343/4/5
f 347/4/5 346/4/5 345/4/5
f 347/4/5 345/4/5 344/4/5
f 348/4/5 346/4/5 347/4/5
f 349/4/5 346/4/5 348/4/5
f 350/4/5 346/4/5 349/4/5
f 351/4/5 349/4/5 348/4/5
f 352/4/5 349/4/5 351/4/5
f 357/3/5 354/3/5 353/3/5
f 358/3/5 354/3/5 357/3/5
f 359/3/5 356/3/5 355/3/5
f 360/3/5 356/3/5 359/3/5
f 363/4/5 362/4/5 361/4/5
f 364/4/5 362/4/5 363/4/5
f 367/4/5 366/4/5 365/4/5
f 368/4/5 366/4/5 367/4/5
f 371/4/5 370/4/5 369/4/5
f 372/4/5 370/4/5 371/4/5
f 373/4/6 374/4/6 375/4/6
f 375/4/6 374/4/6 376/4/6
f 377/4/6 378/4/6 381/4/6
f 381/4/6 378/4/6 382/4/6
f 379/4/6 380/4/6 383/4/6
f 383/4/6 380/4/6 384/4/6
f 385/4/6 386/4/6 387/4/6
f 387/4/6 386/4/6 388/4/6
f 389/3/6 390/3/6 393/3/6
f 393/3/6 390/3/6 394/3/6
f 391/3/6 392/3/6 395/3/6
f 395/3/6 392/3/6 396/3/6
f 389/3/6 393/3/6 397/3/6
f 396/3/6 392/3/6 400/3/6
f 397/3/6 398/3/6 401/3/6
f 389/3/6 397/3/6 401/3/6
f 401/3/6 398/3/6 402/3/6
f 399/3/6 400/3/6 403/3/6
f 400/3/6 392/3/6 404/3/6
f 403/3/6 400/3/6 404/3/6
f 405/1/6 406/1/6 407/1/6
f 407/1/6 406/1/6 408/1/6
f 409/4/6 410/4/6 412/4/6
f 412/4/6 410/4/6 413/4/6
f 411/4/6 412/4/6 416/4/6
f 413/4/6 414/4/6 416/4/6
f 412/4/6 413/4/6 416/4/6
f 416/4/6 414/4/6 417/4/6
f 417/4/6 414/4/6 418/4/6
f 418/4/6 414/4/6 419/4/6
f 415/4/6 416/4/6 421/4/6
f 416/4/6 417/4/6 421/4/6
f 421/4/6 417/4/6 422/4/6
f 419/4/6 420/4/6 423/4/6
f 418/4/6 419/4/6 423/4/6
f 423/4/6 420/4/6 424/4/6
f 415/4/6 421/4/6 425/4/6
f 424/4/6 420/4/6 428/4/6
f 425/4/6 426/4/6 429/4/6
f 415/4/6 425/4/6 429/4/6
f 429/4/6 426/4/6 430/4/6
f 430/4/6 426/4/6 431/4/6
f 427/4/6 428/4/6 432/4/6
f 428/4/6 420/4/6 433/4/6
f 432/4/6 428/4/6 433/4/6
f 433/4/6 420/4/6 434/4/6
f 430/4/6 431/4/6 436/4/6
f 432/4/6 433/4/6 436/4/6
f 431/4/6 432/4/6 436/4/6
f 436/4/6 433/4/6 437/4/6
f 436/2/6 437/2/6 439/2/6
f 437/2/6 438/2/6 439/2/6
f 435/2/6 436/2/6 439/2/6
f 439/2/6 438/2/6 440/2/6
f 441/4/6 442/4/6 443/4/6
f 443/4/6 442/4/6 444/4/6
f 445/4/6 446/4/6 448/4/6
f 448/4/6 446/4/6 449/4/6
f 447/4/6 448/4/6 451/4/6
f 449/4/6 450/4/6 451/4/6
f 448/4/6 449/4/6 451/4/6
f 451/4/6 450/4/6 452/4/6
f 447/4/6 451/4/6 453/4/6
f 453/4/6 451/4/6 454/4/6
f 452/4/6 450/4/6 455/4/6
f 455/4/6 450/4/6 456/4/6
f 447/4/6 453/4/6 457/4/6
f 456/4/6 450/4/6 460/4/6
f 457/4/6 458/4/6 461/4/6
f 459/4/6 460/4/6 462/4/6
f 457/4/6 461/4/6 463/4/6
f 461/4/6 462/4/6 463/4/6
f 447/4/6 457/4/6 463/4/6
f 463/4/6 462/4/6 464/4/6
f 462/4/6 460/4/6 465/4/6
f 464/4/6 462/4/6 465/4/6
f 460/4/6 450/4/6 465/4/6
f 465/4/6 450/4/6 466/4/6
f 464/4/6 465/4/6 467/4/6
f 467/4/6 465/4/6 468/4/6
f 469/4/6 470/4/6 472/4/6
f 472/4/6 470/4/6 473/4/6
f 471/4/6 472/4/6 475/4/6
f 473/4/6 474/4/6 475/4/6
f 472/4/6 473/4/6 475/4/6
f 475/4/6 474/4/6 476/4/6
f 476/4/6 474/4/6 477/4/6
f 477/4/6 474/4/6 478/4/6
f 476/4/6 477/4/6 479/4/6
f 479/4/6 477/4/6 480/4/6
f 481/4/6 482/4/6 483/4/6
f 483/4/6 482/4/6 484/4/6
