# MagicaVoxel @ Ephtracy

# group
o chair

# material
mtllib Character_room-0-chair.mtl
usemtl palette

# normals
vn -1 0 0
vn 1 0 0
vn 0 0 1
vn 0 0 -1
vn 0 -1 0
vn 0 1 0

# texcoords
vt 0.556641 0.5
vt 0.677734 0.5

# verts
v 3.8 1.4 -0.8
v 3.8 1.4 -2.2
v 3.8 1.5 -0.8
v 3.8 1.5 -1
v 3.8 1.5 -1.1
v 3.8 1.5 -1.9
v 3.8 1.5 -2
v 3.8 1.5 -2.2
v 3.8 2.1 -1.1
v 3.8 2.1 -1.2
v 3.8 2.1 -1.8
v 3.8 2.1 -1.9
v 3.8 2.2 -1
v 3.8 2.2 -1.1
v 3.8 2.2 -1.2
v 3.8 2.2 -1.8
v 3.8 2.2 -1.9
v 3.8 2.2 -2
v 3.8 2.3 -1.1
v 3.8 2.3 -1.9
v 3.9 1.5 -0.8
v 3.9 1.5 -1
v 3.9 1.5 -1.1
v 3.9 1.5 -1.9
v 3.9 1.5 -2
v 3.9 1.5 -2.2
v 3.9 1.7 -0.8
v 3.9 1.7 -1
v 3.9 1.7 -1.1
v 3.9 1.7 -1.9
v 3.9 1.7 -2
v 3.9 1.7 -2.2
v 3.9 2.2 -1
v 3.9 2.2 -1.1
v 3.9 2.3 -1.1
v 3.9 3.6 -1
v 3.9 3.6 -1.1
v 4 0.7 -1.4
v 4 0.7 -1.6
v 4 0.9 -1.4
v 4 0.9 -1.6
v 4 1.7 -0.9
v 4 1.7 -2.1
v 4 1.8 -0.9
v 4 1.8 -2.1
v 4 2 -0.8
v 4 2 -0.9
v 4 2 -1
v 4 2.1 -1.1
v 4 2.1 -1.2
v 4 3.5 -0.8
v 4 3.5 -0.9
v 4 3.5 -1
v 4 3.5 -1.1
v 4 3.5 -1.2
v 4.4 0.7 -1
v 4.4 0.7 -1.1
v 4.4 0.7 -1.9
v 4.4 0.7 -2
v 4.4 0.8 -1.1
v 4.4 0.8 -1.4
v 4.4 0.8 -1.6
v 4.4 0.8 -1.9
v 4.4 0.9 -1
v 4.4 0.9 -1.4
v 4.4 0.9 -1.6
v 4.4 0.9 -2
v 4.4 1.4 -0.7
v 4.4 1.4 -0.8
v 4.4 1.4 -1.4
v 4.4 1.4 -1.6
v 4.4 1.5 -0.8
v 4.4 1.7 -0.8
v 4.4 2 -0.8
v 4.4 2.7 -0.7
v 4.4 2.7 -0.8
v 4.9 0.7 -1.4
v 4.9 0.7 -1.6
v 4.9 0.8 -1.4
v 4.9 0.8 -1.6
v 5.1 1.7 -1
v 5.1 1.7 -1.1
v 5.1 1.7 -1.9
v 5.1 1.7 -2
v 5.1 1.9 -1
v 5.1 1.9 -1.1
v 5.1 2.1 -1.1
v 5.1 2.1 -1.2
v 5.1 2.1 -1.8
v 5.1 2.1 -1.9
v 5.1 2.2 -1.2
v 5.1 2.2 -1.8
v 5.1 2.2 -1.9
v 5.1 2.2 -2
v 5.1 2.3 -1.1
v 5.1 2.3 -1.9
v 3.9 1.7 -1
v 3.9 1.7 -1.1
v 3.9 1.7 -1.9
v 3.9 1.7 -2
v 3.9 1.9 -1
v 3.9 1.9 -1.1
v 3.9 2.1 -1.1
v 3.9 2.1 -1.2
v 3.9 2.1 -1.8
v 3.9 2.1 -1.9
v 3.9 2.2 -1.2
v 3.9 2.2 -1.8
v 3.9 2.2 -1.9
v 3.9 2.2 -2
v 3.9 2.3 -1.1
v 3.9 2.3 -1.9
v 4.1 0.7 -1.4
v 4.1 0.7 -1.6
v 4.1 0.8 -1.4
v 4.1 0.8 -1.6
v 4.6 0.7 -1
v 4.6 0.7 -1.1
v 4.6 0.7 -1.9
v 4.6 0.7 -2
v 4.6 0.8 -1.1
v 4.6 0.8 -1.4
v 4.6 0.8 -1.6
v 4.6 0.8 -1.9
v 4.6 0.9 -1
v 4.6 0.9 -1.4
v 4.6 0.9 -1.6
v 4.6 0.9 -2
v 4.6 1.4 -0.7
v 4.6 1.4 -0.8
v 4.6 1.4 -1.4
v 4.6 1.4 -1.6
v 4.6 1.5 -0.8
v 4.6 1.7 -0.8
v 4.6 2 -0.8
v 4.6 2.7 -0.7
v 4.6 2.7 -0.8
v 5 0.7 -1.4
v 5 0.7 -1.6
v 5 0.9 -1.4
v 5 0.9 -1.6
v 5 1.7 -0.9
v 5 1.7 -2.1
v 5 1.8 -0.9
v 5 1.8 -2.1
v 5 2 -0.8
v 5 2 -0.9
v 5 2 -1
v 5 2.1 -1.1
v 5 2.1 -1.2
v 5 3.5 -0.8
v 5 3.5 -0.9
v 5 3.5 -1
v 5 3.5 -1.1
v 5 3.5 -1.2
v 5.1 1.5 -0.8
v 5.1 1.5 -1
v 5.1 1.5 -1.1
v 5.1 1.5 -1.9
v 5.1 1.5 -2
v 5.1 1.5 -2.2
v 5.1 1.7 -0.8
v 5.1 1.7 -1
v 5.1 1.7 -1.1
v 5.1 1.7 -1.9
v 5.1 1.7 -2
v 5.1 1.7 -2.2
v 5.1 2.2 -1
v 5.1 2.2 -1.1
v 5.1 2.3 -1.1
v 5.1 3.6 -1
v 5.1 3.6 -1.1
v 5.2 1.4 -0.8
v 5.2 1.4 -2.2
v 5.2 1.5 -0.8
v 5.2 1.5 -1
v 5.2 1.5 -1.1
v 5.2 1.5 -1.9
v 5.2 1.5 -2
v 5.2 1.5 -2.2
v 5.2 2.1 -1.1
v 5.2 2.1 -1.2
v 5.2 2.1 -1.8
v 5.2 2.1 -1.9
v 5.2 2.2 -1
v 5.2 2.2 -1.1
v 5.2 2.2 -1.2
v 5.2 2.2 -1.8
v 5.2 2.2 -1.9
v 5.2 2.2 -2
v 5.2 2.3 -1.1
v 5.2 2.3 -1.9
v 4.4 1.4 -0.7
v 4.4 2.7 -0.7
v 4.6 1.4 -0.7
v 4.6 2.7 -0.7
v 3.8 1.4 -0.8
v 3.8 1.5 -0.8
v 3.9 1.5 -0.8
v 3.9 1.7 -0.8
v 4 2 -0.8
v 4 3.5 -0.8
v 4.4 1.4 -0.8
v 4.4 1.5 -0.8
v 4.4 1.7 -0.8
v 4.4 2 -0.8
v 4.4 2.7 -0.8
v 4.6 1.4 -0.8
v 4.6 1.5 -0.8
v 4.6 1.7 -0.8
v 4.6 2 -0.8
v 4.6 2.7 -0.8
v 5 2 -0.8
v 5 3.5 -0.8
v 5.1 1.5 -0.8
v 5.1 1.7 -0.8
v 5.2 1.4 -0.8
v 5.2 1.5 -0.8
v 4 1.7 -0.9
v 4 1.8 -0.9
v 5 1.7 -0.9
v 5 1.8 -0.9
v 3.8 1.5 -1
v 3.8 2.2 -1
v 3.9 1.5 -1
v 3.9 1.7 -1
v 3.9 1.9 -1
v 3.9 2.2 -1
v 3.9 3.6 -1
v 4 2 -1
v 4 3.5 -1
v 4.4 0.7 -1
v 4.4 0.9 -1
v 4.6 0.7 -1
v 4.6 0.9 -1
v 5 2 -1
v 5 3.5 -1
v 5.1 1.5 -1
v 5.1 1.7 -1
v 5.1 1.9 -1
v 5.1 2.2 -1
v 5.1 3.6 -1
v 5.2 1.5 -1
v 5.2 2.2 -1
v 3.8 2.2 -1.1
v 3.8 2.3 -1.1
v 3.9 2.2 -1.1
v 3.9 2.3 -1.1
v 5.1 2.2 -1.1
v 5.1 2.3 -1.1
v 5.2 2.2 -1.1
v 5.2 2.3 -1.1
v 4 0.7 -1.4
v 4 0.9 -1.4
v 4.1 0.7 -1.4
v 4.1 0.8 -1.4
v 4.4 0.8 -1.4
v 4.4 0.9 -1.4
v 4.4 1.4 -1.4
v 4.6 0.8 -1.4
v 4.6 0.9 -1.4
v 4.6 1.4 -1.4
v 4.9 0.7 -1.4
v 4.9 0.8 -1.4
v 5 0.7 -1.4
v 5 0.9 -1.4
v 3.8 2.1 -1.8
v 3.8 2.2 -1.8
v 3.9 2.1 -1.8
v 3.9 2.2 -1.8
v 5.1 2.1 -1.8
v 5.1 2.2 -1.8
v 5.2 2.1 -1.8
v 5.2 2.2 -1.8
v 3.8 1.5 -1.9
v 3.8 2.1 -1.9
v 3.9 1.5 -1.9
v 3.9 1.7 -1.9
v 3.9 2.1 -1.9
v 4.4 0.7 -1.9
v 4.4 0.8 -1.9
v 4.6 0.7 -1.9
v 4.6 0.8 -1.9
v 5.1 1.5 -1.9
v 5.1 1.7 -1.9
v 5.1 2.1 -1.9
v 5.2 1.5 -1.9
v 5.2 2.1 -1.9
v 4.4 1.7 -0.8
v 4.4 2 -0.8
v 4.6 1.7 -0.8
v 4.6 2 -0.8
v 3.8 1.5 -1.1
v 3.8 2.1 -1.1
v 3.9 1.5 -1.1
v 3.9 1.7 -1.1
v 3.9 1.9 -1.1
v 3.9 2.1 -1.1
v 3.9 2.3 -1.1
v 3.9 3.6 -1.1
v 4 2.1 -1.1
v 4 3.5 -1.1
v 4.4 0.7 -1.1
v 4.4 0.8 -1.1
v 4.6 0.7 -1.1
v 4.6 0.8 -1.1
v 5 2.1 -1.1
v 5 3.5 -1.1
v 5.1 1.5 -1.1
v 5.1 1.7 -1.1
v 5.1 1.9 -1.1
v 5.1 2.1 -1.1
v 5.1 2.3 -1.1
v 5.1 3.6 -1.1
v 5.2 1.5 -1.1
v 5.2 2.1 -1.1
v 3.8 2.1 -1.2
v 3.8 2.2 -1.2
v 3.9 2.1 -1.2
v 3.9 2.2 -1.2
v 4 2.1 -1.2
v 4 3.5 -1.2
v 5 2.1 -1.2
v 5 3.5 -1.2
v 5.1 2.1 -1.2
v 5.1 2.2 -1.2
v 5.2 2.1 -1.2
v 5.2 2.2 -1.2
v 4 0.7 -1.6
v 4 0.9 -1.6
v 4.1 0.7 -1.6
v 4.1 0.8 -1.6
v 4.4 0.8 -1.6
v 4.4 0.9 -1.6
v 4.4 1.4 -1.6
v 4.6 0.8 -1.6
v 4.6 0.9 -1.6
v 4.6 1.4 -1.6
v 4.9 0.7 -1.6
v 4.9 0.8 -1.6
v 5 0.7 -1.6
v 5 0.9 -1.6
v 3.8 2.2 -1.9
v 3.8 2.3 -1.9
v 3.9 2.2 -1.9
v 3.9 2.3 -1.9
v 5.1 2.2 -1.9
v 5.1 2.3 -1.9
v 5.2 2.2 -1.9
v 5.2 2.3 -1.9
v 3.8 1.5 -2
v 3.8 2.2 -2
v 3.9 1.5 -2
v 3.9 1.7 -2
v 3.9 2.2 -2
v 4.4 0.7 -2
v 4.4 0.9 -2
v 4.6 0.7 -2
v 4.6 0.9 -2
v 5.1 1.5 -2
v 5.1 1.7 -2
v 5.1 2.2 -2
v 5.2 1.5 -2
v 5.2 2.2 -2
v 4 1.7 -2.1
v 4 1.8 -2.1
v 5 1.7 -2.1
v 5 1.8 -2.1
v 3.8 1.4 -2.2
v 3.8 1.5 -2.2
v 3.9 1.5 -2.2
v 3.9 1.7 -2.2
v 5.1 1.5 -2.2
v 5.1 1.7 -2.2
v 5.2 1.4 -2.2
v 5.2 1.5 -2.2
v 4.4 0.7 -1
v 4.6 0.7 -1
v 4.4 0.7 -1.1
v 4.6 0.7 -1.1
v 4 0.7 -1.4
v 4.1 0.7 -1.4
v 4.9 0.7 -1.4
v 5 0.7 -1.4
v 4 0.7 -1.6
v 4.1 0.7 -1.6
v 4.9 0.7 -1.6
v 5 0.7 -1.6
v 4.4 0.7 -1.9
v 4.6 0.7 -1.9
v 4.4 0.7 -2
v 4.6 0.7 -2
v 4.4 0.8 -1.1
v 4.6 0.8 -1.1
v 4.1 0.8 -1.4
v 4.4 0.8 -1.4
v 4.6 0.8 -1.4
v 4.9 0.8 -1.4
v 4.1 0.8 -1.6
v 4.4 0.8 -1.6
v 4.6 0.8 -1.6
v 4.9 0.8 -1.6
v 4.4 0.8 -1.9
v 4.6 0.8 -1.9
v 4.4 1.4 -0.7
v 4.6 1.4 -0.7
v 3.8 1.4 -0.8
v 4.4 1.4 -0.8
v 4.6 1.4 -0.8
v 5.2 1.4 -0.8
v 4.4 1.4 -1.4
v 4.6 1.4 -1.4
v 4.4 1.4 -1.6
v 4.6 1.4 -1.6
v 3.8 1.4 -2.2
v 5.2 1.4 -2.2
v 3.9 1.9 -1
v 5.1 1.9 -1
v 3.9 1.9 -1.1
v 5.1 1.9 -1.1
v 4 2 -0.8
v 4.4 2 -0.8
v 4.6 2 -0.8
v 5 2 -0.8
v 4 2 -0.9
v 5 2 -0.9
v 4 2 -1
v 5 2 -1
v 3.8 2.1 -1.1
v 3.9 2.1 -1.1
v 4 2.1 -1.1
v 5 2.1 -1.1
v 5.1 2.1 -1.1
v 5.2 2.1 -1.1
v 3.8 2.1 -1.2
v 3.9 2.1 -1.2
v 4 2.1 -1.2
v 5 2.1 -1.2
v 5.1 2.1 -1.2
v 5.2 2.1 -1.2
v 3.8 2.1 -1.8
v 3.9 2.1 -1.8
v 5.1 2.1 -1.8
v 5.2 2.1 -1.8
v 3.8 2.1 -1.9
v 3.9 2.1 -1.9
v 5.1 2.1 -1.9
v 5.2 2.1 -1.9
v 3.8 2.2 -1.2
v 3.9 2.2 -1.2
v 5.1 2.2 -1.2
v 5.2 2.2 -1.2
v 3.8 2.2 -1.8
v 3.9 2.2 -1.8
v 5.1 2.2 -1.8
v 5.2 2.2 -1.8
v 4.4 0.9 -1
v 4.6 0.9 -1
v 4 0.9 -1.4
v 4.4 0.9 -1.4
v 4.6 0.9 -1.4
v 5 0.9 -1.4
v 4 0.9 -1.6
v 4.4 0.9 -1.6
v 4.6 0.9 -1.6
v 5 0.9 -1.6
v 4.4 0.9 -2
v 4.6 0.9 -2
v 3.8 1.5 -0.8
v 3.9 1.5 -0.8
v 5.1 1.5 -0.8
v 5.2 1.5 -0.8
v 3.8 1.5 -1
v 3.9 1.5 -1
v 5.1 1.5 -1
v 5.2 1.5 -1
v 3.8 1.5 -1.1
v 3.9 1.5 -1.1
v 5.1 1.5 -1.1
v 5.2 1.5 -1.1
v 3.8 1.5 -1.9
v 3.9 1.5 -1.9
v 5.1 1.5 -1.9
v 5.2 1.5 -1.9
v 3.8 1.5 -2
v 3.9 1.5 -2
v 5.1 1.5 -2
v 5.2 1.5 -2
v 3.8 1.5 -2.2
v 3.9 1.5 -2.2
v 5.1 1.5 -2.2
v 5.2 1.5 -2.2
v 3.9 1.7 -0.8
v 4.4 1.7 -0.8
v 4.6 1.7 -0.8
v 5.1 1.7 -0.8
v 4 1.7 -0.9
v 5 1.7 -0.9
v 3.9 1.7 -1
v 5.1 1.7 -1
v 3.9 1.7 -1.1
v 5.1 1.7 -1.1
v 3.9 1.7 -1.9
v 5.1 1.7 -1.9
v 3.9 1.7 -2
v 5.1 1.7 -2
v 4 1.7 -2.1
v 5 1.7 -2.1
v 3.9 1.7 -2.2
v 5.1 1.7 -2.2
v 4 1.8 -0.9
v 5 1.8 -0.9
v 4 1.8 -2.1
v 5 1.8 -2.1
v 3.8 2.2 -1
v 3.9 2.2 -1
v 5.1 2.2 -1
v 5.2 2.2 -1
v 3.8 2.2 -1.1
v 3.9 2.2 -1.1
v 5.1 2.2 -1.1
v 5.2 2.2 -1.1
v 3.8 2.2 -1.9
v 3.9 2.2 -1.9
v 5.1 2.2 -1.9
v 5.2 2.2 -1.9
v 3.8 2.2 -2
v 3.9 2.2 -2
v 5.1 2.2 -2
v 5.2 2.2 -2
v 3.8 2.3 -1.1
v 3.9 2.3 -1.1
v 5.1 2.3 -1.1
v 5.2 2.3 -1.1
v 3.8 2.3 -1.9
v 3.9 2.3 -1.9
v 5.1 2.3 -1.9
v 5.2 2.3 -1.9
v 4.4 2.7 -0.7
v 4.6 2.7 -0.7
v 4.4 2.7 -0.8
v 4.6 2.7 -0.8
v 4 3.5 -0.8
v 5 3.5 -0.8
v 4 3.5 -0.9
v 5 3.5 -0.9
v 4 3.5 -1
v 5 3.5 -1
v 4 3.5 -1.1
v 5 3.5 -1.1
v 4 3.5 -1.2
v 5 3.5 -1.2
v 3.9 3.6 -1
v 5.1 3.6 -1
v 3.9 3.6 -1.1
v 5.1 3.6 -1.1

# faces
f 3/2/1 2/2/1 1/2/1
f 4/2/1 2/2/1 3/2/1
f 5/2/1 2/2/1 4/2/1
f 6/2/1 2/2/1 5/2/1
f 7/2/1 2/2/1 6/2/1
f 8/2/1 2/2/1 7/2/1
f 9/2/1 5/2/1 4/2/1
f 12/2/1 7/2/1 6/2/1
f 13/2/1 10/2/1 9/2/1
f 13/2/1 9/2/1 4/2/1
f 14/2/1 10/2/1 13/2/1
f 15/2/1 10/2/1 14/2/1
f 16/2/1 12/2/1 11/2/1
f 17/2/1 7/2/1 12/2/1
f 17/2/1 12/2/1 16/2/1
f 18/2/1 7/2/1 17/2/1
f 19/2/1 15/2/1 14/2/1
f 19/2/1 16/2/1 15/2/1
f 19/2/1 17/2/1 16/2/1
f 20/2/1 17/2/1 19/2/1
f 27/1/1 22/1/1 21/1/1
f 28/1/1 22/1/1 27/1/1
f 29/1/1 24/1/1 23/1/1
f 30/1/1 24/1/1 29/1/1
f 31/1/1 26/1/1 25/1/1
f 32/1/1 26/1/1 31/1/1
f 35/1/1 34/1/1 33/1/1
f 36/1/1 35/1/1 33/1/1
f 37/1/1 35/1/1 36/1/1
f 40/2/1 39/2/1 38/2/1
f 41/2/1 39/2/1 40/2/1
f 44/1/1 43/1/1 42/1/1
f 45/1/1 43/1/1 44/1/1
f 51/2/1 47/2/1 46/2/1
f 52/1/1 48/1/1 47/1/1
f 52/2/1 47/2/1 51/2/1
f 53/1/1 48/1/1 52/1/1
f 54/1/1 50/1/1 49/1/1
f 55/1/1 50/1/1 54/1/1
f 60/2/1 57/2/1 56/2/1
f 63/2/1 59/2/1 58/2/1
f 64/2/1 61/2/1 60/2/1
f 64/2/1 60/2/1 56/2/1
f 65/2/1 61/2/1 64/2/1
f 66/2/1 63/2/1 62/2/1
f 67/2/1 59/2/1 63/2/1
f 67/2/1 63/2/1 66/2/1
f 70/2/1 66/2/1 65/2/1
f 71/2/1 66/2/1 70/2/1
f 72/2/1 69/2/1 68/2/1
f 73/2/1 72/2/1 68/2/1
f 74/2/1 73/2/1 68/2/1
f 75/2/1 74/2/1 68/2/1
f 76/2/1 74/2/1 75/2/1
f 79/2/1 78/2/1 77/2/1
f 80/2/1 78/2/1 79/2/1
f 85/2/1 82/2/1 81/2/1
f 86/2/1 82/2/1 85/2/1
f 90/2/1 84/2/1 83/2/1
f 91/2/1 88/2/1 87/2/1
f 92/2/1 90/2/1 89/2/1
f 93/2/1 84/2/1 90/2/1
f 93/2/1 90/2/1 92/2/1
f 94/2/1 84/2/1 93/2/1
f 95/2/1 91/2/1 87/2/1
f 95/2/1 92/2/1 91/2/1
f 95/2/1 93/2/1 92/2/1
f 96/2/1 93/2/1 95/2/1
f 97/2/2 98/2/2 101/2/2
f 101/2/2 98/2/2 102/2/2
f 99/2/2 100/2/2 106/2/2
f 103/2/2 104/2/2 107/2/2
f 105/2/2 106/2/2 108/2/2
f 106/2/2 100/2/2 109/2/2
f 108/2/2 106/2/2 109/2/2
f 109/2/2 100/2/2 110/2/2
f 103/2/2 107/2/2 111/2/2
f 107/2/2 108/2/2 111/2/2
f 108/2/2 109/2/2 111/2/2
f 111/2/2 109/2/2 112/2/2
f 113/2/2 114/2/2 115/2/2
f 115/2/2 114/2/2 116/2/2
f 117/2/2 118/2/2 121/2/2
f 119/2/2 120/2/2 124/2/2
f 121/2/2 122/2/2 125/2/2
f 117/2/2 121/2/2 125/2/2
f 125/2/2 122/2/2 126/2/2
f 123/2/2 124/2/2 127/2/2
f 124/2/2 120/2/2 128/2/2
f 127/2/2 124/2/2 128/2/2
f 126/2/2 127/2/2 131/2/2
f 131/2/2 127/2/2 132/2/2
f 129/2/2 130/2/2 133/2/2
f 129/2/2 133/2/2 134/2/2
f 129/2/2 134/2/2 135/2/2
f 129/2/2 135/2/2 136/2/2
f 136/2/2 135/2/2 137/2/2
f 138/2/2 139/2/2 140/2/2
f 140/2/2 139/2/2 141/2/2
f 142/1/2 143/1/2 144/1/2
f 144/1/2 143/1/2 145/1/2
f 146/2/2 147/2/2 151/2/2
f 147/1/2 148/1/2 152/1/2
f 151/2/2 147/2/2 152/2/2
f 152/1/2 148/1/2 153/1/2
f 149/1/2 150/1/2 154/1/2
f 154/1/2 150/1/2 155/1/2
f 156/1/2 157/1/2 162/1/2
f 162/1/2 157/1/2 163/1/2
f 158/1/2 159/1/2 164/1/2
f 164/1/2 159/1/2 165/1/2
f 160/1/2 161/1/2 166/1/2
f 166/1/2 161/1/2 167/1/2
f 168/1/2 169/1/2 170/1/2
f 168/1/2 170/1/2 171/1/2
f 171/1/2 170/1/2 172/1/2
f 173/2/2 174/2/2 175/2/2
f 175/2/2 174/2/2 176/2/2
f 176/2/2 174/2/2 177/2/2
f 177/2/2 174/2/2 178/2/2
f 178/2/2 174/2/2 179/2/2
f 179/2/2 174/2/2 180/2/2
f 176/2/2 177/2/2 181/2/2
f 178/2/2 179/2/2 184/2/2
f 181/2/2 182/2/2 185/2/2
f 176/2/2 181/2/2 185/2/2
f 185/2/2 182/2/2 186/2/2
f 186/2/2 182/2/2 187/2/2
f 183/2/2 184/2/2 188/2/2
f 184/2/2 179/2/2 189/2/2
f 188/2/2 184/2/2 189/2/2
f 189/2/2 179/2/2 190/2/2
f 186/2/2 187/2/2 191/2/2
f 187/2/2 188/2/2 191/2/2
f 188/2/2 189/2/2 191/2/2
f 191/2/2 189/2/2 192/2/2
f 195/2/3 194/2/3 193/2/3
f 196/2/3 194/2/3 195/2/3
f 199/2/3 198/2/3 197/2/3
f 203/2/3 199/2/3 197/2/3
f 204/1/3 200/1/3 199/1/3
f 204/2/3 199/2/3 203/2/3
f 205/1/3 200/1/3 204/1/3
f 206/2/3 202/2/3 201/2/3
f 207/2/3 202/2/3 206/2/3
f 212/2/3 202/2/3 207/2/3
f 213/2/3 212/2/3 211/2/3
f 214/2/3 202/2/3 212/2/3
f 214/2/3 212/2/3 213/2/3
f 215/1/3 210/1/3 209/1/3
f 215/2/3 209/2/3 208/2/3
f 216/1/3 210/1/3 215/1/3
f 217/2/3 215/2/3 208/2/3
f 218/2/3 215/2/3 217/2/3
f 221/1/3 220/1/3 219/1/3
f 222/1/3 220/1/3 221/1/3
f 225/2/3 224/2/3 223/2/3
f 226/2/3 224/2/3 225/2/3
f 227/2/3 224/2/3 226/2/3
f 228/2/3 224/2/3 227/2/3
f 230/1/3 229/1/3 228/1/3
f 230/1/3 228/1/3 227/1/3
f 231/1/3 229/1/3 230/1/3
f 234/2/3 233/2/3 232/2/3
f 235/2/3 233/2/3 234/2/3
f 236/1/3 230/1/3 227/1/3
f 237/1/3 229/1/3 231/1/3
f 240/1/3 236/1/3 227/1/3
f 240/1/3 237/1/3 236/1/3
f 241/1/3 237/1/3 240/1/3
f 242/1/3 229/1/3 237/1/3
f 242/1/3 237/1/3 241/1/3
f 243/2/3 239/2/3 238/2/3
f 243/2/3 241/2/3 240/2/3
f 243/2/3 240/2/3 239/2/3
f 244/2/3 241/2/3 243/2/3
f 247/2/3 246/2/3 245/2/3
f 248/2/3 246/2/3 247/2/3
f 251/2/3 250/2/3 249/2/3
f 252/2/3 250/2/3 251/2/3
f 255/2/3 254/2/3 253/2/3
f 256/2/3 254/2/3 255/2/3
f 257/2/3 254/2/3 256/2/3
f 258/2/3 254/2/3 257/2/3
f 261/2/3 259/2/3 258/2/3
f 262/2/3 259/2/3 261/2/3
f 264/2/3 261/2/3 260/2/3
f 265/2/3 264/2/3 263/2/3
f 266/2/3 261/2/3 264/2/3
f 266/2/3 264/2/3 265/2/3
f 269/2/3 268/2/3 267/2/3
f 270/2/3 268/2/3 269/2/3
f 273/2/3 272/2/3 271/2/3
f 274/2/3 272/2/3 273/2/3
f 277/2/3 276/2/3 275/2/3
f 278/2/3 276/2/3 277/2/3
f 279/2/3 276/2/3 278/2/3
f 282/2/3 281/2/3 280/2/3
f 283/2/3 281/2/3 282/2/3
f 287/2/3 285/2/3 284/2/3
f 287/2/3 286/2/3 285/2/3
f 288/2/3 286/2/3 287/2/3
f 289/2/4 290/2/4 291/2/4
f 291/2/4 290/2/4 292/2/4
f 293/2/4 294/2/4 295/2/4
f 295/2/4 294/2/4 296/2/4
f 296/2/4 294/2/4 297/2/4
f 297/2/4 294/2/4 298/2/4
f 299/1/4 300/1/4 301/1/4
f 298/1/4 299/1/4 301/1/4
f 297/1/4 298/1/4 301/1/4
f 301/1/4 300/1/4 302/1/4
f 303/2/4 304/2/4 305/2/4
f 305/2/4 304/2/4 306/2/4
f 297/1/4 301/1/4 307/1/4
f 302/1/4 300/1/4 308/1/4
f 297/1/4 307/1/4 311/1/4
f 307/1/4 308/1/4 311/1/4
f 311/1/4 308/1/4 312/1/4
f 312/1/4 308/1/4 313/1/4
f 308/1/4 300/1/4 314/1/4
f 313/1/4 308/1/4 314/1/4
f 309/2/4 310/2/4 315/2/4
f 311/2/4 312/2/4 315/2/4
f 310/2/4 311/2/4 315/2/4
f 315/2/4 312/2/4 316/2/4
f 317/2/4 318/2/4 319/2/4
f 319/2/4 318/2/4 320/2/4
f 321/1/4 322/1/4 323/1/4
f 323/1/4 322/1/4 324/1/4
f 325/2/4 326/2/4 327/2/4
f 327/2/4 326/2/4 328/2/4
f 329/2/4 330/2/4 331/2/4
f 331/2/4 330/2/4 332/2/4
f 332/2/4 330/2/4 333/2/4
f 333/2/4 330/2/4 334/2/4
f 334/2/4 335/2/4 337/2/4
f 337/2/4 335/2/4 338/2/4
f 336/2/4 337/2/4 340/2/4
f 339/2/4 340/2/4 341/2/4
f 340/2/4 337/2/4 342/2/4
f 341/2/4 340/2/4 342/2/4
f 343/2/4 344/2/4 345/2/4
f 345/2/4 344/2/4 346/2/4
f 347/2/4 348/2/4 349/2/4
f 349/2/4 348/2/4 350/2/4
f 351/2/4 352/2/4 353/2/4
f 353/2/4 352/2/4 354/2/4
f 354/2/4 352/2/4 355/2/4
f 356/2/4 357/2/4 358/2/4
f 358/2/4 357/2/4 359/2/4
f 360/2/4 361/2/4 363/2/4
f 361/2/4 362/2/4 363/2/4
f 363/2/4 362/2/4 364/2/4
f 365/1/4 366/1/4 367/1/4
f 367/1/4 366/1/4 368/1/4
f 369/2/4 370/2/4 371/2/4
f 369/2/4 371/2/4 373/2/4
f 371/1/4 372/1/4 373/1/4
f 373/1/4 372/1/4 374/1/4
f 369/2/4 373/2/4 375/2/4
f 375/2/4 373/2/4 376/2/4
f 379/2/5 378/2/5 377/2/5
f 380/2/5 378/2/5 379/2/5
f 385/2/5 382/2/5 381/2/5
f 386/2/5 382/2/5 385/2/5
f 387/2/5 384/2/5 383/2/5
f 388/2/5 384/2/5 387/2/5
f 391/2/5 390/2/5 389/2/5
f 392/2/5 390/2/5 391/2/5
f 396/2/5 394/2/5 393/2/5
f 397/2/5 394/2/5 396/2/5
f 399/2/5 396/2/5 395/2/5
f 399/2/5 398/2/5 397/2/5
f 399/2/5 397/2/5 396/2/5
f 400/2/5 398/2/5 399/2/5
f 401/2/5 398/2/5 400/2/5
f 402/2/5 398/2/5 401/2/5
f 403/2/5 401/2/5 400/2/5
f 404/2/5 401/2/5 403/2/5
f 408/2/5 406/2/5 405/2/5
f 409/2/5 406/2/5 408/2/5
f 411/2/5 408/2/5 407/2/5
f 411/2/5 410/2/5 409/2/5
f 411/2/5 409/2/5 408/2/5
f 412/2/5 410/2/5 411/2/5
f 413/2/5 411/2/5 407/2/5
f 414/2/5 410/2/5 412/2/5
f 415/2/5 413/2/5 407/2/5
f 415/2/5 414/2/5 413/2/5
f 416/2/5 410/2/5 414/2/5
f 416/2/5 414/2/5 415/2/5
f 419/1/5 418/1/5 417/1/5
f 420/1/5 418/1/5 419/1/5
f 425/2/5 422/2/5 421/2/5
f 425/2/5 424/2/5 423/2/5
f 425/2/5 423/2/5 422/2/5
f 426/2/5 424/2/5 425/2/5
f 427/1/5 426/1/5 425/1/5
f 428/1/5 426/1/5 427/1/5
f 435/2/5 430/2/5 429/2/5
f 436/2/5 430/2/5 435/2/5
f 437/1/5 432/1/5 431/1/5
f 438/1/5 432/1/5 437/1/5
f 439/2/5 434/2/5 433/2/5
f 440/2/5 434/2/5 439/2/5
f 445/2/5 442/2/5 441/2/5
f 446/2/5 442/2/5 445/2/5
f 447/2/5 444/2/5 443/2/5
f 448/2/5 444/2/5 447/2/5
f 453/2/5 450/2/5 449/2/5
f 454/2/5 450/2/5 453/2/5
f 455/2/5 452/2/5 451/2/5
f 456/2/5 452/2/5 455/2/5
f 457/2/6 458/2/6 460/2/6
f 460/2/6 458/2/6 461/2/6
f 459/2/6 460/2/6 463/2/6
f 463/2/6 460/2/6 464/2/6
f 461/2/6 462/2/6 465/2/6
f 465/2/6 462/2/6 466/2/6
f 464/2/6 465/2/6 467/2/6
f 467/2/6 465/2/6 468/2/6
f 469/2/6 470/2/6 473/2/6
f 473/2/6 470/2/6 474/2/6
f 471/2/6 472/2/6 475/2/6
f 475/2/6 472/2/6 476/2/6
f 477/2/6 478/2/6 481/2/6
f 481/2/6 478/2/6 482/2/6
f 479/2/6 480/2/6 483/2/6
f 483/2/6 480/2/6 484/2/6
f 485/2/6 486/2/6 489/2/6
f 489/2/6 486/2/6 490/2/6
f 487/2/6 488/2/6 491/2/6
f 491/2/6 488/2/6 492/2/6
f 493/1/6 494/1/6 497/1/6
f 495/1/6 496/1/6 497/1/6
f 494/1/6 495/1/6 497/1/6
f 497/1/6 496/1/6 498/1/6
f 493/1/6 497/1/6 499/1/6
f 498/1/6 496/1/6 500/1/6
f 499/1/6 497/1/6 501/1/6
f 498/1/6 500/1/6 502/1/6
f 501/1/6 497/1/6 503/1/6
f 498/1/6 502/1/6 504/1/6
f 503/1/6 497/1/6 505/1/6
f 498/1/6 504/1/6 506/1/6
f 505/1/6 497/1/6 507/1/6
f 498/1/6 506/1/6 508/1/6
f 505/1/6 507/1/6 509/1/6
f 507/1/6 508/1/6 509/1/6
f 508/1/6 506/1/6 510/1/6
f 509/1/6 508/1/6 510/1/6
f 511/1/6 512/1/6 513/1/6
f 513/1/6 512/1/6 514/1/6
f 515/2/6 516/2/6 519/2/6
f 519/2/6 516/2/6 520/2/6
f 517/2/6 518/2/6 521/2/6
f 521/2/6 518/2/6 522/2/6
f 523/2/6 524/2/6 527/2/6
f 527/2/6 524/2/6 528/2/6
f 525/2/6 526/2/6 529/2/6
f 529/2/6 526/2/6 530/2/6
f 531/2/6 532/2/6 535/2/6
f 535/2/6 532/2/6 536/2/6
f 533/2/6 534/2/6 537/2/6
f 537/2/6 534/2/6 538/2/6
f 539/2/6 540/2/6 541/2/6
f 541/2/6 540/2/6 542/2/6
f 543/2/6 544/2/6 545/2/6
f 545/2/6 544/2/6 546/2/6
f 545/1/6 546/1/6 547/1/6
f 547/1/6 546/1/6 548/1/6
f 549/1/6 550/1/6 551/1/6
f 551/1/6 550/1/6 552/1/6
f 553/1/6 554/1/6 555/1/6
f 555/1/6 554/1/6 556/1/6
