# MagicaVoxel @ Ephtracy

# group
o Window

# material
mtllib Red-house-5-Window.mtl
usemtl palette

# normals
vn 0 0 1
vn 0 0 -1
vn -1 0 0
vn 1 0 0
vn 0 -1 0
vn 0 1 0

# texcoords
vt 0.697266 0.5
vt 0.701172 0.5

# verts
v -2.3 3.2 1.5
v -1.1 3.2 1.5
v -2.2 3.3 1.5
v -1.2 3.3 1.5
v -2.2 3.7 1.5
v -1.2 3.7 1.5
v -2.2 3.8 1.5
v -1.2 3.8 1.5
v -2.2 4.1 1.5
v -1.2 4.1 1.5
v -2.2 4.2 1.5
v -1.2 4.2 1.5
v -2.2 4.4 1.5
v -1.2 4.4 1.5
v -2.3 4.5 1.5
v -1.1 4.5 1.5
v -2.2 3.3 1.4
v -1.2 3.3 1.4
v -2.2 3.4 1.4
v -1.2 3.4 1.4
v -2.2 3.7 1.4
v -1.2 3.7 1.4
v -2.2 3.8 1.4
v -1.2 3.8 1.4
v -2.2 4.1 1.4
v -1.2 4.1 1.4
v -2.2 4.2 1.4
v -1.2 4.2 1.4
v -2.2 4.4 1.4
v -1.2 4.4 1.4
v -2.3 3.2 1.3
v -1.1 3.2 1.3
v -2.2 3.4 1.3
v -1.2 3.4 1.3
v -2.2 4.1 1.3
v -1.2 4.1 1.3
v -2.2 4.2 1.3
v -1.2 4.2 1.3
v -2.2 4.4 1.3
v -1.2 4.4 1.3
v -2.3 4.5 1.3
v -1.1 4.5 1.3
v -2.3 3.2 1.5
v -2.3 4.5 1.5
v -2.3 3.2 1.3
v -2.3 4.5 1.3
v -1.2 3.3 1.5
v -1.2 3.7 1.5
v -1.2 3.8 1.5
v -1.2 4.1 1.5
v -1.2 4.2 1.5
v -1.2 4.4 1.5
v -1.2 3.3 1.4
v -1.2 3.4 1.4
v -1.2 3.7 1.4
v -1.2 3.8 1.4
v -1.2 4.1 1.4
v -1.2 4.2 1.4
v -1.2 4.4 1.4
v -2.2 3.3 1.5
v -2.2 3.7 1.5
v -2.2 3.8 1.5
v -2.2 4.1 1.5
v -2.2 4.2 1.5
v -2.2 4.4 1.5
v -2.2 3.3 1.4
v -2.2 3.4 1.4
v -2.2 3.7 1.4
v -2.2 3.8 1.4
v -2.2 4.1 1.4
v -2.2 4.2 1.4
v -2.2 4.4 1.4
v -1.1 3.2 1.5
v -1.1 4.5 1.5
v -1.1 3.2 1.3
v -1.1 4.5 1.3
v -2.3 3.2 1.5
v -2.3 3.2 1.3
v -1.1 3.2 1.5
v -1.1 3.2 1.3
v -2.2 3.7 1.5
v -2.2 3.7 1.4
v -1.2 3.7 1.5
v -1.2 3.7 1.4
v -2.2 4.1 1.5
v -2.2 4.1 1.4
v -1.2 4.1 1.5
v -1.2 4.1 1.4
v -2.2 4.4 1.5
v -2.2 4.4 1.4
v -1.2 4.4 1.5
v -1.2 4.4 1.4
v -2.2 3.3 1.5
v -2.2 3.3 1.4
v -1.2 3.3 1.5
v -1.2 3.3 1.4
v -2.2 3.8 1.5
v -2.2 3.8 1.4
v -1.2 3.8 1.5
v -1.2 3.8 1.4
v -2.2 4.2 1.5
v -2.2 4.2 1.4
v -1.2 4.2 1.5
v -1.2 4.2 1.4
v -2.3 4.5 1.5
v -2.3 4.5 1.3
v -1.1 4.5 1.5
v -1.1 4.5 1.3

# faces
f 1/1/1 2/1/1 3/1/1
f 3/1/1 2/1/1 4/1/1
f 1/1/1 3/1/1 5/1/1
f 4/1/1 2/1/1 6/1/1
f 1/1/1 5/1/1 7/1/1
f 5/1/1 6/1/1 7/1/1
f 6/1/1 2/1/1 8/1/1
f 7/1/1 6/1/1 8/1/1
f 1/1/1 7/1/1 9/1/1
f 8/1/1 2/1/1 10/1/1
f 1/1/1 9/1/1 11/1/1
f 9/1/1 10/1/1 11/1/1
f 10/1/1 2/1/1 12/1/1
f 11/1/1 10/1/1 12/1/1
f 1/1/1 11/1/1 13/1/1
f 12/1/1 2/1/1 14/1/1
f 1/1/1 13/1/1 15/1/1
f 13/1/1 14/1/1 15/1/1
f 14/1/1 2/1/1 16/1/1
f 15/1/1 14/1/1 16/1/1
f 17/1/1 18/1/1 19/1/1
f 19/1/1 18/1/1 20/1/1
f 19/2/1 20/2/1 21/2/1
f 21/2/1 20/2/1 22/2/1
f 23/2/1 24/2/1 25/2/1
f 25/2/1 24/2/1 26/2/1
f 27/2/1 28/2/1 29/2/1
f 29/2/1 28/2/1 30/2/1
f 33/1/2 32/1/2 31/1/2
f 34/1/2 32/1/2 33/1/2
f 35/1/2 33/1/2 31/1/2
f 35/2/2 34/2/2 33/2/2
f 36/1/2 32/1/2 34/1/2
f 36/2/2 34/2/2 35/2/2
f 37/1/2 35/1/2 31/1/2
f 37/1/2 36/1/2 35/1/2
f 38/1/2 32/1/2 36/1/2
f 38/1/2 36/1/2 37/1/2
f 39/1/2 37/1/2 31/1/2
f 39/2/2 38/2/2 37/2/2
f 40/1/2 32/1/2 38/1/2
f 40/2/2 38/2/2 39/2/2
f 41/1/2 39/1/2 31/1/2
f 41/1/2 40/1/2 39/1/2
f 42/1/2 32/1/2 40/1/2
f 42/1/2 40/1/2 41/1/2
f 43/1/3 44/1/3 45/1/3
f 45/1/3 44/1/3 46/1/3
f 47/1/3 48/1/3 53/1/3
f 53/1/3 48/1/3 54/1/3
f 54/1/3 48/1/3 55/1/3
f 49/1/3 50/1/3 56/1/3
f 56/1/3 50/1/3 57/1/3
f 51/1/3 52/1/3 58/1/3
f 58/1/3 52/1/3 59/1/3
f 66/1/4 61/1/4 60/1/4
f 67/1/4 61/1/4 66/1/4
f 68/1/4 61/1/4 67/1/4
f 69/1/4 63/1/4 62/1/4
f 70/1/4 63/1/4 69/1/4
f 71/1/4 65/1/4 64/1/4
f 72/1/4 65/1/4 71/1/4
f 75/1/4 74/1/4 73/1/4
f 76/1/4 74/1/4 75/1/4
f 77/1/5 78/1/5 79/1/5
f 79/1/5 78/1/5 80/1/5
f 81/1/5 82/1/5 83/1/5
f 83/1/5 82/1/5 84/1/5
f 85/1/5 86/1/5 87/1/5
f 87/1/5 86/1/5 88/1/5
f 89/1/5 90/1/5 91/1/5
f 91/1/5 90/1/5 92/1/5
f 95/1/6 94/1/6 93/1/6
f 96/1/6 94/1/6 95/1/6
f 99/1/6 98/1/6 97/1/6
f 100/1/6 98/1/6 99/1/6
f 103/1/6 102/1/6 101/1/6
f 104/1/6 102/1/6 103/1/6
f 107/1/6 106/1/6 105/1/6
f 108/1/6 106/1/6 107/1/6
