# MagicaVoxel @ Ephtracy

# group
o 

# material
mtllib cerca.mtl
usemtl palette

# normals
vn -1 0 0
vn 1 0 0
vn 0 0 1
vn 0 0 -1
vn 0 -1 0
vn 0 1 0

# texcoords
vt 0.970703 0.5
vt 0.982422 0.5

# verts
v -1.2 0 -0.2
v -1.2 0 -0.4
v -1.2 0.1 -0.2
v -1.2 0.1 -0.4
v -1.2 1.3 -0.2
v -1.2 1.3 -0.4
v -1.2 1.5 -0.2
v -1.2 1.5 -0.4
v -1.1 0 -0.1
v -1.1 0 -0.2
v -1.1 0 -0.4
v -1.1 0 -0.5
v -1.1 0.1 -0.1
v -1.1 0.1 -0.2
v -1.1 0.1 -0.4
v -1.1 0.1 -0.5
v -1.1 1.3 -0.2
v -1.1 1.3 -0.4
v -1.1 1.4 -0.1
v -1.1 1.4 -0.2
v -1.1 1.4 -0.4
v -1.1 1.4 -0.5
v -1.1 1.5 -0.1
v -1.1 1.5 -0.2
v -1.1 1.5 -0.4
v -1.1 1.5 -0.5
v -1.1 1.6 -0.2
v -1.1 1.6 -0.4
v -0.7 0.3 -0.2
v -0.7 0.3 -0.4
v -0.7 1.1 -0.2
v -0.7 1.1 -0.4
v -0.7 1.2 -0.2
v -0.7 1.2 -0.4
v -0.7 1.4 -0.2
v -0.7 1.4 -0.4
v -0.5 0.3 -0.2
v -0.5 0.3 -0.4
v -0.5 1.3 -0.2
v -0.5 1.3 -0.4
v -0.5 1.4 -0.2
v -0.5 1.4 -0.4
v -0.5 1.5 -0.2
v -0.5 1.5 -0.4
v -0.3 0.3 -0.2
v -0.3 0.3 -0.4
v -0.3 1.4 -0.2
v -0.3 1.4 -0.4
v -0.0999999 0.3 -0.2
v -0.0999999 0.3 -0.4
v -0.0999999 1.4 -0.2
v -0.0999999 1.4 -0.4
v 0.2 0.3 -0.2
v 0.2 0.3 -0.4
v 0.2 1.4 -0.2
v 0.2 1.4 -0.4
v 0.4 0.3 -0.2
v 0.4 0.3 -0.4
v 0.4 1.4 -0.2
v 0.4 1.4 -0.4
v 0.6 0.3 -0.2
v 0.6 0.3 -0.4
v 0.6 1.3 -0.2
v 0.6 1.3 -0.4
v 0.8 0 -0.2
v 0.8 0 -0.4
v 0.8 0.1 -0.2
v 0.8 0.1 -0.4
v 0.8 0.3 -0.2
v 0.8 0.3 -0.4
v 0.8 1.1 -0.2
v 0.8 1.1 -0.4
v 0.8 1.3 -0.2
v 0.8 1.3 -0.4
v 0.8 1.5 -0.2
v 0.8 1.5 -0.4
v 0.9 0 -0.1
v 0.9 0 -0.2
v 0.9 0 -0.4
v 0.9 0 -0.5
v 0.9 0.1 -0.1
v 0.9 0.1 -0.2
v 0.9 0.1 -0.4
v 0.9 0.1 -0.5
v 0.9 0.2 -0.2
v 0.9 0.2 -0.4
v 0.9 1.2 -0.2
v 0.9 1.2 -0.4
v 0.9 1.3 -0.2
v 0.9 1.3 -0.4
v 0.9 1.4 -0.1
v 0.9 1.4 -0.2
v 0.9 1.4 -0.4
v 0.9 1.4 -0.5
v 0.9 1.5 -0.1
v 0.9 1.5 -0.2
v 0.9 1.5 -0.4
v 0.9 1.5 -0.5
v 0.9 1.6 -0.2
v 0.9 1.6 -0.4
v -0.9 0 -0.1
v -0.9 0 -0.2
v -0.9 0 -0.4
v -0.9 0 -0.5
v -0.9 0.1 -0.1
v -0.9 0.1 -0.2
v -0.9 0.1 -0.4
v -0.9 0.1 -0.5
v -0.9 0.2 -0.2
v -0.9 0.2 -0.4
v -0.9 1.2 -0.2
v -0.9 1.2 -0.4
v -0.9 1.3 -0.2
v -0.9 1.3 -0.4
v -0.9 1.4 -0.1
v -0.9 1.4 -0.2
v -0.9 1.4 -0.4
v -0.9 1.4 -0.5
v -0.9 1.5 -0.1
v -0.9 1.5 -0.2
v -0.9 1.5 -0.4
v -0.9 1.5 -0.5
v -0.9 1.6 -0.2
v -0.9 1.6 -0.4
v -0.8 0 -0.2
v -0.8 0 -0.4
v -0.8 0.1 -0.2
v -0.8 0.1 -0.4
v -0.8 0.3 -0.2
v -0.8 0.3 -0.4
v -0.8 1.1 -0.2
v -0.8 1.1 -0.4
v -0.8 1.3 -0.2
v -0.8 1.3 -0.4
v -0.8 1.5 -0.2
v -0.8 1.5 -0.4
v -0.6 0.3 -0.2
v -0.6 0.3 -0.4
v -0.6 1.3 -0.2
v -0.6 1.3 -0.4
v -0.4 0.3 -0.2
v -0.4 0.3 -0.4
v -0.4 1.4 -0.2
v -0.4 1.4 -0.4
v -0.2 0.3 -0.2
v -0.2 0.3 -0.4
v -0.2 1.4 -0.2
v -0.2 1.4 -0.4
v 0.1 0.3 -0.2
v 0.1 0.3 -0.4
v 0.1 1.4 -0.2
v 0.1 1.4 -0.4
v 0.3 0.3 -0.2
v 0.3 0.3 -0.4
v 0.3 1.4 -0.2
v 0.3 1.4 -0.4
v 0.5 0.3 -0.2
v 0.5 0.3 -0.4
v 0.5 1.3 -0.2
v 0.5 1.3 -0.4
v 0.5 1.4 -0.2
v 0.5 1.4 -0.4
v 0.5 1.5 -0.2
v 0.5 1.5 -0.4
v 0.7 0.3 -0.2
v 0.7 0.3 -0.4
v 0.7 1.1 -0.2
v 0.7 1.1 -0.4
v 0.7 1.2 -0.2
v 0.7 1.2 -0.4
v 0.7 1.4 -0.2
v 0.7 1.4 -0.4
v 1.1 0 -0.1
v 1.1 0 -0.2
v 1.1 0 -0.4
v 1.1 0 -0.5
v 1.1 0.1 -0.1
v 1.1 0.1 -0.2
v 1.1 0.1 -0.4
v 1.1 0.1 -0.5
v 1.1 1.3 -0.2
v 1.1 1.3 -0.4
v 1.1 1.4 -0.1
v 1.1 1.4 -0.2
v 1.1 1.4 -0.4
v 1.1 1.4 -0.5
v 1.1 1.5 -0.1
v 1.1 1.5 -0.2
v 1.1 1.5 -0.4
v 1.1 1.5 -0.5
v 1.1 1.6 -0.2
v 1.1 1.6 -0.4
v 1.2 0 -0.2
v 1.2 0 -0.4
v 1.2 0.1 -0.2
v 1.2 0.1 -0.4
v 1.2 1.3 -0.2
v 1.2 1.3 -0.4
v 1.2 1.5 -0.2
v 1.2 1.5 -0.4
v -1.1 0 -0.1
v -1.1 0.1 -0.1
v -1.1 1.4 -0.1
v -1.1 1.5 -0.1
v -0.9 0 -0.1
v -0.9 0.1 -0.1
v -0.9 1.4 -0.1
v -0.9 1.5 -0.1
v 0.9 0 -0.1
v 0.9 0.1 -0.1
v 0.9 1.4 -0.1
v 0.9 1.5 -0.1
v 1.1 0 -0.1
v 1.1 0.1 -0.1
v 1.1 1.4 -0.1
v 1.1 1.5 -0.1
v -1.2 0 -0.2
v -1.2 0.1 -0.2
v -1.2 1.3 -0.2
v -1.2 1.5 -0.2
v -1.1 0 -0.2
v -1.1 0.1 -0.2
v -1.1 1.3 -0.2
v -1.1 1.4 -0.2
v -1.1 1.5 -0.2
v -1.1 1.6 -0.2
v -0.9 0 -0.2
v -0.9 0.1 -0.2
v -0.9 0.2 -0.2
v -0.9 1.2 -0.2
v -0.9 1.3 -0.2
v -0.9 1.4 -0.2
v -0.9 1.5 -0.2
v -0.9 1.6 -0.2
v -0.8 0 -0.2
v -0.8 0.1 -0.2
v -0.8 0.3 -0.2
v -0.8 1.1 -0.2
v -0.8 1.3 -0.2
v -0.8 1.5 -0.2
v -0.7 0.3 -0.2
v -0.7 1.1 -0.2
v -0.7 1.2 -0.2
v -0.7 1.4 -0.2
v -0.6 0.3 -0.2
v -0.6 1.3 -0.2
v -0.5 0.3 -0.2
v -0.5 1.3 -0.2
v -0.5 1.4 -0.2
v -0.5 1.5 -0.2
v -0.4 0.3 -0.2
v -0.4 1.4 -0.2
v -0.3 0.3 -0.2
v -0.3 1.4 -0.2
v -0.2 0.3 -0.2
v -0.2 1.4 -0.2
v -0.0999999 0.3 -0.2
v -0.0999999 1.4 -0.2
v 0.1 0.3 -0.2
v 0.1 1.4 -0.2
v 0.2 0.3 -0.2
v 0.2 1.4 -0.2
v 0.3 0.3 -0.2
v 0.3 1.4 -0.2
v 0.4 0.3 -0.2
v 0.4 1.4 -0.2
v 0.5 0.3 -0.2
v 0.5 1.3 -0.2
v 0.5 1.4 -0.2
v 0.5 1.5 -0.2
v 0.6 0.3 -0.2
v 0.6 1.3 -0.2
v 0.7 0.3 -0.2
v 0.7 1.1 -0.2
v 0.7 1.2 -0.2
v 0.7 1.4 -0.2
v 0.8 0 -0.2
v 0.8 0.1 -0.2
v 0.8 0.3 -0.2
v 0.8 1.1 -0.2
v 0.8 1.3 -0.2
v 0.8 1.5 -0.2
v 0.9 0 -0.2
v 0.9 0.1 -0.2
v 0.9 0.2 -0.2
v 0.9 1.2 -0.2
v 0.9 1.3 -0.2
v 0.9 1.4 -0.2
v 0.9 1.5 -0.2
v 0.9 1.6 -0.2
v 1.1 0 -0.2
v 1.1 0.1 -0.2
v 1.1 1.3 -0.2
v 1.1 1.4 -0.2
v 1.1 1.5 -0.2
v 1.1 1.6 -0.2
v 1.2 0 -0.2
v 1.2 0.1 -0.2
v 1.2 1.3 -0.2
v 1.2 1.5 -0.2
v -1.2 0 -0.4
v -1.2 0.1 -0.4
v -1.2 1.3 -0.4
v -1.2 1.5 -0.4
v -1.1 0 -0.4
v -1.1 0.1 -0.4
v -1.1 1.3 -0.4
v -1.1 1.4 -0.4
v -1.1 1.5 -0.4
v -1.1 1.6 -0.4
v -0.9 0 -0.4
v -0.9 0.1 -0.4
v -0.9 0.2 -0.4
v -0.9 1.2 -0.4
v -0.9 1.3 -0.4
v -0.9 1.4 -0.4
v -0.9 1.5 -0.4
v -0.9 1.6 -0.4
v -0.8 0 -0.4
v -0.8 0.1 -0.4
v -0.8 0.3 -0.4
v -0.8 1.1 -0.4
v -0.8 1.3 -0.4
v -0.8 1.5 -0.4
v -0.7 0.3 -0.4
v -0.7 1.1 -0.4
v -0.7 1.2 -0.4
v -0.7 1.4 -0.4
v -0.6 0.3 -0.4
v -0.6 1.3 -0.4
v -0.5 0.3 -0.4
v -0.5 1.3 -0.4
v -0.5 1.4 -0.4
v -0.5 1.5 -0.4
v -0.4 0.3 -0.4
v -0.4 1.4 -0.4
v -0.3 0.3 -0.4
v -0.3 1.4 -0.4
v -0.2 0.3 -0.4
v -0.2 1.4 -0.4
v -0.0999999 0.3 -0.4
v -0.0999999 1.4 -0.4
v 0.1 0.3 -0.4
v 0.1 1.4 -0.4
v 0.2 0.3 -0.4
v 0.2 1.4 -0.4
v 0.3 0.3 -0.4
v 0.3 1.4 -0.4
v 0.4 0.3 -0.4
v 0.4 1.4 -0.4
v 0.5 0.3 -0.4
v 0.5 1.3 -0.4
v 0.5 1.4 -0.4
v 0.5 1.5 -0.4
v 0.6 0.3 -0.4
v 0.6 1.3 -0.4
v 0.7 0.3 -0.4
v 0.7 1.1 -0.4
v 0.7 1.2 -0.4
v 0.7 1.4 -0.4
v 0.8 0 -0.4
v 0.8 0.1 -0.4
v 0.8 0.3 -0.4
v 0.8 1.1 -0.4
v 0.8 1.3 -0.4
v 0.8 1.5 -0.4
v 0.9 0 -0.4
v 0.9 0.1 -0.4
v 0.9 0.2 -0.4
v 0.9 1.2 -0.4
v 0.9 1.3 -0.4
v 0.9 1.4 -0.4
v 0.9 1.5 -0.4
v 0.9 1.6 -0.4
v 1.1 0 -0.4
v 1.1 0.1 -0.4
v 1.1 1.3 -0.4
v 1.1 1.4 -0.4
v 1.1 1.5 -0.4
v 1.1 1.6 -0.4
v 1.2 0 -0.4
v 1.2 0.1 -0.4
v 1.2 1.3 -0.4
v 1.2 1.5 -0.4
v -1.1 0 -0.5
v -1.1 0.1 -0.5
v -1.1 1.4 -0.5
v -1.1 1.5 -0.5
v -0.9 0 -0.5
v -0.9 0.1 -0.5
v -0.9 1.4 -0.5
v -0.9 1.5 -0.5
v 0.9 0 -0.5
v 0.9 0.1 -0.5
v 0.9 1.4 -0.5
v 0.9 1.5 -0.5
v 1.1 0 -0.5
v 1.1 0.1 -0.5
v 1.1 1.4 -0.5
v 1.1 1.5 -0.5
v -1.1 0 -0.1
v -0.9 0 -0.1
v 0.9 0 -0.1
v 1.1 0 -0.1
v -1.2 0 -0.2
v -1.1 0 -0.2
v -0.9 0 -0.2
v -0.8 0 -0.2
v 0.8 0 -0.2
v 0.9 0 -0.2
v 1.1 0 -0.2
v 1.2 0 -0.2
v -1.2 0 -0.4
v -1.1 0 -0.4
v -0.9 0 -0.4
v -0.8 0 -0.4
v 0.8 0 -0.4
v 0.9 0 -0.4
v 1.1 0 -0.4
v 1.2 0 -0.4
v -1.1 0 -0.5
v -0.9 0 -0.5
v 0.9 0 -0.5
v 1.1 0 -0.5
v -0.9 0.2 -0.2
v 0.9 0.2 -0.2
v -0.9 0.2 -0.4
v 0.9 0.2 -0.4
v -0.8 1.1 -0.2
v -0.7 1.1 -0.2
v 0.7 1.1 -0.2
v 0.8 1.1 -0.2
v -0.8 1.1 -0.4
v -0.7 1.1 -0.4
v 0.7 1.1 -0.4
v 0.8 1.1 -0.4
v -1.2 1.3 -0.2
v -1.1 1.3 -0.2
v -0.9 1.3 -0.2
v -0.8 1.3 -0.2
v -0.6 1.3 -0.2
v -0.5 1.3 -0.2
v 0.5 1.3 -0.2
v 0.6 1.3 -0.2
v 0.8 1.3 -0.2
v 0.9 1.3 -0.2
v 1.1 1.3 -0.2
v 1.2 1.3 -0.2
v -1.2 1.3 -0.4
v -1.1 1.3 -0.4
v -0.9 1.3 -0.4
v -0.8 1.3 -0.4
v -0.6 1.3 -0.4
v -0.5 1.3 -0.4
v 0.5 1.3 -0.4
v 0.6 1.3 -0.4
v 0.8 1.3 -0.4
v 0.9 1.3 -0.4
v 1.1 1.3 -0.4
v 1.2 1.3 -0.4
v -1.1 1.4 -0.1
v -0.9 1.4 -0.1
v 0.9 1.4 -0.1
v 1.1 1.4 -0.1
v -1.1 1.4 -0.2
v -0.9 1.4 -0.2
v -0.4 1.4 -0.2
v -0.3 1.4 -0.2
v -0.2 1.4 -0.2
v -0.0999999 1.4 -0.2
v 0.1 1.4 -0.2
v 0.2 1.4 -0.2
v 0.3 1.4 -0.2
v 0.4 1.4 -0.2
v 0.9 1.4 -0.2
v 1.1 1.4 -0.2
v -1.1 1.4 -0.4
v -0.9 1.4 -0.4
v -0.4 1.4 -0.4
v -0.3 1.4 -0.4
v -0.2 1.4 -0.4
v -0.0999999 1.4 -0.4
v 0.1 1.4 -0.4
v 0.2 1.4 -0.4
v 0.3 1.4 -0.4
v 0.4 1.4 -0.4
v 0.9 1.4 -0.4
v 1.1 1.4 -0.4
v -1.1 1.4 -0.5
v -0.9 1.4 -0.5
v 0.9 1.4 -0.5
v 1.1 1.4 -0.5
v -1.1 0.1 -0.1
v -0.9 0.1 -0.1
v 0.9 0.1 -0.1
v 1.1 0.1 -0.1
v -1.2 0.1 -0.2
v -1.1 0.1 -0.2
v -0.9 0.1 -0.2
v -0.8 0.1 -0.2
v 0.8 0.1 -0.2
v 0.9 0.1 -0.2
v 1.1 0.1 -0.2
v 1.2 0.1 -0.2
v -1.2 0.1 -0.4
v -1.1 0.1 -0.4
v -0.9 0.1 -0.4
v -0.8 0.1 -0.4
v 0.8 0.1 -0.4
v 0.9 0.1 -0.4
v 1.1 0.1 -0.4
v 1.2 0.1 -0.4
v -1.1 0.1 -0.5
v -0.9 0.1 -0.5
v 0.9 0.1 -0.5
v 1.1 0.1 -0.5
v -0.8 0.3 -0.2
v -0.7 0.3 -0.2
v -0.6 0.3 -0.2
v -0.5 0.3 -0.2
v -0.4 0.3 -0.2
v -0.3 0.3 -0.2
v -0.2 0.3 -0.2
v -0.0999999 0.3 -0.2
v 0.1 0.3 -0.2
v 0.2 0.3 -0.2
v 0.3 0.3 -0.2
v 0.4 0.3 -0.2
v 0.5 0.3 -0.2
v 0.6 0.3 -0.2
v 0.7 0.3 -0.2
v 0.8 0.3 -0.2
v -0.8 0.3 -0.4
v -0.7 0.3 -0.4
v -0.6 0.3 -0.4
v -0.5 0.3 -0.4
v -0.4 0.3 -0.4
v -0.3 0.3 -0.4
v -0.2 0.3 -0.4
v -0.0999999 0.3 -0.4
v 0.1 0.3 -0.4
v 0.2 0.3 -0.4
v 0.3 0.3 -0.4
v 0.4 0.3 -0.4
v 0.5 0.3 -0.4
v 0.6 0.3 -0.4
v 0.7 0.3 -0.4
v 0.8 0.3 -0.4
v -0.9 1.2 -0.2
v -0.7 1.2 -0.2
v 0.7 1.2 -0.2
v 0.9 1.2 -0.2
v -0.9 1.2 -0.4
v -0.7 1.2 -0.4
v 0.7 1.2 -0.4
v 0.9 1.2 -0.4
v -0.7 1.4 -0.2
v -0.5 1.4 -0.2
v 0.5 1.4 -0.2
v 0.7 1.4 -0.2
v -0.7 1.4 -0.4
v -0.5 1.4 -0.4
v 0.5 1.4 -0.4
v 0.7 1.4 -0.4
v -1.1 1.5 -0.1
v -0.9 1.5 -0.1
v 0.9 1.5 -0.1
v 1.1 1.5 -0.1
v -1.2 1.5 -0.2
v -1.1 1.5 -0.2
v -0.9 1.5 -0.2
v -0.8 1.5 -0.2
v -0.5 1.5 -0.2
v 0.5 1.5 -0.2
v 0.8 1.5 -0.2
v 0.9 1.5 -0.2
v 1.1 1.5 -0.2
v 1.2 1.5 -0.2
v -1.2 1.5 -0.4
v -1.1 1.5 -0.4
v -0.9 1.5 -0.4
v -0.8 1.5 -0.4
v -0.5 1.5 -0.4
v 0.5 1.5 -0.4
v 0.8 1.5 -0.4
v 0.9 1.5 -0.4
v 1.1 1.5 -0.4
v 1.2 1.5 -0.4
v -1.1 1.5 -0.5
v -0.9 1.5 -0.5
v 0.9 1.5 -0.5
v 1.1 1.5 -0.5
v -1.1 1.6 -0.2
v -0.9 1.6 -0.2
v 0.9 1.6 -0.2
v 1.1 1.6 -0.2
v -1.1 1.6 -0.4
v -0.9 1.6 -0.4
v 0.9 1.6 -0.4
v 1.1 1.6 -0.4

# faces
f 3/2/1 2/2/1 1/2/1
f 4/2/1 2/2/1 3/2/1
f 7/1/1 6/1/1 5/1/1
f 8/1/1 6/1/1 7/1/1
f 13/2/1 10/2/1 9/2/1
f 14/2/1 10/2/1 13/2/1
f 15/2/1 12/2/1 11/2/1
f 16/2/1 12/2/1 15/2/1
f 17/2/1 15/2/1 14/2/1
f 18/2/1 15/2/1 17/2/1
f 23/1/1 20/1/1 19/1/1
f 24/1/1 20/1/1 23/1/1
f 25/1/1 22/1/1 21/1/1
f 26/1/1 22/1/1 25/1/1
f 27/1/1 25/1/1 24/1/1
f 28/1/1 25/1/1 27/1/1
f 31/1/1 30/1/1 29/1/1
f 32/1/1 30/1/1 31/1/1
f 35/1/1 34/1/1 33/1/1
f 36/1/1 34/1/1 35/1/1
f 39/1/1 38/1/1 37/1/1
f 40/1/1 38/1/1 39/1/1
f 43/1/1 42/1/1 41/1/1
f 44/1/1 42/1/1 43/1/1
f 47/1/1 46/1/1 45/1/1
f 48/1/1 46/1/1 47/1/1
f 51/1/1 50/1/1 49/1/1
f 52/1/1 50/1/1 51/1/1
f 55/1/1 54/1/1 53/1/1
f 56/1/1 54/1/1 55/1/1
f 59/1/1 58/1/1 57/1/1
f 60/1/1 58/1/1 59/1/1
f 63/1/1 62/1/1 61/1/1
f 64/1/1 62/1/1 63/1/1
f 67/2/1 66/2/1 65/2/1
f 68/2/1 66/2/1 67/2/1
f 71/1/1 70/1/1 69/1/1
f 72/1/1 70/1/1 71/1/1
f 75/1/1 74/1/1 73/1/1
f 76/1/1 74/1/1 75/1/1
f 81/2/1 78/2/1 77/2/1
f 82/2/1 78/2/1 81/2/1
f 83/2/1 80/2/1 79/2/1
f 84/2/1 80/2/1 83/2/1
f 85/2/1 83/2/1 82/2/1
f 86/2/1 83/2/1 85/2/1
f 89/2/1 88/2/1 87/2/1
f 90/2/1 88/2/1 89/2/1
f 95/1/1 92/1/1 91/1/1
f 96/1/1 92/1/1 95/1/1
f 97/1/1 94/1/1 93/1/1
f 98/1/1 94/1/1 97/1/1
f 99/1/1 97/1/1 96/1/1
f 100/1/1 97/1/1 99/1/1
f 101/2/2 102/2/2 105/2/2
f 105/2/2 102/2/2 106/2/2
f 103/2/2 104/2/2 107/2/2
f 107/2/2 104/2/2 108/2/2
f 106/2/2 107/2/2 109/2/2
f 109/2/2 107/2/2 110/2/2
f 111/2/2 112/2/2 113/2/2
f 113/2/2 112/2/2 114/2/2
f 115/1/2 116/1/2 119/1/2
f 119/1/2 116/1/2 120/1/2
f 117/1/2 118/1/2 121/1/2
f 121/1/2 118/1/2 122/1/2
f 120/1/2 121/1/2 123/1/2
f 123/1/2 121/1/2 124/1/2
f 125/2/2 126/2/2 127/2/2
f 127/2/2 126/2/2 128/2/2
f 129/1/2 130/1/2 131/1/2
f 131/1/2 130/1/2 132/1/2
f 133/1/2 134/1/2 135/1/2
f 135/1/2 134/1/2 136/1/2
f 137/1/2 138/1/2 139/1/2
f 139/1/2 138/1/2 140/1/2
f 141/1/2 142/1/2 143/1/2
f 143/1/2 142/1/2 144/1/2
f 145/1/2 146/1/2 147/1/2
f 147/1/2 146/1/2 148/1/2
f 149/1/2 150/1/2 151/1/2
f 151/1/2 150/1/2 152/1/2
f 153/1/2 154/1/2 155/1/2
f 155/1/2 154/1/2 156/1/2
f 157/1/2 158/1/2 159/1/2
f 159/1/2 158/1/2 160/1/2
f 161/1/2 162/1/2 163/1/2
f 163/1/2 162/1/2 164/1/2
f 165/1/2 166/1/2 167/1/2
f 167/1/2 166/1/2 168/1/2
f 169/1/2 170/1/2 171/1/2
f 171/1/2 170/1/2 172/1/2
f 173/2/2 174/2/2 177/2/2
f 177/2/2 174/2/2 178/2/2
f 175/2/2 176/2/2 179/2/2
f 179/2/2 176/2/2 180/2/2
f 178/2/2 179/2/2 181/2/2
f 181/2/2 179/2/2 182/2/2
f 183/1/2 184/1/2 187/1/2
f 187/1/2 184/1/2 188/1/2
f 185/1/2 186/1/2 189/1/2
f 189/1/2 186/1/2 190/1/2
f 188/1/2 189/1/2 191/1/2
f 191/1/2 189/1/2 192/1/2
f 193/2/2 194/2/2 195/2/2
f 195/2/2 194/2/2 196/2/2
f 197/1/2 198/1/2 199/1/2
f 199/1/2 198/1/2 200/1/2
f 205/2/3 202/2/3 201/2/3
f 206/2/3 202/2/3 205/2/3
f 207/1/3 204/1/3 203/1/3
f 208/1/3 204/1/3 207/1/3
f 213/2/3 210/2/3 209/2/3
f 214/2/3 210/2/3 213/2/3
f 215/1/3 212/1/3 211/1/3
f 216/1/3 212/1/3 215/1/3
f 221/2/3 218/2/3 217/2/3
f 222/2/3 218/2/3 221/2/3
f 223/1/3 220/1/3 219/1/3
f 224/1/3 220/1/3 223/1/3
f 225/1/3 220/1/3 224/1/3
f 228/2/3 223/2/3 222/2/3
f 229/2/3 223/2/3 228/2/3
f 230/2/3 223/2/3 229/2/3
f 231/1/3 224/1/3 223/1/3
f 231/2/3 223/2/3 230/2/3
f 232/1/3 224/1/3 231/1/3
f 233/1/3 226/1/3 225/1/3
f 234/1/3 226/1/3 233/1/3
f 235/2/3 228/2/3 227/2/3
f 236/2/3 228/2/3 235/2/3
f 237/1/3 230/1/3 229/1/3
f 238/1/3 230/1/3 237/1/3
f 239/1/3 232/1/3 231/1/3
f 239/1/3 233/1/3 232/1/3
f 240/1/3 233/1/3 239/1/3
f 241/1/3 237/1/3 229/1/3
f 242/1/3 230/1/3 238/1/3
f 243/1/3 230/1/3 242/1/3
f 245/1/3 241/1/3 229/1/3
f 245/1/3 244/1/3 243/1/3
f 245/1/3 243/1/3 242/1/3
f 245/1/3 242/1/3 241/1/3
f 246/1/3 244/1/3 245/1/3
f 247/1/3 245/1/3 229/1/3
f 248/1/3 244/1/3 246/1/3
f 249/1/3 244/1/3 248/1/3
f 251/1/3 247/1/3 229/1/3
f 251/1/3 250/1/3 249/1/3
f 251/1/3 249/1/3 248/1/3
f 251/1/3 248/1/3 247/1/3
f 252/1/3 250/1/3 251/1/3
f 253/1/3 251/1/3 229/1/3
f 254/1/3 250/1/3 252/1/3
f 255/1/3 253/1/3 229/1/3
f 255/1/3 254/1/3 253/1/3
f 256/1/3 250/1/3 254/1/3
f 256/1/3 254/1/3 255/1/3
f 257/1/3 255/1/3 229/1/3
f 258/1/3 250/1/3 256/1/3
f 259/1/3 257/1/3 229/1/3
f 259/1/3 258/1/3 257/1/3
f 260/1/3 250/1/3 258/1/3
f 260/1/3 258/1/3 259/1/3
f 261/1/3 259/1/3 229/1/3
f 262/1/3 250/1/3 260/1/3
f 263/1/3 261/1/3 229/1/3
f 263/1/3 262/1/3 261/1/3
f 264/1/3 250/1/3 262/1/3
f 264/1/3 262/1/3 263/1/3
f 265/1/3 263/1/3 229/1/3
f 266/1/3 250/1/3 264/1/3
f 267/1/3 265/1/3 229/1/3
f 267/1/3 266/1/3 265/1/3
f 268/1/3 266/1/3 267/1/3
f 269/1/3 250/1/3 266/1/3
f 269/1/3 266/1/3 268/1/3
f 270/1/3 250/1/3 269/1/3
f 271/1/3 267/1/3 229/1/3
f 272/1/3 269/1/3 268/1/3
f 273/1/3 271/1/3 229/1/3
f 273/1/3 272/1/3 271/1/3
f 274/1/3 272/1/3 273/1/3
f 275/1/3 272/1/3 274/1/3
f 276/1/3 269/1/3 272/1/3
f 276/1/3 272/1/3 275/1/3
f 279/1/3 273/1/3 229/1/3
f 280/1/3 275/1/3 274/1/3
f 283/2/3 278/2/3 277/2/3
f 284/2/3 278/2/3 283/2/3
f 285/1/3 279/1/3 229/1/3
f 285/1/3 280/1/3 279/1/3
f 286/1/3 275/1/3 280/1/3
f 286/1/3 280/1/3 285/1/3
f 287/1/3 282/1/3 281/1/3
f 288/1/3 282/1/3 287/1/3
f 289/1/3 282/1/3 288/1/3
f 292/2/3 287/2/3 286/2/3
f 292/2/3 286/2/3 285/2/3
f 292/2/3 285/2/3 284/2/3
f 293/1/3 288/1/3 287/1/3
f 293/2/3 287/2/3 292/2/3
f 294/1/3 288/1/3 293/1/3
f 295/1/3 290/1/3 289/1/3
f 296/1/3 290/1/3 295/1/3
f 297/2/3 292/2/3 291/2/3
f 298/2/3 292/2/3 297/2/3
f 299/1/3 294/1/3 293/1/3
f 299/1/3 295/1/3 294/1/3
f 300/1/3 295/1/3 299/1/3
f 301/2/4 302/2/4 305/2/4
f 305/2/4 302/2/4 306/2/4
f 303/1/4 304/1/4 307/1/4
f 307/1/4 304/1/4 308/1/4
f 308/1/4 304/1/4 309/1/4
f 306/2/4 307/2/4 312/2/4
f 312/2/4 307/2/4 313/2/4
f 313/2/4 307/2/4 314/2/4
f 307/1/4 308/1/4 315/1/4
f 314/2/4 307/2/4 315/2/4
f 315/1/4 308/1/4 316/1/4
f 309/1/4 310/1/4 317/1/4
f 317/1/4 310/1/4 318/1/4
f 311/2/4 312/2/4 319/2/4
f 319/2/4 312/2/4 320/2/4
f 313/1/4 314/1/4 321/1/4
f 321/1/4 314/1/4 322/1/4
f 315/1/4 316/1/4 323/1/4
f 316/1/4 317/1/4 323/1/4
f 323/1/4 317/1/4 324/1/4
f 313/1/4 321/1/4 325/1/4
f 322/1/4 314/1/4 326/1/4
f 326/1/4 314/1/4 327/1/4
f 313/1/4 325/1/4 329/1/4
f 327/1/4 328/1/4 329/1/4
f 326/1/4 327/1/4 329/1/4
f 325/1/4 326/1/4 329/1/4
f 329/1/4 328/1/4 330/1/4
f 313/1/4 329/1/4 331/1/4
f 330/1/4 328/1/4 332/1/4
f 332/1/4 328/1/4 333/1/4
f 313/1/4 331/1/4 335/1/4
f 333/1/4 334/1/4 335/1/4
f 332/1/4 333/1/4 335/1/4
f 331/1/4 332/1/4 335/1/4
f 335/1/4 334/1/4 336/1/4
f 313/1/4 335/1/4 337/1/4
f 336/1/4 334/1/4 338/1/4
f 313/1/4 337/1/4 339/1/4
f 337/1/4 338/1/4 339/1/4
f 338/1/4 334/1/4 340/1/4
f 339/1/4 338/1/4 340/1/4
f 313/1/4 339/1/4 341/1/4
f 340/1/4 334/1/4 342/1/4
f 313/1/4 341/1/4 343/1/4
f 341/1/4 342/1/4 343/1/4
f 342/1/4 334/1/4 344/1/4
f 343/1/4 342/1/4 344/1/4
f 313/1/4 343/1/4 345/1/4
f 344/1/4 334/1/4 346/1/4
f 313/1/4 345/1/4 347/1/4
f 345/1/4 346/1/4 347/1/4
f 346/1/4 334/1/4 348/1/4
f 347/1/4 346/1/4 348/1/4
f 313/1/4 347/1/4 349/1/4
f 348/1/4 334/1/4 350/1/4
f 313/1/4 349/1/4 351/1/4
f 349/1/4 350/1/4 351/1/4
f 351/1/4 350/1/4 352/1/4
f 350/1/4 334/1/4 353/1/4
f 352/1/4 350/1/4 353/1/4
f 353/1/4 334/1/4 354/1/4
f 313/1/4 351/1/4 355/1/4
f 352/1/4 353/1/4 356/1/4
f 313/1/4 355/1/4 357/1/4
f 355/1/4 356/1/4 357/1/4
f 357/1/4 356/1/4 358/1/4
f 358/1/4 356/1/4 359/1/4
f 356/1/4 353/1/4 360/1/4
f 359/1/4 356/1/4 360/1/4
f 313/1/4 357/1/4 363/1/4
f 358/1/4 359/1/4 364/1/4
f 361/2/4 362/2/4 367/2/4
f 367/2/4 362/2/4 368/2/4
f 313/1/4 363/1/4 369/1/4
f 363/1/4 364/1/4 369/1/4
f 364/1/4 359/1/4 370/1/4
f 369/1/4 364/1/4 370/1/4
f 365/1/4 366/1/4 371/1/4
f 371/1/4 366/1/4 372/1/4
f 372/1/4 366/1/4 373/1/4
f 370/2/4 371/2/4 376/2/4
f 369/2/4 370/2/4 376/2/4
f 368/2/4 369/2/4 376/2/4
f 371/1/4 372/1/4 377/1/4
f 376/2/4 371/2/4 377/2/4
f 377/1/4 372/1/4 378/1/4
f 373/1/4 374/1/4 379/1/4
f 379/1/4 374/1/4 380/1/4
f 375/2/4 376/2/4 381/2/4
f 381/2/4 376/2/4 382/2/4
f 377/1/4 378/1/4 383/1/4
f 378/1/4 379/1/4 383/1/4
f 383/1/4 379/1/4 384/1/4
f 385/2/4 386/2/4 389/2/4
f 389/2/4 386/2/4 390/2/4
f 387/1/4 388/1/4 391/1/4
f 391/1/4 388/1/4 392/1/4
f 393/2/4 394/2/4 397/2/4
f 397/2/4 394/2/4 398/2/4
f 395/1/4 396/1/4 399/1/4
f 399/1/4 396/1/4 400/1/4
f 406/2/5 402/2/5 401/2/5
f 407/2/5 402/2/5 406/2/5
f 410/2/5 404/2/5 403/2/5
f 411/2/5 404/2/5 410/2/5
f 413/2/5 408/2/5 407/2/5
f 413/2/5 406/2/5 405/2/5
f 413/2/5 407/2/5 406/2/5
f 414/2/5 408/2/5 413/2/5
f 415/2/5 408/2/5 414/2/5
f 416/2/5 408/2/5 415/2/5
f 417/2/5 412/2/5 411/2/5
f 417/2/5 411/2/5 410/2/5
f 417/2/5 410/2/5 409/2/5
f 418/2/5 412/2/5 417/2/5
f 419/2/5 412/2/5 418/2/5
f 420/2/5 412/2/5 419/2/5
f 421/2/5 415/2/5 414/2/5
f 422/2/5 415/2/5 421/2/5
f 423/2/5 419/2/5 418/2/5
f 424/2/5 419/2/5 423/2/5
f 427/1/5 426/1/5 425/1/5
f 428/1/5 426/1/5 427/1/5
f 433/1/5 430/1/5 429/1/5
f 434/1/5 430/1/5 433/1/5
f 435/1/5 432/1/5 431/1/5
f 436/1/5 432/1/5 435/1/5
f 449/1/5 438/1/5 437/1/5
f 450/1/5 438/1/5 449/1/5
f 451/1/5 440/1/5 439/1/5
f 452/1/5 440/1/5 451/1/5
f 453/1/5 442/1/5 441/1/5
f 454/1/5 442/1/5 453/1/5
f 455/1/5 444/1/5 443/1/5
f 456/1/5 444/1/5 455/1/5
f 457/1/5 446/1/5 445/1/5
f 458/1/5 446/1/5 457/1/5
f 459/1/5 448/1/5 447/1/5
f 460/1/5 448/1/5 459/1/5
f 465/1/5 462/1/5 461/1/5
f 466/1/5 462/1/5 465/1/5
f 475/1/5 464/1/5 463/1/5
f 476/1/5 464/1/5 475/1/5
f 479/1/5 468/1/5 467/1/5
f 480/1/5 468/1/5 479/1/5
f 481/1/5 470/1/5 469/1/5
f 482/1/5 470/1/5 481/1/5
f 483/1/5 472/1/5 471/1/5
f 484/1/5 472/1/5 483/1/5
f 485/1/5 474/1/5 473/1/5
f 486/1/5 474/1/5 485/1/5
f 489/1/5 478/1/5 477/1/5
f 490/1/5 478/1/5 489/1/5
f 491/1/5 488/1/5 487/1/5
f 492/1/5 488/1/5 491/1/5
f 493/2/6 494/2/6 498/2/6
f 498/2/6 494/2/6 499/2/6
f 495/2/6 496/2/6 502/2/6
f 502/2/6 496/2/6 503/2/6
f 497/2/6 498/2/6 505/2/6
f 505/2/6 498/2/6 506/2/6
f 499/2/6 500/2/6 507/2/6
f 507/2/6 500/2/6 508/2/6
f 501/2/6 502/2/6 509/2/6
f 509/2/6 502/2/6 510/2/6
f 503/2/6 504/2/6 511/2/6
f 511/2/6 504/2/6 512/2/6
f 506/2/6 507/2/6 513/2/6
f 513/2/6 507/2/6 514/2/6
f 510/2/6 511/2/6 515/2/6
f 515/2/6 511/2/6 516/2/6
f 517/1/6 518/1/6 533/1/6
f 533/1/6 518/1/6 534/1/6
f 519/1/6 520/1/6 535/1/6
f 535/1/6 520/1/6 536/1/6
f 521/1/6 522/1/6 537/1/6
f 537/1/6 522/1/6 538/1/6
f 523/1/6 524/1/6 539/1/6
f 539/1/6 524/1/6 540/1/6
f 525/1/6 526/1/6 541/1/6
f 541/1/6 526/1/6 542/1/6
f 527/1/6 528/1/6 543/1/6
f 543/1/6 528/1/6 544/1/6
f 529/1/6 530/1/6 545/1/6
f 545/1/6 530/1/6 546/1/6
f 531/1/6 532/1/6 547/1/6
f 547/1/6 532/1/6 548/1/6
f 549/1/6 550/1/6 553/1/6
f 553/1/6 550/1/6 554/1/6
f 551/1/6 552/1/6 555/1/6
f 555/1/6 552/1/6 556/1/6
f 557/1/6 558/1/6 561/1/6
f 561/1/6 558/1/6 562/1/6
f 559/1/6 560/1/6 563/1/6
f 563/1/6 560/1/6 564/1/6
f 565/1/6 566/1/6 570/1/6
f 570/1/6 566/1/6 571/1/6
f 567/1/6 568/1/6 576/1/6
f 576/1/6 568/1/6 577/1/6
f 569/1/6 570/1/6 579/1/6
f 579/1/6 570/1/6 580/1/6
f 571/1/6 572/1/6 581/1/6
f 581/1/6 572/1/6 582/1/6
f 573/1/6 574/1/6 583/1/6
f 583/1/6 574/1/6 584/1/6
f 575/1/6 576/1/6 585/1/6
f 585/1/6 576/1/6 586/1/6
f 577/1/6 578/1/6 587/1/6
f 587/1/6 578/1/6 588/1/6
f 580/1/6 581/1/6 589/1/6
f 589/1/6 581/1/6 590/1/6
f 586/1/6 587/1/6 591/1/6
f 591/1/6 587/1/6 592/1/6
f 593/1/6 594/1/6 597/1/6
f 597/1/6 594/1/6 598/1/6
f 595/1/6 596/1/6 599/1/6
f 599/1/6 596/1/6 600/1/6
