# MagicaVoxel @ Ephtracy

# group
o 

# material
mtllib semaforo.mtl
usemtl palette

# normals
vn -1 0 0
vn 1 0 0
vn 0 0 1
vn 0 0 -1
vn 0 -1 0
vn 0 1 0

# texcoords
vt 0.00976563 0.5
vt 0.0136719 0.5
vt 0.724609 0.5
vt 0.841797 0.5

# verts
v -0.6 4.8 0.4
v -0.6 4.8 -0.6
v -0.6 7.4 0.4
v -0.6 7.4 -0.6
v -0.4 0 0.3
v -0.4 0 -0.5
v -0.4 0.1 0.3
v -0.4 0.1 -0.5
v -0.4 5.2 -0.6
v -0.4 5.2 -0.7
v -0.4 5.5 -0.6
v -0.4 5.5 -0.7
v -0.4 6 -0.6
v -0.4 6 -0.7
v -0.4 6.3 -0.6
v -0.4 6.3 -0.7
v -0.4 6.8 -0.6
v -0.4 6.8 -0.7
v -0.4 7.1 -0.6
v -0.4 7.1 -0.7
v -0.3 5.1 -0.6
v -0.3 5.1 -0.7
v -0.3 5.2 -0.6
v -0.3 5.2 -0.7
v -0.3 5.5 -0.6
v -0.3 5.5 -0.7
v -0.3 5.6 -0.6
v -0.3 5.6 -0.7
v -0.3 5.9 -0.6
v -0.3 5.9 -0.7
v -0.3 6 -0.6
v -0.3 6 -0.7
v -0.3 6.3 -0.6
v -0.3 6.3 -0.7
v -0.3 6.4 -0.6
v -0.3 6.4 -0.7
v -0.3 6.7 -0.6
v -0.3 6.7 -0.7
v -0.3 6.8 -0.6
v -0.3 6.8 -0.7
v -0.3 7.1 -0.6
v -0.3 7.1 -0.7
v -0.3 7.2 -0.6
v -0.3 7.2 -0.7
v -0.2 0.1 0.1
v -0.2 0.1 -0.3
v -0.2 4.8 0.1
v -0.2 4.8 -0.3
v -0.2 5 -0.6
v -0.2 5 -0.7
v -0.2 5.1 -0.6
v -0.2 5.1 -0.7
v -0.2 5.6 -0.6
v -0.2 5.6 -0.7
v -0.2 5.7 -0.6
v -0.2 5.7 -0.7
v -0.2 5.8 -0.6
v -0.2 5.8 -0.7
v -0.2 5.9 -0.6
v -0.2 5.9 -0.7
v -0.2 6.4 -0.6
v -0.2 6.4 -0.7
v -0.2 6.5 -0.6
v -0.2 6.5 -0.7
v -0.2 6.6 -0.6
v -0.2 6.6 -0.7
v -0.2 6.7 -0.6
v -0.2 6.7 -0.7
v -0.2 7.2 -0.6
v -0.2 7.2 -0.7
v -0.2 7.3 -0.6
v -0.2 7.3 -0.7
v 0.2 0.1 0.1
v 0.2 0.1 -0.3
v 0.2 4.8 0.1
v 0.2 4.8 -0.3
v 0.2 5 -0.6
v 0.2 5 -0.7
v 0.2 5.1 -0.6
v 0.2 5.1 -0.7
v 0.2 5.6 -0.6
v 0.2 5.6 -0.7
v 0.2 5.7 -0.6
v 0.2 5.7 -0.7
v 0.2 5.8 -0.6
v 0.2 5.8 -0.7
v 0.2 5.9 -0.6
v 0.2 5.9 -0.7
v 0.2 6.4 -0.6
v 0.2 6.4 -0.7
v 0.2 6.5 -0.6
v 0.2 6.5 -0.7
v 0.2 6.6 -0.6
v 0.2 6.6 -0.7
v 0.2 6.7 -0.6
v 0.2 6.7 -0.7
v 0.2 7.2 -0.6
v 0.2 7.2 -0.7
v 0.2 7.3 -0.6
v 0.2 7.3 -0.7
v 0.3 5.1 -0.6
v 0.3 5.1 -0.7
v 0.3 5.2 -0.6
v 0.3 5.2 -0.7
v 0.3 5.5 -0.6
v 0.3 5.5 -0.7
v 0.3 5.6 -0.6
v 0.3 5.6 -0.7
v 0.3 5.9 -0.6
v 0.3 5.9 -0.7
v 0.3 6 -0.6
v 0.3 6 -0.7
v 0.3 6.3 -0.6
v 0.3 6.3 -0.7
v 0.3 6.4 -0.6
v 0.3 6.4 -0.7
v 0.3 6.7 -0.6
v 0.3 6.7 -0.7
v 0.3 6.8 -0.6
v 0.3 6.8 -0.7
v 0.3 7.1 -0.6
v 0.3 7.1 -0.7
v 0.3 7.2 -0.6
v 0.3 7.2 -0.7
v 0.4 0 0.3
v 0.4 0 -0.5
v 0.4 0.1 0.3
v 0.4 0.1 -0.5
v 0.4 5.2 -0.6
v 0.4 5.2 -0.7
v 0.4 5.5 -0.6
v 0.4 5.5 -0.7
v 0.4 6 -0.6
v 0.4 6 -0.7
v 0.4 6.3 -0.6
v 0.4 6.3 -0.7
v 0.4 6.8 -0.6
v 0.4 6.8 -0.7
v 0.4 7.1 -0.6
v 0.4 7.1 -0.7
v 0.6 4.8 0.4
v 0.6 4.8 -0.6
v 0.6 7.4 0.4
v 0.6 7.4 -0.6
v -0.6 4.8 0.4
v -0.6 7.4 0.4
v 0.6 4.8 0.4
v 0.6 7.4 0.4
v -0.4 0 0.3
v -0.4 0.1 0.3
v 0.4 0 0.3
v 0.4 0.1 0.3
v -0.2 0.1 0.1
v -0.2 4.8 0.1
v 0.2 0.1 0.1
v 0.2 4.8 0.1
v -0.2 0.1 -0.3
v -0.2 4.8 -0.3
v 0.2 0.1 -0.3
v 0.2 4.8 -0.3
v -0.4 0 -0.5
v -0.4 0.1 -0.5
v 0.4 0 -0.5
v 0.4 0.1 -0.5
v -0.6 4.8 -0.6
v -0.6 7.4 -0.6
v -0.4 5.2 -0.6
v -0.4 5.5 -0.6
v -0.4 6 -0.6
v -0.4 6.3 -0.6
v -0.4 6.8 -0.6
v -0.4 7.1 -0.6
v -0.3 5.1 -0.6
v -0.3 5.2 -0.6
v -0.3 5.5 -0.6
v -0.3 5.6 -0.6
v -0.3 5.9 -0.6
v -0.3 6 -0.6
v -0.3 6.3 -0.6
v -0.3 6.4 -0.6
v -0.3 6.7 -0.6
v -0.3 6.8 -0.6
v -0.3 7.1 -0.6
v -0.3 7.2 -0.6
v -0.2 5 -0.6
v -0.2 5.1 -0.6
v -0.2 5.6 -0.6
v -0.2 5.7 -0.6
v -0.2 5.8 -0.6
v -0.2 5.9 -0.6
v -0.2 6.4 -0.6
v -0.2 6.5 -0.6
v -0.2 6.6 -0.6
v -0.2 6.7 -0.6
v -0.2 7.2 -0.6
v -0.2 7.3 -0.6
v 0.2 5 -0.6
v 0.2 5.1 -0.6
v 0.2 5.6 -0.6
v 0.2 5.7 -0.6
v 0.2 5.8 -0.6
v 0.2 5.9 -0.6
v 0.2 6.4 -0.6
v 0.2 6.5 -0.6
v 0.2 6.6 -0.6
v 0.2 6.7 -0.6
v 0.2 7.2 -0.6
v 0.2 7.3 -0.6
v 0.3 5.1 -0.6
v 0.3 5.2 -0.6
v 0.3 5.5 -0.6
v 0.3 5.6 -0.6
v 0.3 5.9 -0.6
v 0.3 6 -0.6
v 0.3 6.3 -0.6
v 0.3 6.4 -0.6
v 0.3 6.7 -0.6
v 0.3 6.8 -0.6
v 0.3 7.1 -0.6
v 0.3 7.2 -0.6
v 0.4 5.2 -0.6
v 0.4 5.5 -0.6
v 0.4 6 -0.6
v 0.4 6.3 -0.6
v 0.4 6.8 -0.6
v 0.4 7.1 -0.6
v 0.6 4.8 -0.6
v 0.6 7.4 -0.6
v -0.4 5.2 -0.7
v -0.4 5.5 -0.7
v -0.4 6 -0.7
v -0.4 6.3 -0.7
v -0.4 6.8 -0.7
v -0.4 7.1 -0.7
v -0.3 5.1 -0.7
v -0.3 5.2 -0.7
v -0.3 5.5 -0.7
v -0.3 5.6 -0.7
v -0.3 5.9 -0.7
v -0.3 6 -0.7
v -0.3 6.3 -0.7
v -0.3 6.4 -0.7
v -0.3 6.7 -0.7
v -0.3 6.8 -0.7
v -0.3 7.1 -0.7
v -0.3 7.2 -0.7
v -0.2 5 -0.7
v -0.2 5.1 -0.7
v -0.2 5.6 -0.7
v -0.2 5.7 -0.7
v -0.2 5.8 -0.7
v -0.2 5.9 -0.7
v -0.2 6.4 -0.7
v -0.2 6.5 -0.7
v -0.2 6.6 -0.7
v -0.2 6.7 -0.7
v -0.2 7.2 -0.7
v -0.2 7.3 -0.7
v 0.2 5 -0.7
v 0.2 5.1 -0.7
v 0.2 5.6 -0.7
v 0.2 5.7 -0.7
v 0.2 5.8 -0.7
v 0.2 5.9 -0.7
v 0.2 6.4 -0.7
v 0.2 6.5 -0.7
v 0.2 6.6 -0.7
v 0.2 6.7 -0.7
v 0.2 7.2 -0.7
v 0.2 7.3 -0.7
v 0.3 5.1 -0.7
v 0.3 5.2 -0.7
v 0.3 5.5 -0.7
v 0.3 5.6 -0.7
v 0.3 5.9 -0.7
v 0.3 6 -0.7
v 0.3 6.3 -0.7
v 0.3 6.4 -0.7
v 0.3 6.7 -0.7
v 0.3 6.8 -0.7
v 0.3 7.1 -0.7
v 0.3 7.2 -0.7
v 0.4 5.2 -0.7
v 0.4 5.5 -0.7
v 0.4 6 -0.7
v 0.4 6.3 -0.7
v 0.4 6.8 -0.7
v 0.4 7.1 -0.7
v -0.4 0 0.3
v 0.4 0 0.3
v -0.4 0 -0.5
v 0.4 0 -0.5
v -0.6 4.8 0.4
v 0.6 4.8 0.4
v -0.2 4.8 0.1
v 0.2 4.8 0.1
v -0.2 4.8 -0.3
v 0.2 4.8 -0.3
v -0.6 4.8 -0.6
v 0.6 4.8 -0.6
v -0.2 5 -0.6
v 0.2 5 -0.6
v -0.2 5 -0.7
v 0.2 5 -0.7
v -0.3 5.1 -0.6
v -0.2 5.1 -0.6
v 0.2 5.1 -0.6
v 0.3 5.1 -0.6
v -0.3 5.1 -0.7
v -0.2 5.1 -0.7
v 0.2 5.1 -0.7
v 0.3 5.1 -0.7
v -0.4 5.2 -0.6
v -0.3 5.2 -0.6
v 0.3 5.2 -0.6
v 0.4 5.2 -0.6
v -0.4 5.2 -0.7
v -0.3 5.2 -0.7
v 0.3 5.2 -0.7
v 0.4 5.2 -0.7
v -0.2 5.8 -0.6
v 0.2 5.8 -0.6
v -0.2 5.8 -0.7
v 0.2 5.8 -0.7
v -0.3 5.9 -0.6
v -0.2 5.9 -0.6
v 0.2 5.9 -0.6
v 0.3 5.9 -0.6
v -0.3 5.9 -0.7
v -0.2 5.9 -0.7
v 0.2 5.9 -0.7
v 0.3 5.9 -0.7
v -0.4 6 -0.6
v -0.3 6 -0.6
v 0.3 6 -0.6
v 0.4 6 -0.6
v -0.4 6 -0.7
v -0.3 6 -0.7
v 0.3 6 -0.7
v 0.4 6 -0.7
v -0.2 6.6 -0.6
v 0.2 6.6 -0.6
v -0.2 6.6 -0.7
v 0.2 6.6 -0.7
v -0.3 6.7 -0.6
v -0.2 6.7 -0.6
v 0.2 6.7 -0.6
v 0.3 6.7 -0.6
v -0.3 6.7 -0.7
v -0.2 6.7 -0.7
v 0.2 6.7 -0.7
v 0.3 6.7 -0.7
v -0.4 6.8 -0.6
v -0.3 6.8 -0.6
v 0.3 6.8 -0.6
v 0.4 6.8 -0.6
v -0.4 6.8 -0.7
v -0.3 6.8 -0.7
v 0.3 6.8 -0.7
v 0.4 6.8 -0.7
v -0.4 0.1 0.3
v 0.4 0.1 0.3
v -0.2 0.1 0.1
v 0.2 0.1 0.1
v -0.2 0.1 -0.3
v 0.2 0.1 -0.3
v -0.4 0.1 -0.5
v 0.4 0.1 -0.5
v -0.4 5.5 -0.6
v -0.3 5.5 -0.6
v 0.3 5.5 -0.6
v 0.4 5.5 -0.6
v -0.4 5.5 -0.7
v -0.3 5.5 -0.7
v 0.3 5.5 -0.7
v 0.4 5.5 -0.7
v -0.3 5.6 -0.6
v -0.2 5.6 -0.6
v 0.2 5.6 -0.6
v 0.3 5.6 -0.6
v -0.3 5.6 -0.7
v -0.2 5.6 -0.7
v 0.2 5.6 -0.7
v 0.3 5.6 -0.7
v -0.2 5.7 -0.6
v 0.2 5.7 -0.6
v -0.2 5.7 -0.7
v 0.2 5.7 -0.7
v -0.4 6.3 -0.6
v -0.3 6.3 -0.6
v 0.3 6.3 -0.6
v 0.4 6.3 -0.6
v -0.4 6.3 -0.7
v -0.3 6.3 -0.7
v 0.3 6.3 -0.7
v 0.4 6.3 -0.7
v -0.3 6.4 -0.6
v -0.2 6.4 -0.6
v 0.2 6.4 -0.6
v 0.3 6.4 -0.6
v -0.3 6.4 -0.7
v -0.2 6.4 -0.7
v 0.2 6.4 -0.7
v 0.3 6.4 -0.7
v -0.2 6.5 -0.6
v 0.2 6.5 -0.6
v -0.2 6.5 -0.7
v 0.2 6.5 -0.7
v -0.4 7.1 -0.6
v -0.3 7.1 -0.6
v 0.3 7.1 -0.6
v 0.4 7.1 -0.6
v -0.4 7.1 -0.7
v -0.3 7.1 -0.7
v 0.3 7.1 -0.7
v 0.4 7.1 -0.7
v -0.3 7.2 -0.6
v -0.2 7.2 -0.6
v 0.2 7.2 -0.6
v 0.3 7.2 -0.6
v -0.3 7.2 -0.7
v -0.2 7.2 -0.7
v 0.2 7.2 -0.7
v 0.3 7.2 -0.7
v -0.2 7.3 -0.6
v 0.2 7.3 -0.6
v -0.2 7.3 -0.7
v 0.2 7.3 -0.7
v -0.6 7.4 0.4
v 0.6 7.4 0.4
v -0.6 7.4 -0.6
v 0.6 7.4 -0.6

# faces
f 3/2/1 2/2/1 1/2/1
f 4/2/1 2/2/1 3/2/1
f 7/2/1 6/2/1 5/2/1
f 8/2/1 6/2/1 7/2/1
f 11/4/1 10/4/1 9/4/1
f 12/4/1 10/4/1 11/4/1
f 15/1/1 14/1/1 13/1/1
f 16/1/1 14/1/1 15/1/1
f 19/3/1 18/3/1 17/3/1
f 20/3/1 18/3/1 19/3/1
f 23/4/1 22/4/1 21/4/1
f 24/4/1 22/4/1 23/4/1
f 27/4/1 26/4/1 25/4/1
f 28/4/1 26/4/1 27/4/1
f 31/1/1 30/1/1 29/1/1
f 32/1/1 30/1/1 31/1/1
f 35/1/1 34/1/1 33/1/1
f 36/1/1 34/1/1 35/1/1
f 39/3/1 38/3/1 37/3/1
f 40/3/1 38/3/1 39/3/1
f 43/3/1 42/3/1 41/3/1
f 44/3/1 42/3/1 43/3/1
f 47/2/1 46/2/1 45/2/1
f 48/2/1 46/2/1 47/2/1
f 51/4/1 50/4/1 49/4/1
f 52/4/1 50/4/1 51/4/1
f 55/4/1 54/4/1 53/4/1
f 56/4/1 54/4/1 55/4/1
f 59/1/1 58/1/1 57/1/1
f 60/1/1 58/1/1 59/1/1
f 63/1/1 62/1/1 61/1/1
f 64/1/1 62/1/1 63/1/1
f 67/3/1 66/3/1 65/3/1
f 68/3/1 66/3/1 67/3/1
f 71/3/1 70/3/1 69/3/1
f 72/3/1 70/3/1 71/3/1
f 73/2/2 74/2/2 75/2/2
f 75/2/2 74/2/2 76/2/2
f 77/4/2 78/4/2 79/4/2
f 79/4/2 78/4/2 80/4/2
f 81/4/2 82/4/2 83/4/2
f 83/4/2 82/4/2 84/4/2
f 85/1/2 86/1/2 87/1/2
f 87/1/2 86/1/2 88/1/2
f 89/1/2 90/1/2 91/1/2
f 91/1/2 90/1/2 92/1/2
f 93/3/2 94/3/2 95/3/2
f 95/3/2 94/3/2 96/3/2
f 97/3/2 98/3/2 99/3/2
f 99/3/2 98/3/2 100/3/2
f 101/4/2 102/4/2 103/4/2
f 103/4/2 102/4/2 104/4/2
f 105/4/2 106/4/2 107/4/2
f 107/4/2 106/4/2 108/4/2
f 109/1/2 110/1/2 111/1/2
f 111/1/2 110/1/2 112/1/2
f 113/1/2 114/1/2 115/1/2
f 115/1/2 114/1/2 116/1/2
f 117/3/2 118/3/2 119/3/2
f 119/3/2 118/3/2 120/3/2
f 121/3/2 122/3/2 123/3/2
f 123/3/2 122/3/2 124/3/2
f 125/2/2 126/2/2 127/2/2
f 127/2/2 126/2/2 128/2/2
f 129/4/2 130/4/2 131/4/2
f 131/4/2 130/4/2 132/4/2
f 133/1/2 134/1/2 135/1/2
f 135/1/2 134/1/2 136/1/2
f 137/3/2 138/3/2 139/3/2
f 139/3/2 138/3/2 140/3/2
f 141/2/2 142/2/2 143/2/2
f 143/2/2 142/2/2 144/2/2
f 147/2/3 146/2/3 145/2/3
f 148/2/3 146/2/3 147/2/3
f 151/2/3 150/2/3 149/2/3
f 152/2/3 150/2/3 151/2/3
f 155/2/3 154/2/3 153/2/3
f 156/2/3 154/2/3 155/2/3
f 157/2/4 158/2/4 159/2/4
f 159/2/4 158/2/4 160/2/4
f 161/2/4 162/2/4 163/2/4
f 163/2/4 162/2/4 164/2/4
f 165/2/4 166/2/4 167/2/4
f 167/2/4 166/2/4 168/2/4
f 168/2/4 166/2/4 169/2/4
f 169/2/4 166/2/4 170/2/4
f 170/2/4 166/2/4 171/2/4
f 171/2/4 166/2/4 172/2/4
f 165/2/4 167/2/4 173/2/4
f 173/2/4 167/2/4 174/2/4
f 168/2/4 169/2/4 175/2/4
f 175/2/4 169/2/4 176/2/4
f 176/2/4 169/2/4 177/2/4
f 177/2/4 169/2/4 178/2/4
f 170/2/4 171/2/4 179/2/4
f 179/2/4 171/2/4 180/2/4
f 180/2/4 171/2/4 181/2/4
f 181/2/4 171/2/4 182/2/4
f 172/2/4 166/2/4 183/2/4
f 183/2/4 166/2/4 184/2/4
f 165/2/4 173/2/4 185/2/4
f 185/2/4 173/2/4 186/2/4
f 176/2/4 177/2/4 187/2/4
f 187/2/4 177/2/4 188/2/4
f 188/2/4 177/2/4 189/2/4
f 189/2/4 177/2/4 190/2/4
f 180/2/4 181/2/4 191/2/4
f 191/2/4 181/2/4 192/2/4
f 192/2/4 181/2/4 193/2/4
f 193/2/4 181/2/4 194/2/4
f 184/2/4 166/2/4 195/2/4
f 195/2/4 166/2/4 196/2/4
f 165/2/4 185/2/4 197/2/4
f 188/2/4 189/2/4 200/2/4
f 200/2/4 189/2/4 201/2/4
f 192/2/4 193/2/4 204/2/4
f 204/2/4 193/2/4 205/2/4
f 196/2/4 166/2/4 208/2/4
f 197/2/4 198/2/4 209/2/4
f 201/2/4 202/2/4 212/2/4
f 199/2/4 200/2/4 212/2/4
f 200/2/4 201/2/4 212/2/4
f 212/2/4 202/2/4 213/2/4
f 205/2/4 206/2/4 216/2/4
f 203/2/4 204/2/4 216/2/4
f 204/2/4 205/2/4 216/2/4
f 216/2/4 206/2/4 217/2/4
f 207/2/4 208/2/4 220/2/4
f 209/2/4 210/2/4 221/2/4
f 213/2/4 214/2/4 222/2/4
f 212/2/4 213/2/4 222/2/4
f 211/2/4 212/2/4 222/2/4
f 222/2/4 214/2/4 223/2/4
f 217/2/4 218/2/4 224/2/4
f 215/2/4 216/2/4 224/2/4
f 216/2/4 217/2/4 224/2/4
f 224/2/4 218/2/4 225/2/4
f 219/2/4 220/2/4 226/2/4
f 209/2/4 221/2/4 227/2/4
f 225/2/4 226/2/4 227/2/4
f 224/2/4 225/2/4 227/2/4
f 222/2/4 223/2/4 227/2/4
f 223/2/4 224/2/4 227/2/4
f 165/2/4 197/2/4 227/2/4
f 197/2/4 209/2/4 227/2/4
f 221/2/4 222/2/4 227/2/4
f 226/2/4 220/2/4 228/2/4
f 227/2/4 226/2/4 228/2/4
f 208/2/4 166/2/4 228/2/4
f 220/2/4 208/2/4 228/2/4
f 229/4/4 230/4/4 236/4/4
f 236/4/4 230/4/4 237/4/4
f 231/1/4 232/1/4 240/1/4
f 240/1/4 232/1/4 241/1/4
f 233/3/4 234/3/4 244/3/4
f 244/3/4 234/3/4 245/3/4
f 237/4/4 238/4/4 248/4/4
f 235/4/4 236/4/4 248/4/4
f 236/4/4 237/4/4 248/4/4
f 248/4/4 238/4/4 249/4/4
f 241/1/4 242/1/4 252/1/4
f 239/1/4 240/1/4 252/1/4
f 240/1/4 241/1/4 252/1/4
f 252/1/4 242/1/4 253/1/4
f 245/3/4 246/3/4 256/3/4
f 244/3/4 245/3/4 256/3/4
f 243/3/4 244/3/4 256/3/4
f 256/3/4 246/3/4 257/3/4
f 249/4/4 250/4/4 259/4/4
f 248/4/4 249/4/4 259/4/4
f 247/4/4 248/4/4 259/4/4
f 259/4/4 250/4/4 260/4/4
f 260/4/4 250/4/4 261/4/4
f 261/4/4 250/4/4 262/4/4
f 253/1/4 254/1/4 263/1/4
f 252/1/4 253/1/4 263/1/4
f 251/1/4 252/1/4 263/1/4
f 263/1/4 254/1/4 264/1/4
f 264/1/4 254/1/4 265/1/4
f 265/1/4 254/1/4 266/1/4
f 257/3/4 258/3/4 267/3/4
f 256/3/4 257/3/4 267/3/4
f 255/3/4 256/3/4 267/3/4
f 267/3/4 258/3/4 268/3/4
f 268/3/4 258/3/4 269/3/4
f 269/3/4 258/3/4 270/3/4
f 260/4/4 261/4/4 271/4/4
f 271/4/4 261/4/4 272/4/4
f 272/4/4 261/4/4 273/4/4
f 273/4/4 261/4/4 274/4/4
f 264/1/4 265/1/4 275/1/4
f 275/1/4 265/1/4 276/1/4
f 276/1/4 265/1/4 277/1/4
f 277/1/4 265/1/4 278/1/4
f 268/3/4 269/3/4 279/3/4
f 279/3/4 269/3/4 280/3/4
f 280/3/4 269/3/4 281/3/4
f 281/3/4 269/3/4 282/3/4
f 272/4/4 273/4/4 283/4/4
f 283/4/4 273/4/4 284/4/4
f 276/1/4 277/1/4 285/1/4
f 285/1/4 277/1/4 286/1/4
f 280/3/4 281/3/4 287/3/4
f 287/3/4 281/3/4 288/3/4
f 291/2/5 290/2/5 289/2/5
f 292/2/5 290/2/5 291/2/5
f 295/2/5 294/2/5 293/2/5
f 296/2/5 294/2/5 295/2/5
f 297/2/5 295/2/5 293/2/5
f 298/2/5 294/2/5 296/2/5
f 299/2/5 297/2/5 293/2/5
f 299/2/5 298/2/5 297/2/5
f 300/2/5 294/2/5 298/2/5
f 300/2/5 298/2/5 299/2/5
f 303/4/5 302/4/5 301/4/5
f 304/4/5 302/4/5 303/4/5
f 309/4/5 306/4/5 305/4/5
f 310/4/5 306/4/5 309/4/5
f 311/4/5 308/4/5 307/4/5
f 312/4/5 308/4/5 311/4/5
f 317/4/5 314/4/5 313/4/5
f 318/4/5 314/4/5 317/4/5
f 319/4/5 316/4/5 315/4/5
f 320/4/5 316/4/5 319/4/5
f 323/1/5 322/1/5 321/1/5
f 324/1/5 322/1/5 323/1/5
f 329/1/5 326/1/5 325/1/5
f 330/1/5 326/1/5 329/1/5
f 331/1/5 328/1/5 327/1/5
f 332/1/5 328/1/5 331/1/5
f 337/1/5 334/1/5 333/1/5
f 338/1/5 334/1/5 337/1/5
f 339/1/5 336/1/5 335/1/5
f 340/1/5 336/1/5 339/1/5
f 343/3/5 342/3/5 341/3/5
f 344/3/5 342/3/5 343/3/5
f 349/3/5 346/3/5 345/3/5
f 350/3/5 346/3/5 349/3/5
f 351/3/5 348/3/5 347/3/5
f 352/3/5 348/3/5 351/3/5
f 357/3/5 354/3/5 353/3/5
f 358/3/5 354/3/5 357/3/5
f 359/3/5 356/3/5 355/3/5
f 360/3/5 356/3/5 359/3/5
f 361/2/6 362/2/6 363/2/6
f 363/2/6 362/2/6 364/2/6
f 361/2/6 363/2/6 365/2/6
f 364/2/6 362/2/6 366/2/6
f 361/2/6 365/2/6 367/2/6
f 365/2/6 366/2/6 367/2/6
f 366/2/6 362/2/6 368/2/6
f 367/2/6 366/2/6 368/2/6
f 369/4/6 370/4/6 373/4/6
f 373/4/6 370/4/6 374/4/6
f 371/4/6 372/4/6 375/4/6
f 375/4/6 372/4/6 376/4/6
f 377/4/6 378/4/6 381/4/6
f 381/4/6 378/4/6 382/4/6
f 379/4/6 380/4/6 383/4/6
f 383/4/6 380/4/6 384/4/6
f 385/4/6 386/4/6 387/4/6
f 387/4/6 386/4/6 388/4/6
f 389/1/6 390/1/6 393/1/6
f 393/1/6 390/1/6 394/1/6
f 391/1/6 392/1/6 395/1/6
f 395/1/6 392/1/6 396/1/6
f 397/1/6 398/1/6 401/1/6
f 401/1/6 398/1/6 402/1/6
f 399/1/6 400/1/6 403/1/6
f 403/1/6 400/1/6 404/1/6
f 405/1/6 406/1/6 407/1/6
f 407/1/6 406/1/6 408/1/6
f 409/3/6 410/3/6 413/3/6
f 413/3/6 410/3/6 414/3/6
f 411/3/6 412/3/6 415/3/6
f 415/3/6 412/3/6 416/3/6
f 417/3/6 418/3/6 421/3/6
f 421/3/6 418/3/6 422/3/6
f 419/3/6 420/3/6 423/3/6
f 423/3/6 420/3/6 424/3/6
f 425/3/6 426/3/6 427/3/6
f 427/3/6 426/3/6 428/3/6
f 429/2/6 430/2/6 431/2/6
f 431/2/6 430/2/6 432/2/6
