# MagicaVoxel @ Ephtracy

# group
o 

# material
mtllib cafetera.mtl
usemtl palette

# normals
vn -1 0 0
vn 1 0 0
vn 0 0 1
vn 0 0 -1
vn 0 -1 0
vn 0 1 0

# texcoords
vt 0.00976563 0.5
vt 0.0136719 0.5
vt 0.908203 0.5
vt 0.943359 0.5
vt 0.958984 0.5
vt 0.978516 0.5
vt 0.990234 0.5

# verts
v -5.6 0 1.7
v -5.6 0 -1.4
v -5.6 3.6 1.7
v -5.6 3.6 -1.4
v -5.6 3.7 1.7
v -5.6 3.7 -1.4
v -5.3 3.7 1.4
v -5.3 3.7 -1.1
v -5.3 3.8 1.4
v -5.3 3.8 -0.8
v -5.3 5.8 -0.8
v -5.3 5.8 -1.1
v -5.2 3.8 -0.7
v -5.2 3.8 -0.8
v -5.2 4.8 1
v -5.2 4.8 -0.7
v -5.2 5.8 1
v -5.2 5.8 -0.8
v -5 3.7 0.8
v -5 3.7 -0.7
v -5 3.8 0.8
v -5 3.8 -0.7
v -4.9 5.4 1.1
v -4.9 5.4 1
v -4.9 5.5 1.1
v -4.9 5.5 1
v -4.4 3.7 0.4
v -4.4 3.7 -1.19209e-07
v -4.4 3.8 0.4
v -4.4 3.8 -1.19209e-07
v -4.4 5.4 1.1
v -4.4 5.4 1
v -4.4 5.5 1.1
v -4.4 5.5 1
v -4 3.7 1.3
v -4 3.7 -0.7
v -4 3.8 1.3
v -4 3.8 -0.7
v -3.9 5.4 1.1
v -3.9 5.4 1
v -3.9 5.5 1.1
v -3.9 5.5 1
v -3.4 5.8 0.2
v -3.4 5.8 -1
v -3.4 6.3 0.2
v -3.4 6.3 -1
v -3.1 0 1.7
v -3.1 0 -1.3
v -3.1 0.2 1.7
v -3.1 0.2 -1.3
v -3.1 0.5 1.7
v -3.1 0.5 1.6
v -3.1 3.2 1.7
v -3.1 3.2 1.6
v -3.1 3.7 1.3
v -3.1 3.7 -0.7
v -3.1 3.8 1.3
v -3.1 3.8 -0.7
v -3.1 5.4 1.1
v -3.1 5.4 1
v -3.1 5.5 1.1
v -3.1 5.5 1
v -2.6 5.4 1.1
v -2.6 5.4 1
v -2.6 5.5 1.1
v -2.6 5.5 1
v -2.5 3.7 0.3
v -2.5 3.7 -0.4
v -2.5 4.1 0.3
v -2.5 4.1 -0.4
v -2.1 3.7 0.0999999
v -2.1 3.7 -0.2
v -2.1 4.1 0.0999999
v -2.1 4.1 -0.2
v -2.1 5.4 1.1
v -2.1 5.4 1
v -2.1 5.5 1.1
v -2.1 5.5 1
v -1.7 3.7 1.3
v -1.7 3.7 -0.7
v -1.7 3.8 1.3
v -1.7 3.8 -0.7
v -0.8 3.7 0.6
v -0.8 3.7 -0.2
v -0.8 3.8 0.6
v -0.8 3.8 -0.2
v 0.2 3.7 -0.2
v 0.2 3.7 -0.3
v 0.2 3.8 -0.2
v 0.2 3.8 -0.3
v 3.5 0 1.6
v 3.5 0 -1.2
v 3.5 3.6 1.6
v 3.5 3.6 -1.2
v -5.3 0 1.7
v -5.3 0 -1.4
v -5.3 0.2 1.7
v -5.3 0.2 -1.4
v -5.2 0.5 1.7
v -5.2 0.5 1.6
v -5.2 3.2 1.7
v -5.2 3.2 1.6
v -5.1 3.7 1.3
v -5.1 3.7 -0.7
v -5.1 3.8 1.3
v -5.1 3.8 -0.7
v -4.8 3.7 0.8
v -4.8 3.7 0.5
v -4.8 3.7 0.4
v -4.8 3.7 -1.19209e-07
v -4.8 3.7 -0.2
v -4.8 3.7 -0.7
v -4.8 3.8 0.8
v -4.8 3.8 0.5
v -4.8 3.8 0.4
v -4.8 3.8 -1.19209e-07
v -4.8 3.8 -0.2
v -4.8 3.8 -0.7
v -4.8 5.4 1.1
v -4.8 5.4 1
v -4.8 5.5 1.1
v -4.8 5.5 1
v -4.3 3.7 0.5
v -4.3 3.7 -0.2
v -4.3 3.8 0.5
v -4.3 3.8 -0.2
v -4.3 5.4 1.1
v -4.3 5.4 1
v -4.3 5.5 1.1
v -4.3 5.5 1
v -3.8 3.7 1.3
v -3.8 3.7 -0.7
v -3.8 3.8 1.3
v -3.8 3.8 -0.7
v -3.8 5.4 1.1
v -3.8 5.4 1
v -3.8 5.5 1.1
v -3.8 5.5 1
v -3 5.4 1.1
v -3 5.4 1
v -3 5.5 1.1
v -3 5.5 1
v -2.9 3.7 1.3
v -2.9 3.7 -0.7
v -2.9 3.8 1.3
v -2.9 3.8 -0.7
v -2.8 0 1.7
v -2.8 0 -1.3
v -2.8 0.2 -1.3
v -2.8 0.2 -1.4
v -2.8 3.6 1.7
v -2.8 3.6 -1.4
v -2.5 5.4 1.1
v -2.5 5.4 1
v -2.5 5.5 1.1
v -2.5 5.5 1
v -2.3 3.7 0.0999999
v -2.3 3.7 -0.2
v -2.3 4.1 0.0999999
v -2.3 4.1 -0.2
v -2 5.4 1.1
v -2 5.4 1
v -2 5.5 1.1
v -2 5.5 1
v -1.9 3.7 0.3
v -1.9 3.7 -0.4
v -1.9 4.1 0.3
v -1.9 4.1 -0.4
v -1.8 5.8 0.2
v -1.8 5.8 -1
v -1.8 6.3 0.2
v -1.8 6.3 -1
v -1.6 3.7 -0.7
v -1.6 3.7 -0.8
v -1.6 3.8 -0.7
v -1.6 4.8 1
v -1.6 4.8 -0.7
v -1.6 5.8 1
v -1.6 5.8 -0.8
v -1.5 3.7 1.4
v -1.5 3.7 -0.7
v -1.5 3.7 -0.8
v -1.5 3.7 -1.1
v -1.5 3.8 1.4
v -1.5 3.8 -0.7
v -1.5 5.8 -0.8
v -1.5 5.8 -1.1
v 0.3 3.7 0.6
v 0.3 3.7 -0.3
v 0.3 3.8 0.6
v 0.3 3.8 -0.3
v 5.1 0 1.6
v 5.1 0 -1.2
v 5.1 3.6 1.6
v 5.1 3.6 -1.2
v 5.2 3.6 1.7
v 5.2 3.6 -1.4
v 5.2 3.7 1.7
v 5.2 3.7 -1.4
v -5.6 0 1.7
v -5.6 3.6 1.7
v -5.6 3.7 1.7
v -5.3 0 1.7
v -5.3 0.2 1.7
v -5.2 0.5 1.7
v -5.2 3.2 1.7
v -3.1 0 1.7
v -3.1 0.2 1.7
v -3.1 0.5 1.7
v -3.1 3.2 1.7
v -2.8 0 1.7
v -2.8 3.6 1.7
v 5.2 3.6 1.7
v 5.2 3.7 1.7
v -5.2 0.5 1.6
v -5.2 3.2 1.6
v -4.7 2.4 1.6
v -4.7 2.5 1.6
v -4.5 1.5 1.6
v -4.5 2.4 1.6
v -4.4 1.7 1.6
v -4.4 2 1.6
v -4.4 2.1 1.6
v -4.4 2.4 1.6
v -4.2 1.7 1.6
v -4.2 2 1.6
v -4.2 2.1 1.6
v -4.2 2.4 1.6
v -4.1 1.7 1.6
v -4.1 2 1.6
v -4.1 2.1 1.6
v -4.1 2.4 1.6
v -3.9 1.7 1.6
v -3.9 2 1.6
v -3.9 2.1 1.6
v -3.9 2.4 1.6
v -3.8 1.5 1.6
v -3.8 2.4 1.6
v -3.6 2.4 1.6
v -3.6 2.5 1.6
v -3.1 0.5 1.6
v -3.1 3.2 1.6
v 3.5 0 1.6
v 3.5 3.6 1.6
v 5.1 0 1.6
v 5.1 3.6 1.6
v -5.3 3.7 1.4
v -5.3 3.8 1.4
v -1.5 3.7 1.4
v -1.5 3.8 1.4
v -4.9 5.4 1.1
v -4.9 5.5 1.1
v -4.8 5.4 1.1
v -4.8 5.5 1.1
v -4.4 5.4 1.1
v -4.4 5.5 1.1
v -4.3 5.4 1.1
v -4.3 5.5 1.1
v -3.9 5.4 1.1
v -3.9 5.5 1.1
v -3.8 5.4 1.1
v -3.8 5.5 1.1
v -3.1 5.4 1.1
v -3.1 5.5 1.1
v -3 5.4 1.1
v -3 5.5 1.1
v -2.6 5.4 1.1
v -2.6 5.5 1.1
v -2.5 5.4 1.1
v -2.5 5.5 1.1
v -2.1 5.4 1.1
v -2.1 5.5 1.1
v -2 5.4 1.1
v -2 5.5 1.1
v -5.2 4.8 1
v -5.2 5.8 1
v -5.1 4.9 1
v -5.1 5.7 1
v -5 5 1
v -5 5.3 1
v -4.9 5.4 1
v -4.9 5.5 1
v -4.8 5.4 1
v -4.8 5.5 1
v -4.7 5 1
v -4.7 5.3 1
v -4.5 5 1
v -4.5 5.3 1
v -4.4 5.4 1
v -4.4 5.5 1
v -4.3 5.4 1
v -4.3 5.5 1
v -4.2 5 1
v -4.2 5.3 1
v -4 5 1
v -4 5.3 1
v -3.9 5.4 1
v -3.9 5.5 1
v -3.8 5.4 1
v -3.8 5.5 1
v -3.7 5 1
v -3.7 5.3 1
v -3.5 4.9 1
v -3.5 5.3 1
v -3.4 4.9 1
v -3.4 5.3 1
v -3.2 5 1
v -3.2 5.3 1
v -3.1 5.4 1
v -3.1 5.5 1
v -3 5.4 1
v -3 5.5 1
v -2.9 5 1
v -2.9 5.3 1
v -2.7 5 1
v -2.7 5.3 1
v -2.6 5.4 1
v -2.6 5.5 1
v -2.5 5.4 1
v -2.5 5.5 1
v -2.4 5 1
v -2.4 5.3 1
v -2.2 5 1
v -2.2 5.3 1
v -2.1 5.4 1
v -2.1 5.5 1
v -2 5.4 1
v -2 5.5 1
v -1.9 5 1
v -1.9 5.3 1
v -1.7 4.9 1
v -1.7 5.7 1
v -1.6 4.8 1
v -1.6 5.8 1
v -5 3.7 0.8
v -5 3.8 0.8
v -4.8 3.7 0.8
v -4.8 3.8 0.8
v -0.8 3.7 0.6
v -0.8 3.8 0.6
v 0.2 3.7 0.6
v 0.2 3.8 0.6
v 0.3 3.7 0.6
v 0.3 3.8 0.6
v -4.8 3.7 0.5
v -4.8 3.8 0.5
v -4.3 3.7 0.5
v -4.3 3.8 0.5
v -2.5 3.7 0.3
v -2.5 4.1 0.3
v -1.9 3.7 0.3
v -1.9 4.1 0.3
v -3.4 5.8 0.2
v -3.4 6.3 0.2
v -1.8 5.8 0.2
v -1.8 6.3 0.2
v -4.8 3.7 -1.19209e-07
v -4.8 3.8 -1.19209e-07
v -4.4 3.7 -1.19209e-07
v -4.4 3.8 -1.19209e-07
v -2.3 3.7 -0.2
v -2.3 4.1 -0.2
v -2.1 3.7 -0.2
v -2.1 4.1 -0.2
v -5.2 3.8 -0.7
v -5.2 4.8 -0.7
v -5.1 3.7 -0.7
v -5.1 3.8 -0.7
v -5 3.7 -0.7
v -5 3.8 -0.7
v -4.8 3.7 -0.7
v -4.8 3.8 -0.7
v -4 3.7 -0.7
v -4 3.8 -0.7
v -3.8 3.7 -0.7
v -3.8 3.8 -0.7
v -3.1 3.7 -0.7
v -3.1 3.8 -0.7
v -2.9 3.7 -0.7
v -2.9 3.8 -0.7
v -1.7 3.7 -0.7
v -1.7 3.8 -0.7
v -1.6 3.8 -0.7
v -1.6 4.8 -0.7
v -5.3 3.8 -0.8
v -5.3 5.8 -0.8
v -5.2 3.8 -0.8
v -5.2 5.8 -0.8
v -1.6 3.7 -0.8
v -1.6 5.8 -0.8
v -1.5 3.7 -0.8
v -1.5 5.8 -0.8
v -5.1 3.7 1.3
v -5.1 3.8 1.3
v -4 3.7 1.3
v -4 3.8 1.3
v -3.8 3.7 1.3
v -3.8 3.8 1.3
v -3.1 3.7 1.3
v -3.1 3.8 1.3
v -2.9 3.7 1.3
v -2.9 3.8 1.3
v -1.7 3.7 1.3
v -1.7 3.8 1.3
v -4.8 3.7 0.4
v -4.8 3.8 0.4
v -4.4 3.7 0.4
v -4.4 3.8 0.4
v -2.3 3.7 0.0999999
v -2.3 4.1 0.0999999
v -2.1 3.7 0.0999999
v -2.1 4.1 0.0999999
v -4.8 3.7 -0.2
v -4.8 3.8 -0.2
v -4.3 3.7 -0.2
v -4.3 3.8 -0.2
v -0.8 3.7 -0.2
v -0.8 3.8 -0.2
v 0.2 3.7 -0.2
v 0.2 3.8 -0.2
v 0.2 3.7 -0.3
v 0.2 3.8 -0.3
v 0.3 3.7 -0.3
v 0.3 3.8 -0.3
v -2.5 3.7 -0.4
v -2.5 4.1 -0.4
v -1.9 3.7 -0.4
v -1.9 4.1 -0.4
v -1.6 3.7 -0.7
v -1.6 3.8 -0.7
v -1.5 3.7 -0.7
v -1.5 3.8 -0.7
v -3.4 5.8 -1
v -3.4 6.3 -1
v -1.8 5.8 -1
v -1.8 6.3 -1
v -5.3 3.7 -1.1
v -5.3 5.8 -1.1
v -1.5 3.7 -1.1
v -1.5 5.8 -1.1
v 3.5 0 -1.2
v 3.5 3.6 -1.2
v 5.1 0 -1.2
v 5.1 3.6 -1.2
v -3.1 0 -1.3
v -3.1 0.2 -1.3
v -2.8 0 -1.3
v -2.8 0.2 -1.3
v -5.6 0 -1.4
v -5.6 3.6 -1.4
v -5.6 3.7 -1.4
v -5.3 0 -1.4
v -5.3 0.2 -1.4
v -2.8 0.2 -1.4
v -2.8 3.6 -1.4
v 5.2 3.6 -1.4
v 5.2 3.7 -1.4
v -5.6 0 1.7
v -5.3 0 1.7
v -3.1 0 1.7
v -2.8 0 1.7
v 3.5 0 1.6
v 5.1 0 1.6
v 3.5 0 -1.2
v 5.1 0 -1.2
v -3.1 0 -1.3
v -2.8 0 -1.3
v -5.6 0 -1.4
v -5.3 0 -1.4
v -5.3 0.2 1.7
v -3.1 0.2 1.7
v -3.1 0.2 -1.3
v -2.8 0.2 -1.3
v -5.3 0.2 -1.4
v -2.8 0.2 -1.4
v -5.2 3.2 1.7
v -3.1 3.2 1.7
v -5.2 3.2 1.6
v -3.1 3.2 1.6
v -2.8 3.6 1.7
v 5.2 3.6 1.7
v 3.5 3.6 1.6
v 5.1 3.6 1.6
v 3.5 3.6 -1.2
v 5.1 3.6 -1.2
v -2.8 3.6 -1.4
v 5.2 3.6 -1.4
v -5.2 4.8 1
v -1.6 4.8 1
v -5.2 4.8 -0.7
v -1.6 4.8 -0.7
v -4.9 5.4 1.1
v -4.8 5.4 1.1
v -4.4 5.4 1.1
v -4.3 5.4 1.1
v -3.9 5.4 1.1
v -3.8 5.4 1.1
v -3.1 5.4 1.1
v -3 5.4 1.1
v -2.6 5.4 1.1
v -2.5 5.4 1.1
v -2.1 5.4 1.1
v -2 5.4 1.1
v -4.9 5.4 1
v -4.8 5.4 1
v -4.4 5.4 1
v -4.3 5.4 1
v -3.9 5.4 1
v -3.8 5.4 1
v -3.1 5.4 1
v -3 5.4 1
v -2.6 5.4 1
v -2.5 5.4 1
v -2.1 5.4 1
v -2 5.4 1
v -5.2 0.5 1.7
v -3.1 0.5 1.7
v -5.2 0.5 1.6
v -3.1 0.5 1.6
v -5.6 3.7 1.7
v 5.2 3.7 1.7
v -5.3 3.7 1.4
v -1.5 3.7 1.4
v -5.1 3.7 1.3
v -4 3.7 1.3
v -3.8 3.7 1.3
v -3.1 3.7 1.3
v -2.9 3.7 1.3
v -1.7 3.7 1.3
v -5 3.7 0.8
v -4.8 3.7 0.8
v -0.8 3.7 0.6
v 0.2 3.7 0.6
v 0.3 3.7 0.6
v -4.8 3.7 0.5
v -4.3 3.7 0.5
v -4.8 3.7 0.4
v -4.4 3.7 0.4
v -2.5 3.7 0.3
v -1.9 3.7 0.3
v -2.3 3.7 0.0999999
v -2.1 3.7 0.0999999
v -4.8 3.7 -1.19209e-07
v -4.4 3.7 -1.19209e-07
v -4.8 3.7 -0.2
v -4.3 3.7 -0.2
v -2.3 3.7 -0.2
v -2.1 3.7 -0.2
v -0.8 3.7 -0.2
v 0.2 3.7 -0.2
v 0.2 3.7 -0.3
v 0.3 3.7 -0.3
v -2.5 3.7 -0.4
v -1.9 3.7 -0.4
v -5.1 3.7 -0.7
v -5 3.7 -0.7
v -4.8 3.7 -0.7
v -4 3.7 -0.7
v -3.8 3.7 -0.7
v -3.1 3.7 -0.7
v -2.9 3.7 -0.7
v -1.7 3.7 -0.7
v -1.6 3.7 -0.7
v -1.5 3.7 -0.7
v -1.6 3.7 -0.8
v -1.5 3.7 -0.8
v -5.3 3.7 -1.1
v -1.5 3.7 -1.1
v -5.6 3.7 -1.4
v 5.2 3.7 -1.4
v -5.3 3.8 1.4
v -1.5 3.8 1.4
v -5.1 3.8 1.3
v -4 3.8 1.3
v -3.8 3.8 1.3
v -3.1 3.8 1.3
v -2.9 3.8 1.3
v -1.7 3.8 1.3
v -5 3.8 0.8
v -4.8 3.8 0.8
v -0.8 3.8 0.6
v 0.2 3.8 0.6
v 0.3 3.8 0.6
v -4.8 3.8 0.5
v -4.3 3.8 0.5
v -0.3 3.8 0.5
v 0.1 3.8 0.5
v -4.8 3.8 0.4
v -4.4 3.8 0.4
v -0.3 3.8 0.4
v 0.1 3.8 0.4
v -0.7 3.8 0.3
v 0.1 3.8 0.3
v -4.8 3.8 -1.19209e-07
v -4.4 3.8 -1.19209e-07
v -0.7 3.8 -0.1
v 0.1 3.8 -0.1
v -4.8 3.8 -0.2
v -4.3 3.8 -0.2
v -0.8 3.8 -0.2
v 0.2 3.8 -0.2
v 0.2 3.8 -0.3
v 0.3 3.8 -0.3
v -5.2 3.8 -0.7
v -5.1 3.8 -0.7
v -5 3.8 -0.7
v -4.8 3.8 -0.7
v -4 3.8 -0.7
v -3.8 3.8 -0.7
v -3.1 3.8 -0.7
v -2.9 3.8 -0.7
v -1.7 3.8 -0.7
v -1.6 3.8 -0.7
v -1.5 3.8 -0.7
v -5.3 3.8 -0.8
v -5.2 3.8 -0.8
v -2.5 4.1 0.3
v -1.9 4.1 0.3
v -2.3 4.1 0.0999999
v -2.1 4.1 0.0999999
v -2.3 4.1 -0.2
v -2.1 4.1 -0.2
v -2.5 4.1 -0.4
v -1.9 4.1 -0.4
v -4.9 5.5 1.1
v -4.8 5.5 1.1
v -4.4 5.5 1.1
v -4.3 5.5 1.1
v -3.9 5.5 1.1
v -3.8 5.5 1.1
v -3.1 5.5 1.1
v -3 5.5 1.1
v -2.6 5.5 1.1
v -2.5 5.5 1.1
v -2.1 5.5 1.1
v -2 5.5 1.1
v -4.9 5.5 1
v -4.8 5.5 1
v -4.4 5.5 1
v -4.3 5.5 1
v -3.9 5.5 1
v -3.8 5.5 1
v -3.1 5.5 1
v -3 5.5 1
v -2.6 5.5 1
v -2.5 5.5 1
v -2.1 5.5 1
v -2 5.5 1
v -5.2 5.8 1
v -1.6 5.8 1
v -3.4 5.8 0.2
v -1.8 5.8 0.2
v -5.3 5.8 -0.8
v -5.2 5.8 -0.8
v -1.6 5.8 -0.8
v -1.5 5.8 -0.8
v -3.4 5.8 -1
v -1.8 5.8 -1
v -5.3 5.8 -1.1
v -1.5 5.8 -1.1
v -3.4 6.3 0.2
v -1.8 6.3 0.2
v -3.4 6.3 -1
v -1.8 6.3 -1

# faces
f 3/5/1 2/5/1 1/5/1
f 4/5/1 2/5/1 3/5/1
f 5/4/1 4/4/1 3/4/1
f 6/4/1 4/4/1 5/4/1
f 9/6/1 8/6/1 7/6/1
f 10/6/1 8/6/1 9/6/1
f 11/6/1 8/6/1 10/6/1
f 12/6/1 8/6/1 11/6/1
f 16/6/1 14/6/1 13/6/1
f 17/6/1 16/6/1 15/6/1
f 18/6/1 14/6/1 16/6/1
f 18/6/1 16/6/1 17/6/1
f 21/6/1 20/6/1 19/6/1
f 22/6/1 20/6/1 21/6/1
f 25/5/1 24/5/1 23/5/1
f 26/5/1 24/5/1 25/5/1
f 29/6/1 28/6/1 27/6/1
f 30/6/1 28/6/1 29/6/1
f 33/5/1 32/5/1 31/5/1
f 34/5/1 32/5/1 33/5/1
f 37/6/1 36/6/1 35/6/1
f 38/6/1 36/6/1 37/6/1
f 41/5/1 40/5/1 39/5/1
f 42/5/1 40/5/1 41/5/1
f 45/6/1 44/6/1 43/6/1
f 46/6/1 44/6/1 45/6/1
f 49/5/1 48/5/1 47/5/1
f 50/5/1 48/5/1 49/5/1
f 53/5/1 52/5/1 51/5/1
f 54/5/1 52/5/1 53/5/1
f 57/6/1 56/6/1 55/6/1
f 58/6/1 56/6/1 57/6/1
f 61/5/1 60/5/1 59/5/1
f 62/5/1 60/5/1 61/5/1
f 65/5/1 64/5/1 63/5/1
f 66/5/1 64/5/1 65/5/1
f 69/5/1 68/5/1 67/5/1
f 70/5/1 68/5/1 69/5/1
f 73/5/1 72/5/1 71/5/1
f 74/5/1 72/5/1 73/5/1
f 77/5/1 76/5/1 75/5/1
f 78/5/1 76/5/1 77/5/1
f 81/6/1 80/6/1 79/6/1
f 82/6/1 80/6/1 81/6/1
f 85/3/1 84/3/1 83/3/1
f 86/3/1 84/3/1 85/3/1
f 89/1/1 88/1/1 87/1/1
f 90/1/1 88/1/1 89/1/1
f 93/5/1 92/5/1 91/5/1
f 94/5/1 92/5/1 93/5/1
f 95/5/2 96/5/2 97/5/2
f 97/5/2 96/5/2 98/5/2
f 99/5/2 100/5/2 101/5/2
f 101/5/2 100/5/2 102/5/2
f 103/6/2 104/6/2 105/6/2
f 105/6/2 104/6/2 106/6/2
f 107/6/2 108/6/2 113/6/2
f 113/6/2 108/6/2 114/6/2
f 109/6/2 110/6/2 115/6/2
f 115/6/2 110/6/2 116/6/2
f 111/6/2 112/6/2 117/6/2
f 117/6/2 112/6/2 118/6/2
f 119/5/2 120/5/2 121/5/2
f 121/5/2 120/5/2 122/5/2
f 123/6/2 124/6/2 125/6/2
f 125/6/2 124/6/2 126/6/2
f 127/5/2 128/5/2 129/5/2
f 129/5/2 128/5/2 130/5/2
f 131/6/2 132/6/2 133/6/2
f 133/6/2 132/6/2 134/6/2
f 135/5/2 136/5/2 137/5/2
f 137/5/2 136/5/2 138/5/2
f 139/5/2 140/5/2 141/5/2
f 141/5/2 140/5/2 142/5/2
f 143/6/2 144/6/2 145/6/2
f 145/6/2 144/6/2 146/6/2
f 147/5/2 148/5/2 149/5/2
f 147/5/2 149/5/2 151/5/2
f 149/5/2 150/5/2 151/5/2
f 151/5/2 150/5/2 152/5/2
f 153/5/2 154/5/2 155/5/2
f 155/5/2 154/5/2 156/5/2
f 157/5/2 158/5/2 159/5/2
f 159/5/2 158/5/2 160/5/2
f 161/5/2 162/5/2 163/5/2
f 163/5/2 162/5/2 164/5/2
f 165/5/2 166/5/2 167/5/2
f 167/5/2 166/5/2 168/5/2
f 169/6/2 170/6/2 171/6/2
f 171/6/2 170/6/2 172/6/2
f 173/6/2 174/6/2 175/6/2
f 175/6/2 174/6/2 177/6/2
f 176/6/2 177/6/2 178/6/2
f 177/6/2 174/6/2 179/6/2
f 178/6/2 177/6/2 179/6/2
f 180/6/2 181/6/2 184/6/2
f 184/6/2 181/6/2 185/6/2
f 182/6/2 183/6/2 186/6/2
f 186/6/2 183/6/2 187/6/2
f 188/1/2 189/1/2 190/1/2
f 190/1/2 189/1/2 191/1/2
f 192/5/2 193/5/2 194/5/2
f 194/5/2 193/5/2 195/5/2
f 196/4/2 197/4/2 198/4/2
f 198/4/2 197/4/2 199/4/2
f 203/5/3 201/5/3 200/5/3
f 204/5/3 201/5/3 203/5/3
f 205/5/3 201/5/3 204/5/3
f 206/5/3 201/5/3 205/5/3
f 208/5/3 205/5/3 204/5/3
f 209/5/3 205/5/3 208/5/3
f 210/5/3 201/5/3 206/5/3
f 211/5/3 209/5/3 208/5/3
f 211/5/3 210/5/3 209/5/3
f 211/5/3 208/5/3 207/5/3
f 212/4/3 202/4/3 201/4/3
f 212/5/3 210/5/3 211/5/3
f 212/5/3 201/5/3 210/5/3
f 213/4/3 202/4/3 212/4/3
f 214/4/3 202/4/3 213/4/3
f 217/5/3 216/5/3 215/5/3
f 218/5/3 216/5/3 217/5/3
f 219/5/3 217/5/3 215/5/3
f 220/7/3 218/7/3 217/7/3
f 220/5/3 217/5/3 219/5/3
f 221/7/3 220/7/3 219/7/3
f 222/7/3 220/7/3 221/7/3
f 223/7/3 220/7/3 222/7/3
f 224/7/3 218/7/3 220/7/3
f 224/7/3 220/7/3 223/7/3
f 225/7/3 221/7/3 219/7/3
f 225/5/3 222/5/3 221/5/3
f 226/7/3 223/7/3 222/7/3
f 226/5/3 222/5/3 225/5/3
f 227/5/3 224/5/3 223/5/3
f 227/7/3 223/7/3 226/7/3
f 228/7/3 218/7/3 224/7/3
f 228/5/3 224/5/3 227/5/3
f 229/7/3 225/7/3 219/7/3
f 229/7/3 227/7/3 226/7/3
f 229/7/3 228/7/3 227/7/3
f 229/7/3 226/7/3 225/7/3
f 230/7/3 228/7/3 229/7/3
f 231/7/3 228/7/3 230/7/3
f 232/7/3 218/7/3 228/7/3
f 232/7/3 228/7/3 231/7/3
f 233/7/3 229/7/3 219/7/3
f 233/5/3 230/5/3 229/5/3
f 234/7/3 231/7/3 230/7/3
f 234/5/3 230/5/3 233/5/3
f 235/5/3 232/5/3 231/5/3
f 235/7/3 231/7/3 234/7/3
f 236/7/3 218/7/3 232/7/3
f 236/5/3 232/5/3 235/5/3
f 237/5/3 219/5/3 215/5/3
f 237/7/3 233/7/3 219/7/3
f 237/7/3 236/7/3 235/7/3
f 237/7/3 234/7/3 233/7/3
f 237/7/3 235/7/3 234/7/3
f 238/7/3 218/7/3 236/7/3
f 238/7/3 236/7/3 237/7/3
f 239/5/3 238/5/3 237/5/3
f 239/7/3 218/7/3 238/7/3
f 240/5/3 216/5/3 218/5/3
f 240/7/3 218/7/3 239/7/3
f 241/5/3 239/5/3 237/5/3
f 241/5/3 237/5/3 215/5/3
f 241/5/3 240/5/3 239/5/3
f 242/5/3 216/5/3 240/5/3
f 242/5/3 240/5/3 241/5/3
f 245/5/3 244/5/3 243/5/3
f 246/5/3 244/5/3 245/5/3
f 249/6/3 248/6/3 247/6/3
f 250/6/3 248/6/3 249/6/3
f 253/5/3 252/5/3 251/5/3
f 254/5/3 252/5/3 253/5/3
f 257/5/3 256/5/3 255/5/3
f 258/5/3 256/5/3 257/5/3
f 261/5/3 260/5/3 259/5/3
f 262/5/3 260/5/3 261/5/3
f 265/5/3 264/5/3 263/5/3
f 266/5/3 264/5/3 265/5/3
f 269/5/3 268/5/3 267/5/3
f 270/5/3 268/5/3 269/5/3
f 273/5/3 272/5/3 271/5/3
f 274/5/3 272/5/3 273/5/3
f 277/6/3 276/6/3 275/6/3
f 278/6/3 276/6/3 277/6/3
f 279/7/3 278/7/3 277/7/3
f 280/7/3 278/7/3 279/7/3
f 281/7/3 278/7/3 280/7/3
f 282/7/3 278/7/3 281/7/3
f 283/7/3 281/7/3 280/7/3
f 284/7/3 278/7/3 282/7/3
f 285/7/3 279/7/3 277/7/3
f 285/2/3 280/2/3 279/2/3
f 286/7/3 284/7/3 283/7/3
f 286/2/3 280/2/3 285/2/3
f 286/7/3 283/7/3 280/7/3
f 287/7/3 285/7/3 277/7/3
f 287/7/3 286/7/3 285/7/3
f 288/7/3 284/7/3 286/7/3
f 288/7/3 286/7/3 287/7/3
f 289/7/3 284/7/3 288/7/3
f 290/7/3 278/7/3 284/7/3
f 290/7/3 284/7/3 289/7/3
f 291/7/3 289/7/3 288/7/3
f 292/7/3 278/7/3 290/7/3
f 293/7/3 287/7/3 277/7/3
f 293/2/3 288/2/3 287/2/3
f 294/7/3 292/7/3 291/7/3
f 294/2/3 288/2/3 293/2/3
f 294/7/3 291/7/3 288/7/3
f 295/7/3 293/7/3 277/7/3
f 295/7/3 294/7/3 293/7/3
f 296/7/3 292/7/3 294/7/3
f 296/7/3 294/7/3 295/7/3
f 297/7/3 292/7/3 296/7/3
f 298/7/3 278/7/3 292/7/3
f 298/7/3 292/7/3 297/7/3
f 299/7/3 297/7/3 296/7/3
f 300/7/3 278/7/3 298/7/3
f 301/7/3 295/7/3 277/7/3
f 301/2/3 296/2/3 295/2/3
f 302/7/3 300/7/3 299/7/3
f 302/2/3 296/2/3 301/2/3
f 302/7/3 299/7/3 296/7/3
f 303/6/3 277/6/3 275/6/3
f 303/7/3 301/7/3 277/7/3
f 303/7/3 302/7/3 301/7/3
f 304/7/3 300/7/3 302/7/3
f 304/7/3 302/7/3 303/7/3
f 305/6/3 303/6/3 275/6/3
f 305/6/3 304/6/3 303/6/3
f 306/7/3 300/7/3 304/7/3
f 306/6/3 304/6/3 305/6/3
f 307/7/3 306/7/3 305/7/3
f 308/7/3 300/7/3 306/7/3
f 308/7/3 306/7/3 307/7/3
f 309/7/3 300/7/3 308/7/3
f 310/7/3 278/7/3 300/7/3
f 310/7/3 300/7/3 309/7/3
f 311/7/3 309/7/3 308/7/3
f 312/7/3 278/7/3 310/7/3
f 313/7/3 307/7/3 305/7/3
f 313/2/3 308/2/3 307/2/3
f 314/7/3 311/7/3 308/7/3
f 314/2/3 308/2/3 313/2/3
f 314/7/3 312/7/3 311/7/3
f 315/7/3 313/7/3 305/7/3
f 315/7/3 314/7/3 313/7/3
f 316/7/3 312/7/3 314/7/3
f 316/7/3 314/7/3 315/7/3
f 317/7/3 312/7/3 316/7/3
f 318/7/3 278/7/3 312/7/3
f 318/7/3 312/7/3 317/7/3
f 319/7/3 317/7/3 316/7/3
f 320/7/3 278/7/3 318/7/3
f 321/7/3 315/7/3 305/7/3
f 321/2/3 316/2/3 315/2/3
f 322/7/3 320/7/3 319/7/3
f 322/2/3 316/2/3 321/2/3
f 322/7/3 319/7/3 316/7/3
f 323/7/3 321/7/3 305/7/3
f 323/7/3 322/7/3 321/7/3
f 324/7/3 320/7/3 322/7/3
f 324/7/3 322/7/3 323/7/3
f 325/7/3 320/7/3 324/7/3
f 326/7/3 278/7/3 320/7/3
f 326/7/3 320/7/3 325/7/3
f 327/7/3 325/7/3 324/7/3
f 328/7/3 278/7/3 326/7/3
f 329/7/3 323/7/3 305/7/3
f 329/2/3 324/2/3 323/2/3
f 330/7/3 328/7/3 327/7/3
f 330/2/3 324/2/3 329/2/3
f 330/7/3 327/7/3 324/7/3
f 331/6/3 305/6/3 275/6/3
f 331/7/3 329/7/3 305/7/3
f 331/7/3 330/7/3 329/7/3
f 332/7/3 328/7/3 330/7/3
f 332/7/3 330/7/3 331/7/3
f 332/6/3 276/6/3 278/6/3
f 332/7/3 278/7/3 328/7/3
f 333/6/3 331/6/3 275/6/3
f 333/6/3 332/6/3 331/6/3
f 334/6/3 276/6/3 332/6/3
f 334/6/3 332/6/3 333/6/3
f 337/6/3 336/6/3 335/6/3
f 338/6/3 336/6/3 337/6/3
f 341/3/3 340/3/3 339/3/3
f 342/3/3 340/3/3 341/3/3
f 343/1/3 342/1/3 341/1/3
f 344/1/3 342/1/3 343/1/3
f 347/6/3 346/6/3 345/6/3
f 348/6/3 346/6/3 347/6/3
f 351/5/3 350/5/3 349/5/3
f 352/5/3 350/5/3 351/5/3
f 355/6/3 354/6/3 353/6/3
f 356/6/3 354/6/3 355/6/3
f 359/6/3 358/6/3 357/6/3
f 360/6/3 358/6/3 359/6/3
f 363/5/3 362/5/3 361/5/3
f 364/5/3 362/5/3 363/5/3
f 368/6/3 366/6/3 365/6/3
f 369/6/3 368/6/3 367/6/3
f 370/6/3 366/6/3 368/6/3
f 370/6/3 368/6/3 369/6/3
f 372/6/3 366/6/3 370/6/3
f 373/6/3 372/6/3 371/6/3
f 374/6/3 366/6/3 372/6/3
f 374/6/3 372/6/3 373/6/3
f 376/6/3 366/6/3 374/6/3
f 377/6/3 376/6/3 375/6/3
f 378/6/3 366/6/3 376/6/3
f 378/6/3 376/6/3 377/6/3
f 380/6/3 366/6/3 378/6/3
f 381/6/3 380/6/3 379/6/3
f 382/6/3 366/6/3 380/6/3
f 382/6/3 380/6/3 381/6/3
f 383/6/3 366/6/3 382/6/3
f 384/6/3 366/6/3 383/6/3
f 387/6/3 386/6/3 385/6/3
f 388/6/3 386/6/3 387/6/3
f 391/6/3 390/6/3 389/6/3
f 392/6/3 390/6/3 391/6/3
f 393/6/4 394/6/4 395/6/4
f 395/6/4 394/6/4 396/6/4
f 397/6/4 398/6/4 399/6/4
f 399/6/4 398/6/4 400/6/4
f 401/6/4 402/6/4 403/6/4
f 403/6/4 402/6/4 404/6/4
f 405/6/4 406/6/4 407/6/4
f 407/6/4 406/6/4 408/6/4
f 409/5/4 410/5/4 411/5/4
f 411/5/4 410/5/4 412/5/4
f 413/6/4 414/6/4 415/6/4
f 415/6/4 414/6/4 416/6/4
f 417/3/4 418/3/4 419/3/4
f 419/3/4 418/3/4 420/3/4
f 421/1/4 422/1/4 423/1/4
f 423/1/4 422/1/4 424/1/4
f 425/5/4 426/5/4 427/5/4
f 427/5/4 426/5/4 428/5/4
f 429/6/4 430/6/4 431/6/4
f 431/6/4 430/6/4 432/6/4
f 433/6/4 434/6/4 435/6/4
f 435/6/4 434/6/4 436/6/4
f 437/6/4 438/6/4 439/6/4
f 439/6/4 438/6/4 440/6/4
f 441/5/4 442/5/4 443/5/4
f 443/5/4 442/5/4 444/5/4
f 445/5/4 446/5/4 447/5/4
f 447/5/4 446/5/4 448/5/4
f 449/5/4 450/5/4 452/5/4
f 452/5/4 450/5/4 453/5/4
f 453/5/4 450/5/4 454/5/4
f 450/4/4 451/4/4 455/4/4
f 454/5/4 450/5/4 455/5/4
f 455/4/4 451/4/4 456/4/4
f 456/4/4 451/4/4 457/4/4
f 464/5/5 463/5/5 462/5/5
f 465/5/5 463/5/5 464/5/5
f 466/5/5 461/5/5 460/5/5
f 467/5/5 461/5/5 466/5/5
f 468/5/5 459/5/5 458/5/5
f 469/5/5 459/5/5 468/5/5
f 472/5/5 471/5/5 470/5/5
f 474/5/5 472/5/5 470/5/5
f 474/5/5 473/5/5 472/5/5
f 475/5/5 473/5/5 474/5/5
f 478/5/5 477/5/5 476/5/5
f 479/5/5 477/5/5 478/5/5
f 482/4/5 481/4/5 480/4/5
f 483/4/5 481/4/5 482/4/5
f 484/4/5 482/4/5 480/4/5
f 485/4/5 481/4/5 483/4/5
f 486/4/5 484/4/5 480/4/5
f 486/4/5 485/4/5 484/4/5
f 487/4/5 481/4/5 485/4/5
f 487/4/5 485/4/5 486/4/5
f 490/6/5 489/6/5 488/6/5
f 491/6/5 489/6/5 490/6/5
f 504/5/5 493/5/5 492/5/5
f 505/5/5 493/5/5 504/5/5
f 506/5/5 495/5/5 494/5/5
f 507/5/5 495/5/5 506/5/5
f 508/5/5 497/5/5 496/5/5
f 509/5/5 497/5/5 508/5/5
f 510/5/5 499/5/5 498/5/5
f 511/5/5 499/5/5 510/5/5
f 512/5/5 501/5/5 500/5/5
f 513/5/5 501/5/5 512/5/5
f 514/5/5 503/5/5 502/5/5
f 515/5/5 503/5/5 514/5/5
f 516/5/6 517/5/6 518/5/6
f 518/5/6 517/5/6 519/5/6
f 520/4/6 521/4/6 522/4/6
f 522/4/6 521/4/6 523/4/6
f 524/4/6 525/4/6 530/4/6
f 530/4/6 525/4/6 531/4/6
f 523/4/6 521/4/6 532/4/6
f 532/4/6 521/4/6 533/4/6
f 533/4/6 521/4/6 534/4/6
f 531/4/6 525/4/6 535/4/6
f 535/4/6 525/4/6 536/4/6
f 528/4/6 529/4/6 539/4/6
f 539/4/6 529/4/6 540/4/6
f 537/4/6 538/4/6 543/4/6
f 543/4/6 538/4/6 544/4/6
f 536/4/6 525/4/6 546/4/6
f 541/4/6 542/4/6 547/4/6
f 547/4/6 542/4/6 548/4/6
f 523/4/6 532/4/6 549/4/6
f 549/4/6 550/4/6 551/4/6
f 534/4/6 521/4/6 552/4/6
f 528/4/6 539/4/6 553/4/6
f 540/4/6 529/4/6 554/4/6
f 524/4/6 530/4/6 555/4/6
f 555/4/6 530/4/6 556/4/6
f 545/4/6 546/4/6 557/4/6
f 546/4/6 525/4/6 558/4/6
f 557/4/6 546/4/6 558/4/6
f 526/4/6 527/4/6 559/4/6
f 559/4/6 527/4/6 560/4/6
f 553/4/6 554/4/6 561/4/6
f 528/4/6 553/4/6 561/4/6
f 554/4/6 529/4/6 562/4/6
f 561/4/6 554/4/6 562/4/6
f 549/4/6 551/4/6 564/4/6
f 523/4/6 549/4/6 564/4/6
f 551/4/6 552/4/6 564/4/6
f 563/4/6 564/4/6 565/4/6
f 564/4/6 552/4/6 566/4/6
f 565/4/6 564/4/6 566/4/6
f 520/4/6 522/4/6 567/4/6
f 566/4/6 552/4/6 568/4/6
f 520/4/6 567/4/6 569/4/6
f 567/4/6 568/4/6 569/4/6
f 568/4/6 552/4/6 570/4/6
f 569/4/6 568/4/6 570/4/6
f 552/4/6 521/4/6 570/4/6
f 571/6/6 572/6/6 573/6/6
f 573/6/6 572/6/6 574/6/6
f 574/6/6 572/6/6 575/6/6
f 575/6/6 572/6/6 576/6/6
f 576/6/6 572/6/6 577/6/6
f 577/6/6 572/6/6 578/6/6
f 579/6/6 580/6/6 584/6/6
f 581/3/6 582/3/6 586/3/6
f 586/3/6 582/3/6 587/3/6
f 584/6/6 585/6/6 588/6/6
f 579/6/6 584/6/6 588/6/6
f 588/6/6 585/6/6 589/6/6
f 586/1/6 587/1/6 590/1/6
f 581/3/6 586/3/6 590/3/6
f 587/3/6 582/3/6 591/3/6
f 590/1/6 587/1/6 591/1/6
f 581/3/6 590/3/6 592/3/6
f 590/3/6 591/3/6 592/3/6
f 591/3/6 582/3/6 593/3/6
f 592/3/6 591/3/6 593/3/6
f 579/6/6 588/6/6 594/6/6
f 589/6/6 585/6/6 595/6/6
f 581/3/6 592/3/6 596/3/6
f 592/1/6 593/1/6 596/1/6
f 593/3/6 582/3/6 597/3/6
f 596/1/6 593/1/6 597/1/6
f 594/6/6 595/6/6 598/6/6
f 579/6/6 594/6/6 598/6/6
f 595/6/6 585/6/6 599/6/6
f 598/6/6 595/6/6 599/6/6
f 596/3/6 597/3/6 600/3/6
f 581/3/6 596/3/6 600/3/6
f 582/1/6 583/1/6 601/1/6
f 600/3/6 597/3/6 601/3/6
f 597/3/6 582/3/6 601/3/6
f 601/1/6 583/1/6 602/1/6
f 602/1/6 583/1/6 603/1/6
f 571/6/6 573/6/6 604/6/6
f 604/6/6 573/6/6 605/6/6
f 579/6/6 598/6/6 606/6/6
f 606/6/6 598/6/6 607/6/6
f 574/6/6 575/6/6 608/6/6
f 608/6/6 575/6/6 609/6/6
f 576/6/6 577/6/6 610/6/6
f 610/6/6 577/6/6 611/6/6
f 578/6/6 572/6/6 612/6/6
f 612/6/6 572/6/6 613/6/6
f 613/6/6 572/6/6 614/6/6
f 571/6/6 604/6/6 615/6/6
f 615/6/6 604/6/6 616/6/6
f 617/5/6 618/5/6 619/5/6
f 619/5/6 618/5/6 620/5/6
f 617/5/6 619/5/6 621/5/6
f 620/5/6 618/5/6 622/5/6
f 617/5/6 621/5/6 623/5/6
f 621/5/6 622/5/6 623/5/6
f 622/5/6 618/5/6 624/5/6
f 623/5/6 622/5/6 624/5/6
f 625/5/6 626/5/6 637/5/6
f 637/5/6 626/5/6 638/5/6
f 627/5/6 628/5/6 639/5/6
f 639/5/6 628/5/6 640/5/6
f 629/5/6 630/5/6 641/5/6
f 641/5/6 630/5/6 642/5/6
f 631/5/6 632/5/6 643/5/6
f 643/5/6 632/5/6 644/5/6
f 633/5/6 634/5/6 645/5/6
f 645/5/6 634/5/6 646/5/6
f 635/5/6 636/5/6 647/5/6
f 647/5/6 636/5/6 648/5/6
f 649/6/6 650/6/6 651/6/6
f 651/6/6 650/6/6 652/6/6
f 649/6/6 651/6/6 654/6/6
f 652/6/6 650/6/6 655/6/6
f 653/6/6 654/6/6 657/6/6
f 654/6/6 651/6/6 657/6/6
f 655/6/6 656/6/6 658/6/6
f 652/6/6 655/6/6 658/6/6
f 653/6/6 657/6/6 659/6/6
f 657/6/6 658/6/6 659/6/6
f 658/6/6 656/6/6 660/6/6
f 659/6/6 658/6/6 660/6/6
f 661/6/6 662/6/6 663/6/6
f 663/6/6 662/6/6 664/6/6
