# MagicaVoxel @ Ephtracy

# group
o 

# material
mtllib Refrigerador.mtl
usemtl palette

# normals
vn -1 0 0
vn 1 0 0
vn 0 0 1
vn 0 0 -1
vn 0 -1 0
vn 0 1 0

# texcoords
vt 0.0605469 0.5
vt 0.138672 0.5
vt 0.365234 0.5
vt 0.544922 0.5
vt 0.705078 0.5
vt 0.724609 0.5
vt 0.830078 0.5
vt 0.837891 0.5
vt 0.880859 0.5
vt 0.888672 0.5
vt 0.923828 0.5
vt 0.955078 0.5
vt 0.958984 0.5
vt 0.966797 0.5
vt 0.970703 0.5
vt 0.974609 0.5
vt 0.990234 0.5
vt 0.994141 0.5

# verts
v -2 0 1
v -2 0 -0.3
v -2 0.2 1
v -2 0.2 -0.3
v -2 3.6 1
v -2 3.6 -0.3
v -0.3 1.5 1
v -0.3 1.5 0.9
v -0.3 2 0.9
v -0.3 2.1 1
v -0.3 2.1 0.9
v -0.0999999 0.3 1
v -0.0999999 0.3 0.9
v -0.0999999 3.4 1
v -0.0999999 3.4 0.9
v 0.2 1.5 1
v 0.2 1.5 0.9
v 0.2 2.1 1
v 0.2 2.1 0.9
v 1.8 0.3 1
v 1.8 0.3 0.9
v 1.8 3.4 1
v 1.8 3.4 0.9
v -1.8 0.3 1
v -1.8 0.3 0.9
v -1.8 3.4 1
v -1.8 3.4 0.9
v -0.2 1.5 1
v -0.2 1.5 0.9
v -0.2 2.1 1
v -0.2 2.1 0.9
v 0.1 0.3 1
v 0.1 0.3 0.9
v 0.1 3.4 1
v 0.1 3.4 0.9
v 0.3 1.5 1
v 0.3 1.5 0.9
v 0.3 2 0.9
v 0.3 2.1 1
v 0.3 2.1 0.9
v 2 0 1
v 2 0 -0.3
v 2 0.2 1
v 2 0.2 -0.3
v 2 3.6 1
v 2 3.6 -0.3
v -2 0 1
v -2 0.2 1
v -2 3.6 1
v -1.8 0.3 1
v -1.8 3.4 1
v -0.3 1.5 1
v -0.3 2.1 1
v -0.2 1.5 1
v -0.2 2.1 1
v -0.0999999 0.3 1
v -0.0999999 3.4 1
v 0.1 0.3 1
v 0.1 3.4 1
v 0.2 1.5 1
v 0.2 2.1 1
v 0.3 1.5 1
v 0.3 2.1 1
v 1.8 0.3 1
v 1.8 3.4 1
v 2 0 1
v 2 0.2 1
v 2 3.6 1
v -1.8 0.3 0.9
v -1.8 3.4 0.9
v -1.7 0.4 0.9
v -1.7 0.9 0.9
v -1.7 1.5 0.9
v -1.7 1.9 0.9
v -1.7 2.3 0.9
v -1.7 2.6 0.9
v -1.6 0.5 0.9
v -1.6 0.7 0.9
v -1.6 0.8 0.9
v -1.6 0.9 0.9
v -1.6 1 0.9
v -1.6 1.8 0.9
v -1.6 1.9 0.9
v -1.6 2.1 0.9
v -1.6 2.6 0.9
v -1.6 2.7 0.9
v -1.5 0.6 0.9
v -1.5 0.7 0.9
v -1.5 1 0.9
v -1.5 1.2 0.9
v -1.5 1.3 0.9
v -1.5 1.9 0.9
v -1.5 2 0.9
v -1.5 2.5 0.9
v -1.5 2.7 0.9
v -1.5 2.8 0.9
v -1.5 3 0.9
v -1.4 1 0.9
v -1.4 1.2 0.9
v -1.4 1.3 0.9
v -1.3 0.5 0.9
v -1.3 0.6 0.9
v -1.3 0.8 0.9
v -1.3 1 0.9
v -1.3 2.7 0.9
v -1.3 2.8 0.9
v -1.2 2.5 0.9
v -1.2 2.7 0.9
v -1.2 3 0.9
v -1.1 1.8 0.9
v -1.1 1.9 0.9
v -1.1 2 0.9
v -1.1 2.1 0.9
v -1.1 2.5 0.9
v -1.1 2.7 0.9
v -1.1 3 0.9
v -1 0.6 0.9
v -1 0.8 0.9
v -1 0.9 0.9
v -1 1.8 0.9
v -1 2 0.9
v -1 2.1 0.9
v -1 2.7 0.9
v -1 2.9 0.9
v -0.9 0.5 0.9
v -0.9 0.6 0.9
v -0.9 0.7 0.9
v -0.9 0.8 0.9
v -0.9 0.9 0.9
v -0.9 1 0.9
v -0.9 1.7 0.9
v -0.9 1.8 0.9
v -0.9 2.1 0.9
v -0.9 2.2 0.9
v -0.9 2.7 0.9
v -0.9 2.9 0.9
v -0.8 0.8 0.9
v -0.8 0.9 0.9
v -0.8 1 0.9
v -0.8 1.2 0.9
v -0.8 1.3 0.9
v -0.8 2.5 0.9
v -0.8 2.7 0.9
v -0.8 3 0.9
v -0.7 1 0.9
v -0.7 1.2 0.9
v -0.7 1.3 0.9
v -0.7 2.6 0.9
v -0.7 2.7 0.9
v -0.7 2.8 0.9
v -0.6 0.5 0.9
v -0.6 0.6 0.9
v -0.6 0.9 0.9
v -0.6 1 0.9
v -0.6 1.7 0.9
v -0.6 1.8 0.9
v -0.6 2.1 0.9
v -0.6 2.2 0.9
v -0.6 2.4 0.9
v -0.6 2.6 0.9
v -0.5 0.6 0.9
v -0.5 0.7 0.9
v -0.5 0.8 0.9
v -0.5 0.9 0.9
v -0.5 1.8 0.9
v -0.5 2 0.9
v -0.5 2.1 0.9
v -0.3 0.4 0.9
v -0.3 1 0.9
v -0.3 1.5 0.9
v -0.3 2 0.9
v -0.3 2.1 0.9
v -0.3 2.3 0.9
v -0.3 2.4 0.9
v -0.3 2.6 0.9
v -0.2 1.5 0.9
v -0.2 2.1 0.9
v -0.2 2.6 0.9
v -0.2 2.7 0.9
v -0.2 2.8 0.9
v -0.0999999 0.3 0.9
v -0.0999999 3.4 0.9
v 0.1 0.3 0.9
v 0.1 3.4 0.9
v 0.2 1.5 0.9
v 0.2 2.1 0.9
v 0.2 2.6 0.9
v 0.2 2.7 0.9
v 0.2 2.8 0.9
v 0.3 0.4 0.9
v 0.3 1 0.9
v 0.3 1.5 0.9
v 0.3 2 0.9
v 0.3 2.1 0.9
v 0.3 2.3 0.9
v 0.3 2.4 0.9
v 0.3 2.6 0.9
v 0.5 0.6 0.9
v 0.5 0.7 0.9
v 0.5 0.8 0.9
v 0.5 0.9 0.9
v 0.5 1.8 0.9
v 0.5 2 0.9
v 0.5 2.1 0.9
v 0.6 0.5 0.9
v 0.6 0.6 0.9
v 0.6 0.9 0.9
v 0.6 1 0.9
v 0.6 1.7 0.9
v 0.6 1.8 0.9
v 0.6 2.1 0.9
v 0.6 2.2 0.9
v 0.6 2.4 0.9
v 0.6 2.6 0.9
v 0.7 1 0.9
v 0.7 1.2 0.9
v 0.7 1.3 0.9
v 0.7 2.6 0.9
v 0.7 2.7 0.9
v 0.7 2.8 0.9
v 0.8 0.8 0.9
v 0.8 0.9 0.9
v 0.8 1 0.9
v 0.8 1.2 0.9
v 0.8 1.3 0.9
v 0.8 2.5 0.9
v 0.8 2.7 0.9
v 0.8 3 0.9
v 0.9 0.5 0.9
v 0.9 0.6 0.9
v 0.9 0.7 0.9
v 0.9 0.8 0.9
v 0.9 0.9 0.9
v 0.9 1 0.9
v 0.9 1.7 0.9
v 0.9 1.8 0.9
v 0.9 2.1 0.9
v 0.9 2.2 0.9
v 0.9 2.7 0.9
v 0.9 2.9 0.9
v 1 0.6 0.9
v 1 0.8 0.9
v 1 0.9 0.9
v 1 1.8 0.9
v 1 2 0.9
v 1 2.1 0.9
v 1 2.7 0.9
v 1 2.9 0.9
v 1.1 1.8 0.9
v 1.1 1.9 0.9
v 1.1 2 0.9
v 1.1 2.1 0.9
v 1.1 2.5 0.9
v 1.1 2.7 0.9
v 1.1 3 0.9
v 1.2 2.5 0.9
v 1.2 2.7 0.9
v 1.2 3 0.9
v 1.3 0.5 0.9
v 1.3 0.6 0.9
v 1.3 0.8 0.9
v 1.3 1 0.9
v 1.3 2.7 0.9
v 1.3 2.8 0.9
v 1.4 1 0.9
v 1.4 1.2 0.9
v 1.4 1.3 0.9
v 1.5 0.6 0.9
v 1.5 0.7 0.9
v 1.5 1 0.9
v 1.5 1.2 0.9
v 1.5 1.3 0.9
v 1.5 1.9 0.9
v 1.5 2 0.9
v 1.5 2.5 0.9
v 1.5 2.7 0.9
v 1.5 2.8 0.9
v 1.5 3 0.9
v 1.6 0.5 0.9
v 1.6 0.7 0.9
v 1.6 0.8 0.9
v 1.6 0.9 0.9
v 1.6 1 0.9
v 1.6 1.8 0.9
v 1.6 1.9 0.9
v 1.6 2.1 0.9
v 1.6 2.6 0.9
v 1.6 2.7 0.9
v 1.7 0.4 0.9
v 1.7 0.9 0.9
v 1.7 1.5 0.9
v 1.7 1.9 0.9
v 1.7 2.3 0.9
v 1.7 2.6 0.9
v 1.8 0.3 0.9
v 1.8 3.4 0.9
v -2 0 -0.3
v -2 0.2 -0.3
v -2 3.6 -0.3
v 2 0 -0.3
v 2 0.2 -0.3
v 2 3.6 -0.3
v -2 0 1
v 2 0 1
v -2 0 -0.3
v 2 0 -0.3
v -0.3 1.5 1
v -0.2 1.5 1
v 0.2 1.5 1
v 0.3 1.5 1
v -0.3 1.5 0.9
v -0.2 1.5 0.9
v 0.2 1.5 0.9
v 0.3 1.5 0.9
v -1.8 3.4 1
v -0.0999999 3.4 1
v 0.1 3.4 1
v 1.8 3.4 1
v -1.8 3.4 0.9
v -0.0999999 3.4 0.9
v 0.1 3.4 0.9
v 1.8 3.4 0.9
v -1.8 0.3 1
v -0.0999999 0.3 1
v 0.1 0.3 1
v 1.8 0.3 1
v -1.8 0.3 0.9
v -0.0999999 0.3 0.9
v 0.1 0.3 0.9
v 1.8 0.3 0.9
v -0.3 2.1 1
v -0.2 2.1 1
v 0.2 2.1 1
v 0.3 2.1 1
v -0.3 2.1 0.9
v -0.2 2.1 0.9
v 0.2 2.1 0.9
v 0.3 2.1 0.9
v -2 3.6 1
v 2 3.6 1
v -2 3.6 -0.3
v 2 3.6 -0.3

# faces
f 3/18/1 2/18/1 1/18/1
f 4/18/1 2/18/1 3/18/1
f 5/16/1 4/16/1 3/16/1
f 6/16/1 4/16/1 5/16/1
f 9/17/1 8/17/1 7/17/1
f 10/17/1 9/17/1 7/17/1
f 11/17/1 9/17/1 10/17/1
f 14/16/1 13/16/1 12/16/1
f 15/16/1 13/16/1 14/16/1
f 18/17/1 17/17/1 16/17/1
f 19/17/1 17/17/1 18/17/1
f 22/16/1 21/16/1 20/16/1
f 23/16/1 21/16/1 22/16/1
f 24/16/2 25/16/2 26/16/2
f 26/16/2 25/16/2 27/16/2
f 28/17/2 29/17/2 30/17/2
f 30/17/2 29/17/2 31/17/2
f 32/16/2 33/16/2 34/16/2
f 34/16/2 33/16/2 35/16/2
f 36/17/2 37/17/2 38/17/2
f 36/17/2 38/17/2 39/17/2
f 39/17/2 38/17/2 40/17/2
f 41/18/2 42/18/2 43/18/2
f 43/18/2 42/18/2 44/18/2
f 43/16/2 44/16/2 45/16/2
f 45/16/2 44/16/2 46/16/2
f 50/16/3 49/16/3 48/16/3
f 51/16/3 49/16/3 50/16/3
f 54/17/3 53/17/3 52/17/3
f 55/17/3 53/17/3 54/17/3
f 56/16/3 50/16/3 48/16/3
f 57/16/3 49/16/3 51/16/3
f 58/16/3 56/16/3 48/16/3
f 58/16/3 57/16/3 56/16/3
f 59/16/3 49/16/3 57/16/3
f 59/16/3 57/16/3 58/16/3
f 62/17/3 61/17/3 60/17/3
f 63/17/3 61/17/3 62/17/3
f 64/16/3 58/16/3 48/16/3
f 65/16/3 49/16/3 59/16/3
f 66/18/3 48/18/3 47/18/3
f 67/16/3 65/16/3 64/16/3
f 67/18/3 48/18/3 66/18/3
f 67/16/3 64/16/3 48/16/3
f 68/16/3 49/16/3 65/16/3
f 68/16/3 65/16/3 67/16/3
f 71/5/3 70/5/3 69/5/3
f 72/5/3 70/5/3 71/5/3
f 73/5/3 70/5/3 72/5/3
f 74/5/3 70/5/3 73/5/3
f 75/5/3 70/5/3 74/5/3
f 76/5/3 70/5/3 75/5/3
f 77/13/3 72/13/3 71/13/3
f 78/13/3 72/13/3 77/13/3
f 79/13/3 72/13/3 78/13/3
f 80/5/3 73/5/3 72/5/3
f 80/13/3 72/13/3 79/13/3
f 81/5/3 73/5/3 80/5/3
f 82/13/3 74/13/3 73/13/3
f 83/5/3 75/5/3 74/5/3
f 83/13/3 74/13/3 82/13/3
f 84/5/3 75/5/3 83/5/3
f 85/5/3 70/5/3 76/5/3
f 85/13/3 76/13/3 75/13/3
f 86/5/3 70/5/3 85/5/3
f 87/11/3 78/11/3 77/11/3
f 88/9/3 79/9/3 78/9/3
f 88/11/3 78/11/3 87/11/3
f 89/5/3 73/5/3 81/5/3
f 89/11/3 80/11/3 79/11/3
f 89/11/3 81/11/3 80/11/3
f 90/5/3 73/5/3 89/5/3
f 91/5/3 73/5/3 90/5/3
f 92/3/3 84/3/3 83/3/3
f 92/3/3 83/3/3 82/3/3
f 93/3/3 84/3/3 92/3/3
f 94/13/3 86/13/3 85/13/3
f 94/13/3 85/13/3 75/13/3
f 95/5/3 70/5/3 86/5/3
f 95/13/3 86/13/3 94/13/3
f 96/5/3 70/5/3 95/5/3
f 97/5/3 70/5/3 96/5/3
f 98/11/3 89/11/3 79/11/3
f 98/11/3 90/11/3 89/11/3
f 99/15/3 91/15/3 90/15/3
f 99/11/3 90/11/3 98/11/3
f 100/5/3 73/5/3 91/5/3
f 100/15/3 91/15/3 99/15/3
f 101/11/3 87/11/3 77/11/3
f 101/13/3 77/13/3 71/13/3
f 102/9/3 88/9/3 87/9/3
f 102/11/3 87/11/3 101/11/3
f 103/9/3 79/9/3 88/9/3
f 103/9/3 88/9/3 102/9/3
f 103/11/3 98/11/3 79/11/3
f 104/5/3 99/5/3 98/5/3
f 104/11/3 98/11/3 103/11/3
f 104/5/3 100/5/3 99/5/3
f 105/4/3 95/4/3 94/4/3
f 105/10/3 96/10/3 95/10/3
f 106/4/3 97/4/3 96/4/3
f 106/10/3 96/10/3 105/10/3
f 107/13/3 94/13/3 75/13/3
f 107/4/3 105/4/3 94/4/3
f 107/4/3 106/4/3 105/4/3
f 108/4/3 106/4/3 107/4/3
f 109/4/3 97/4/3 106/4/3
f 109/4/3 106/4/3 108/4/3
f 109/5/3 70/5/3 97/5/3
f 110/13/3 82/13/3 73/13/3
f 110/3/3 92/3/3 82/3/3
f 111/12/3 93/12/3 92/12/3
f 111/3/3 92/3/3 110/3/3
f 112/3/3 84/3/3 93/3/3
f 112/12/3 93/12/3 111/12/3
f 113/5/3 75/5/3 84/5/3
f 113/3/3 84/3/3 112/3/3
f 114/13/3 108/13/3 107/13/3
f 114/13/3 107/13/3 75/13/3
f 115/5/3 109/5/3 108/5/3
f 115/13/3 108/13/3 114/13/3
f 116/5/3 70/5/3 109/5/3
f 116/5/3 109/5/3 115/5/3
f 117/13/3 102/13/3 101/13/3
f 117/13/3 103/13/3 102/13/3
f 117/13/3 104/13/3 103/13/3
f 118/13/3 104/13/3 117/13/3
f 119/13/3 104/13/3 118/13/3
f 120/13/3 112/13/3 111/13/3
f 120/13/3 111/13/3 110/13/3
f 120/13/3 110/13/3 73/13/3
f 121/5/3 113/5/3 112/5/3
f 121/13/3 112/13/3 120/13/3
f 122/5/3 75/5/3 113/5/3
f 122/5/3 113/5/3 121/5/3
f 123/4/3 115/4/3 114/4/3
f 123/4/3 116/4/3 115/4/3
f 124/4/3 116/4/3 123/4/3
f 125/13/3 101/13/3 71/13/3
f 125/13/3 117/13/3 101/13/3
f 126/8/3 118/8/3 117/8/3
f 126/13/3 117/13/3 125/13/3
f 127/8/3 118/8/3 126/8/3
f 128/7/3 119/7/3 118/7/3
f 128/8/3 118/8/3 127/8/3
f 129/13/3 104/13/3 119/13/3
f 129/7/3 119/7/3 128/7/3
f 130/5/3 100/5/3 104/5/3
f 130/13/3 104/13/3 129/13/3
f 131/13/3 120/13/3 73/13/3
f 132/1/3 122/1/3 121/1/3
f 132/13/3 120/13/3 131/13/3
f 132/1/3 121/1/3 120/1/3
f 133/5/3 75/5/3 122/5/3
f 133/1/3 122/1/3 132/1/3
f 134/5/3 75/5/3 133/5/3
f 135/6/3 124/6/3 123/6/3
f 135/4/3 123/4/3 114/4/3
f 136/4/3 116/4/3 124/4/3
f 136/6/3 124/6/3 135/6/3
f 137/7/3 128/7/3 127/7/3
f 137/7/3 129/7/3 128/7/3
f 138/8/3 130/8/3 129/8/3
f 138/7/3 129/7/3 137/7/3
f 139/5/3 100/5/3 130/5/3
f 139/8/3 130/8/3 138/8/3
f 140/5/3 100/5/3 139/5/3
f 141/5/3 73/5/3 100/5/3
f 141/5/3 100/5/3 140/5/3
f 142/4/3 136/4/3 135/4/3
f 142/4/3 135/4/3 114/4/3
f 142/13/3 114/13/3 75/13/3
f 143/4/3 136/4/3 142/4/3
f 144/4/3 116/4/3 136/4/3
f 144/4/3 136/4/3 143/4/3
f 144/5/3 70/5/3 116/5/3
f 145/8/3 140/8/3 139/8/3
f 145/8/3 139/8/3 138/8/3
f 145/8/3 138/8/3 137/8/3
f 146/15/3 141/15/3 140/15/3
f 146/8/3 140/8/3 145/8/3
f 147/5/3 73/5/3 141/5/3
f 147/15/3 141/15/3 146/15/3
f 148/13/3 143/13/3 142/13/3
f 149/5/3 144/5/3 143/5/3
f 149/13/3 143/13/3 148/13/3
f 150/5/3 144/5/3 149/5/3
f 151/8/3 127/8/3 126/8/3
f 151/13/3 125/13/3 71/13/3
f 151/8/3 126/8/3 125/8/3
f 152/8/3 127/8/3 151/8/3
f 153/8/3 145/8/3 137/8/3
f 154/5/3 146/5/3 145/5/3
f 154/8/3 145/8/3 153/8/3
f 154/5/3 147/5/3 146/5/3
f 155/1/3 132/1/3 131/1/3
f 155/13/3 131/13/3 73/13/3
f 155/1/3 133/1/3 132/1/3
f 155/1/3 134/1/3 133/1/3
f 156/1/3 134/1/3 155/1/3
f 157/1/3 134/1/3 156/1/3
f 158/5/3 75/5/3 134/5/3
f 158/1/3 134/1/3 157/1/3
f 159/13/3 142/13/3 75/13/3
f 159/13/3 148/13/3 142/13/3
f 160/2/3 149/2/3 148/2/3
f 160/13/3 148/13/3 159/13/3
f 161/8/3 127/8/3 152/8/3
f 161/13/3 152/13/3 151/13/3
f 162/7/3 137/7/3 127/7/3
f 162/8/3 127/8/3 161/8/3
f 163/8/3 153/8/3 137/8/3
f 163/7/3 137/7/3 162/7/3
f 164/13/3 154/13/3 153/13/3
f 164/8/3 153/8/3 163/8/3
f 165/1/3 157/1/3 156/1/3
f 165/13/3 156/13/3 155/13/3
f 166/1/3 157/1/3 165/1/3
f 167/5/3 158/5/3 157/5/3
f 167/1/3 157/1/3 166/1/3
f 168/5/3 71/5/3 69/5/3
f 168/13/3 163/13/3 162/13/3
f 168/13/3 162/13/3 161/13/3
f 168/13/3 161/13/3 151/13/3
f 168/13/3 164/13/3 163/13/3
f 168/13/3 151/13/3 71/13/3
f 169/5/3 147/5/3 154/5/3
f 169/13/3 164/13/3 168/13/3
f 169/13/3 154/13/3 164/13/3
f 170/5/3 73/5/3 147/5/3
f 170/5/3 147/5/3 169/5/3
f 170/13/3 165/13/3 155/13/3
f 170/13/3 155/13/3 73/13/3
f 170/13/3 166/13/3 165/13/3
f 171/5/3 167/5/3 166/5/3
f 171/13/3 166/13/3 170/13/3
f 172/5/3 158/5/3 167/5/3
f 172/5/3 167/5/3 171/5/3
f 173/5/3 75/5/3 158/5/3
f 173/5/3 158/5/3 172/5/3
f 173/13/3 159/13/3 75/13/3
f 174/2/3 160/2/3 159/2/3
f 174/13/3 159/13/3 173/13/3
f 175/2/3 149/2/3 160/2/3
f 175/2/3 160/2/3 174/2/3
f 176/5/3 169/5/3 168/5/3
f 176/5/3 170/5/3 169/5/3
f 177/5/3 175/5/3 174/5/3
f 177/5/3 174/5/3 173/5/3
f 177/5/3 173/5/3 172/5/3
f 178/2/3 149/2/3 175/2/3
f 178/5/3 175/5/3 177/5/3
f 179/14/3 150/14/3 149/14/3
f 179/2/3 149/2/3 178/2/3
f 180/5/3 144/5/3 150/5/3
f 180/14/3 150/14/3 179/14/3
f 181/5/3 177/5/3 176/5/3
f 181/5/3 176/5/3 168/5/3
f 181/5/3 180/5/3 179/5/3
f 181/5/3 179/5/3 178/5/3
f 181/5/3 178/5/3 177/5/3
f 181/5/3 168/5/3 69/5/3
f 182/5/3 144/5/3 180/5/3
f 182/5/3 180/5/3 181/5/3
f 182/5/3 70/5/3 144/5/3
f 185/5/3 184/5/3 183/5/3
f 186/5/3 184/5/3 185/5/3
f 187/5/3 184/5/3 186/5/3
f 188/5/3 184/5/3 187/5/3
f 189/5/3 184/5/3 188/5/3
f 190/5/3 185/5/3 183/5/3
f 191/5/3 185/5/3 190/5/3
f 192/5/3 185/5/3 191/5/3
f 194/5/3 187/5/3 186/5/3
f 195/5/3 187/5/3 194/5/3
f 196/5/3 187/5/3 195/5/3
f 197/2/3 188/2/3 187/2/3
f 197/5/3 187/5/3 196/5/3
f 198/13/3 191/13/3 190/13/3
f 199/13/3 191/13/3 198/13/3
f 200/13/3 191/13/3 199/13/3
f 201/13/3 191/13/3 200/13/3
f 202/13/3 193/13/3 192/13/3
f 203/5/3 194/5/3 193/5/3
f 203/13/3 193/13/3 202/13/3
f 203/5/3 195/5/3 194/5/3
f 204/5/3 195/5/3 203/5/3
f 205/13/3 198/13/3 190/13/3
f 206/8/3 199/8/3 198/8/3
f 206/13/3 198/13/3 205/13/3
f 207/13/3 191/13/3 201/13/3
f 207/8/3 201/8/3 200/8/3
f 208/5/3 192/5/3 191/5/3
f 208/13/3 191/13/3 207/13/3
f 209/13/3 202/13/3 192/13/3
f 210/1/3 203/1/3 202/1/3
f 210/13/3 202/13/3 209/13/3
f 210/1/3 204/1/3 203/1/3
f 211/5/3 195/5/3 204/5/3
f 211/1/3 204/1/3 210/1/3
f 212/5/3 195/5/3 211/5/3
f 213/13/3 196/13/3 195/13/3
f 213/2/3 197/2/3 196/2/3
f 214/2/3 188/2/3 197/2/3
f 214/2/3 197/2/3 213/2/3
f 215/5/3 192/5/3 208/5/3
f 215/8/3 208/8/3 207/8/3
f 216/5/3 192/5/3 215/5/3
f 217/5/3 192/5/3 216/5/3
f 218/2/3 188/2/3 214/2/3
f 218/13/3 214/13/3 213/13/3
f 219/14/3 189/14/3 188/14/3
f 219/2/3 188/2/3 218/2/3
f 220/5/3 184/5/3 189/5/3
f 220/14/3 189/14/3 219/14/3
f 221/8/3 207/8/3 200/8/3
f 221/7/3 200/7/3 199/7/3
f 221/8/3 215/8/3 207/8/3
f 221/8/3 216/8/3 215/8/3
f 222/8/3 216/8/3 221/8/3
f 223/8/3 216/8/3 222/8/3
f 224/15/3 217/15/3 216/15/3
f 224/8/3 216/8/3 223/8/3
f 225/5/3 192/5/3 217/5/3
f 225/15/3 217/15/3 224/15/3
f 226/13/3 219/13/3 218/13/3
f 226/13/3 218/13/3 213/13/3
f 227/5/3 220/5/3 219/5/3
f 227/13/3 219/13/3 226/13/3
f 228/5/3 184/5/3 220/5/3
f 228/5/3 220/5/3 227/5/3
f 229/8/3 206/8/3 205/8/3
f 229/13/3 205/13/3 190/13/3
f 230/8/3 199/8/3 206/8/3
f 230/8/3 206/8/3 229/8/3
f 231/7/3 221/7/3 199/7/3
f 231/8/3 199/8/3 230/8/3
f 231/7/3 222/7/3 221/7/3
f 232/7/3 222/7/3 231/7/3
f 233/8/3 223/8/3 222/8/3
f 233/7/3 222/7/3 232/7/3
f 234/5/3 225/5/3 224/5/3
f 234/8/3 223/8/3 233/8/3
f 234/5/3 224/5/3 223/5/3
f 235/1/3 212/1/3 211/1/3
f 235/1/3 210/1/3 209/1/3
f 235/13/3 209/13/3 192/13/3
f 235/1/3 211/1/3 210/1/3
f 236/1/3 212/1/3 235/1/3
f 237/1/3 212/1/3 236/1/3
f 238/5/3 195/5/3 212/5/3
f 238/1/3 212/1/3 237/1/3
f 239/4/3 227/4/3 226/4/3
f 239/4/3 228/4/3 227/4/3
f 240/4/3 228/4/3 239/4/3
f 241/8/3 231/8/3 230/8/3
f 241/13/3 230/13/3 229/13/3
f 241/8/3 232/8/3 231/8/3
f 242/7/3 233/7/3 232/7/3
f 242/8/3 232/8/3 241/8/3
f 243/13/3 234/13/3 233/13/3
f 243/7/3 233/7/3 242/7/3
f 244/1/3 237/1/3 236/1/3
f 244/13/3 236/13/3 235/13/3
f 245/1/3 237/1/3 244/1/3
f 246/5/3 238/5/3 237/5/3
f 246/1/3 237/1/3 245/1/3
f 247/6/3 240/6/3 239/6/3
f 247/4/3 239/4/3 226/4/3
f 248/4/3 228/4/3 240/4/3
f 248/6/3 240/6/3 247/6/3
f 249/13/3 245/13/3 244/13/3
f 249/13/3 244/13/3 235/13/3
f 250/13/3 245/13/3 249/13/3
f 251/5/3 246/5/3 245/5/3
f 251/13/3 245/13/3 250/13/3
f 252/5/3 238/5/3 246/5/3
f 252/5/3 246/5/3 251/5/3
f 253/4/3 247/4/3 226/4/3
f 253/13/3 226/13/3 213/13/3
f 253/4/3 248/4/3 247/4/3
f 254/4/3 248/4/3 253/4/3
f 255/5/3 184/5/3 228/5/3
f 255/4/3 248/4/3 254/4/3
f 255/4/3 228/4/3 248/4/3
f 256/13/3 254/13/3 253/13/3
f 256/13/3 253/13/3 213/13/3
f 257/5/3 255/5/3 254/5/3
f 257/13/3 254/13/3 256/13/3
f 258/5/3 184/5/3 255/5/3
f 258/5/3 255/5/3 257/5/3
f 259/13/3 241/13/3 229/13/3
f 259/13/3 229/13/3 190/13/3
f 259/13/3 242/13/3 241/13/3
f 259/13/3 243/13/3 242/13/3
f 260/13/3 243/13/3 259/13/3
f 261/13/3 243/13/3 260/13/3
f 262/13/3 234/13/3 243/13/3
f 262/13/3 243/13/3 261/13/3
f 262/5/3 225/5/3 234/5/3
f 263/4/3 258/4/3 257/4/3
f 263/4/3 257/4/3 256/4/3
f 264/4/3 258/4/3 263/4/3
f 265/5/3 225/5/3 262/5/3
f 265/11/3 262/11/3 261/11/3
f 266/5/3 225/5/3 265/5/3
f 267/5/3 192/5/3 225/5/3
f 267/5/3 225/5/3 266/5/3
f 268/9/3 261/9/3 260/9/3
f 268/11/3 260/11/3 259/11/3
f 269/9/3 261/9/3 268/9/3
f 270/11/3 266/11/3 265/11/3
f 270/11/3 265/11/3 261/11/3
f 271/15/3 267/15/3 266/15/3
f 271/11/3 266/11/3 270/11/3
f 272/5/3 192/5/3 267/5/3
f 272/15/3 267/15/3 271/15/3
f 273/12/3 251/12/3 250/12/3
f 273/3/3 250/3/3 249/3/3
f 274/3/3 252/3/3 251/3/3
f 274/12/3 251/12/3 273/12/3
f 275/13/3 256/13/3 213/13/3
f 275/4/3 263/4/3 256/4/3
f 276/10/3 264/10/3 263/10/3
f 276/4/3 263/4/3 275/4/3
f 277/4/3 258/4/3 264/4/3
f 277/10/3 264/10/3 276/10/3
f 278/5/3 184/5/3 258/5/3
f 278/4/3 258/4/3 277/4/3
f 279/13/3 259/13/3 190/13/3
f 279/11/3 269/11/3 268/11/3
f 279/11/3 268/11/3 259/11/3
f 280/9/3 261/9/3 269/9/3
f 280/11/3 269/11/3 279/11/3
f 281/11/3 270/11/3 261/11/3
f 281/9/3 261/9/3 280/9/3
f 282/11/3 270/11/3 281/11/3
f 283/5/3 271/5/3 270/5/3
f 283/11/3 270/11/3 282/11/3
f 283/5/3 272/5/3 271/5/3
f 284/13/3 249/13/3 235/13/3
f 284/3/3 273/3/3 249/3/3
f 284/3/3 274/3/3 273/3/3
f 285/3/3 274/3/3 284/3/3
f 286/5/3 238/5/3 252/5/3
f 286/3/3 274/3/3 285/3/3
f 286/3/3 252/3/3 274/3/3
f 287/13/3 276/13/3 275/13/3
f 288/5/3 277/5/3 276/5/3
f 288/13/3 276/13/3 287/13/3
f 288/5/3 278/5/3 277/5/3
f 289/13/3 279/13/3 190/13/3
f 289/13/3 282/13/3 281/13/3
f 289/5/3 190/5/3 183/5/3
f 289/13/3 280/13/3 279/13/3
f 289/13/3 281/13/3 280/13/3
f 290/5/3 283/5/3 282/5/3
f 290/13/3 282/13/3 289/13/3
f 291/13/3 285/13/3 284/13/3
f 291/5/3 283/5/3 290/5/3
f 291/5/3 272/5/3 283/5/3
f 291/13/3 235/13/3 192/13/3
f 291/5/3 192/5/3 272/5/3
f 291/13/3 284/13/3 235/13/3
f 292/5/3 286/5/3 285/5/3
f 292/13/3 285/13/3 291/13/3
f 293/13/3 287/13/3 275/13/3
f 293/5/3 286/5/3 292/5/3
f 293/5/3 238/5/3 286/5/3
f 293/13/3 213/13/3 195/13/3
f 293/5/3 195/5/3 238/5/3
f 293/13/3 275/13/3 213/13/3
f 294/5/3 288/5/3 287/5/3
f 294/13/3 287/13/3 293/13/3
f 295/5/3 292/5/3 291/5/3
f 295/5/3 289/5/3 183/5/3
f 295/5/3 294/5/3 293/5/3
f 295/5/3 293/5/3 292/5/3
f 295/5/3 290/5/3 289/5/3
f 295/5/3 291/5/3 290/5/3
f 296/5/3 278/5/3 288/5/3
f 296/5/3 294/5/3 295/5/3
f 296/5/3 288/5/3 294/5/3
f 296/5/3 184/5/3 278/5/3
f 297/18/4 298/18/4 300/18/4
f 298/16/4 299/16/4 301/16/4
f 300/18/4 298/18/4 301/18/4
f 301/16/4 299/16/4 302/16/4
f 305/18/5 304/18/5 303/18/5
f 306/18/5 304/18/5 305/18/5
f 311/17/5 308/17/5 307/17/5
f 312/17/5 308/17/5 311/17/5
f 313/17/5 310/17/5 309/17/5
f 314/17/5 310/17/5 313/17/5
f 319/16/5 316/16/5 315/16/5
f 320/16/5 316/16/5 319/16/5
f 321/16/5 318/16/5 317/16/5
f 322/16/5 318/16/5 321/16/5
f 323/16/6 324/16/6 327/16/6
f 327/16/6 324/16/6 328/16/6
f 325/16/6 326/16/6 329/16/6
f 329/16/6 326/16/6 330/16/6
f 331/17/6 332/17/6 335/17/6
f 335/17/6 332/17/6 336/17/6
f 333/17/6 334/17/6 337/17/6
f 337/17/6 334/17/6 338/17/6
f 339/16/6 340/16/6 341/16/6
f 341/16/6 340/16/6 342/16/6
