# MagicaVoxel @ Ephtracy

# group
o 

# material
mtllib Pasto.mtl
usemtl palette

# normals
vn -1 0 0
vn 1 0 0
vn 0 0 1
vn 0 0 -1
vn 0 -1 0
vn 0 1 0

# texcoords
vt 0.615234 0.5
vt 0.642578 0.5
vt 0.646484 0.5

# verts
v -2 0 2
v -2 0 -0.8
v -2 0 -2
v -2 0.1 -0.8
v -2 0.1 -2
v -2 0.2 2
v -2 0.2 -2
v 2 0 2
v 2 0 -0.8
v 2 0 -2
v 2 0.1 -0.8
v 2 0.1 -2
v 2 0.2 2
v 2 0.2 -2
v -2 0 2
v -2 0.2 2
v 2 0 2
v 2 0.2 2
v -2 0 -2
v -2 0.1 -2
v -2 0.2 -2
v -1.9 0 -2
v -1.9 0.1 -2
v 2 0 -2
v 2 0.1 -2
v 2 0.2 -2
v -2 0 2
v 2 0 2
v -2 0 -0.8
v -1.9 0 -0.8
v 2 0 -0.8
v -2 0 -2
v -1.9 0 -2
v 2 0 -2
v -2 0.2 2
v 2 0.2 2
v -2 0.2 -2
v 2 0.2 -2

# faces
f 4/1/1 2/1/1 1/1/1
f 4/3/1 3/3/1 2/3/1
f 5/3/1 3/3/1 4/3/1
f 6/1/1 4/1/1 1/1/1
f 6/1/1 5/1/1 4/1/1
f 7/1/1 5/1/1 6/1/1
f 8/1/2 9/1/2 11/1/2
f 9/2/2 10/2/2 11/2/2
f 11/2/2 10/2/2 12/2/2
f 8/1/2 11/1/2 13/1/2
f 11/1/2 12/1/2 13/1/2
f 13/1/2 12/1/2 14/1/2
f 17/1/3 16/1/3 15/1/3
f 18/1/3 16/1/3 17/1/3
f 19/3/4 20/3/4 22/3/4
f 20/1/4 21/1/4 23/1/4
f 22/3/4 20/3/4 23/3/4
f 22/2/4 23/2/4 24/2/4
f 23/1/4 21/1/4 25/1/4
f 24/2/4 23/2/4 25/2/4
f 25/1/4 21/1/4 26/1/4
f 29/1/5 28/1/5 27/1/5
f 30/1/5 28/1/5 29/1/5
f 31/1/5 28/1/5 30/1/5
f 32/3/5 30/3/5 29/3/5
f 33/2/5 31/2/5 30/2/5
f 33/3/5 30/3/5 32/3/5
f 34/2/5 31/2/5 33/2/5
f 35/1/6 36/1/6 37/1/6
f 37/1/6 36/1/6 38/1/6
