# MagicaVoxel @ Ephtracy

# group
o Vaya

# material
mtllib Edificio Rojo-1-Vaya.mtl
usemtl palette

# normals
vn 0 0 -1
vn 0 0 1
vn -1 0 0
vn 1 0 0
vn 0 -1 0
vn 0 1 0

# texcoords
vt 0.634766 0.5
vt 0.669922 0.5

# verts
v 1.7 0.1 2.8
v 1.9 0.1 2.8
v 3.2 0.1 2.8
v 3.4 0.1 2.8
v 1.9 0.2 2.8
v 3.2 0.2 2.8
v 1.9 0.3 2.8
v 3.2 0.3 2.8
v 1.9 0.5 2.8
v 3.2 0.5 2.8
v 1.9 0.6 2.8
v 3.2 0.6 2.8
v 1.7 0.8 2.8
v 1.9 0.8 2.8
v 3.2 0.8 2.8
v 3.4 0.8 2.8
v 2 0.1 2.9
v 2.2 0.1 2.9
v 2.3 0.1 2.9
v 2.4 0.1 2.9
v 2.5 0.1 2.9
v 2.6 0.1 2.9
v 2.8 0.1 2.9
v 2.9 0.1 2.9
v 3.1 0.1 2.9
v 2 0.2 2.9
v 2.2 0.2 2.9
v 2.3 0.2 2.9
v 2.4 0.2 2.9
v 2.5 0.2 2.9
v 2.6 0.2 2.9
v 2.8 0.2 2.9
v 2.9 0.2 2.9
v 3.1 0.2 2.9
v 2 0.3 2.9
v 2.2 0.3 2.9
v 2.3 0.3 2.9
v 2.5 0.3 2.9
v 2.6 0.3 2.9
v 2.7 0.3 2.9
v 2.8 0.3 2.9
v 2.9 0.3 2.9
v 3 0.3 2.9
v 3.1 0.3 2.9
v 2.3 0.4 2.9
v 2.4 0.4 2.9
v 2.6 0.4 2.9
v 2.7 0.4 2.9
v 2.8 0.4 2.9
v 2.9 0.4 2.9
v 3 0.4 2.9
v 2 0.5 2.9
v 2.2 0.5 2.9
v 2.3 0.5 2.9
v 2.4 0.5 2.9
v 2.5 0.5 2.9
v 2.6 0.5 2.9
v 2.7 0.5 2.9
v 2.8 0.5 2.9
v 2.9 0.5 2.9
v 3.1 0.5 2.9
v 2 0.6 2.9
v 2.2 0.6 2.9
v 2.3 0.6 2.9
v 2.5 0.6 2.9
v 2.6 0.6 2.9
v 2.7 0.6 2.9
v 2.8 0.6 2.9
v 2.9 0.6 2.9
v 3.1 0.6 2.9
v 2 0.7 2.9
v 2.1 0.7 2.9
v 2.3 0.7 2.9
v 2.4 0.7 2.9
v 2.5 0.7 2.9
v 2.7 0.7 2.9
v 2.8 0.7 2.9
v 3 0.7 2.9
v 3.1 0.7 2.9
v 2.1 0.8 2.9
v 2.2 0.8 2.9
v 2.4 0.8 2.9
v 2.5 0.8 2.9
v 2.6 0.8 2.9
v 2.7 0.8 2.9
v 2.9 0.8 2.9
v 3 0.8 2.9
v 1.9 0.2 2.9
v 2 0.2 2.9
v 2.2 0.2 2.9
v 2.3 0.2 2.9
v 2.5 0.2 2.9
v 2.6 0.2 2.9
v 2.8 0.2 2.9
v 2.9 0.2 2.9
v 3.1 0.2 2.9
v 3.2 0.2 2.9
v 1.9 0.3 2.9
v 2 0.3 2.9
v 2.2 0.3 2.9
v 2.3 0.3 2.9
v 2.5 0.3 2.9
v 2.6 0.3 2.9
v 2.8 0.3 2.9
v 2.9 0.3 2.9
v 3.1 0.3 2.9
v 3.2 0.3 2.9
v 1.9 0.5 2.9
v 2 0.5 2.9
v 2.2 0.5 2.9
v 2.3 0.5 2.9
v 2.5 0.5 2.9
v 2.6 0.5 2.9
v 2.8 0.5 2.9
v 2.9 0.5 2.9
v 3.1 0.5 2.9
v 3.2 0.5 2.9
v 1.7 0.6 2.9
v 1.9 0.6 2.9
v 2 0.6 2.9
v 2.2 0.6 2.9
v 2.3 0.6 2.9
v 2.5 0.6 2.9
v 2.6 0.6 2.9
v 2.8 0.6 2.9
v 2.9 0.6 2.9
v 3.1 0.6 2.9
v 3.2 0.6 2.9
v 3.4 0.6 2.9
v 1.7 0.7 2.9
v 1.9 0.7 2.9
v 3.2 0.7 2.9
v 3.4 0.7 2.9
v 1.7 0.1 3
v 1.9 0.1 3
v 2 0.1 3
v 2.2 0.1 3
v 2.3 0.1 3
v 2.4 0.1 3
v 2.5 0.1 3
v 2.6 0.1 3
v 2.8 0.1 3
v 2.9 0.1 3
v 3.1 0.1 3
v 3.2 0.1 3
v 3.4 0.1 3
v 2 0.2 3
v 2.1 0.2 3
v 2.4 0.2 3
v 2.5 0.2 3
v 3 0.2 3
v 3.1 0.2 3
v 3.2 0.2 3
v 3.3 0.2 3
v 2 0.3 3
v 2.1 0.3 3
v 2.6 0.3 3
v 2.7 0.3 3
v 2.9 0.3 3
v 3 0.3 3
v 3.1 0.3 3
v 3.2 0.3 3
v 3.3 0.3 3
v 1.7 0.4 3
v 1.8 0.4 3
v 2.3 0.4 3
v 2.4 0.4 3
v 2.6 0.4 3
v 2.7 0.4 3
v 2.8 0.4 3
v 2.9 0.4 3
v 3 0.4 3
v 3.3 0.4 3
v 3.4 0.4 3
v 1.7 0.5 3
v 1.8 0.5 3
v 2.1 0.5 3
v 2.2 0.5 3
v 2.3 0.5 3
v 2.4 0.5 3
v 2.7 0.5 3
v 2.8 0.5 3
v 3 0.5 3
v 3.1 0.5 3
v 3.3 0.5 3
v 3.4 0.5 3
v 1.7 0.6 3
v 1.9 0.6 3
v 2.1 0.6 3
v 2.2 0.6 3
v 2.7 0.6 3
v 2.8 0.6 3
v 3 0.6 3
v 3.1 0.6 3
v 3.2 0.6 3
v 3.4 0.6 3
v 1.7 0.7 3
v 1.9 0.7 3
v 2 0.7 3
v 2.1 0.7 3
v 2.3 0.7 3
v 2.4 0.7 3
v 2.5 0.7 3
v 2.7 0.7 3
v 2.8 0.7 3
v 3 0.7 3
v 3.1 0.7 3
v 3.2 0.7 3
v 3.4 0.7 3
v 1.7 0.8 3
v 1.9 0.8 3
v 2.1 0.8 3
v 2.2 0.8 3
v 2.4 0.8 3
v 2.5 0.8 3
v 2.6 0.8 3
v 2.7 0.8 3
v 2.9 0.8 3
v 3 0.8 3
v 3.2 0.8 3
v 3.4 0.8 3
v 1.7 0.1 2.8
v 1.7 0.8 2.8
v 1.7 0.4 2.9
v 1.7 0.5 2.9
v 1.7 0.6 2.9
v 1.7 0.7 2.9
v 1.7 0.1 3
v 1.7 0.4 3
v 1.7 0.5 3
v 1.7 0.6 3
v 1.7 0.7 3
v 1.7 0.8 3
v 2 0.1 2.9
v 2 0.2 2.9
v 2 0.3 2.9
v 2 0.5 2.9
v 2 0.6 2.9
v 2 0.7 2.9
v 2 0.1 3
v 2 0.2 3
v 2 0.3 3
v 2 0.7 3
v 2.1 0.7 2.9
v 2.1 0.8 2.9
v 2.1 0.7 3
v 2.1 0.8 3
v 2.3 0.1 2.9
v 2.3 0.2 2.9
v 2.3 0.3 2.9
v 2.3 0.4 2.9
v 2.3 0.5 2.9
v 2.3 0.6 2.9
v 2.3 0.7 2.9
v 2.3 0.1 3
v 2.3 0.4 3
v 2.3 0.5 3
v 2.3 0.7 3
v 2.4 0.7 2.9
v 2.4 0.8 2.9
v 2.4 0.7 3
v 2.4 0.8 3
v 2.6 0.1 2.9
v 2.6 0.2 2.9
v 2.6 0.3 2.9
v 2.6 0.4 2.9
v 2.6 0.5 2.9
v 2.6 0.6 2.9
v 2.6 0.8 2.9
v 2.6 0.1 3
v 2.6 0.3 3
v 2.6 0.4 3
v 2.6 0.8 3
v 2.9 0.1 2.9
v 2.9 0.2 2.9
v 2.9 0.3 2.9
v 2.9 0.4 2.9
v 2.9 0.5 2.9
v 2.9 0.6 2.9
v 2.9 0.8 2.9
v 2.9 0.1 3
v 2.9 0.3 3
v 2.9 0.4 3
v 2.9 0.8 3
v 3.2 0.1 2.8
v 3.2 0.2 2.8
v 3.2 0.3 2.8
v 3.2 0.5 2.8
v 3.2 0.6 2.8
v 3.2 0.8 2.8
v 3.2 0.2 2.9
v 3.2 0.3 2.9
v 3.2 0.5 2.9
v 3.2 0.6 2.9
v 3.2 0.7 2.9
v 3.2 0.1 3
v 3.2 0.2 3
v 3.2 0.3 3
v 3.2 0.6 3
v 3.2 0.7 3
v 3.2 0.8 3
v 1.9 0.1 2.8
v 1.9 0.2 2.8
v 1.9 0.3 2.8
v 1.9 0.5 2.8
v 1.9 0.6 2.8
v 1.9 0.8 2.8
v 1.9 0.2 2.9
v 1.9 0.3 2.9
v 1.9 0.5 2.9
v 1.9 0.6 2.9
v 1.9 0.7 2.9
v 1.9 0.1 3
v 1.9 0.6 3
v 1.9 0.7 3
v 1.9 0.8 3
v 2.2 0.1 2.9
v 2.2 0.2 2.9
v 2.2 0.3 2.9
v 2.2 0.5 2.9
v 2.2 0.6 2.9
v 2.2 0.8 2.9
v 2.2 0.1 3
v 2.2 0.5 3
v 2.2 0.6 3
v 2.2 0.8 3
v 2.5 0.1 2.9
v 2.5 0.2 2.9
v 2.5 0.3 2.9
v 2.5 0.5 2.9
v 2.5 0.6 2.9
v 2.5 0.7 2.9
v 2.5 0.8 2.9
v 2.5 0.1 3
v 2.5 0.2 3
v 2.5 0.7 3
v 2.5 0.8 3
v 2.7 0.7 2.9
v 2.7 0.8 2.9
v 2.7 0.7 3
v 2.7 0.8 3
v 2.8 0.1 2.9
v 2.8 0.2 2.9
v 2.8 0.3 2.9
v 2.8 0.4 2.9
v 2.8 0.5 2.9
v 2.8 0.6 2.9
v 2.8 0.7 2.9
v 2.8 0.1 3
v 2.8 0.4 3
v 2.8 0.5 3
v 2.8 0.6 3
v 2.8 0.7 3
v 3 0.7 2.9
v 3 0.8 2.9
v 3 0.7 3
v 3 0.8 3
v 3.1 0.1 2.9
v 3.1 0.2 2.9
v 3.1 0.3 2.9
v 3.1 0.5 2.9
v 3.1 0.6 2.9
v 3.1 0.7 2.9
v 3.1 0.1 3
v 3.1 0.2 3
v 3.1 0.3 3
v 3.1 0.5 3
v 3.1 0.6 3
v 3.1 0.7 3
v 3.4 0.1 2.8
v 3.4 0.8 2.8
v 3.4 0.4 2.9
v 3.4 0.5 2.9
v 3.4 0.6 2.9
v 3.4 0.7 2.9
v 3.4 0.1 3
v 3.4 0.4 3
v 3.4 0.5 3
v 3.4 0.6 3
v 3.4 0.7 3
v 3.4 0.8 3
v 1.7 0.1 2.8
v 1.7 0.1 3
v 1.9 0.1 2.8
v 1.9 0.1 3
v 2 0.1 2.9
v 2 0.1 3
v 2.2 0.1 2.9
v 2.2 0.1 3
v 2.3 0.1 2.9
v 2.3 0.1 3
v 2.4 0.1 2.9
v 2.4 0.1 3
v 2.5 0.1 2.9
v 2.5 0.1 3
v 2.6 0.1 2.9
v 2.6 0.1 3
v 2.8 0.1 2.9
v 2.8 0.1 3
v 2.9 0.1 2.9
v 2.9 0.1 3
v 3.1 0.1 2.9
v 3.1 0.1 3
v 3.2 0.1 2.8
v 3.2 0.1 3
v 3.4 0.1 2.8
v 3.4 0.1 3
v 1.9 0.2 2.8
v 1.9 0.2 2.9
v 2 0.2 2.9
v 2.2 0.2 2.9
v 2.3 0.2 2.9
v 2.4 0.2 2.9
v 2.5 0.2 2.9
v 2.6 0.2 2.9
v 2.8 0.2 2.9
v 2.9 0.2 2.9
v 3.1 0.2 2.9
v 3.2 0.2 2.8
v 3.2 0.2 2.9
v 1.9 0.5 2.8
v 1.9 0.5 2.9
v 2 0.5 2.9
v 2.2 0.5 2.9
v 2.3 0.5 2.9
v 2.4 0.5 2.9
v 2.5 0.5 2.9
v 2.6 0.5 2.9
v 2.7 0.5 2.9
v 2.8 0.5 2.9
v 2.9 0.5 2.9
v 3.1 0.5 2.9
v 3.2 0.5 2.8
v 3.2 0.5 2.9
v 1.7 0.7 2.9
v 1.7 0.7 3
v 1.9 0.7 2.9
v 1.9 0.7 3
v 3.2 0.7 2.9
v 3.2 0.7 3
v 3.4 0.7 2.9
v 3.4 0.7 3
v 1.9 0.3 2.8
v 1.9 0.3 2.9
v 2 0.3 2.9
v 2.2 0.3 2.9
v 2.3 0.3 2.9
v 2.5 0.3 2.9
v 2.6 0.3 2.9
v 2.7 0.3 2.9
v 2.8 0.3 2.9
v 2.9 0.3 2.9
v 3 0.3 2.9
v 3.1 0.3 2.9
v 3.2 0.3 2.8
v 3.2 0.3 2.9
v 1.7 0.6 2.9
v 1.7 0.6 3
v 1.9 0.6 2.8
v 1.9 0.6 2.9
v 1.9 0.6 3
v 2 0.6 2.9
v 2.2 0.6 2.9
v 2.3 0.6 2.9
v 2.5 0.6 2.9
v 2.6 0.6 2.9
v 2.7 0.6 2.9
v 2.8 0.6 2.9
v 2.9 0.6 2.9
v 3.1 0.6 2.9
v 3.2 0.6 2.8
v 3.2 0.6 2.9
v 3.2 0.6 3
v 3.4 0.6 2.9
v 3.4 0.6 3
v 2 0.7 2.9
v 2 0.7 3
v 2.1 0.7 2.9
v 2.1 0.7 3
v 2.3 0.7 2.9
v 2.3 0.7 3
v 2.4 0.7 2.9
v 2.4 0.7 3
v 2.7 0.7 2.9
v 2.7 0.7 3
v 2.8 0.7 2.9
v 2.8 0.7 3
v 3 0.7 2.9
v 3 0.7 3
v 3.1 0.7 2.9
v 3.1 0.7 3
v 1.7 0.8 2.8
v 1.7 0.8 3
v 1.9 0.8 2.8
v 1.9 0.8 3
v 2.1 0.8 2.9
v 2.1 0.8 3
v 2.2 0.8 2.9
v 2.2 0.8 3
v 2.4 0.8 2.9
v 2.4 0.8 3
v 2.5 0.8 2.9
v 2.5 0.8 3
v 2.6 0.8 2.9
v 2.6 0.8 3
v 2.7 0.8 2.9
v 2.7 0.8 3
v 2.9 0.8 2.9
v 2.9 0.8 3
v 3 0.8 2.9
v 3 0.8 3
v 3.2 0.8 2.8
v 3.2 0.8 3
v 3.4 0.8 2.8
v 3.4 0.8 3

# faces
f 5/1/1 2/1/1 1/1/1
f 6/1/1 4/1/1 3/1/1
f 7/1/1 5/1/1 1/1/1
f 7/1/1 6/1/1 5/1/1
f 8/1/1 4/1/1 6/1/1
f 8/1/1 6/1/1 7/1/1
f 9/1/1 7/1/1 1/1/1
f 10/1/1 4/1/1 8/1/1
f 11/1/1 9/1/1 1/1/1
f 11/1/1 10/1/1 9/1/1
f 12/1/1 4/1/1 10/1/1
f 12/1/1 10/1/1 11/1/1
f 13/1/1 11/1/1 1/1/1
f 14/1/1 11/1/1 13/1/1
f 15/1/1 4/1/1 12/1/1
f 16/1/1 4/1/1 15/1/1
f 26/1/1 18/1/1 17/1/1
f 27/1/1 18/1/1 26/1/1
f 28/1/1 20/1/1 19/1/1
f 29/2/1 21/2/1 20/2/1
f 29/1/1 20/1/1 28/1/1
f 30/2/1 21/2/1 29/2/1
f 31/1/1 23/1/1 22/1/1
f 32/1/1 23/1/1 31/1/1
f 33/1/1 25/1/1 24/1/1
f 34/1/1 25/1/1 33/1/1
f 45/1/1 38/1/1 37/1/1
f 46/1/1 38/1/1 45/1/1
f 47/2/1 40/2/1 39/2/1
f 48/1/1 41/1/1 40/1/1
f 48/2/1 40/2/1 47/2/1
f 49/1/1 41/1/1 48/1/1
f 50/2/1 43/2/1 42/2/1
f 51/1/1 44/1/1 43/1/1
f 51/2/1 43/2/1 50/2/1
f 52/1/1 36/1/1 35/1/1
f 53/1/1 36/1/1 52/1/1
f 54/2/1 46/2/1 45/2/1
f 55/1/1 38/1/1 46/1/1
f 55/2/1 46/2/1 54/2/1
f 56/1/1 38/1/1 55/1/1
f 57/1/1 48/1/1 47/1/1
f 58/2/1 49/2/1 48/2/1
f 58/1/1 48/1/1 57/1/1
f 59/2/1 49/2/1 58/2/1
f 60/1/1 51/1/1 50/1/1
f 61/1/1 44/1/1 51/1/1
f 61/1/1 51/1/1 60/1/1
f 71/1/1 63/1/1 62/1/1
f 72/1/1 63/1/1 71/1/1
f 73/1/1 65/1/1 64/1/1
f 74/1/1 65/1/1 73/1/1
f 75/1/1 65/1/1 74/1/1
f 76/1/1 67/1/1 66/1/1
f 76/2/1 68/2/1 67/2/1
f 77/2/1 68/2/1 76/2/1
f 78/1/1 70/1/1 69/1/1
f 79/1/1 70/1/1 78/1/1
f 80/1/1 63/1/1 72/1/1
f 81/1/1 63/1/1 80/1/1
f 82/2/1 75/2/1 74/2/1
f 83/2/1 75/2/1 82/2/1
f 84/1/1 76/1/1 66/1/1
f 85/1/1 76/1/1 84/1/1
f 86/1/1 78/1/1 69/1/1
f 87/1/1 78/1/1 86/1/1
f 88/1/2 89/1/2 98/1/2
f 98/1/2 89/1/2 99/1/2
f 90/1/2 91/1/2 100/1/2
f 100/1/2 91/1/2 101/1/2
f 92/1/2 93/1/2 102/1/2
f 102/1/2 93/1/2 103/1/2
f 94/1/2 95/1/2 104/1/2
f 104/1/2 95/1/2 105/1/2
f 96/1/2 97/1/2 106/1/2
f 106/1/2 97/1/2 107/1/2
f 108/1/2 109/1/2 119/1/2
f 119/1/2 109/1/2 120/1/2
f 110/1/2 111/1/2 121/1/2
f 121/1/2 111/1/2 122/1/2
f 112/1/2 113/1/2 123/1/2
f 123/1/2 113/1/2 124/1/2
f 114/1/2 115/1/2 125/1/2
f 125/1/2 115/1/2 126/1/2
f 116/1/2 117/1/2 127/1/2
f 127/1/2 117/1/2 128/1/2
f 118/1/2 119/1/2 130/1/2
f 130/1/2 119/1/2 131/1/2
f 128/1/2 129/1/2 132/1/2
f 132/1/2 129/1/2 133/1/2
f 136/1/2 137/1/2 147/1/2
f 147/1/2 137/1/2 148/1/2
f 138/1/2 139/1/2 149/1/2
f 139/2/2 140/2/2 149/2/2
f 149/2/2 140/2/2 150/2/2
f 143/1/2 144/1/2 151/1/2
f 151/1/2 144/1/2 152/1/2
f 145/1/2 146/1/2 153/1/2
f 153/1/2 146/1/2 154/1/2
f 147/2/2 148/2/2 155/2/2
f 148/1/2 137/1/2 156/1/2
f 155/2/2 148/2/2 156/2/2
f 141/1/2 142/1/2 157/1/2
f 157/1/2 142/1/2 158/1/2
f 143/1/2 151/1/2 159/1/2
f 151/2/2 152/2/2 160/2/2
f 159/1/2 151/1/2 160/1/2
f 160/2/2 152/2/2 161/2/2
f 153/2/2 154/2/2 162/2/2
f 154/1/2 146/1/2 163/1/2
f 162/2/2 154/2/2 163/2/2
f 134/1/2 135/1/2 164/1/2
f 164/1/2 135/1/2 165/1/2
f 149/1/2 150/1/2 166/1/2
f 138/1/2 149/1/2 166/1/2
f 166/1/2 150/1/2 167/1/2
f 157/2/2 158/2/2 168/2/2
f 158/1/2 142/1/2 169/1/2
f 168/2/2 158/2/2 169/2/2
f 169/1/2 142/1/2 170/1/2
f 159/2/2 160/2/2 171/2/2
f 160/1/2 161/1/2 172/1/2
f 171/2/2 160/2/2 172/2/2
f 163/1/2 146/1/2 173/1/2
f 162/1/2 163/1/2 173/1/2
f 173/1/2 146/1/2 174/1/2
f 164/2/2 165/2/2 175/2/2
f 165/1/2 135/1/2 176/1/2
f 175/2/2 165/2/2 176/2/2
f 156/1/2 137/1/2 177/1/2
f 155/1/2 156/1/2 177/1/2
f 177/1/2 137/1/2 178/1/2
f 166/2/2 167/2/2 179/2/2
f 167/1/2 150/1/2 180/1/2
f 179/2/2 167/2/2 180/2/2
f 169/2/2 170/2/2 181/2/2
f 168/1/2 169/1/2 181/1/2
f 181/2/2 170/2/2 182/2/2
f 172/1/2 161/1/2 183/1/2
f 171/1/2 172/1/2 183/1/2
f 183/1/2 161/1/2 184/1/2
f 162/1/2 173/1/2 185/1/2
f 173/2/2 174/2/2 185/2/2
f 185/2/2 174/2/2 186/2/2
f 175/1/2 176/1/2 187/1/2
f 176/1/2 135/1/2 188/1/2
f 187/1/2 176/1/2 188/1/2
f 177/2/2 178/2/2 189/2/2
f 155/1/2 177/1/2 189/1/2
f 189/2/2 178/2/2 190/2/2
f 181/1/2 182/1/2 191/1/2
f 168/1/2 181/1/2 191/1/2
f 191/1/2 182/1/2 192/1/2
f 183/2/2 184/2/2 193/2/2
f 171/1/2 183/1/2 193/1/2
f 193/2/2 184/2/2 194/2/2
f 185/1/2 186/1/2 195/1/2
f 162/1/2 185/1/2 195/1/2
f 195/1/2 186/1/2 196/1/2
f 189/1/2 190/1/2 199/1/2
f 155/1/2 189/1/2 199/1/2
f 199/1/2 190/1/2 200/1/2
f 179/1/2 180/1/2 201/1/2
f 180/1/2 150/1/2 202/1/2
f 201/1/2 180/1/2 202/1/2
f 202/1/2 150/1/2 203/1/2
f 191/2/2 192/2/2 204/2/2
f 168/1/2 191/1/2 204/1/2
f 204/2/2 192/2/2 205/2/2
f 193/1/2 194/1/2 206/1/2
f 171/1/2 193/1/2 206/1/2
f 206/1/2 194/1/2 207/1/2
f 197/1/2 198/1/2 210/1/2
f 210/1/2 198/1/2 211/1/2
f 200/1/2 190/1/2 212/1/2
f 212/1/2 190/1/2 213/1/2
f 202/2/2 203/2/2 214/2/2
f 214/2/2 203/2/2 215/2/2
f 168/1/2 204/1/2 216/1/2
f 216/1/2 204/1/2 217/1/2
f 171/1/2 206/1/2 218/1/2
f 218/1/2 206/1/2 219/1/2
f 208/1/2 209/1/2 220/1/2
f 220/1/2 209/1/2 221/1/2
f 224/1/3 223/1/3 222/1/3
f 225/1/3 223/1/3 224/1/3
f 226/1/3 223/1/3 225/1/3
f 227/1/3 223/1/3 226/1/3
f 228/1/3 224/1/3 222/1/3
f 229/2/3 225/2/3 224/2/3
f 229/1/3 224/1/3 228/1/3
f 230/1/3 226/1/3 225/1/3
f 230/2/3 225/2/3 229/2/3
f 231/1/3 226/1/3 230/1/3
f 232/1/3 223/1/3 227/1/3
f 233/1/3 223/1/3 232/1/3
f 240/1/3 235/1/3 234/1/3
f 241/2/3 236/2/3 235/2/3
f 241/1/3 235/1/3 240/1/3
f 242/1/3 239/1/3 238/1/3
f 242/2/3 236/2/3 241/2/3
f 242/1/3 237/1/3 236/1/3
f 242/1/3 238/1/3 237/1/3
f 243/1/3 239/1/3 242/1/3
f 246/1/3 245/1/3 244/1/3
f 247/1/3 245/1/3 246/1/3
f 255/1/3 249/1/3 248/1/3
f 255/1/3 250/1/3 249/1/3
f 255/1/3 251/1/3 250/1/3
f 256/2/3 252/2/3 251/2/3
f 256/1/3 251/1/3 255/1/3
f 257/1/3 254/1/3 253/1/3
f 257/2/3 252/2/3 256/2/3
f 257/1/3 253/1/3 252/1/3
f 258/1/3 254/1/3 257/1/3
f 261/2/3 260/2/3 259/2/3
f 262/2/3 260/2/3 261/2/3
f 270/1/3 264/1/3 263/1/3
f 270/1/3 265/1/3 264/1/3
f 271/2/3 266/2/3 265/2/3
f 271/1/3 265/1/3 270/1/3
f 272/1/3 269/1/3 268/1/3
f 272/2/3 266/2/3 271/2/3
f 272/1/3 268/1/3 267/1/3
f 272/1/3 267/1/3 266/1/3
f 273/1/3 269/1/3 272/1/3
f 281/1/3 275/1/3 274/1/3
f 281/1/3 276/1/3 275/1/3
f 282/2/3 277/2/3 276/2/3
f 282/1/3 276/1/3 281/1/3
f 283/1/3 280/1/3 279/1/3
f 283/2/3 277/2/3 282/2/3
f 283/1/3 279/1/3 278/1/3
f 283/1/3 278/1/3 277/1/3
f 284/1/3 280/1/3 283/1/3
f 291/1/3 286/1/3 285/1/3
f 292/1/3 288/1/3 287/1/3
f 293/1/3 288/1/3 292/1/3
f 294/1/3 290/1/3 289/1/3
f 295/1/3 290/1/3 294/1/3
f 296/1/3 291/1/3 285/1/3
f 297/2/3 292/2/3 291/2/3
f 297/1/3 291/1/3 296/1/3
f 298/1/3 293/1/3 292/1/3
f 298/2/3 292/2/3 297/2/3
f 298/1/3 294/1/3 293/1/3
f 299/1/3 294/1/3 298/1/3
f 300/1/3 290/1/3 295/1/3
f 301/1/3 290/1/3 300/1/3
f 302/1/4 303/1/4 308/1/4
f 304/1/4 305/1/4 309/1/4
f 309/1/4 305/1/4 310/1/4
f 306/1/4 307/1/4 311/1/4
f 311/1/4 307/1/4 312/1/4
f 309/1/4 310/1/4 313/1/4
f 302/1/4 308/1/4 313/1/4
f 310/1/4 311/1/4 313/1/4
f 308/1/4 309/1/4 313/1/4
f 313/1/4 311/1/4 314/1/4
f 312/1/4 307/1/4 315/1/4
f 315/1/4 307/1/4 316/1/4
f 317/1/4 318/1/4 323/1/4
f 318/1/4 319/1/4 323/1/4
f 319/1/4 320/1/4 323/1/4
f 320/2/4 321/2/4 324/2/4
f 323/1/4 320/1/4 324/1/4
f 321/1/4 322/1/4 325/1/4
f 324/2/4 321/2/4 325/2/4
f 325/1/4 322/1/4 326/1/4
f 327/2/4 328/2/4 334/2/4
f 328/1/4 329/1/4 335/1/4
f 334/2/4 328/2/4 335/2/4
f 329/1/4 330/1/4 335/1/4
f 331/1/4 332/1/4 335/1/4
f 330/1/4 331/1/4 335/1/4
f 332/2/4 333/2/4 336/2/4
f 335/1/4 332/1/4 336/1/4
f 336/2/4 333/2/4 337/2/4
f 338/1/4 339/1/4 340/1/4
f 340/1/4 339/1/4 341/1/4
f 342/1/4 343/1/4 349/1/4
f 343/1/4 344/1/4 349/1/4
f 344/1/4 345/1/4 349/1/4
f 345/2/4 346/2/4 350/2/4
f 349/1/4 345/1/4 350/1/4
f 346/1/4 347/1/4 351/1/4
f 350/2/4 346/2/4 351/2/4
f 347/2/4 348/2/4 352/2/4
f 351/1/4 347/1/4 352/1/4
f 352/2/4 348/2/4 353/2/4
f 354/1/4 355/1/4 356/1/4
f 356/1/4 355/1/4 357/1/4
f 358/1/4 359/1/4 364/1/4
f 359/2/4 360/2/4 365/2/4
f 364/1/4 359/1/4 365/1/4
f 360/1/4 361/1/4 366/1/4
f 365/2/4 360/2/4 366/2/4
f 361/2/4 362/2/4 367/2/4
f 366/1/4 361/1/4 367/1/4
f 362/1/4 363/1/4 368/1/4
f 367/2/4 362/2/4 368/2/4
f 368/1/4 363/1/4 369/1/4
f 370/1/4 371/1/4 372/1/4
f 372/1/4 371/1/4 373/1/4
f 373/1/4 371/1/4 374/1/4
f 374/1/4 371/1/4 375/1/4
f 370/1/4 372/1/4 376/1/4
f 372/2/4 373/2/4 377/2/4
f 376/1/4 372/1/4 377/1/4
f 373/1/4 374/1/4 378/1/4
f 377/2/4 373/2/4 378/2/4
f 378/1/4 374/1/4 379/1/4
f 375/1/4 371/1/4 380/1/4
f 380/1/4 371/1/4 381/1/4
f 384/1/5 383/1/5 382/1/5
f 385/1/5 383/1/5 384/1/5
f 388/1/5 387/1/5 386/1/5
f 389/1/5 387/1/5 388/1/5
f 392/1/5 391/1/5 390/1/5
f 393/1/5 391/1/5 392/1/5
f 394/2/5 393/2/5 392/2/5
f 395/2/5 393/2/5 394/2/5
f 398/1/5 397/1/5 396/1/5
f 399/1/5 397/1/5 398/1/5
f 402/1/5 401/1/5 400/1/5
f 403/1/5 401/1/5 402/1/5
f 406/1/5 405/1/5 404/1/5
f 407/1/5 405/1/5 406/1/5
f 410/1/5 409/1/5 408/1/5
f 411/1/5 410/1/5 408/1/5
f 412/1/5 411/1/5 408/1/5
f 413/1/5 412/1/5 408/1/5
f 414/1/5 413/1/5 408/1/5
f 415/1/5 414/1/5 408/1/5
f 416/1/5 415/1/5 408/1/5
f 417/1/5 416/1/5 408/1/5
f 418/1/5 417/1/5 408/1/5
f 419/1/5 418/1/5 408/1/5
f 420/1/5 418/1/5 419/1/5
f 423/1/5 422/1/5 421/1/5
f 424/1/5 423/1/5 421/1/5
f 425/1/5 424/1/5 421/1/5
f 426/1/5 425/1/5 421/1/5
f 427/1/5 426/1/5 421/1/5
f 428/1/5 427/1/5 421/1/5
f 429/1/5 428/1/5 421/1/5
f 430/1/5 429/1/5 421/1/5
f 431/1/5 430/1/5 421/1/5
f 432/1/5 431/1/5 421/1/5
f 433/1/5 432/1/5 421/1/5
f 434/1/5 432/1/5 433/1/5
f 437/1/5 436/1/5 435/1/5
f 438/1/5 436/1/5 437/1/5
f 441/1/5 440/1/5 439/1/5
f 442/1/5 440/1/5 441/1/5
f 443/1/6 444/1/6 445/1/6
f 443/1/6 445/1/6 446/1/6
f 443/1/6 446/1/6 447/1/6
f 443/1/6 447/1/6 448/1/6
f 443/1/6 448/1/6 449/1/6
f 443/1/6 449/1/6 450/1/6
f 443/1/6 450/1/6 451/1/6
f 443/1/6 451/1/6 452/1/6
f 443/1/6 452/1/6 453/1/6
f 443/1/6 453/1/6 454/1/6
f 443/1/6 454/1/6 455/1/6
f 455/1/6 454/1/6 456/1/6
f 457/1/6 458/1/6 460/1/6
f 460/1/6 458/1/6 461/1/6
f 459/1/6 460/1/6 462/1/6
f 459/1/6 462/1/6 463/1/6
f 459/1/6 463/1/6 464/1/6
f 459/1/6 464/1/6 465/1/6
f 459/1/6 465/1/6 466/1/6
f 459/1/6 466/1/6 467/1/6
f 459/1/6 467/1/6 468/1/6
f 459/1/6 468/1/6 469/1/6
f 459/1/6 469/1/6 470/1/6
f 459/1/6 470/1/6 471/1/6
f 471/1/6 470/1/6 472/1/6
f 472/1/6 473/1/6 474/1/6
f 474/1/6 473/1/6 475/1/6
f 476/1/6 477/1/6 478/1/6
f 478/1/6 477/1/6 479/1/6
f 480/1/6 481/1/6 482/1/6
f 482/1/6 481/1/6 483/1/6
f 484/2/6 485/2/6 486/2/6
f 486/2/6 485/2/6 487/2/6
f 488/1/6 489/1/6 490/1/6
f 490/1/6 489/1/6 491/1/6
f 492/1/6 493/1/6 494/1/6
f 494/1/6 493/1/6 495/1/6
f 496/1/6 497/1/6 498/1/6
f 498/1/6 497/1/6 499/1/6
f 500/2/6 501/2/6 502/2/6
f 502/2/6 501/2/6 503/2/6
f 504/1/6 505/1/6 506/1/6
f 506/1/6 505/1/6 507/1/6
f 508/1/6 509/1/6 510/1/6
f 510/1/6 509/1/6 511/1/6
f 512/1/6 513/1/6 514/1/6
f 514/1/6 513/1/6 515/1/6
