# MagicaVoxel @ Ephtracy

# group
o Window2

# material
mtllib Edificio Rojo-4-Window2.mtl
usemtl palette

# normals
vn 0 0 1
vn 0 0 -1
vn -1 0 0
vn 1 0 0
vn 0 -1 0
vn 0 1 0

# texcoords
vt 0.697266 0.5
vt 0.701172 0.5

# verts
v -2.8 3.2 -0.8
v -2.6 3.2 -0.8
v -2.8 4.5 -0.8
v -2.6 4.5 -0.8
v -2.8 3.3 -1.9
v -2.7 3.3 -1.9
v -2.7 3.4 -1.9
v -2.8 3.7 -1.9
v -2.7 3.7 -1.9
v -2.8 3.8 -1.9
v -2.7 3.8 -1.9
v -2.8 4.1 -1.9
v -2.7 4.1 -1.9
v -2.8 4.2 -1.9
v -2.7 4.2 -1.9
v -2.8 4.4 -1.9
v -2.7 4.4 -1.9
v -2.8 3.3 -0.9
v -2.7 3.3 -0.9
v -2.7 3.4 -0.9
v -2.8 3.7 -0.9
v -2.7 3.7 -0.9
v -2.8 3.8 -0.9
v -2.7 3.8 -0.9
v -2.8 4.1 -0.9
v -2.7 4.1 -0.9
v -2.8 4.2 -0.9
v -2.7 4.2 -0.9
v -2.8 4.4 -0.9
v -2.7 4.4 -0.9
v -2.8 3.2 -2
v -2.6 3.2 -2
v -2.8 4.5 -2
v -2.6 4.5 -2
v -2.8 3.2 -0.8
v -2.8 4.5 -0.8
v -2.8 3.3 -0.9
v -2.8 3.7 -0.9
v -2.8 3.8 -0.9
v -2.8 4.1 -0.9
v -2.8 4.2 -0.9
v -2.8 4.4 -0.9
v -2.8 3.3 -1.9
v -2.8 3.7 -1.9
v -2.8 3.8 -1.9
v -2.8 4.1 -1.9
v -2.8 4.2 -1.9
v -2.8 4.4 -1.9
v -2.8 3.2 -2
v -2.8 4.5 -2
v -2.7 3.3 -0.9
v -2.7 3.4 -0.9
v -2.7 3.7 -0.9
v -2.7 3.8 -0.9
v -2.7 4.1 -0.9
v -2.7 4.2 -0.9
v -2.7 4.4 -0.9
v -2.7 3.3 -1.9
v -2.7 3.4 -1.9
v -2.7 3.7 -1.9
v -2.7 3.8 -1.9
v -2.7 4.1 -1.9
v -2.7 4.2 -1.9
v -2.7 4.4 -1.9
v -2.6 3.2 -0.8
v -2.6 4.5 -0.8
v -2.6 3.4 -0.9
v -2.6 4.1 -0.9
v -2.6 4.2 -0.9
v -2.6 4.4 -0.9
v -2.6 3.4 -1.9
v -2.6 4.1 -1.9
v -2.6 4.2 -1.9
v -2.6 4.4 -1.9
v -2.6 3.2 -2
v -2.6 4.5 -2
v -2.8 3.2 -0.8
v -2.8 3.2 -2
v -2.6 3.2 -0.8
v -2.6 3.2 -2
v -2.8 3.7 -0.9
v -2.8 3.7 -1.9
v -2.7 3.7 -0.9
v -2.7 3.7 -1.9
v -2.8 4.1 -0.9
v -2.8 4.1 -1.9
v -2.7 4.1 -0.9
v -2.7 4.1 -1.9
v -2.8 4.4 -0.9
v -2.8 4.4 -1.9
v -2.7 4.4 -0.9
v -2.7 4.4 -1.9
v -2.8 3.3 -0.9
v -2.8 3.3 -1.9
v -2.7 3.3 -0.9
v -2.7 3.3 -1.9
v -2.8 3.8 -0.9
v -2.8 3.8 -1.9
v -2.7 3.8 -0.9
v -2.7 3.8 -1.9
v -2.8 4.2 -0.9
v -2.8 4.2 -1.9
v -2.7 4.2 -0.9
v -2.7 4.2 -1.9
v -2.8 4.5 -0.8
v -2.8 4.5 -2
v -2.6 4.5 -0.8
v -2.6 4.5 -2

# faces
f 1/1/1 2/1/1 3/1/1
f 3/1/1 2/1/1 4/1/1
f 5/1/1 6/1/1 7/1/1
f 5/1/1 7/1/1 8/1/1
f 8/1/1 7/1/1 9/1/1
f 10/1/1 11/1/1 12/1/1
f 12/1/1 11/1/1 13/1/1
f 14/1/1 15/1/1 16/1/1
f 16/1/1 15/1/1 17/1/1
f 20/1/2 19/1/2 18/1/2
f 21/1/2 20/1/2 18/1/2
f 22/1/2 20/1/2 21/1/2
f 25/1/2 24/1/2 23/1/2
f 26/1/2 24/1/2 25/1/2
f 29/1/2 28/1/2 27/1/2
f 30/1/2 28/1/2 29/1/2
f 33/1/2 32/1/2 31/1/2
f 34/1/2 32/1/2 33/1/2
f 35/1/3 36/1/3 37/1/3
f 37/1/3 36/1/3 38/1/3
f 38/1/3 36/1/3 39/1/3
f 39/1/3 36/1/3 40/1/3
f 40/1/3 36/1/3 41/1/3
f 41/1/3 36/1/3 42/1/3
f 35/1/3 37/1/3 43/1/3
f 38/1/3 39/1/3 44/1/3
f 44/1/3 39/1/3 45/1/3
f 40/1/3 41/1/3 46/1/3
f 46/1/3 41/1/3 47/1/3
f 42/1/3 36/1/3 48/1/3
f 46/1/3 47/1/3 49/1/3
f 47/1/3 48/1/3 49/1/3
f 44/1/3 45/1/3 49/1/3
f 35/1/3 43/1/3 49/1/3
f 45/1/3 46/1/3 49/1/3
f 43/1/3 44/1/3 49/1/3
f 48/1/3 36/1/3 50/1/3
f 49/1/3 48/1/3 50/1/3
f 51/1/3 52/1/3 58/1/3
f 52/2/3 53/2/3 59/2/3
f 58/1/3 52/1/3 59/1/3
f 59/2/3 53/2/3 60/2/3
f 54/2/3 55/2/3 61/2/3
f 61/2/3 55/2/3 62/2/3
f 56/2/3 57/2/3 63/2/3
f 63/2/3 57/2/3 64/2/3
f 67/1/4 66/1/4 65/1/4
f 68/1/4 66/1/4 67/1/4
f 69/1/4 66/1/4 68/1/4
f 70/1/4 66/1/4 69/1/4
f 71/1/4 67/1/4 65/1/4
f 71/2/4 68/2/4 67/2/4
f 72/1/4 69/1/4 68/1/4
f 72/2/4 68/2/4 71/2/4
f 73/2/4 70/2/4 69/2/4
f 73/1/4 69/1/4 72/1/4
f 74/1/4 66/1/4 70/1/4
f 74/2/4 70/2/4 73/2/4
f 75/1/4 73/1/4 72/1/4
f 75/1/4 72/1/4 71/1/4
f 75/1/4 74/1/4 73/1/4
f 75/1/4 71/1/4 65/1/4
f 76/1/4 66/1/4 74/1/4
f 76/1/4 74/1/4 75/1/4
f 77/1/5 78/1/5 79/1/5
f 79/1/5 78/1/5 80/1/5
f 81/1/5 82/1/5 83/1/5
f 83/1/5 82/1/5 84/1/5
f 85/1/5 86/1/5 87/1/5
f 87/1/5 86/1/5 88/1/5
f 89/1/5 90/1/5 91/1/5
f 91/1/5 90/1/5 92/1/5
f 95/1/6 94/1/6 93/1/6
f 96/1/6 94/1/6 95/1/6
f 99/1/6 98/1/6 97/1/6
f 100/1/6 98/1/6 99/1/6
f 103/1/6 102/1/6 101/1/6
f 104/1/6 102/1/6 103/1/6
f 107/1/6 106/1/6 105/1/6
f 108/1/6 106/1/6 107/1/6
