# MagicaVoxel @ Ephtracy

# group
o Red_WomanToilet

# material
mtllib Doors-0-Red_WomanToilet.mtl
usemtl palette

# normals
vn -1 0 0
vn 1 0 0
vn 0 0 1
vn 0 0 -1
vn 0 -1 0
vn 0 1 0

# texcoords
vt 0.146484 0.5
vt 0.931641 0.5
vt 0.994141 0.5

# verts
v 12 0 11.6
v 12 0 11.5
v 12 3.3 11.6
v 12 3.3 11.5
v 13.3 1.5 11.8
v 13.3 1.5 11.6
v 13.3 1.5 11.5
v 13.3 1.5 11.3
v 13.3 1.7 11.8
v 13.3 1.7 11.6
v 13.3 1.7 11.5
v 13.3 1.7 11.3
v 13.5 1.5 11.8
v 13.5 1.5 11.6
v 13.5 1.5 11.5
v 13.5 1.5 11.3
v 13.5 1.7 11.8
v 13.5 1.7 11.6
v 13.5 1.7 11.5
v 13.5 1.7 11.3
v 13.7 0 11.6
v 13.7 0 11.5
v 13.7 3.3 11.6
v 13.7 3.3 11.5
v 13.3 1.5 11.8
v 13.3 1.7 11.8
v 13.5 1.5 11.8
v 13.5 1.7 11.8
v 12 0 11.6
v 12 3.3 11.6
v 12.5 2.1 11.6
v 12.5 2.2 11.6
v 12.6 2.2 11.6
v 12.6 2.3 11.6
v 12.7 2.3 11.6
v 12.7 2.5 11.6
v 12.7 2.7 11.6
v 12.7 3 11.6
v 12.8 2.5 11.6
v 12.8 2.6 11.6
v 12.9 2.5 11.6
v 12.9 2.6 11.6
v 13 2.3 11.6
v 13 2.5 11.6
v 13 2.7 11.6
v 13 3 11.6
v 13.1 2.2 11.6
v 13.1 2.3 11.6
v 13.2 2.1 11.6
v 13.2 2.2 11.6
v 13.3 1.5 11.6
v 13.3 1.7 11.6
v 13.5 1.5 11.6
v 13.5 1.7 11.6
v 13.7 0 11.6
v 13.7 3.3 11.6
v 12 0 11.5
v 12 3.3 11.5
v 12.5 2.1 11.5
v 12.5 2.2 11.5
v 12.6 2.2 11.5
v 12.6 2.3 11.5
v 12.7 2.3 11.5
v 12.7 2.5 11.5
v 12.7 2.7 11.5
v 12.7 3 11.5
v 12.8 2.5 11.5
v 12.8 2.6 11.5
v 12.9 2.5 11.5
v 12.9 2.6 11.5
v 13 2.3 11.5
v 13 2.5 11.5
v 13 2.7 11.5
v 13 3 11.5
v 13.1 2.2 11.5
v 13.1 2.3 11.5
v 13.2 2.1 11.5
v 13.2 2.2 11.5
v 13.3 1.5 11.5
v 13.3 1.7 11.5
v 13.5 1.5 11.5
v 13.5 1.7 11.5
v 13.7 0 11.5
v 13.7 3.3 11.5
v 13.3 1.5 11.3
v 13.3 1.7 11.3
v 13.5 1.5 11.3
v 13.5 1.7 11.3
v 12 0 11.6
v 13.7 0 11.6
v 12 0 11.5
v 13.7 0 11.5
v 13.3 1.5 11.8
v 13.5 1.5 11.8
v 13.3 1.5 11.6
v 13.5 1.5 11.6
v 13.3 1.5 11.5
v 13.5 1.5 11.5
v 13.3 1.5 11.3
v 13.5 1.5 11.3
v 13.3 1.7 11.8
v 13.5 1.7 11.8
v 13.3 1.7 11.6
v 13.5 1.7 11.6
v 13.3 1.7 11.5
v 13.5 1.7 11.5
v 13.3 1.7 11.3
v 13.5 1.7 11.3
v 12 3.3 11.6
v 13.7 3.3 11.6
v 12 3.3 11.5
v 13.7 3.3 11.5

# faces
f 3/1/1 2/1/1 1/1/1
f 4/1/1 2/1/1 3/1/1
f 9/2/1 6/2/1 5/2/1
f 10/2/1 6/2/1 9/2/1
f 11/2/1 8/2/1 7/2/1
f 12/2/1 8/2/1 11/2/1
f 13/2/2 14/2/2 17/2/2
f 17/2/2 14/2/2 18/2/2
f 15/2/2 16/2/2 19/2/2
f 19/2/2 16/2/2 20/2/2
f 21/1/2 22/1/2 23/1/2
f 23/1/2 22/1/2 24/1/2
f 27/2/3 26/2/3 25/2/3
f 28/2/3 26/2/3 27/2/3
f 31/1/3 30/1/3 29/1/3
f 32/1/3 30/1/3 31/1/3
f 33/3/3 32/3/3 31/3/3
f 33/1/3 30/1/3 32/1/3
f 34/1/3 30/1/3 33/1/3
f 35/3/3 34/3/3 33/3/3
f 35/1/3 30/1/3 34/1/3
f 36/1/3 30/1/3 35/1/3
f 37/1/3 30/1/3 36/1/3
f 38/1/3 30/1/3 37/1/3
f 39/3/3 36/3/3 35/3/3
f 39/1/3 37/1/3 36/1/3
f 40/1/3 37/1/3 39/1/3
f 41/3/3 39/3/3 35/3/3
f 41/3/3 40/3/3 39/3/3
f 42/1/3 37/1/3 40/1/3
f 42/3/3 40/3/3 41/3/3
f 43/3/3 35/3/3 33/3/3
f 43/3/3 41/3/3 35/3/3
f 44/1/3 42/1/3 41/1/3
f 44/3/3 41/3/3 43/3/3
f 45/1/3 37/1/3 42/1/3
f 45/1/3 42/1/3 44/1/3
f 45/3/3 38/3/3 37/3/3
f 46/1/3 30/1/3 38/1/3
f 46/3/3 38/3/3 45/3/3
f 47/3/3 33/3/3 31/3/3
f 47/3/3 43/3/3 33/3/3
f 48/1/3 44/1/3 43/1/3
f 48/3/3 43/3/3 47/3/3
f 48/1/3 45/1/3 44/1/3
f 48/1/3 46/1/3 45/1/3
f 49/1/3 31/1/3 29/1/3
f 49/3/3 47/3/3 31/3/3
f 50/1/3 48/1/3 47/1/3
f 50/3/3 47/3/3 49/3/3
f 51/1/3 49/1/3 29/1/3
f 51/1/3 50/1/3 49/1/3
f 52/1/3 50/1/3 51/1/3
f 53/1/3 51/1/3 29/1/3
f 54/1/3 50/1/3 52/1/3
f 55/1/3 53/1/3 29/1/3
f 55/1/3 54/1/3 53/1/3
f 56/1/3 46/1/3 48/1/3
f 56/1/3 54/1/3 55/1/3
f 56/1/3 30/1/3 46/1/3
f 56/1/3 48/1/3 50/1/3
f 56/1/3 50/1/3 54/1/3
f 57/1/4 58/1/4 59/1/4
f 59/1/4 58/1/4 60/1/4
f 59/3/4 60/3/4 61/3/4
f 60/1/4 58/1/4 61/1/4
f 61/1/4 58/1/4 62/1/4
f 61/3/4 62/3/4 63/3/4
f 62/1/4 58/1/4 63/1/4
f 63/1/4 58/1/4 64/1/4
f 64/1/4 58/1/4 65/1/4
f 65/1/4 58/1/4 66/1/4
f 63/3/4 64/3/4 67/3/4
f 64/1/4 65/1/4 67/1/4
f 67/1/4 65/1/4 68/1/4
f 63/3/4 67/3/4 69/3/4
f 67/3/4 68/3/4 69/3/4
f 68/1/4 65/1/4 70/1/4
f 69/3/4 68/3/4 70/3/4
f 61/3/4 63/3/4 71/3/4
f 63/3/4 69/3/4 71/3/4
f 69/1/4 70/1/4 72/1/4
f 71/3/4 69/3/4 72/3/4
f 70/1/4 65/1/4 73/1/4
f 72/1/4 70/1/4 73/1/4
f 65/3/4 66/3/4 73/3/4
f 66/1/4 58/1/4 74/1/4
f 73/3/4 66/3/4 74/3/4
f 59/3/4 61/3/4 75/3/4
f 61/3/4 71/3/4 75/3/4
f 71/1/4 72/1/4 76/1/4
f 75/3/4 71/3/4 76/3/4
f 72/1/4 73/1/4 76/1/4
f 73/1/4 74/1/4 76/1/4
f 57/1/4 59/1/4 77/1/4
f 59/3/4 75/3/4 77/3/4
f 75/1/4 76/1/4 78/1/4
f 77/3/4 75/3/4 78/3/4
f 57/1/4 77/1/4 79/1/4
f 77/1/4 78/1/4 79/1/4
f 79/1/4 78/1/4 80/1/4
f 57/1/4 79/1/4 81/1/4
f 80/1/4 78/1/4 82/1/4
f 57/1/4 81/1/4 83/1/4
f 81/1/4 82/1/4 83/1/4
f 76/1/4 74/1/4 84/1/4
f 83/1/4 82/1/4 84/1/4
f 74/1/4 58/1/4 84/1/4
f 78/1/4 76/1/4 84/1/4
f 82/1/4 78/1/4 84/1/4
f 85/2/4 86/2/4 87/2/4
f 87/2/4 86/2/4 88/2/4
f 91/1/5 90/1/5 89/1/5
f 92/1/5 90/1/5 91/1/5
f 95/2/5 94/2/5 93/2/5
f 96/2/5 94/2/5 95/2/5
f 99/2/5 98/2/5 97/2/5
f 100/2/5 98/2/5 99/2/5
f 101/2/6 102/2/6 103/2/6
f 103/2/6 102/2/6 104/2/6
f 105/2/6 106/2/6 107/2/6
f 107/2/6 106/2/6 108/2/6
f 109/1/6 110/1/6 111/1/6
f 111/1/6 110/1/6 112/1/6
