# MagicaVoxel @ Ephtracy

# group
o Red_Windowed

# material
mtllib Doors-4-Red_Windowed.mtl
usemtl palette

# normals
vn -1 0 0
vn 1 0 0
vn 0 0 1
vn 0 0 -1
vn 0 -1 0
vn 0 1 0

# texcoords
vt 0.146484 0.5
vt 0.310547 0.5
vt 0.689453 0.5
vt 0.994141 0.5

# verts
v 2 0 11.6
v 2 0 11.5
v 2 3.3 11.6
v 2 3.3 11.5
v 3.3 1.5 11.8
v 3.3 1.5 11.6
v 3.3 1.5 11.5
v 3.3 1.5 11.3
v 3.3 1.7 11.8
v 3.3 1.7 11.6
v 3.3 1.7 11.5
v 3.3 1.7 11.3
v 3.5 1.5 11.8
v 3.5 1.5 11.6
v 3.5 1.5 11.5
v 3.5 1.5 11.3
v 3.5 1.7 11.8
v 3.5 1.7 11.6
v 3.5 1.7 11.5
v 3.5 1.7 11.3
v 3.7 0 11.6
v 3.7 0 11.5
v 3.7 3.3 11.6
v 3.7 3.3 11.5
v 3.3 1.5 11.8
v 3.3 1.7 11.8
v 3.5 1.5 11.8
v 3.5 1.7 11.8
v 2 0 11.6
v 2 3.3 11.6
v 2.1 1.2 11.6
v 2.1 3.2 11.6
v 2.2 1.3 11.6
v 2.2 3.1 11.6
v 3 1.3 11.6
v 3 3.1 11.6
v 3.1 1.2 11.6
v 3.1 3.2 11.6
v 3.3 1.5 11.6
v 3.3 1.7 11.6
v 3.5 1.5 11.6
v 3.5 1.7 11.6
v 3.7 0 11.6
v 3.7 3.3 11.6
v 2 0 11.5
v 2 3.3 11.5
v 2.1 1.2 11.5
v 2.1 3.2 11.5
v 2.2 1.3 11.5
v 2.2 3.1 11.5
v 3 1.3 11.5
v 3 3.1 11.5
v 3.1 1.2 11.5
v 3.1 3.2 11.5
v 3.3 1.5 11.5
v 3.3 1.7 11.5
v 3.5 1.5 11.5
v 3.5 1.7 11.5
v 3.7 0 11.5
v 3.7 3.3 11.5
v 3.3 1.5 11.3
v 3.3 1.7 11.3
v 3.5 1.5 11.3
v 3.5 1.7 11.3
v 2 0 11.6
v 3.7 0 11.6
v 2 0 11.5
v 3.7 0 11.5
v 3.3 1.5 11.8
v 3.5 1.5 11.8
v 3.3 1.5 11.6
v 3.5 1.5 11.6
v 3.3 1.5 11.5
v 3.5 1.5 11.5
v 3.3 1.5 11.3
v 3.5 1.5 11.3
v 3.3 1.7 11.8
v 3.5 1.7 11.8
v 3.3 1.7 11.6
v 3.5 1.7 11.6
v 3.3 1.7 11.5
v 3.5 1.7 11.5
v 3.3 1.7 11.3
v 3.5 1.7 11.3
v 2 3.3 11.6
v 3.7 3.3 11.6
v 2 3.3 11.5
v 3.7 3.3 11.5

# faces
f 3/1/1 2/1/1 1/1/1
f 4/1/1 2/1/1 3/1/1
f 9/2/1 6/2/1 5/2/1
f 10/2/1 6/2/1 9/2/1
f 11/2/1 8/2/1 7/2/1
f 12/2/1 8/2/1 11/2/1
f 13/2/2 14/2/2 17/2/2
f 17/2/2 14/2/2 18/2/2
f 15/2/2 16/2/2 19/2/2
f 19/2/2 16/2/2 20/2/2
f 21/1/2 22/1/2 23/1/2
f 23/1/2 22/1/2 24/1/2
f 27/2/3 26/2/3 25/2/3
f 28/2/3 26/2/3 27/2/3
f 31/1/3 30/1/3 29/1/3
f 32/1/3 30/1/3 31/1/3
f 33/4/3 32/4/3 31/4/3
f 34/4/3 32/4/3 33/4/3
f 35/4/3 33/4/3 31/4/3
f 35/3/3 34/3/3 33/3/3
f 36/4/3 32/4/3 34/4/3
f 36/3/3 34/3/3 35/3/3
f 37/1/3 31/1/3 29/1/3
f 37/4/3 35/4/3 31/4/3
f 37/4/3 36/4/3 35/4/3
f 38/4/3 32/4/3 36/4/3
f 38/4/3 36/4/3 37/4/3
f 38/1/3 30/1/3 32/1/3
f 39/1/3 38/1/3 37/1/3
f 40/1/3 38/1/3 39/1/3
f 41/1/3 39/1/3 37/1/3
f 42/1/3 38/1/3 40/1/3
f 43/1/3 37/1/3 29/1/3
f 43/1/3 42/1/3 41/1/3
f 43/1/3 41/1/3 37/1/3
f 44/1/3 38/1/3 42/1/3
f 44/1/3 42/1/3 43/1/3
f 44/1/3 30/1/3 38/1/3
f 45/1/4 46/1/4 47/1/4
f 47/1/4 46/1/4 48/1/4
f 47/4/4 48/4/4 49/4/4
f 49/4/4 48/4/4 50/4/4
f 47/4/4 49/4/4 51/4/4
f 49/3/4 50/3/4 51/3/4
f 50/4/4 48/4/4 52/4/4
f 51/3/4 50/3/4 52/3/4
f 45/1/4 47/1/4 53/1/4
f 47/4/4 51/4/4 53/4/4
f 51/4/4 52/4/4 53/4/4
f 52/4/4 48/4/4 54/4/4
f 53/4/4 52/4/4 54/4/4
f 48/1/4 46/1/4 54/1/4
f 53/1/4 54/1/4 55/1/4
f 55/1/4 54/1/4 56/1/4
f 53/1/4 55/1/4 57/1/4
f 56/1/4 54/1/4 58/1/4
f 45/1/4 53/1/4 59/1/4
f 57/1/4 58/1/4 59/1/4
f 53/1/4 57/1/4 59/1/4
f 58/1/4 54/1/4 60/1/4
f 59/1/4 58/1/4 60/1/4
f 54/1/4 46/1/4 60/1/4
f 61/2/4 62/2/4 63/2/4
f 63/2/4 62/2/4 64/2/4
f 67/1/5 66/1/5 65/1/5
f 68/1/5 66/1/5 67/1/5
f 71/2/5 70/2/5 69/2/5
f 72/2/5 70/2/5 71/2/5
f 75/2/5 74/2/5 73/2/5
f 76/2/5 74/2/5 75/2/5
f 77/2/6 78/2/6 79/2/6
f 79/2/6 78/2/6 80/2/6
f 81/2/6 82/2/6 83/2/6
f 83/2/6 82/2/6 84/2/6
f 85/1/6 86/1/6 87/1/6
f 87/1/6 86/1/6 88/1/6
