# MagicaVoxel @ Ephtracy

# group
o White_WomanToilet

# material
mtllib Doors-13-White_WomanToilet.mtl
usemtl palette

# normals
vn -1 0 0
vn 1 0 0
vn 0 0 1
vn 0 0 -1
vn 0 -1 0
vn 0 1 0

# texcoords
vt 0.931641 0.5
vt 0.966797 0.5
vt 0.994141 0.5

# verts
v 12 0 3.8
v 12 0 3.7
v 12 3.3 3.8
v 12 3.3 3.7
v 13.3 1.5 4
v 13.3 1.5 3.8
v 13.3 1.5 3.7
v 13.3 1.5 3.5
v 13.3 1.7 4
v 13.3 1.7 3.8
v 13.3 1.7 3.7
v 13.3 1.7 3.5
v 13.5 1.5 4
v 13.5 1.5 3.8
v 13.5 1.5 3.7
v 13.5 1.5 3.5
v 13.5 1.7 4
v 13.5 1.7 3.8
v 13.5 1.7 3.7
v 13.5 1.7 3.5
v 13.7 0 3.8
v 13.7 0 3.7
v 13.7 3.3 3.8
v 13.7 3.3 3.7
v 13.3 1.5 4
v 13.3 1.7 4
v 13.5 1.5 4
v 13.5 1.7 4
v 12 0 3.8
v 12 3.3 3.8
v 12.5 2.1 3.8
v 12.5 2.2 3.8
v 12.6 2.2 3.8
v 12.6 2.3 3.8
v 12.7 2.3 3.8
v 12.7 2.5 3.8
v 12.7 2.7 3.8
v 12.7 3 3.8
v 12.8 2.5 3.8
v 12.8 2.6 3.8
v 12.9 2.5 3.8
v 12.9 2.6 3.8
v 13 2.3 3.8
v 13 2.5 3.8
v 13 2.7 3.8
v 13 3 3.8
v 13.1 2.2 3.8
v 13.1 2.3 3.8
v 13.2 2.1 3.8
v 13.2 2.2 3.8
v 13.3 1.5 3.8
v 13.3 1.7 3.8
v 13.5 1.5 3.8
v 13.5 1.7 3.8
v 13.7 0 3.8
v 13.7 3.3 3.8
v 12 0 3.7
v 12 3.3 3.7
v 12.5 2.1 3.7
v 12.5 2.2 3.7
v 12.6 2.2 3.7
v 12.6 2.3 3.7
v 12.7 2.3 3.7
v 12.7 2.5 3.7
v 12.7 2.7 3.7
v 12.7 3 3.7
v 12.8 2.5 3.7
v 12.8 2.6 3.7
v 12.9 2.5 3.7
v 12.9 2.6 3.7
v 13 2.3 3.7
v 13 2.5 3.7
v 13 2.7 3.7
v 13 3 3.7
v 13.1 2.2 3.7
v 13.1 2.3 3.7
v 13.2 2.1 3.7
v 13.2 2.2 3.7
v 13.3 1.5 3.7
v 13.3 1.7 3.7
v 13.5 1.5 3.7
v 13.5 1.7 3.7
v 13.7 0 3.7
v 13.7 3.3 3.7
v 13.3 1.5 3.5
v 13.3 1.7 3.5
v 13.5 1.5 3.5
v 13.5 1.7 3.5
v 12 0 3.8
v 13.7 0 3.8
v 12 0 3.7
v 13.7 0 3.7
v 13.3 1.5 4
v 13.5 1.5 4
v 13.3 1.5 3.8
v 13.5 1.5 3.8
v 13.3 1.5 3.7
v 13.5 1.5 3.7
v 13.3 1.5 3.5
v 13.5 1.5 3.5
v 13.3 1.7 4
v 13.5 1.7 4
v 13.3 1.7 3.8
v 13.5 1.7 3.8
v 13.3 1.7 3.7
v 13.5 1.7 3.7
v 13.3 1.7 3.5
v 13.5 1.7 3.5
v 12 3.3 3.8
v 13.7 3.3 3.8
v 12 3.3 3.7
v 13.7 3.3 3.7

# faces
f 3/2/1 2/2/1 1/2/1
f 4/2/1 2/2/1 3/2/1
f 9/1/1 6/1/1 5/1/1
f 10/1/1 6/1/1 9/1/1
f 11/1/1 8/1/1 7/1/1
f 12/1/1 8/1/1 11/1/1
f 13/1/2 14/1/2 17/1/2
f 17/1/2 14/1/2 18/1/2
f 15/1/2 16/1/2 19/1/2
f 19/1/2 16/1/2 20/1/2
f 21/2/2 22/2/2 23/2/2
f 23/2/2 22/2/2 24/2/2
f 27/1/3 26/1/3 25/1/3
f 28/1/3 26/1/3 27/1/3
f 31/2/3 30/2/3 29/2/3
f 32/2/3 30/2/3 31/2/3
f 33/3/3 32/3/3 31/3/3
f 33/2/3 30/2/3 32/2/3
f 34/2/3 30/2/3 33/2/3
f 35/3/3 34/3/3 33/3/3
f 35/2/3 30/2/3 34/2/3
f 36/2/3 30/2/3 35/2/3
f 37/2/3 30/2/3 36/2/3
f 38/2/3 30/2/3 37/2/3
f 39/3/3 36/3/3 35/3/3
f 39/2/3 37/2/3 36/2/3
f 40/2/3 37/2/3 39/2/3
f 41/3/3 39/3/3 35/3/3
f 41/3/3 40/3/3 39/3/3
f 42/2/3 37/2/3 40/2/3
f 42/3/3 40/3/3 41/3/3
f 43/3/3 35/3/3 33/3/3
f 43/3/3 41/3/3 35/3/3
f 44/2/3 42/2/3 41/2/3
f 44/3/3 41/3/3 43/3/3
f 45/2/3 37/2/3 42/2/3
f 45/2/3 42/2/3 44/2/3
f 45/3/3 38/3/3 37/3/3
f 46/2/3 30/2/3 38/2/3
f 46/3/3 38/3/3 45/3/3
f 47/3/3 33/3/3 31/3/3
f 47/3/3 43/3/3 33/3/3
f 48/2/3 44/2/3 43/2/3
f 48/3/3 43/3/3 47/3/3
f 48/2/3 45/2/3 44/2/3
f 48/2/3 46/2/3 45/2/3
f 49/2/3 31/2/3 29/2/3
f 49/3/3 47/3/3 31/3/3
f 50/2/3 48/2/3 47/2/3
f 50/3/3 47/3/3 49/3/3
f 51/2/3 49/2/3 29/2/3
f 51/2/3 50/2/3 49/2/3
f 52/2/3 50/2/3 51/2/3
f 53/2/3 51/2/3 29/2/3
f 54/2/3 50/2/3 52/2/3
f 55/2/3 53/2/3 29/2/3
f 55/2/3 54/2/3 53/2/3
f 56/2/3 46/2/3 48/2/3
f 56/2/3 54/2/3 55/2/3
f 56/2/3 30/2/3 46/2/3
f 56/2/3 48/2/3 50/2/3
f 56/2/3 50/2/3 54/2/3
f 57/2/4 58/2/4 59/2/4
f 59/2/4 58/2/4 60/2/4
f 59/3/4 60/3/4 61/3/4
f 60/2/4 58/2/4 61/2/4
f 61/2/4 58/2/4 62/2/4
f 61/3/4 62/3/4 63/3/4
f 62/2/4 58/2/4 63/2/4
f 63/2/4 58/2/4 64/2/4
f 64/2/4 58/2/4 65/2/4
f 65/2/4 58/2/4 66/2/4
f 63/3/4 64/3/4 67/3/4
f 64/2/4 65/2/4 67/2/4
f 67/2/4 65/2/4 68/2/4
f 63/3/4 67/3/4 69/3/4
f 67/3/4 68/3/4 69/3/4
f 68/2/4 65/2/4 70/2/4
f 69/3/4 68/3/4 70/3/4
f 61/3/4 63/3/4 71/3/4
f 63/3/4 69/3/4 71/3/4
f 69/2/4 70/2/4 72/2/4
f 71/3/4 69/3/4 72/3/4
f 70/2/4 65/2/4 73/2/4
f 72/2/4 70/2/4 73/2/4
f 65/3/4 66/3/4 73/3/4
f 66/2/4 58/2/4 74/2/4
f 73/3/4 66/3/4 74/3/4
f 59/3/4 61/3/4 75/3/4
f 61/3/4 71/3/4 75/3/4
f 71/2/4 72/2/4 76/2/4
f 75/3/4 71/3/4 76/3/4
f 72/2/4 73/2/4 76/2/4
f 73/2/4 74/2/4 76/2/4
f 57/2/4 59/2/4 77/2/4
f 59/3/4 75/3/4 77/3/4
f 75/2/4 76/2/4 78/2/4
f 77/3/4 75/3/4 78/3/4
f 57/2/4 77/2/4 79/2/4
f 77/2/4 78/2/4 79/2/4
f 79/2/4 78/2/4 80/2/4
f 57/2/4 79/2/4 81/2/4
f 80/2/4 78/2/4 82/2/4
f 57/2/4 81/2/4 83/2/4
f 81/2/4 82/2/4 83/2/4
f 76/2/4 74/2/4 84/2/4
f 83/2/4 82/2/4 84/2/4
f 74/2/4 58/2/4 84/2/4
f 78/2/4 76/2/4 84/2/4
f 82/2/4 78/2/4 84/2/4
f 85/1/4 86/1/4 87/1/4
f 87/1/4 86/1/4 88/1/4
f 91/2/5 90/2/5 89/2/5
f 92/2/5 90/2/5 91/2/5
f 95/1/5 94/1/5 93/1/5
f 96/1/5 94/1/5 95/1/5
f 99/1/5 98/1/5 97/1/5
f 100/1/5 98/1/5 99/1/5
f 101/1/6 102/1/6 103/1/6
f 103/1/6 102/1/6 104/1/6
f 105/1/6 106/1/6 107/1/6
f 107/1/6 106/1/6 108/1/6
f 109/2/6 110/2/6 111/2/6
f 111/2/6 110/2/6 112/2/6
