# MagicaVoxel @ Ephtracy

# group
o White_EmpityWindow

# material
mtllib Doors-18-White_EmpityWindow.mtl
usemtl palette

# normals
vn -1 0 0
vn 1 0 0
vn 0 0 1
vn 0 0 -1
vn 0 -1 0
vn 0 1 0

# texcoords
vt 0.931641 0.5
vt 0.966797 0.5
vt 0.994141 0.5

# verts
v 4.6 0 3.8
v 4.6 0 3.7
v 4.6 3.3 3.8
v 4.6 3.3 3.7
v 5.6 1.3 3.8
v 5.6 1.3 3.7
v 5.6 3.1 3.8
v 5.6 3.1 3.7
v 5.9 1.4 4
v 5.9 1.4 3.9
v 5.9 1.4 3.6
v 5.9 1.4 3.5
v 5.9 1.5 4
v 5.9 1.5 3.9
v 5.9 1.5 3.6
v 5.9 1.5 3.5
v 6.1 1.4 3.9
v 6.1 1.4 3.8
v 6.1 1.4 3.7
v 6.1 1.4 3.6
v 6.1 1.5 3.9
v 6.1 1.5 3.8
v 6.1 1.5 3.7
v 6.1 1.5 3.6
v 4.8 1.3 3.8
v 4.8 1.3 3.7
v 4.8 3.1 3.8
v 4.8 3.1 3.7
v 6.2 1.4 4
v 6.2 1.4 3.8
v 6.2 1.4 3.7
v 6.2 1.4 3.5
v 6.2 1.5 4
v 6.2 1.5 3.8
v 6.2 1.5 3.7
v 6.2 1.5 3.5
v 6.3 0 3.8
v 6.3 0 3.7
v 6.3 3.3 3.8
v 6.3 3.3 3.7
v 5.9 1.4 4
v 5.9 1.5 4
v 6.2 1.4 4
v 6.2 1.5 4
v 4.6 0 3.8
v 4.6 3.3 3.8
v 4.7 1.2 3.8
v 4.7 3.2 3.8
v 4.8 1.3 3.8
v 4.8 3.1 3.8
v 5.6 1.3 3.8
v 5.6 3.1 3.8
v 5.7 1.2 3.8
v 5.7 3.2 3.8
v 6.1 1.4 3.8
v 6.1 1.5 3.8
v 6.2 1.4 3.8
v 6.2 1.5 3.8
v 6.3 0 3.8
v 6.3 3.3 3.8
v 5.9 1.4 3.6
v 5.9 1.5 3.6
v 6.1 1.4 3.6
v 6.1 1.5 3.6
v 5.9 1.4 3.9
v 5.9 1.5 3.9
v 6.1 1.4 3.9
v 6.1 1.5 3.9
v 4.6 0 3.7
v 4.6 3.3 3.7
v 4.7 1.2 3.7
v 4.7 3.2 3.7
v 4.8 1.3 3.7
v 4.8 3.1 3.7
v 5.6 1.3 3.7
v 5.6 3.1 3.7
v 5.7 1.2 3.7
v 5.7 3.2 3.7
v 6.1 1.4 3.7
v 6.1 1.5 3.7
v 6.2 1.4 3.7
v 6.2 1.5 3.7
v 6.3 0 3.7
v 6.3 3.3 3.7
v 5.9 1.4 3.5
v 5.9 1.5 3.5
v 6.2 1.4 3.5
v 6.2 1.5 3.5
v 4.6 0 3.8
v 6.3 0 3.8
v 4.6 0 3.7
v 6.3 0 3.7
v 5.9 1.4 4
v 6.2 1.4 4
v 5.9 1.4 3.9
v 6.1 1.4 3.9
v 6.1 1.4 3.8
v 6.2 1.4 3.8
v 6.1 1.4 3.7
v 6.2 1.4 3.7
v 5.9 1.4 3.6
v 6.1 1.4 3.6
v 5.9 1.4 3.5
v 6.2 1.4 3.5
v 4.8 3.1 3.8
v 5.6 3.1 3.8
v 4.8 3.1 3.7
v 5.6 3.1 3.7
v 4.8 1.3 3.8
v 5.6 1.3 3.8
v 4.8 1.3 3.7
v 5.6 1.3 3.7
v 5.9 1.5 4
v 6.2 1.5 4
v 5.9 1.5 3.9
v 6.1 1.5 3.9
v 6.1 1.5 3.8
v 6.2 1.5 3.8
v 6.1 1.5 3.7
v 6.2 1.5 3.7
v 5.9 1.5 3.6
v 6.1 1.5 3.6
v 5.9 1.5 3.5
v 6.2 1.5 3.5
v 4.6 3.3 3.8
v 6.3 3.3 3.8
v 4.6 3.3 3.7
v 6.3 3.3 3.7

# faces
f 3/2/1 2/2/1 1/2/1
f 4/2/1 2/2/1 3/2/1
f 7/3/1 6/3/1 5/3/1
f 8/3/1 6/3/1 7/3/1
f 13/1/1 10/1/1 9/1/1
f 14/1/1 10/1/1 13/1/1
f 15/1/1 12/1/1 11/1/1
f 16/1/1 12/1/1 15/1/1
f 21/1/1 18/1/1 17/1/1
f 22/1/1 18/1/1 21/1/1
f 23/1/1 20/1/1 19/1/1
f 24/1/1 20/1/1 23/1/1
f 25/3/2 26/3/2 27/3/2
f 27/3/2 26/3/2 28/3/2
f 29/1/2 30/1/2 33/1/2
f 33/1/2 30/1/2 34/1/2
f 31/1/2 32/1/2 35/1/2
f 35/1/2 32/1/2 36/1/2
f 37/2/2 38/2/2 39/2/2
f 39/2/2 38/2/2 40/2/2
f 43/1/3 42/1/3 41/1/3
f 44/1/3 42/1/3 43/1/3
f 47/2/3 46/2/3 45/2/3
f 48/2/3 46/2/3 47/2/3
f 49/3/3 48/3/3 47/3/3
f 50/3/3 48/3/3 49/3/3
f 51/3/3 49/3/3 47/3/3
f 52/3/3 48/3/3 50/3/3
f 53/2/3 47/2/3 45/2/3
f 53/3/3 52/3/3 51/3/3
f 53/3/3 51/3/3 47/3/3
f 54/3/3 48/3/3 52/3/3
f 54/3/3 52/3/3 53/3/3
f 54/2/3 46/2/3 48/2/3
f 55/2/3 54/2/3 53/2/3
f 56/2/3 54/2/3 55/2/3
f 57/2/3 55/2/3 53/2/3
f 58/2/3 54/2/3 56/2/3
f 59/2/3 53/2/3 45/2/3
f 59/2/3 58/2/3 57/2/3
f 59/2/3 57/2/3 53/2/3
f 60/2/3 54/2/3 58/2/3
f 60/2/3 58/2/3 59/2/3
f 60/2/3 46/2/3 54/2/3
f 63/1/3 62/1/3 61/1/3
f 64/1/3 62/1/3 63/1/3
f 65/1/4 66/1/4 67/1/4
f 67/1/4 66/1/4 68/1/4
f 69/2/4 70/2/4 71/2/4
f 71/2/4 70/2/4 72/2/4
f 71/3/4 72/3/4 73/3/4
f 73/3/4 72/3/4 74/3/4
f 71/3/4 73/3/4 75/3/4
f 74/3/4 72/3/4 76/3/4
f 69/2/4 71/2/4 77/2/4
f 75/3/4 76/3/4 77/3/4
f 71/3/4 75/3/4 77/3/4
f 76/3/4 72/3/4 78/3/4
f 77/3/4 76/3/4 78/3/4
f 72/2/4 70/2/4 78/2/4
f 77/2/4 78/2/4 79/2/4
f 79/2/4 78/2/4 80/2/4
f 77/2/4 79/2/4 81/2/4
f 80/2/4 78/2/4 82/2/4
f 69/2/4 77/2/4 83/2/4
f 81/2/4 82/2/4 83/2/4
f 77/2/4 81/2/4 83/2/4
f 82/2/4 78/2/4 84/2/4
f 83/2/4 82/2/4 84/2/4
f 78/2/4 70/2/4 84/2/4
f 85/1/4 86/1/4 87/1/4
f 87/1/4 86/1/4 88/1/4
f 91/2/5 90/2/5 89/2/5
f 92/2/5 90/2/5 91/2/5
f 95/1/5 94/1/5 93/1/5
f 96/1/5 94/1/5 95/1/5
f 97/1/5 94/1/5 96/1/5
f 98/1/5 94/1/5 97/1/5
f 102/1/5 100/1/5 99/1/5
f 103/1/5 102/1/5 101/1/5
f 104/1/5 100/1/5 102/1/5
f 104/1/5 102/1/5 103/1/5
f 107/3/5 106/3/5 105/3/5
f 108/3/5 106/3/5 107/3/5
f 109/3/6 110/3/6 111/3/6
f 111/3/6 110/3/6 112/3/6
f 113/1/6 114/1/6 115/1/6
f 115/1/6 114/1/6 116/1/6
f 116/1/6 114/1/6 117/1/6
f 117/1/6 114/1/6 118/1/6
f 119/1/6 120/1/6 122/1/6
f 121/1/6 122/1/6 123/1/6
f 122/1/6 120/1/6 124/1/6
f 123/1/6 122/1/6 124/1/6
f 125/2/6 126/2/6 127/2/6
f 127/2/6 126/2/6 128/2/6
