# MagicaVoxel @ Ephtracy

# group
o Wooden

# material
mtllib Doors-23-Wooden.mtl
usemtl palette

# normals
vn -1 0 0
vn 1 0 0
vn 0 0 1
vn 0 0 -1
vn 0 -1 0
vn 0 1 0

# texcoords
vt 0.310547 0.5
vt 0.365234 0.5

# verts
v -0.8 0 7.45058e-009
v -0.8 0 -0.1
v -0.8 3.3 7.45058e-009
v -0.8 3.3 -0.1
v 0.5 1.5 0.2
v 0.5 1.5 7.45058e-009
v 0.5 1.5 -0.1
v 0.5 1.5 -0.3
v 0.5 1.7 0.2
v 0.5 1.7 7.45058e-009
v 0.5 1.7 -0.1
v 0.5 1.7 -0.3
v 0.7 1.5 0.2
v 0.7 1.5 7.45058e-009
v 0.7 1.5 -0.1
v 0.7 1.5 -0.3
v 0.7 1.7 0.2
v 0.7 1.7 7.45058e-009
v 0.7 1.7 -0.1
v 0.7 1.7 -0.3
v 0.9 0 7.45058e-009
v 0.9 0 -0.1
v 0.9 3.3 7.45058e-009
v 0.9 3.3 -0.1
v 0.5 1.5 0.2
v 0.5 1.7 0.2
v 0.7 1.5 0.2
v 0.7 1.7 0.2
v -0.8 0 7.45058e-009
v -0.8 3.3 7.45058e-009
v 0.5 1.5 7.45058e-009
v 0.5 1.7 7.45058e-009
v 0.7 1.5 7.45058e-009
v 0.7 1.7 7.45058e-009
v 0.9 0 7.45058e-009
v 0.9 3.3 7.45058e-009
v -0.8 0 -0.1
v -0.8 3.3 -0.1
v 0.5 1.5 -0.1
v 0.5 1.7 -0.1
v 0.7 1.5 -0.1
v 0.7 1.7 -0.1
v 0.9 0 -0.1
v 0.9 3.3 -0.1
v 0.5 1.5 -0.3
v 0.5 1.7 -0.3
v 0.7 1.5 -0.3
v 0.7 1.7 -0.3
v -0.8 0 7.45058e-009
v 0.9 0 7.45058e-009
v -0.8 0 -0.1
v 0.9 0 -0.1
v 0.5 1.5 0.2
v 0.7 1.5 0.2
v 0.5 1.5 7.45058e-009
v 0.7 1.5 7.45058e-009
v 0.5 1.5 -0.1
v 0.7 1.5 -0.1
v 0.5 1.5 -0.3
v 0.7 1.5 -0.3
v 0.5 1.7 0.2
v 0.7 1.7 0.2
v 0.5 1.7 7.45058e-009
v 0.7 1.7 7.45058e-009
v 0.5 1.7 -0.1
v 0.7 1.7 -0.1
v 0.5 1.7 -0.3
v 0.7 1.7 -0.3
v -0.8 3.3 7.45058e-009
v 0.9 3.3 7.45058e-009
v -0.8 3.3 -0.1
v 0.9 3.3 -0.1

# faces
f 3/2/1 2/2/1 1/2/1
f 4/2/1 2/2/1 3/2/1
f 9/1/1 6/1/1 5/1/1
f 10/1/1 6/1/1 9/1/1
f 11/1/1 8/1/1 7/1/1
f 12/1/1 8/1/1 11/1/1
f 13/1/2 14/1/2 17/1/2
f 17/1/2 14/1/2 18/1/2
f 15/1/2 16/1/2 19/1/2
f 19/1/2 16/1/2 20/1/2
f 21/2/2 22/2/2 23/2/2
f 23/2/2 22/2/2 24/2/2
f 27/1/3 26/1/3 25/1/3
f 28/1/3 26/1/3 27/1/3
f 31/2/3 30/2/3 29/2/3
f 32/2/3 30/2/3 31/2/3
f 33/2/3 31/2/3 29/2/3
f 34/2/3 30/2/3 32/2/3
f 35/2/3 33/2/3 29/2/3
f 35/2/3 34/2/3 33/2/3
f 36/2/3 30/2/3 34/2/3
f 36/2/3 34/2/3 35/2/3
f 37/2/4 38/2/4 39/2/4
f 39/2/4 38/2/4 40/2/4
f 37/2/4 39/2/4 41/2/4
f 40/2/4 38/2/4 42/2/4
f 37/2/4 41/2/4 43/2/4
f 41/2/4 42/2/4 43/2/4
f 42/2/4 38/2/4 44/2/4
f 43/2/4 42/2/4 44/2/4
f 45/1/4 46/1/4 47/1/4
f 47/1/4 46/1/4 48/1/4
f 51/2/5 50/2/5 49/2/5
f 52/2/5 50/2/5 51/2/5
f 55/1/5 54/1/5 53/1/5
f 56/1/5 54/1/5 55/1/5
f 59/1/5 58/1/5 57/1/5
f 60/1/5 58/1/5 59/1/5
f 61/1/6 62/1/6 63/1/6
f 63/1/6 62/1/6 64/1/6
f 65/1/6 66/1/6 67/1/6
f 67/1/6 66/1/6 68/1/6
f 69/2/6 70/2/6 71/2/6
f 71/2/6 70/2/6 72/2/6
