# MagicaVoxel @ Ephtracy

# group
o Wooden_MetallHandaler

# material
mtllib Doors-14-Wooden_MetallHandaler.mtl
usemtl palette

# normals
vn -1 0 0
vn 1 0 0
vn 0 0 1
vn 0 0 -1
vn 0 -1 0
vn 0 1 0

# texcoords
vt 0.310547 0.5
vt 0.365234 0.5
vt 0.931641 0.5

# verts
v 9.4 0 7.45058e-009
v 9.4 0 -0.1
v 9.4 3.3 7.45058e-009
v 9.4 3.3 -0.1
v 10.7 1.4 0.2
v 10.7 1.4 0.1
v 10.7 1.4 -0.2
v 10.7 1.4 -0.3
v 10.7 1.5 0.2
v 10.7 1.5 0.1
v 10.7 1.5 -0.2
v 10.7 1.5 -0.3
v 10.9 1.4 0.1
v 10.9 1.4 7.45058e-009
v 10.9 1.4 -0.1
v 10.9 1.4 -0.2
v 10.9 1.5 0.1
v 10.9 1.5 7.45058e-009
v 10.9 1.5 -0.1
v 10.9 1.5 -0.2
v 11 1.4 0.2
v 11 1.4 7.45058e-009
v 11 1.4 -0.1
v 11 1.4 -0.3
v 11 1.5 0.2
v 11 1.5 7.45058e-009
v 11 1.5 -0.1
v 11 1.5 -0.3
v 11.1 0 7.45058e-009
v 11.1 0 -0.1
v 11.1 3.3 7.45058e-009
v 11.1 3.3 -0.1
v 10.7 1.4 0.2
v 10.7 1.5 0.2
v 11 1.4 0.2
v 11 1.5 0.2
v 9.4 0 7.45058e-009
v 9.4 3.3 7.45058e-009
v 9.5 0.2 7.45058e-009
v 9.5 1.4 7.45058e-009
v 9.5 1.7 7.45058e-009
v 9.5 3.1 7.45058e-009
v 9.6 0.3 7.45058e-009
v 9.6 1.3 7.45058e-009
v 9.6 1.8 7.45058e-009
v 9.6 3 7.45058e-009
v 10.1 0.3 7.45058e-009
v 10.1 1.3 7.45058e-009
v 10.1 1.8 7.45058e-009
v 10.1 3 7.45058e-009
v 10.2 0.2 7.45058e-009
v 10.2 1.4 7.45058e-009
v 10.2 1.7 7.45058e-009
v 10.2 3.1 7.45058e-009
v 10.3 0.2 7.45058e-009
v 10.3 1.4 7.45058e-009
v 10.3 1.7 7.45058e-009
v 10.3 3.1 7.45058e-009
v 10.4 0.3 7.45058e-009
v 10.4 1.3 7.45058e-009
v 10.4 1.8 7.45058e-009
v 10.4 3 7.45058e-009
v 10.9 0.3 7.45058e-009
v 10.9 1.3 7.45058e-009
v 10.9 1.4 7.45058e-009
v 10.9 1.5 7.45058e-009
v 10.9 1.8 7.45058e-009
v 10.9 3 7.45058e-009
v 11 0.2 7.45058e-009
v 11 1.4 7.45058e-009
v 11 1.5 7.45058e-009
v 11 1.7 7.45058e-009
v 11 3.1 7.45058e-009
v 11.1 0 7.45058e-009
v 11.1 3.3 7.45058e-009
v 10.7 1.4 -0.2
v 10.7 1.5 -0.2
v 10.9 1.4 -0.2
v 10.9 1.5 -0.2
v 10.7 1.4 0.1
v 10.7 1.5 0.1
v 10.9 1.4 0.1
v 10.9 1.5 0.1
v 9.4 0 -0.1
v 9.4 3.3 -0.1
v 9.5 0.2 -0.1
v 9.5 1.4 -0.1
v 9.5 1.7 -0.1
v 9.5 3.1 -0.1
v 9.6 0.3 -0.1
v 9.6 1.3 -0.1
v 9.6 1.8 -0.1
v 9.6 3 -0.1
v 10.1 0.3 -0.1
v 10.1 1.3 -0.1
v 10.1 1.8 -0.1
v 10.1 3 -0.1
v 10.2 0.2 -0.1
v 10.2 1.4 -0.1
v 10.2 1.7 -0.1
v 10.2 3.1 -0.1
v 10.3 0.2 -0.1
v 10.3 1.4 -0.1
v 10.3 1.7 -0.1
v 10.3 3.1 -0.1
v 10.4 0.3 -0.1
v 10.4 1.3 -0.1
v 10.4 1.8 -0.1
v 10.4 3 -0.1
v 10.9 0.3 -0.1
v 10.9 1.3 -0.1
v 10.9 1.4 -0.1
v 10.9 1.5 -0.1
v 10.9 1.8 -0.1
v 10.9 3 -0.1
v 11 0.2 -0.1
v 11 1.4 -0.1
v 11 1.5 -0.1
v 11 1.7 -0.1
v 11 3.1 -0.1
v 11.1 0 -0.1
v 11.1 3.3 -0.1
v 10.7 1.4 -0.3
v 10.7 1.5 -0.3
v 11 1.4 -0.3
v 11 1.5 -0.3
v 9.4 0 7.45058e-009
v 11.1 0 7.45058e-009
v 9.4 0 -0.1
v 11.1 0 -0.1
v 10.7 1.4 0.2
v 11 1.4 0.2
v 10.7 1.4 0.1
v 10.9 1.4 0.1
v 10.9 1.4 7.45058e-009
v 11 1.4 7.45058e-009
v 10.9 1.4 -0.1
v 11 1.4 -0.1
v 10.7 1.4 -0.2
v 10.9 1.4 -0.2
v 10.7 1.4 -0.3
v 11 1.4 -0.3
v 10.7 1.5 0.2
v 11 1.5 0.2
v 10.7 1.5 0.1
v 10.9 1.5 0.1
v 10.9 1.5 7.45058e-009
v 11 1.5 7.45058e-009
v 10.9 1.5 -0.1
v 11 1.5 -0.1
v 10.7 1.5 -0.2
v 10.9 1.5 -0.2
v 10.7 1.5 -0.3
v 11 1.5 -0.3
v 9.4 3.3 7.45058e-009
v 11.1 3.3 7.45058e-009
v 9.4 3.3 -0.1
v 11.1 3.3 -0.1

# faces
f 3/2/1 2/2/1 1/2/1
f 4/2/1 2/2/1 3/2/1
f 9/3/1 6/3/1 5/3/1
f 10/3/1 6/3/1 9/3/1
f 11/3/1 8/3/1 7/3/1
f 12/3/1 8/3/1 11/3/1
f 17/3/1 14/3/1 13/3/1
f 18/3/1 14/3/1 17/3/1
f 19/3/1 16/3/1 15/3/1
f 20/3/1 16/3/1 19/3/1
f 21/3/2 22/3/2 25/3/2
f 25/3/2 22/3/2 26/3/2
f 23/3/2 24/3/2 27/3/2
f 27/3/2 24/3/2 28/3/2
f 29/2/2 30/2/2 31/2/2
f 31/2/2 30/2/2 32/2/2
f 35/3/3 34/3/3 33/3/3
f 36/3/3 34/3/3 35/3/3
f 39/2/3 38/2/3 37/2/3
f 40/2/3 38/2/3 39/2/3
f 41/2/3 38/2/3 40/2/3
f 42/2/3 38/2/3 41/2/3
f 43/1/3 40/1/3 39/1/3
f 44/1/3 40/1/3 43/1/3
f 45/1/3 42/1/3 41/1/3
f 46/1/3 42/1/3 45/1/3
f 47/1/3 43/1/3 39/1/3
f 47/2/3 44/2/3 43/2/3
f 48/1/3 40/1/3 44/1/3
f 48/2/3 44/2/3 47/2/3
f 49/2/3 46/2/3 45/2/3
f 49/1/3 45/1/3 41/1/3
f 50/1/3 42/1/3 46/1/3
f 50/2/3 46/2/3 49/2/3
f 51/2/3 39/2/3 37/2/3
f 51/1/3 47/1/3 39/1/3
f 51/1/3 48/1/3 47/1/3
f 52/2/3 41/2/3 40/2/3
f 52/1/3 48/1/3 51/1/3
f 52/1/3 40/1/3 48/1/3
f 53/1/3 50/1/3 49/1/3
f 53/2/3 41/2/3 52/2/3
f 53/1/3 49/1/3 41/1/3
f 54/1/3 42/1/3 50/1/3
f 54/1/3 50/1/3 53/1/3
f 54/2/3 38/2/3 42/2/3
f 55/2/3 53/2/3 52/2/3
f 55/2/3 52/2/3 51/2/3
f 55/2/3 54/2/3 53/2/3
f 55/2/3 51/2/3 37/2/3
f 56/2/3 54/2/3 55/2/3
f 57/2/3 54/2/3 56/2/3
f 58/2/3 38/2/3 54/2/3
f 58/2/3 54/2/3 57/2/3
f 59/1/3 56/1/3 55/1/3
f 60/1/3 56/1/3 59/1/3
f 61/1/3 58/1/3 57/1/3
f 62/1/3 58/1/3 61/1/3
f 63/1/3 59/1/3 55/1/3
f 63/2/3 60/2/3 59/2/3
f 64/1/3 56/1/3 60/1/3
f 64/2/3 60/2/3 63/2/3
f 65/2/3 57/2/3 56/2/3
f 65/1/3 56/1/3 64/1/3
f 66/2/3 57/2/3 65/2/3
f 67/2/3 62/2/3 61/2/3
f 67/1/3 61/1/3 57/1/3
f 68/1/3 58/1/3 62/1/3
f 68/2/3 62/2/3 67/2/3
f 69/1/3 64/1/3 63/1/3
f 69/2/3 55/2/3 37/2/3
f 69/1/3 63/1/3 55/1/3
f 69/1/3 65/1/3 64/1/3
f 70/1/3 65/1/3 69/1/3
f 71/2/3 57/2/3 66/2/3
f 72/1/3 68/1/3 67/1/3
f 72/1/3 67/1/3 57/1/3
f 72/2/3 57/2/3 71/2/3
f 73/1/3 58/1/3 68/1/3
f 73/1/3 68/1/3 72/1/3
f 73/2/3 38/2/3 58/2/3
f 74/2/3 72/2/3 71/2/3
f 74/2/3 71/2/3 70/2/3
f 74/2/3 73/2/3 72/2/3
f 74/2/3 69/2/3 37/2/3
f 74/2/3 70/2/3 69/2/3
f 75/2/3 38/2/3 73/2/3
f 75/2/3 73/2/3 74/2/3
f 78/3/3 77/3/3 76/3/3
f 79/3/3 77/3/3 78/3/3
f 80/3/4 81/3/4 82/3/4
f 82/3/4 81/3/4 83/3/4
f 84/2/4 85/2/4 86/2/4
f 86/2/4 85/2/4 87/2/4
f 87/2/4 85/2/4 88/2/4
f 88/2/4 85/2/4 89/2/4
f 86/1/4 87/1/4 90/1/4
f 90/1/4 87/1/4 91/1/4
f 88/1/4 89/1/4 92/1/4
f 92/1/4 89/1/4 93/1/4
f 86/1/4 90/1/4 94/1/4
f 90/2/4 91/2/4 94/2/4
f 91/1/4 87/1/4 95/1/4
f 94/2/4 91/2/4 95/2/4
f 92/2/4 93/2/4 96/2/4
f 88/1/4 92/1/4 96/1/4
f 93/1/4 89/1/4 97/1/4
f 96/2/4 93/2/4 97/2/4
f 84/2/4 86/2/4 98/2/4
f 86/1/4 94/1/4 98/1/4
f 94/1/4 95/1/4 98/1/4
f 87/2/4 88/2/4 99/2/4
f 98/1/4 95/1/4 99/1/4
f 95/1/4 87/1/4 99/1/4
f 96/1/4 97/1/4 100/1/4
f 99/2/4 88/2/4 100/2/4
f 88/1/4 96/1/4 100/1/4
f 97/1/4 89/1/4 101/1/4
f 100/1/4 97/1/4 101/1/4
f 89/2/4 85/2/4 101/2/4
f 99/2/4 100/2/4 102/2/4
f 98/2/4 99/2/4 102/2/4
f 100/2/4 101/2/4 102/2/4
f 84/2/4 98/2/4 102/2/4
f 102/2/4 101/2/4 103/2/4
f 103/2/4 101/2/4 104/2/4
f 101/2/4 85/2/4 105/2/4
f 104/2/4 101/2/4 105/2/4
f 102/1/4 103/1/4 106/1/4
f 106/1/4 103/1/4 107/1/4
f 104/1/4 105/1/4 108/1/4
f 108/1/4 105/1/4 109/1/4
f 102/1/4 106/1/4 110/1/4
f 106/2/4 107/2/4 110/2/4
f 107/1/4 103/1/4 111/1/4
f 110/2/4 107/2/4 111/2/4
f 103/2/4 104/2/4 112/2/4
f 111/1/4 103/1/4 112/1/4
f 112/2/4 104/2/4 113/2/4
f 108/2/4 109/2/4 114/2/4
f 104/1/4 108/1/4 114/1/4
f 109/1/4 105/1/4 115/1/4
f 114/2/4 109/2/4 115/2/4
f 110/1/4 111/1/4 116/1/4
f 84/2/4 102/2/4 116/2/4
f 102/1/4 110/1/4 116/1/4
f 111/1/4 112/1/4 116/1/4
f 116/1/4 112/1/4 117/1/4
f 113/2/4 104/2/4 118/2/4
f 114/1/4 115/1/4 119/1/4
f 104/1/4 114/1/4 119/1/4
f 118/2/4 104/2/4 119/2/4
f 115/1/4 105/1/4 120/1/4
f 119/1/4 115/1/4 120/1/4
f 105/2/4 85/2/4 120/2/4
f 118/2/4 119/2/4 121/2/4
f 117/2/4 118/2/4 121/2/4
f 119/2/4 120/2/4 121/2/4
f 84/2/4 116/2/4 121/2/4
f 116/2/4 117/2/4 121/2/4
f 120/2/4 85/2/4 122/2/4
f 121/2/4 120/2/4 122/2/4
f 123/3/4 124/3/4 125/3/4
f 125/3/4 124/3/4 126/3/4
f 129/2/5 128/2/5 127/2/5
f 130/2/5 128/2/5 129/2/5
f 133/3/5 132/3/5 131/3/5
f 134/3/5 132/3/5 133/3/5
f 135/3/5 132/3/5 134/3/5
f 136/3/5 132/3/5 135/3/5
f 140/3/5 138/3/5 137/3/5
f 141/3/5 140/3/5 139/3/5
f 142/3/5 138/3/5 140/3/5
f 142/3/5 140/3/5 141/3/5
f 143/3/6 144/3/6 145/3/6
f 145/3/6 144/3/6 146/3/6
f 146/3/6 144/3/6 147/3/6
f 147/3/6 144/3/6 148/3/6
f 149/3/6 150/3/6 152/3/6
f 151/3/6 152/3/6 153/3/6
f 152/3/6 150/3/6 154/3/6
f 153/3/6 152/3/6 154/3/6
f 155/2/6 156/2/6 157/2/6
f 157/2/6 156/2/6 158/2/6
