# MagicaVoxel @ Ephtracy

# group
o Wooden_Windowed

# material
mtllib Doors-22-Wooden_Windowed.mtl
usemtl palette

# normals
vn -1 0 0
vn 1 0 0
vn 0 0 1
vn 0 0 -1
vn 0 -1 0
vn 0 1 0

# texcoords
vt 0.310547 0.5
vt 0.365234 0.5
vt 0.689453 0.5
vt 0.994141 0.5

# verts
v 2 0 7.45058e-009
v 2 0 -0.1
v 2 3.3 7.45058e-009
v 2 3.3 -0.1
v 3.3 1.5 0.2
v 3.3 1.5 7.45058e-009
v 3.3 1.5 -0.1
v 3.3 1.5 -0.3
v 3.3 1.7 0.2
v 3.3 1.7 7.45058e-009
v 3.3 1.7 -0.1
v 3.3 1.7 -0.3
v 3.5 1.5 0.2
v 3.5 1.5 7.45058e-009
v 3.5 1.5 -0.1
v 3.5 1.5 -0.3
v 3.5 1.7 0.2
v 3.5 1.7 7.45058e-009
v 3.5 1.7 -0.1
v 3.5 1.7 -0.3
v 3.7 0 7.45058e-009
v 3.7 0 -0.1
v 3.7 3.3 7.45058e-009
v 3.7 3.3 -0.1
v 3.3 1.5 0.2
v 3.3 1.7 0.2
v 3.5 1.5 0.2
v 3.5 1.7 0.2
v 2 0 7.45058e-009
v 2 3.3 7.45058e-009
v 2.1 1.2 7.45058e-009
v 2.1 3.2 7.45058e-009
v 2.2 1.3 7.45058e-009
v 2.2 3.1 7.45058e-009
v 3 1.3 7.45058e-009
v 3 3.1 7.45058e-009
v 3.1 1.2 7.45058e-009
v 3.1 3.2 7.45058e-009
v 3.3 1.5 7.45058e-009
v 3.3 1.7 7.45058e-009
v 3.5 1.5 7.45058e-009
v 3.5 1.7 7.45058e-009
v 3.7 0 7.45058e-009
v 3.7 3.3 7.45058e-009
v 2 0 -0.1
v 2 3.3 -0.1
v 2.1 1.2 -0.1
v 2.1 3.2 -0.1
v 2.2 1.3 -0.1
v 2.2 3.1 -0.1
v 3 1.3 -0.1
v 3 3.1 -0.1
v 3.1 1.2 -0.1
v 3.1 3.2 -0.1
v 3.3 1.5 -0.1
v 3.3 1.7 -0.1
v 3.5 1.5 -0.1
v 3.5 1.7 -0.1
v 3.7 0 -0.1
v 3.7 3.3 -0.1
v 3.3 1.5 -0.3
v 3.3 1.7 -0.3
v 3.5 1.5 -0.3
v 3.5 1.7 -0.3
v 2 0 7.45058e-009
v 3.7 0 7.45058e-009
v 2 0 -0.1
v 3.7 0 -0.1
v 3.3 1.5 0.2
v 3.5 1.5 0.2
v 3.3 1.5 7.45058e-009
v 3.5 1.5 7.45058e-009
v 3.3 1.5 -0.1
v 3.5 1.5 -0.1
v 3.3 1.5 -0.3
v 3.5 1.5 -0.3
v 3.3 1.7 0.2
v 3.5 1.7 0.2
v 3.3 1.7 7.45058e-009
v 3.5 1.7 7.45058e-009
v 3.3 1.7 -0.1
v 3.5 1.7 -0.1
v 3.3 1.7 -0.3
v 3.5 1.7 -0.3
v 2 3.3 7.45058e-009
v 3.7 3.3 7.45058e-009
v 2 3.3 -0.1
v 3.7 3.3 -0.1

# faces
f 3/2/1 2/2/1 1/2/1
f 4/2/1 2/2/1 3/2/1
f 9/1/1 6/1/1 5/1/1
f 10/1/1 6/1/1 9/1/1
f 11/1/1 8/1/1 7/1/1
f 12/1/1 8/1/1 11/1/1
f 13/1/2 14/1/2 17/1/2
f 17/1/2 14/1/2 18/1/2
f 15/1/2 16/1/2 19/1/2
f 19/1/2 16/1/2 20/1/2
f 21/2/2 22/2/2 23/2/2
f 23/2/2 22/2/2 24/2/2
f 27/1/3 26/1/3 25/1/3
f 28/1/3 26/1/3 27/1/3
f 31/2/3 30/2/3 29/2/3
f 32/2/3 30/2/3 31/2/3
f 33/4/3 32/4/3 31/4/3
f 34/4/3 32/4/3 33/4/3
f 35/4/3 33/4/3 31/4/3
f 35/3/3 34/3/3 33/3/3
f 36/4/3 32/4/3 34/4/3
f 36/3/3 34/3/3 35/3/3
f 37/2/3 31/2/3 29/2/3
f 37/4/3 35/4/3 31/4/3
f 37/4/3 36/4/3 35/4/3
f 38/4/3 32/4/3 36/4/3
f 38/4/3 36/4/3 37/4/3
f 38/2/3 30/2/3 32/2/3
f 39/2/3 38/2/3 37/2/3
f 40/2/3 38/2/3 39/2/3
f 41/2/3 39/2/3 37/2/3
f 42/2/3 38/2/3 40/2/3
f 43/2/3 37/2/3 29/2/3
f 43/2/3 42/2/3 41/2/3
f 43/2/3 41/2/3 37/2/3
f 44/2/3 38/2/3 42/2/3
f 44/2/3 42/2/3 43/2/3
f 44/2/3 30/2/3 38/2/3
f 45/2/4 46/2/4 47/2/4
f 47/2/4 46/2/4 48/2/4
f 47/4/4 48/4/4 49/4/4
f 49/4/4 48/4/4 50/4/4
f 47/4/4 49/4/4 51/4/4
f 49/3/4 50/3/4 51/3/4
f 50/4/4 48/4/4 52/4/4
f 51/3/4 50/3/4 52/3/4
f 45/2/4 47/2/4 53/2/4
f 47/4/4 51/4/4 53/4/4
f 51/4/4 52/4/4 53/4/4
f 52/4/4 48/4/4 54/4/4
f 53/4/4 52/4/4 54/4/4
f 48/2/4 46/2/4 54/2/4
f 53/2/4 54/2/4 55/2/4
f 55/2/4 54/2/4 56/2/4
f 53/2/4 55/2/4 57/2/4
f 56/2/4 54/2/4 58/2/4
f 45/2/4 53/2/4 59/2/4
f 57/2/4 58/2/4 59/2/4
f 53/2/4 57/2/4 59/2/4
f 58/2/4 54/2/4 60/2/4
f 59/2/4 58/2/4 60/2/4
f 54/2/4 46/2/4 60/2/4
f 61/1/4 62/1/4 63/1/4
f 63/1/4 62/1/4 64/1/4
f 67/2/5 66/2/5 65/2/5
f 68/2/5 66/2/5 67/2/5
f 71/1/5 70/1/5 69/1/5
f 72/1/5 70/1/5 71/1/5
f 75/1/5 74/1/5 73/1/5
f 76/1/5 74/1/5 75/1/5
f 77/1/6 78/1/6 79/1/6
f 79/1/6 78/1/6 80/1/6
f 81/1/6 82/1/6 83/1/6
f 83/1/6 82/1/6 84/1/6
f 85/2/6 86/2/6 87/2/6
f 87/2/6 86/2/6 88/2/6
