# MagicaVoxel @ Ephtracy

# group
o Wooden_EmpityWindow

# material
mtllib Doors-21-Wooden_EmpityWindow.mtl
usemtl palette

# normals
vn -1 0 0
vn 1 0 0
vn 0 0 1
vn 0 0 -1
vn 0 -1 0
vn 0 1 0

# texcoords
vt 0.310547 0.5
vt 0.365234 0.5
vt 0.994141 0.5

# verts
v 4.6 0 7.45058e-009
v 4.6 0 -0.1
v 4.6 3.3 7.45058e-009
v 4.6 3.3 -0.1
v 5.6 1.3 7.45058e-009
v 5.6 1.3 -0.1
v 5.6 3.1 7.45058e-009
v 5.6 3.1 -0.1
v 5.9 1.5 0.2
v 5.9 1.5 7.45058e-009
v 5.9 1.5 -0.1
v 5.9 1.5 -0.3
v 5.9 1.7 0.2
v 5.9 1.7 7.45058e-009
v 5.9 1.7 -0.1
v 5.9 1.7 -0.3
v 4.8 1.3 7.45058e-009
v 4.8 1.3 -0.1
v 4.8 3.1 7.45058e-009
v 4.8 3.1 -0.1
v 6.1 1.5 0.2
v 6.1 1.5 7.45058e-009
v 6.1 1.5 -0.1
v 6.1 1.5 -0.3
v 6.1 1.7 0.2
v 6.1 1.7 7.45058e-009
v 6.1 1.7 -0.1
v 6.1 1.7 -0.3
v 6.3 0 7.45058e-009
v 6.3 0 -0.1
v 6.3 3.3 7.45058e-009
v 6.3 3.3 -0.1
v 5.9 1.5 0.2
v 5.9 1.7 0.2
v 6.1 1.5 0.2
v 6.1 1.7 0.2
v 4.6 0 7.45058e-009
v 4.6 3.3 7.45058e-009
v 4.7 1.2 7.45058e-009
v 4.7 3.2 7.45058e-009
v 4.8 1.3 7.45058e-009
v 4.8 3.1 7.45058e-009
v 5.6 1.3 7.45058e-009
v 5.6 3.1 7.45058e-009
v 5.7 1.2 7.45058e-009
v 5.7 3.2 7.45058e-009
v 5.9 1.5 7.45058e-009
v 5.9 1.7 7.45058e-009
v 6.1 1.5 7.45058e-009
v 6.1 1.7 7.45058e-009
v 6.3 0 7.45058e-009
v 6.3 3.3 7.45058e-009
v 4.6 0 -0.1
v 4.6 3.3 -0.1
v 4.7 1.2 -0.1
v 4.7 3.2 -0.1
v 4.8 1.3 -0.1
v 4.8 3.1 -0.1
v 5.6 1.3 -0.1
v 5.6 3.1 -0.1
v 5.7 1.2 -0.1
v 5.7 3.2 -0.1
v 5.9 1.5 -0.1
v 5.9 1.7 -0.1
v 6.1 1.5 -0.1
v 6.1 1.7 -0.1
v 6.3 0 -0.1
v 6.3 3.3 -0.1
v 5.9 1.5 -0.3
v 5.9 1.7 -0.3
v 6.1 1.5 -0.3
v 6.1 1.7 -0.3
v 4.6 0 7.45058e-009
v 6.3 0 7.45058e-009
v 4.6 0 -0.1
v 6.3 0 -0.1
v 5.9 1.5 0.2
v 6.1 1.5 0.2
v 5.9 1.5 7.45058e-009
v 6.1 1.5 7.45058e-009
v 5.9 1.5 -0.1
v 6.1 1.5 -0.1
v 5.9 1.5 -0.3
v 6.1 1.5 -0.3
v 4.8 3.1 7.45058e-009
v 5.6 3.1 7.45058e-009
v 4.8 3.1 -0.1
v 5.6 3.1 -0.1
v 4.8 1.3 7.45058e-009
v 5.6 1.3 7.45058e-009
v 4.8 1.3 -0.1
v 5.6 1.3 -0.1
v 5.9 1.7 0.2
v 6.1 1.7 0.2
v 5.9 1.7 7.45058e-009
v 6.1 1.7 7.45058e-009
v 5.9 1.7 -0.1
v 6.1 1.7 -0.1
v 5.9 1.7 -0.3
v 6.1 1.7 -0.3
v 4.6 3.3 7.45058e-009
v 6.3 3.3 7.45058e-009
v 4.6 3.3 -0.1
v 6.3 3.3 -0.1

# faces
f 3/2/1 2/2/1 1/2/1
f 4/2/1 2/2/1 3/2/1
f 7/3/1 6/3/1 5/3/1
f 8/3/1 6/3/1 7/3/1
f 13/1/1 10/1/1 9/1/1
f 14/1/1 10/1/1 13/1/1
f 15/1/1 12/1/1 11/1/1
f 16/1/1 12/1/1 15/1/1
f 17/3/2 18/3/2 19/3/2
f 19/3/2 18/3/2 20/3/2
f 21/1/2 22/1/2 25/1/2
f 25/1/2 22/1/2 26/1/2
f 23/1/2 24/1/2 27/1/2
f 27/1/2 24/1/2 28/1/2
f 29/2/2 30/2/2 31/2/2
f 31/2/2 30/2/2 32/2/2
f 35/1/3 34/1/3 33/1/3
f 36/1/3 34/1/3 35/1/3
f 39/2/3 38/2/3 37/2/3
f 40/2/3 38/2/3 39/2/3
f 41/3/3 40/3/3 39/3/3
f 42/3/3 40/3/3 41/3/3
f 43/3/3 41/3/3 39/3/3
f 44/3/3 40/3/3 42/3/3
f 45/2/3 39/2/3 37/2/3
f 45/3/3 44/3/3 43/3/3
f 45/3/3 43/3/3 39/3/3
f 46/3/3 40/3/3 44/3/3
f 46/3/3 44/3/3 45/3/3
f 46/2/3 38/2/3 40/2/3
f 47/2/3 46/2/3 45/2/3
f 48/2/3 46/2/3 47/2/3
f 49/2/3 47/2/3 45/2/3
f 50/2/3 46/2/3 48/2/3
f 51/2/3 45/2/3 37/2/3
f 51/2/3 50/2/3 49/2/3
f 51/2/3 49/2/3 45/2/3
f 52/2/3 46/2/3 50/2/3
f 52/2/3 50/2/3 51/2/3
f 52/2/3 38/2/3 46/2/3
f 53/2/4 54/2/4 55/2/4
f 55/2/4 54/2/4 56/2/4
f 55/3/4 56/3/4 57/3/4
f 57/3/4 56/3/4 58/3/4
f 55/3/4 57/3/4 59/3/4
f 58/3/4 56/3/4 60/3/4
f 53/2/4 55/2/4 61/2/4
f 59/3/4 60/3/4 61/3/4
f 55/3/4 59/3/4 61/3/4
f 60/3/4 56/3/4 62/3/4
f 61/3/4 60/3/4 62/3/4
f 56/2/4 54/2/4 62/2/4
f 61/2/4 62/2/4 63/2/4
f 63/2/4 62/2/4 64/2/4
f 61/2/4 63/2/4 65/2/4
f 64/2/4 62/2/4 66/2/4
f 53/2/4 61/2/4 67/2/4
f 65/2/4 66/2/4 67/2/4
f 61/2/4 65/2/4 67/2/4
f 66/2/4 62/2/4 68/2/4
f 67/2/4 66/2/4 68/2/4
f 62/2/4 54/2/4 68/2/4
f 69/1/4 70/1/4 71/1/4
f 71/1/4 70/1/4 72/1/4
f 75/2/5 74/2/5 73/2/5
f 76/2/5 74/2/5 75/2/5
f 79/1/5 78/1/5 77/1/5
f 80/1/5 78/1/5 79/1/5
f 83/1/5 82/1/5 81/1/5
f 84/1/5 82/1/5 83/1/5
f 87/3/5 86/3/5 85/3/5
f 88/3/5 86/3/5 87/3/5
f 89/3/6 90/3/6 91/3/6
f 91/3/6 90/3/6 92/3/6
f 93/1/6 94/1/6 95/1/6
f 95/1/6 94/1/6 96/1/6
f 97/1/6 98/1/6 99/1/6
f 99/1/6 98/1/6 100/1/6
f 101/2/6 102/2/6 103/2/6
f 103/2/6 102/2/6 104/2/6
