# MagicaVoxel @ Ephtracy

# group
o 

# material
mtllib Baldosa1.mtl
usemtl palette

# normals
vn -1 0 0
vn 1 0 0
vn 0 0 1
vn 0 0 -1
vn 0 -1 0
vn 0 1 0

# texcoords
vt 0.00585938 0.5
vt 0.0332031 0.5
vt 0.982422 0.5
vt 0.990234 0.5

# verts
v -2 0 2
v -2 0 -2
v -2 0.1 2
v -2 0.1 -2
v -2 0.2 2
v -2 0.2 -2
v 2 0 2
v 2 0 -2
v 2 0.1 2
v 2 0.1 -2
v 2 0.2 2
v 2 0.2 -2
v -2 0 2
v -2 0.1 2
v -2 0.2 2
v -1.9 0.1 2
v -1.9 0.2 2
v 1.9 0.1 2
v 1.9 0.2 2
v 2 0 2
v 2 0.1 2
v 2 0.2 2
v -2 0 -2
v -2 0.1 -2
v -2 0.2 -2
v -1.9 0.1 -2
v -1.9 0.2 -2
v 1.9 0.1 -2
v 1.9 0.2 -2
v 2 0 -2
v 2 0.1 -2
v 2 0.2 -2
v -2 0 2
v 2 0 2
v -2 0 -2
v 2 0 -2
v -2 0.2 2
v -1.9 0.2 2
v 1.9 0.2 2
v 2 0.2 2
v -1.9 0.2 1.8
v 1.9 0.2 1.8
v -1.9 0.2 -1.8
v 1.9 0.2 -1.8
v -2 0.2 -2
v -1.9 0.2 -2
v 1.9 0.2 -2
v 2 0.2 -2

# faces
f 3/4/1 2/4/1 1/4/1
f 4/4/1 2/4/1 3/4/1
f 5/3/1 4/3/1 3/3/1
f 6/3/1 4/3/1 5/3/1
f 7/4/2 8/4/2 9/4/2
f 9/4/2 8/4/2 10/4/2
f 9/3/2 10/3/2 11/3/2
f 11/3/2 10/3/2 12/3/2
f 16/4/3 14/4/3 13/4/3
f 16/3/3 15/3/3 14/3/3
f 17/3/3 15/3/3 16/3/3
f 18/4/3 16/4/3 13/4/3
f 18/2/3 17/2/3 16/2/3
f 19/2/3 17/2/3 18/2/3
f 20/4/3 18/4/3 13/4/3
f 21/3/3 19/3/3 18/3/3
f 21/4/3 18/4/3 20/4/3
f 22/3/3 19/3/3 21/3/3
f 23/4/4 24/4/4 26/4/4
f 24/3/4 25/3/4 26/3/4
f 26/3/4 25/3/4 27/3/4
f 23/4/4 26/4/4 28/4/4
f 26/2/4 27/2/4 28/2/4
f 28/2/4 27/2/4 29/2/4
f 23/4/4 28/4/4 30/4/4
f 28/3/4 29/3/4 31/3/4
f 30/4/4 28/4/4 31/4/4
f 31/3/4 29/3/4 32/3/4
f 35/4/5 34/4/5 33/4/5
f 36/4/5 34/4/5 35/4/5
f 37/3/6 38/3/6 41/3/6
f 38/2/6 39/2/6 41/2/6
f 39/3/6 40/3/6 42/3/6
f 41/2/6 39/2/6 42/2/6
f 37/3/6 41/3/6 43/3/6
f 41/1/6 42/1/6 43/1/6
f 42/3/6 40/3/6 44/3/6
f 43/1/6 42/1/6 44/1/6
f 37/3/6 43/3/6 45/3/6
f 43/2/6 44/2/6 46/2/6
f 45/3/6 43/3/6 46/3/6
f 44/3/6 40/3/6 47/3/6
f 46/2/6 44/2/6 47/2/6
f 47/3/6 40/3/6 48/3/6
