# MagicaVoxel @ Ephtracy

# group
o 

# material
mtllib curva.mtl
usemtl palette

# normals
vn -1 0 0
vn 1 0 0
vn 0 0 1
vn 0 0 -1
vn 0 -1 0
vn 0 1 0

# texcoords
vt 0.958984 0.5
vt 0.978516 0.5
vt 0.990234 0.5

# verts
v -6 0 6
v -6 0 -6
v -6 0.1 6
v -6 0.1 -6
v -6 0.2 6
v -6 0.2 -6
v 6 0 6
v 6 0 -6
v 6 0.2 6
v 6 0.2 -6
v -6 0 6
v -6 0.1 6
v -6 0.2 6
v -5.8 0.1 6
v -5.8 0.2 6
v -5.4 0.1 6
v -5.4 0.2 6
v -5 0.1 6
v -5 0.2 6
v 6 0 6
v 6 0.2 6
v -6 0 -6
v -6 0.1 -6
v -6 0.2 -6
v -5.8 0.1 -6
v -5.8 0.2 -6
v -5.4 0.1 -6
v -5.4 0.2 -6
v -5 0.1 -6
v -5 0.2 -6
v 6 0 -6
v 6 0.2 -6
v -6 0 6
v 6 0 6
v -6 0 -6
v 6 0 -6
v -6 0.2 6
v -5.8 0.2 6
v -5.4 0.2 6
v -5 0.2 6
v 6 0.2 6
v -6 0.2 -6
v -5.8 0.2 -6
v -5.4 0.2 -6
v -5 0.2 -6
v 6 0.2 -6

# faces
f 3/3/1 2/3/1 1/3/1
f 4/3/1 2/3/1 3/3/1
f 5/2/1 4/2/1 3/2/1
f 6/2/1 4/2/1 5/2/1
f 7/3/2 8/3/2 9/3/2
f 9/3/2 8/3/2 10/3/2
f 14/3/3 12/3/3 11/3/3
f 14/2/3 13/2/3 12/2/3
f 15/2/3 13/2/3 14/2/3
f 16/3/3 14/3/3 11/3/3
f 16/3/3 15/3/3 14/3/3
f 17/3/3 15/3/3 16/3/3
f 18/3/3 16/3/3 11/3/3
f 18/1/3 17/1/3 16/1/3
f 19/1/3 17/1/3 18/1/3
f 20/3/3 18/3/3 11/3/3
f 20/3/3 19/3/3 18/3/3
f 21/3/3 19/3/3 20/3/3
f 22/3/4 23/3/4 25/3/4
f 23/2/4 24/2/4 25/2/4
f 25/2/4 24/2/4 26/2/4
f 22/3/4 25/3/4 27/3/4
f 25/3/4 26/3/4 27/3/4
f 27/3/4 26/3/4 28/3/4
f 22/3/4 27/3/4 29/3/4
f 27/1/4 28/1/4 29/1/4
f 29/1/4 28/1/4 30/1/4
f 22/3/4 29/3/4 31/3/4
f 29/3/4 30/3/4 31/3/4
f 31/3/4 30/3/4 32/3/4
f 35/3/5 34/3/5 33/3/5
f 36/3/5 34/3/5 35/3/5
f 37/2/6 38/2/6 42/2/6
f 38/3/6 39/3/6 43/3/6
f 42/2/6 38/2/6 43/2/6
f 39/1/6 40/1/6 44/1/6
f 43/3/6 39/3/6 44/3/6
f 40/3/6 41/3/6 45/3/6
f 44/1/6 40/1/6 45/1/6
f 45/3/6 41/3/6 46/3/6
