# MagicaVoxel @ Ephtracy

# group
o 

# material
mtllib division.mtl
usemtl palette

# normals
vn -1 0 0
vn 1 0 0
vn 0 0 1
vn 0 0 -1
vn 0 -1 0
vn 0 1 0

# texcoords
vt 0.642578 0.5
vt 0.646484 0.5
vt 0.810547 0.5

# verts
v -2 0 2
v -2 0 -1.8
v -2 0 -2
v -2 0.1 -1.8
v -2 0.1 -2
v -2 0.2 2
v -2 0.2 -2
v 2 0 2
v 2 0 -2
v 2 0.2 2
v 2 0.2 -2
v -2 0 2
v -2 0.2 2
v 2 0 2
v 2 0.2 2
v -2 0 -2
v -2 0.1 -2
v -2 0.2 -2
v -1.9 0 -2
v -1.9 0.1 -2
v 1.2 0 -2
v 1.2 0.1 -2
v 2 0 -2
v 2 0.2 -2
v -2 0 2
v 2 0 2
v -2 0 -1.8
v -1.9 0 -1.8
v 1.2 0 -1.8
v -2 0 -2
v -1.9 0 -2
v 1.2 0 -2
v 2 0 -2
v -2 0.2 2
v 2 0.2 2
v -2 0.2 -2
v 2 0.2 -2

# faces
f 4/3/1 2/3/1 1/3/1
f 4/2/1 3/2/1 2/2/1
f 5/2/1 3/2/1 4/2/1
f 6/3/1 4/3/1 1/3/1
f 6/3/1 5/3/1 4/3/1
f 7/3/1 5/3/1 6/3/1
f 8/3/2 9/3/2 10/3/2
f 10/3/2 9/3/2 11/3/2
f 14/3/3 13/3/3 12/3/3
f 15/3/3 13/3/3 14/3/3
f 16/2/4 17/2/4 19/2/4
f 17/3/4 18/3/4 20/3/4
f 19/2/4 17/2/4 20/2/4
f 19/1/4 20/1/4 21/1/4
f 20/3/4 18/3/4 22/3/4
f 21/1/4 20/1/4 22/1/4
f 21/3/4 22/3/4 23/3/4
f 22/3/4 18/3/4 24/3/4
f 23/3/4 22/3/4 24/3/4
f 27/3/5 26/3/5 25/3/5
f 28/3/5 26/3/5 27/3/5
f 29/3/5 26/3/5 28/3/5
f 30/2/5 28/2/5 27/2/5
f 31/1/5 29/1/5 28/1/5
f 31/2/5 28/2/5 30/2/5
f 32/3/5 26/3/5 29/3/5
f 32/1/5 29/1/5 31/1/5
f 33/3/5 26/3/5 32/3/5
f 34/3/6 35/3/6 36/3/6
f 36/3/6 35/3/6 37/3/6
