# MagicaVoxel @ Ephtracy

# group
o 

# material
mtllib Porton.mtl
usemtl palette

# normals
vn -1 0 0
vn 1 0 0
vn 0 0 1
vn 0 0 -1
vn 0 -1 0
vn 0 1 0

# texcoords
vt 0.982422 0.5
vt 0.994141 0.5

# verts
v -2.7 0 -1.7
v -2.7 0 -2
v -2.7 3.2 -1.7
v -2.7 3.2 -2
v -1.6 0 -1.8
v -1.6 0 -1.9
v -1.6 0.9 -1.8
v -1.6 0.9 -1.9
v -1.6 1 -1.8
v -1.6 1 -1.9
v -1.6 2 -1.8
v -1.6 2 -1.9
v -1.6 2.1 -1.8
v -1.6 2.1 -1.9
v -1.6 3 -1.8
v -1.6 3 -1.9
v -0.6 0 -1.8
v -0.6 0 -1.9
v -0.6 0.9 -1.8
v -0.6 0.9 -1.9
v -0.6 1 -1.8
v -0.6 1 -1.9
v -0.6 2 -1.8
v -0.6 2 -1.9
v -0.6 2.1 -1.8
v -0.6 2.1 -1.9
v -0.6 3 -1.8
v -0.6 3 -1.9
v -0.3 1.2 -1.7
v -0.3 1.2 -1.8
v -0.3 1.6 -1.7
v -0.3 1.6 -1.8
v -0.0999999 0 -1.7
v -0.0999999 0 -1.8
v -0.0999999 0.9 -1.8
v -0.0999999 1 -1.8
v -0.0999999 2 -1.8
v -0.0999999 2.1 -1.8
v -0.0999999 3 -1.7
v -0.0999999 3 -1.8
v 0.2 1.2 -1.7
v 0.2 1.2 -1.8
v 0.2 1.6 -1.7
v 0.2 1.6 -1.8
v 0.7 0 -1.8
v 0.7 0 -1.9
v 0.7 0.9 -1.8
v 0.7 0.9 -1.9
v 0.7 1 -1.8
v 0.7 1 -1.9
v 0.7 2 -1.8
v 0.7 2 -1.9
v 0.7 2.1 -1.8
v 0.7 2.1 -1.9
v 0.7 3 -1.8
v 0.7 3 -1.9
v 1.7 0 -1.8
v 1.7 0 -1.9
v 1.7 0.9 -1.8
v 1.7 0.9 -1.9
v 1.7 1 -1.8
v 1.7 1 -1.9
v 1.7 2 -1.8
v 1.7 2 -1.9
v 1.7 2.1 -1.8
v 1.7 2.1 -1.9
v 1.7 3 -1.8
v 1.7 3 -1.9
v 2.5 0 -1.7
v 2.5 0 -1.8
v 2.5 0.9 -1.8
v 2.5 0.9 -1.9
v 2.5 1 -1.8
v 2.5 1 -1.9
v 2.5 2 -1.8
v 2.5 2 -1.9
v 2.5 2.1 -1.8
v 2.5 2.1 -1.9
v 2.5 3 -1.7
v 2.5 3 -1.8
v -2.5 0 -1.7
v -2.5 0 -1.8
v -2.5 0.9 -1.8
v -2.5 0.9 -1.9
v -2.5 1 -1.8
v -2.5 1 -1.9
v -2.5 2 -1.8
v -2.5 2 -1.9
v -2.5 2.1 -1.8
v -2.5 2.1 -1.9
v -2.5 3 -1.7
v -2.5 3 -1.8
v -1.7 0 -1.8
v -1.7 0 -1.9
v -1.7 0.9 -1.8
v -1.7 0.9 -1.9
v -1.7 1 -1.8
v -1.7 1 -1.9
v -1.7 2 -1.8
v -1.7 2 -1.9
v -1.7 2.1 -1.8
v -1.7 2.1 -1.9
v -1.7 3 -1.8
v -1.7 3 -1.9
v -0.7 0 -1.8
v -0.7 0 -1.9
v -0.7 0.9 -1.8
v -0.7 0.9 -1.9
v -0.7 1 -1.8
v -0.7 1 -1.9
v -0.7 2 -1.8
v -0.7 2 -1.9
v -0.7 2.1 -1.8
v -0.7 2.1 -1.9
v -0.7 3 -1.8
v -0.7 3 -1.9
v -0.2 1.2 -1.7
v -0.2 1.2 -1.8
v -0.2 1.6 -1.7
v -0.2 1.6 -1.8
v 0.1 0 -1.7
v 0.1 0 -1.8
v 0.1 0.9 -1.8
v 0.1 1 -1.8
v 0.1 2 -1.8
v 0.1 2.1 -1.8
v 0.1 3 -1.7
v 0.1 3 -1.8
v 0.3 1.2 -1.7
v 0.3 1.2 -1.8
v 0.3 1.6 -1.7
v 0.3 1.6 -1.8
v 0.6 0 -1.8
v 0.6 0 -1.9
v 0.6 0.9 -1.8
v 0.6 0.9 -1.9
v 0.6 1 -1.8
v 0.6 1 -1.9
v 0.6 2 -1.8
v 0.6 2 -1.9
v 0.6 2.1 -1.8
v 0.6 2.1 -1.9
v 0.6 3 -1.8
v 0.6 3 -1.9
v 1.6 0 -1.8
v 1.6 0 -1.9
v 1.6 0.9 -1.8
v 1.6 0.9 -1.9
v 1.6 1 -1.8
v 1.6 1 -1.9
v 1.6 2 -1.8
v 1.6 2 -1.9
v 1.6 2.1 -1.8
v 1.6 2.1 -1.9
v 1.6 3 -1.8
v 1.6 3 -1.9
v 2.7 0 -1.7
v 2.7 0 -2
v 2.7 3.2 -1.7
v 2.7 3.2 -2
v -2.7 0 -1.7
v -2.7 3.2 -1.7
v -2.5 0 -1.7
v -2.5 3 -1.7
v -0.3 1.2 -1.7
v -0.3 1.6 -1.7
v -0.2 1.2 -1.7
v -0.2 1.6 -1.7
v -0.0999999 0 -1.7
v -0.0999999 3 -1.7
v 0.1 0 -1.7
v 0.1 3 -1.7
v 0.2 1.2 -1.7
v 0.2 1.6 -1.7
v 0.3 1.2 -1.7
v 0.3 1.6 -1.7
v 2.5 0 -1.7
v 2.5 3 -1.7
v 2.7 0 -1.7
v 2.7 3.2 -1.7
v -2.5 0 -1.8
v -2.5 0.9 -1.8
v -2.5 1 -1.8
v -2.5 2 -1.8
v -2.5 2.1 -1.8
v -2.5 3 -1.8
v -1.7 0 -1.8
v -1.7 0.9 -1.8
v -1.7 1 -1.8
v -1.7 2 -1.8
v -1.7 2.1 -1.8
v -1.7 3 -1.8
v -1.6 0 -1.8
v -1.6 0.9 -1.8
v -1.6 1 -1.8
v -1.6 2 -1.8
v -1.6 2.1 -1.8
v -1.6 3 -1.8
v -0.7 0 -1.8
v -0.7 0.9 -1.8
v -0.7 1 -1.8
v -0.7 2 -1.8
v -0.7 2.1 -1.8
v -0.7 3 -1.8
v -0.6 0 -1.8
v -0.6 0.9 -1.8
v -0.6 1 -1.8
v -0.6 2 -1.8
v -0.6 2.1 -1.8
v -0.6 3 -1.8
v -0.3 1.2 -1.8
v -0.3 1.6 -1.8
v -0.2 1.2 -1.8
v -0.2 1.6 -1.8
v -0.0999999 0 -1.8
v -0.0999999 0.9 -1.8
v -0.0999999 1 -1.8
v -0.0999999 2 -1.8
v -0.0999999 2.1 -1.8
v -0.0999999 3 -1.8
v 0.1 0 -1.8
v 0.1 0.9 -1.8
v 0.1 1 -1.8
v 0.1 2 -1.8
v 0.1 2.1 -1.8
v 0.1 3 -1.8
v 0.2 1.2 -1.8
v 0.2 1.6 -1.8
v 0.3 1.2 -1.8
v 0.3 1.6 -1.8
v 0.6 0 -1.8
v 0.6 0.9 -1.8
v 0.6 1 -1.8
v 0.6 2 -1.8
v 0.6 2.1 -1.8
v 0.6 3 -1.8
v 0.7 0 -1.8
v 0.7 0.9 -1.8
v 0.7 1 -1.8
v 0.7 2 -1.8
v 0.7 2.1 -1.8
v 0.7 3 -1.8
v 1.6 0 -1.8
v 1.6 0.9 -1.8
v 1.6 1 -1.8
v 1.6 2 -1.8
v 1.6 2.1 -1.8
v 1.6 3 -1.8
v 1.7 0 -1.8
v 1.7 0.9 -1.8
v 1.7 1 -1.8
v 1.7 2 -1.8
v 1.7 2.1 -1.8
v 1.7 3 -1.8
v 2.5 0 -1.8
v 2.5 0.9 -1.8
v 2.5 1 -1.8
v 2.5 2 -1.8
v 2.5 2.1 -1.8
v 2.5 3 -1.8
v -2.5 0.9 -1.9
v -2.5 1 -1.9
v -2.5 2 -1.9
v -2.5 2.1 -1.9
v -1.7 0 -1.9
v -1.7 0.9 -1.9
v -1.7 1 -1.9
v -1.7 2 -1.9
v -1.7 2.1 -1.9
v -1.7 3 -1.9
v -1.6 0 -1.9
v -1.6 0.9 -1.9
v -1.6 1 -1.9
v -1.6 2 -1.9
v -1.6 2.1 -1.9
v -1.6 3 -1.9
v -0.7 0 -1.9
v -0.7 0.9 -1.9
v -0.7 1 -1.9
v -0.7 2 -1.9
v -0.7 2.1 -1.9
v -0.7 3 -1.9
v -0.6 0 -1.9
v -0.6 0.9 -1.9
v -0.6 1 -1.9
v -0.6 2 -1.9
v -0.6 2.1 -1.9
v -0.6 3 -1.9
v 0.6 0 -1.9
v 0.6 0.9 -1.9
v 0.6 1 -1.9
v 0.6 2 -1.9
v 0.6 2.1 -1.9
v 0.6 3 -1.9
v 0.7 0 -1.9
v 0.7 0.9 -1.9
v 0.7 1 -1.9
v 0.7 2 -1.9
v 0.7 2.1 -1.9
v 0.7 3 -1.9
v 1.6 0 -1.9
v 1.6 0.9 -1.9
v 1.6 1 -1.9
v 1.6 2 -1.9
v 1.6 2.1 -1.9
v 1.6 3 -1.9
v 1.7 0 -1.9
v 1.7 0.9 -1.9
v 1.7 1 -1.9
v 1.7 2 -1.9
v 1.7 2.1 -1.9
v 1.7 3 -1.9
v 2.5 0.9 -1.9
v 2.5 1 -1.9
v 2.5 2 -1.9
v 2.5 2.1 -1.9
v -0.0999999 0.9 -1.8
v -0.0999999 1 -1.8
v -0.0999999 2 -1.8
v -0.0999999 2.1 -1.8
v 0.1 0.9 -1.8
v 0.1 1 -1.8
v 0.1 2 -1.8
v 0.1 2.1 -1.8
v -2.7 0 -2
v -2.7 3.2 -2
v -2.5 0 -2
v -2.5 3 -2
v 2.5 0 -2
v 2.5 3 -2
v 2.7 0 -2
v 2.7 3.2 -2
v -2.7 0 -1.7
v -2.5 0 -1.7
v -0.0999999 0 -1.7
v 0.1 0 -1.7
v 2.5 0 -1.7
v 2.7 0 -1.7
v -2.5 0 -1.8
v -1.7 0 -1.8
v -1.6 0 -1.8
v -0.7 0 -1.8
v -0.6 0 -1.8
v -0.0999999 0 -1.8
v 0.1 0 -1.8
v 0.6 0 -1.8
v 0.7 0 -1.8
v 1.6 0 -1.8
v 1.7 0 -1.8
v 2.5 0 -1.8
v -1.7 0 -1.9
v -1.6 0 -1.9
v -0.7 0 -1.9
v -0.6 0 -1.9
v 0.6 0 -1.9
v 0.7 0 -1.9
v 1.6 0 -1.9
v 1.7 0 -1.9
v -2.7 0 -2
v -2.5 0 -2
v 2.5 0 -2
v 2.7 0 -2
v -2.5 1 -1.8
v -1.7 1 -1.8
v -1.6 1 -1.8
v -0.7 1 -1.8
v -0.6 1 -1.8
v -0.0999999 1 -1.8
v 0.1 1 -1.8
v 0.6 1 -1.8
v 0.7 1 -1.8
v 1.6 1 -1.8
v 1.7 1 -1.8
v 2.5 1 -1.8
v -2.5 1 -1.9
v -1.7 1 -1.9
v -1.6 1 -1.9
v -0.7 1 -1.9
v -0.6 1 -1.9
v 0.6 1 -1.9
v 0.7 1 -1.9
v 1.6 1 -1.9
v 1.7 1 -1.9
v 2.5 1 -1.9
v -0.3 1.2 -1.7
v -0.2 1.2 -1.7
v 0.2 1.2 -1.7
v 0.3 1.2 -1.7
v -0.3 1.2 -1.8
v -0.2 1.2 -1.8
v 0.2 1.2 -1.8
v 0.3 1.2 -1.8
v -2.5 2.1 -1.8
v -1.7 2.1 -1.8
v -1.6 2.1 -1.8
v -0.7 2.1 -1.8
v -0.6 2.1 -1.8
v -0.0999999 2.1 -1.8
v 0.1 2.1 -1.8
v 0.6 2.1 -1.8
v 0.7 2.1 -1.8
v 1.6 2.1 -1.8
v 1.7 2.1 -1.8
v 2.5 2.1 -1.8
v -2.5 2.1 -1.9
v -1.7 2.1 -1.9
v -1.6 2.1 -1.9
v -0.7 2.1 -1.9
v -0.6 2.1 -1.9
v 0.6 2.1 -1.9
v 0.7 2.1 -1.9
v 1.6 2.1 -1.9
v 1.7 2.1 -1.9
v 2.5 2.1 -1.9
v -2.5 3 -1.7
v -0.0999999 3 -1.7
v 0.1 3 -1.7
v 2.5 3 -1.7
v -2.5 3 -1.8
v -1.7 3 -1.8
v -1.6 3 -1.8
v -0.7 3 -1.8
v -0.6 3 -1.8
v -0.0999999 3 -1.8
v 0.1 3 -1.8
v 0.6 3 -1.8
v 0.7 3 -1.8
v 1.6 3 -1.8
v 1.7 3 -1.8
v 2.5 3 -1.8
v -1.7 3 -1.9
v -1.6 3 -1.9
v -0.7 3 -1.9
v -0.6 3 -1.9
v 0.6 3 -1.9
v 0.7 3 -1.9
v 1.6 3 -1.9
v 1.7 3 -1.9
v -2.5 0.9 -1.8
v -1.7 0.9 -1.8
v -1.6 0.9 -1.8
v -0.7 0.9 -1.8
v -0.6 0.9 -1.8
v -0.0999999 0.9 -1.8
v 0.1 0.9 -1.8
v 0.6 0.9 -1.8
v 0.7 0.9 -1.8
v 1.6 0.9 -1.8
v 1.7 0.9 -1.8
v 2.5 0.9 -1.8
v -2.5 0.9 -1.9
v -1.7 0.9 -1.9
v -1.6 0.9 -1.9
v -0.7 0.9 -1.9
v -0.6 0.9 -1.9
v 0.6 0.9 -1.9
v 0.7 0.9 -1.9
v 1.6 0.9 -1.9
v 1.7 0.9 -1.9
v 2.5 0.9 -1.9
v -0.3 1.6 -1.7
v -0.2 1.6 -1.7
v 0.2 1.6 -1.7
v 0.3 1.6 -1.7
v -0.3 1.6 -1.8
v -0.2 1.6 -1.8
v 0.2 1.6 -1.8
v 0.3 1.6 -1.8
v -2.5 2 -1.8
v -1.7 2 -1.8
v -1.6 2 -1.8
v -0.7 2 -1.8
v -0.6 2 -1.8
v -0.0999999 2 -1.8
v 0.1 2 -1.8
v 0.6 2 -1.8
v 0.7 2 -1.8
v 1.6 2 -1.8
v 1.7 2 -1.8
v 2.5 2 -1.8
v -2.5 2 -1.9
v -1.7 2 -1.9
v -1.6 2 -1.9
v -0.7 2 -1.9
v -0.6 2 -1.9
v 0.6 2 -1.9
v 0.7 2 -1.9
v 1.6 2 -1.9
v 1.7 2 -1.9
v 2.5 2 -1.9
v -2.7 3.2 -1.7
v 2.7 3.2 -1.7
v -2.7 3.2 -2
v 2.7 3.2 -2

# faces
f 3/2/1 2/2/1 1/2/1
f 4/2/1 2/2/1 3/2/1
f 7/1/1 6/1/1 5/1/1
f 8/1/1 6/1/1 7/1/1
f 11/1/1 10/1/1 9/1/1
f 12/1/1 10/1/1 11/1/1
f 15/1/1 14/1/1 13/1/1
f 16/1/1 14/1/1 15/1/1
f 19/1/1 18/1/1 17/1/1
f 20/1/1 18/1/1 19/1/1
f 23/1/1 22/1/1 21/1/1
f 24/1/1 22/1/1 23/1/1
f 27/1/1 26/1/1 25/1/1
f 28/1/1 26/1/1 27/1/1
f 31/2/1 30/2/1 29/2/1
f 32/2/1 30/2/1 31/2/1
f 35/2/1 34/2/1 33/2/1
f 36/2/1 35/2/1 33/2/1
f 37/2/1 36/2/1 33/2/1
f 38/2/1 37/2/1 33/2/1
f 39/2/1 38/2/1 33/2/1
f 40/2/1 38/2/1 39/2/1
f 43/2/1 42/2/1 41/2/1
f 44/2/1 42/2/1 43/2/1
f 47/1/1 46/1/1 45/1/1
f 48/1/1 46/1/1 47/1/1
f 51/1/1 50/1/1 49/1/1
f 52/1/1 50/1/1 51/1/1
f 55/1/1 54/1/1 53/1/1
f 56/1/1 54/1/1 55/1/1
f 59/1/1 58/1/1 57/1/1
f 60/1/1 58/1/1 59/1/1
f 63/1/1 62/1/1 61/1/1
f 64/1/1 62/1/1 63/1/1
f 67/1/1 66/1/1 65/1/1
f 68/1/1 66/1/1 67/1/1
f 71/2/1 70/2/1 69/2/1
f 73/2/1 71/2/1 69/2/1
f 73/2/1 72/2/1 71/2/1
f 74/2/1 72/2/1 73/2/1
f 75/2/1 73/2/1 69/2/1
f 77/2/1 75/2/1 69/2/1
f 77/2/1 76/2/1 75/2/1
f 78/2/1 76/2/1 77/2/1
f 79/2/1 77/2/1 69/2/1
f 80/2/1 77/2/1 79/2/1
f 81/2/2 82/2/2 83/2/2
f 81/2/2 83/2/2 85/2/2
f 83/2/2 84/2/2 85/2/2
f 85/2/2 84/2/2 86/2/2
f 81/2/2 85/2/2 87/2/2
f 81/2/2 87/2/2 89/2/2
f 87/2/2 88/2/2 89/2/2
f 89/2/2 88/2/2 90/2/2
f 81/2/2 89/2/2 91/2/2
f 91/2/2 89/2/2 92/2/2
f 93/1/2 94/1/2 95/1/2
f 95/1/2 94/1/2 96/1/2
f 97/1/2 98/1/2 99/1/2
f 99/1/2 98/1/2 100/1/2
f 101/1/2 102/1/2 103/1/2
f 103/1/2 102/1/2 104/1/2
f 105/1/2 106/1/2 107/1/2
f 107/1/2 106/1/2 108/1/2
f 109/1/2 110/1/2 111/1/2
f 111/1/2 110/1/2 112/1/2
f 113/1/2 114/1/2 115/1/2
f 115/1/2 114/1/2 116/1/2
f 117/2/2 118/2/2 119/2/2
f 119/2/2 118/2/2 120/2/2
f 121/2/2 122/2/2 123/2/2
f 121/2/2 123/2/2 124/2/2
f 121/2/2 124/2/2 125/2/2
f 121/2/2 125/2/2 126/2/2
f 121/2/2 126/2/2 127/2/2
f 127/2/2 126/2/2 128/2/2
f 129/2/2 130/2/2 131/2/2
f 131/2/2 130/2/2 132/2/2
f 133/1/2 134/1/2 135/1/2
f 135/1/2 134/1/2 136/1/2
f 137/1/2 138/1/2 139/1/2
f 139/1/2 138/1/2 140/1/2
f 141/1/2 142/1/2 143/1/2
f 143/1/2 142/1/2 144/1/2
f 145/1/2 146/1/2 147/1/2
f 147/1/2 146/1/2 148/1/2
f 149/1/2 150/1/2 151/1/2
f 151/1/2 150/1/2 152/1/2
f 153/1/2 154/1/2 155/1/2
f 155/1/2 154/1/2 156/1/2
f 157/2/2 158/2/2 159/2/2
f 159/2/2 158/2/2 160/2/2
f 163/2/3 162/2/3 161/2/3
f 164/2/3 162/2/3 163/2/3
f 167/2/3 166/2/3 165/2/3
f 168/2/3 166/2/3 167/2/3
f 170/2/3 162/2/3 164/2/3
f 171/2/3 170/2/3 169/2/3
f 172/2/3 162/2/3 170/2/3
f 172/2/3 170/2/3 171/2/3
f 175/2/3 174/2/3 173/2/3
f 176/2/3 174/2/3 175/2/3
f 178/2/3 162/2/3 172/2/3
f 179/2/3 178/2/3 177/2/3
f 180/2/3 162/2/3 178/2/3
f 180/2/3 178/2/3 179/2/3
f 187/1/3 182/1/3 181/1/3
f 188/1/3 182/1/3 187/1/3
f 189/1/3 184/1/3 183/1/3
f 190/1/3 184/1/3 189/1/3
f 191/1/3 186/1/3 185/1/3
f 192/1/3 186/1/3 191/1/3
f 199/1/3 194/1/3 193/1/3
f 200/1/3 194/1/3 199/1/3
f 201/1/3 196/1/3 195/1/3
f 202/1/3 196/1/3 201/1/3
f 203/1/3 198/1/3 197/1/3
f 204/1/3 198/1/3 203/1/3
f 211/1/3 208/1/3 207/1/3
f 212/1/3 208/1/3 211/1/3
f 213/1/3 211/1/3 207/1/3
f 214/1/3 208/1/3 212/1/3
f 215/1/3 206/1/3 205/1/3
f 216/1/3 206/1/3 215/1/3
f 217/1/3 214/1/3 213/1/3
f 217/1/3 213/1/3 207/1/3
f 218/1/3 208/1/3 214/1/3
f 218/1/3 214/1/3 217/1/3
f 219/1/3 210/1/3 209/1/3
f 220/1/3 210/1/3 219/1/3
f 227/1/3 224/1/3 223/1/3
f 228/1/3 224/1/3 227/1/3
f 229/1/3 227/1/3 223/1/3
f 230/1/3 224/1/3 228/1/3
f 231/1/3 222/1/3 221/1/3
f 232/1/3 222/1/3 231/1/3
f 233/1/3 230/1/3 229/1/3
f 233/1/3 229/1/3 223/1/3
f 234/1/3 224/1/3 230/1/3
f 234/1/3 230/1/3 233/1/3
f 235/1/3 226/1/3 225/1/3
f 236/1/3 226/1/3 235/1/3
f 243/1/3 238/1/3 237/1/3
f 244/1/3 238/1/3 243/1/3
f 245/1/3 240/1/3 239/1/3
f 246/1/3 240/1/3 245/1/3
f 247/1/3 242/1/3 241/1/3
f 248/1/3 242/1/3 247/1/3
f 255/1/3 250/1/3 249/1/3
f 256/1/3 250/1/3 255/1/3
f 257/1/3 252/1/3 251/1/3
f 258/1/3 252/1/3 257/1/3
f 259/1/3 254/1/3 253/1/3
f 260/1/3 254/1/3 259/1/3
f 266/1/3 262/1/3 261/1/3
f 267/1/3 262/1/3 266/1/3
f 268/1/3 264/1/3 263/1/3
f 269/1/3 264/1/3 268/1/3
f 271/1/3 267/1/3 266/1/3
f 271/1/3 270/1/3 269/1/3
f 271/1/3 269/1/3 268/1/3
f 271/1/3 268/1/3 267/1/3
f 271/1/3 266/1/3 265/1/3
f 272/1/3 270/1/3 271/1/3
f 273/1/3 270/1/3 272/1/3
f 274/1/3 270/1/3 273/1/3
f 275/1/3 270/1/3 274/1/3
f 276/1/3 270/1/3 275/1/3
f 278/1/3 273/1/3 272/1/3
f 279/1/3 273/1/3 278/1/3
f 280/1/3 275/1/3 274/1/3
f 281/1/3 275/1/3 280/1/3
f 283/1/3 279/1/3 278/1/3
f 283/1/3 282/1/3 281/1/3
f 283/1/3 281/1/3 280/1/3
f 283/1/3 280/1/3 279/1/3
f 283/1/3 278/1/3 277/1/3
f 284/1/3 282/1/3 283/1/3
f 285/1/3 282/1/3 284/1/3
f 286/1/3 282/1/3 285/1/3
f 287/1/3 282/1/3 286/1/3
f 288/1/3 282/1/3 287/1/3
f 290/1/3 285/1/3 284/1/3
f 291/1/3 285/1/3 290/1/3
f 292/1/3 287/1/3 286/1/3
f 293/1/3 287/1/3 292/1/3
f 295/1/3 291/1/3 290/1/3
f 295/1/3 294/1/3 293/1/3
f 295/1/3 293/1/3 292/1/3
f 295/1/3 292/1/3 291/1/3
f 295/1/3 290/1/3 289/1/3
f 296/1/3 294/1/3 295/1/3
f 297/1/3 294/1/3 296/1/3
f 298/1/3 294/1/3 297/1/3
f 299/1/3 294/1/3 298/1/3
f 300/1/3 294/1/3 299/1/3
f 302/1/3 297/1/3 296/1/3
f 303/1/3 297/1/3 302/1/3
f 304/1/3 299/1/3 298/1/3
f 305/1/3 299/1/3 304/1/3
f 307/1/3 303/1/3 302/1/3
f 307/1/3 306/1/3 305/1/3
f 307/1/3 305/1/3 304/1/3
f 307/1/3 304/1/3 303/1/3
f 307/1/3 302/1/3 301/1/3
f 308/1/3 306/1/3 307/1/3
f 309/1/3 306/1/3 308/1/3
f 310/1/3 306/1/3 309/1/3
f 311/1/3 306/1/3 310/1/3
f 312/1/3 306/1/3 311/1/3
f 313/1/3 309/1/3 308/1/3
f 314/1/3 309/1/3 313/1/3
f 315/1/3 311/1/3 310/1/3
f 316/1/3 311/1/3 315/1/3
f 317/2/4 318/2/4 321/2/4
f 321/2/4 318/2/4 322/2/4
f 319/2/4 320/2/4 323/2/4
f 323/2/4 320/2/4 324/2/4
f 325/2/4 326/2/4 327/2/4
f 327/2/4 326/2/4 328/2/4
f 327/1/4 328/1/4 329/1/4
f 328/2/4 326/2/4 330/2/4
f 329/1/4 328/1/4 330/1/4
f 329/2/4 330/2/4 331/2/4
f 330/2/4 326/2/4 332/2/4
f 331/2/4 330/2/4 332/2/4
f 339/2/5 334/2/5 333/2/5
f 344/2/5 336/2/5 335/2/5
f 345/2/5 336/2/5 344/2/5
f 350/2/5 338/2/5 337/2/5
f 351/1/5 340/1/5 339/1/5
f 352/1/5 342/1/5 341/1/5
f 353/1/5 342/1/5 352/1/5
f 354/1/5 344/1/5 343/1/5
f 354/1/5 345/1/5 344/1/5
f 354/1/5 346/1/5 345/1/5
f 355/1/5 346/1/5 354/1/5
f 356/1/5 348/1/5 347/1/5
f 357/1/5 348/1/5 356/1/5
f 358/1/5 350/1/5 349/1/5
f 359/2/5 339/2/5 333/2/5
f 360/1/5 355/1/5 354/1/5
f 360/2/5 339/2/5 359/2/5
f 360/1/5 351/1/5 339/1/5
f 360/1/5 358/1/5 357/1/5
f 360/1/5 357/1/5 356/1/5
f 360/1/5 356/1/5 355/1/5
f 360/1/5 353/1/5 352/1/5
f 360/1/5 354/1/5 353/1/5
f 360/1/5 352/1/5 351/1/5
f 361/1/5 350/1/5 358/1/5
f 361/1/5 358/1/5 360/1/5
f 361/2/5 338/2/5 350/2/5
f 362/2/5 338/2/5 361/2/5
f 375/1/5 364/1/5 363/1/5
f 376/1/5 364/1/5 375/1/5
f 377/1/5 366/1/5 365/1/5
f 378/1/5 366/1/5 377/1/5
f 379/1/5 368/1/5 367/1/5
f 379/1/5 369/1/5 368/1/5
f 379/1/5 370/1/5 369/1/5
f 380/1/5 370/1/5 379/1/5
f 381/1/5 372/1/5 371/1/5
f 382/1/5 372/1/5 381/1/5
f 383/1/5 374/1/5 373/1/5
f 384/1/5 374/1/5 383/1/5
f 389/2/5 386/2/5 385/2/5
f 390/2/5 386/2/5 389/2/5
f 391/2/5 388/2/5 387/2/5
f 392/2/5 388/2/5 391/2/5
f 405/1/5 394/1/5 393/1/5
f 406/1/5 394/1/5 405/1/5
f 407/1/5 396/1/5 395/1/5
f 408/1/5 396/1/5 407/1/5
f 409/1/5 398/1/5 397/1/5
f 409/1/5 399/1/5 398/1/5
f 409/1/5 400/1/5 399/1/5
f 410/1/5 400/1/5 409/1/5
f 411/1/5 402/1/5 401/1/5
f 412/1/5 402/1/5 411/1/5
f 413/1/5 404/1/5 403/1/5
f 414/1/5 404/1/5 413/1/5
f 419/2/5 416/2/5 415/2/5
f 420/2/5 416/2/5 419/2/5
f 421/2/5 416/2/5 420/2/5
f 422/2/5 416/2/5 421/2/5
f 423/2/5 416/2/5 422/2/5
f 424/2/5 416/2/5 423/2/5
f 425/2/5 418/2/5 417/2/5
f 426/2/5 418/2/5 425/2/5
f 427/2/5 418/2/5 426/2/5
f 428/2/5 418/2/5 427/2/5
f 429/2/5 418/2/5 428/2/5
f 430/2/5 418/2/5 429/2/5
f 431/2/5 421/2/5 420/2/5
f 432/2/5 421/2/5 431/2/5
f 433/2/5 423/2/5 422/2/5
f 434/2/5 423/2/5 433/2/5
f 435/2/5 427/2/5 426/2/5
f 436/2/5 427/2/5 435/2/5
f 437/2/5 429/2/5 428/2/5
f 438/2/5 429/2/5 437/2/5
f 439/1/6 440/1/6 451/1/6
f 451/1/6 440/1/6 452/1/6
f 441/1/6 442/1/6 453/1/6
f 453/1/6 442/1/6 454/1/6
f 443/1/6 444/1/6 455/1/6
f 444/1/6 445/1/6 455/1/6
f 445/1/6 446/1/6 455/1/6
f 455/1/6 446/1/6 456/1/6
f 447/1/6 448/1/6 457/1/6
f 457/1/6 448/1/6 458/1/6
f 449/1/6 450/1/6 459/1/6
f 459/1/6 450/1/6 460/1/6
f 461/2/6 462/2/6 465/2/6
f 465/2/6 462/2/6 466/2/6
f 463/2/6 464/2/6 467/2/6
f 467/2/6 464/2/6 468/2/6
f 469/1/6 470/1/6 481/1/6
f 481/1/6 470/1/6 482/1/6
f 471/1/6 472/1/6 483/1/6
f 483/1/6 472/1/6 484/1/6
f 473/1/6 474/1/6 485/1/6
f 474/1/6 475/1/6 485/1/6
f 475/1/6 476/1/6 485/1/6
f 485/1/6 476/1/6 486/1/6
f 477/1/6 478/1/6 487/1/6
f 487/1/6 478/1/6 488/1/6
f 479/1/6 480/1/6 489/1/6
f 489/1/6 480/1/6 490/1/6
f 491/2/6 492/2/6 493/2/6
f 493/2/6 492/2/6 494/2/6
