# MagicaVoxel @ Ephtracy

# group
o pared1

# material
mtllib hospital_interior-6-pared1.mtl
usemtl palette

# normals
vn -1 0 0
vn 1 0 0
vn 0 0 1
vn 0 0 -1
vn 0 -1 0
vn 0 1 0

# texcoords
vt 0.943359 0.5
vt 0.974609 0.5
vt 0.978516 0.5

# verts
v -2.6 0.5 -6
v -2.6 0.5 -6.4
v -2.6 12.8 -6
v -2.6 12.8 -6.4
v -0.8 0.3 -5.9
v -0.8 0.3 -6.3
v -0.8 0.3 -6.4
v -0.8 0.5 -6
v -0.8 0.5 -6.3
v -0.8 0.5 -6.4
v -0.8 6.3 -5.9
v -0.8 6.3 -6
v 2.9 0.5 -5.9
v 2.9 0.5 -6.4
v 2.9 6 -5.9
v 2.9 6 -6.4
v -0.5 0.3 -5.9
v -0.5 0.3 -6.3
v -0.5 0.3 -6.4
v -0.5 0.5 -6.3
v -0.5 0.5 -6.4
v -0.5 6 -5.9
v -0.5 6 -6.4
v 3.3 0.5 -5.9
v 3.3 0.5 -6
v 3.3 6.3 -5.9
v 3.3 6.3 -6
v 10.2 0.5 -6
v 10.2 0.5 -6.4
v 10.2 12.8 -6
v 10.2 12.8 -6.4
v -0.8 0.3 -5.9
v -0.8 6.3 -5.9
v -0.5 0.3 -5.9
v -0.5 6 -5.9
v 2.9 0.5 -5.9
v 2.9 6 -5.9
v 3.3 0.5 -5.9
v 3.3 6.3 -5.9
v -2.6 0.5 -6
v -2.6 12.8 -6
v -0.8 0.5 -6
v -0.8 6.3 -6
v 3.3 0.5 -6
v 3.3 6.3 -6
v 10.2 0.5 -6
v 10.2 12.8 -6
v -2.6 0.5 -6.4
v -2.6 12.8 -6.4
v -0.8 0.3 -6.4
v -0.8 0.5 -6.4
v -0.6 0.5 -6.4
v -0.6 6 -6.4
v -0.5 0.3 -6.4
v -0.5 0.5 -6.4
v -0.5 6 -6.4
v -0.5 6.1 -6.4
v 2.9 0.5 -6.4
v 2.9 6 -6.4
v 2.9 6.1 -6.4
v 3 0.5 -6.4
v 3 6 -6.4
v 10.2 0.5 -6.4
v 10.2 12.8 -6.4
v -0.8 0.3 -5.9
v -0.5 0.3 -5.9
v -0.8 0.3 -6.3
v -0.5 0.3 -6.3
v -0.8 0.3 -6.4
v -0.5 0.3 -6.4
v 2.9 0.5 -5.9
v 3.3 0.5 -5.9
v -2.6 0.5 -6
v -0.8 0.5 -6
v 3 0.5 -6
v 3.3 0.5 -6
v 10.2 0.5 -6
v -0.8 0.5 -6.3
v -2.6 0.5 -6.4
v -0.8 0.5 -6.4
v 2.9 0.5 -6.4
v 3 0.5 -6.4
v 10.2 0.5 -6.4
v -0.5 6 -5.9
v 2.9 6 -5.9
v -0.5 6 -6.4
v 2.9 6 -6.4
v -0.8 6.3 -5.9
v 3.3 6.3 -5.9
v -0.8 6.3 -6
v 3.3 6.3 -6
v -2.6 12.8 -6
v 10.2 12.8 -6
v -2.6 12.8 -6.4
v 10.2 12.8 -6.4

# faces
f 3/3/1 2/3/1 1/3/1
f 4/3/1 2/3/1 3/3/1
f 8/2/1 6/2/1 5/2/1
f 9/1/1 7/1/1 6/1/1
f 9/2/1 6/2/1 8/2/1
f 10/1/1 7/1/1 9/1/1
f 11/2/1 8/2/1 5/2/1
f 12/2/1 8/2/1 11/2/1
f 15/2/1 14/2/1 13/2/1
f 16/2/1 14/2/1 15/2/1
f 17/2/2 18/2/2 20/2/2
f 18/1/2 19/1/2 20/1/2
f 20/1/2 19/1/2 21/1/2
f 17/2/2 20/2/2 22/2/2
f 20/2/2 21/2/2 22/2/2
f 22/2/2 21/2/2 23/2/2
f 24/2/2 25/2/2 26/2/2
f 26/2/2 25/2/2 27/2/2
f 28/3/2 29/3/2 30/3/2
f 30/3/2 29/3/2 31/3/2
f 34/2/3 33/2/3 32/2/3
f 35/2/3 33/2/3 34/2/3
f 37/2/3 33/2/3 35/2/3
f 38/2/3 37/2/3 36/2/3
f 39/2/3 33/2/3 37/2/3
f 39/2/3 37/2/3 38/2/3
f 42/3/3 41/3/3 40/3/3
f 43/3/3 41/3/3 42/3/3
f 45/3/3 41/3/3 43/3/3
f 46/3/3 45/3/3 44/3/3
f 47/3/3 41/3/3 45/3/3
f 47/3/3 45/3/3 46/3/3
f 48/3/4 49/3/4 51/3/4
f 51/3/4 49/3/4 52/3/4
f 50/1/4 51/1/4 52/1/4
f 52/3/4 49/3/4 53/3/4
f 50/1/4 52/1/4 54/1/4
f 52/2/4 53/2/4 55/2/4
f 54/1/4 52/1/4 55/1/4
f 53/3/4 49/3/4 56/3/4
f 55/2/4 53/2/4 56/2/4
f 56/3/4 49/3/4 57/3/4
f 56/2/4 57/2/4 59/2/4
f 57/3/4 49/3/4 60/3/4
f 59/2/4 57/2/4 60/2/4
f 58/2/4 59/2/4 61/2/4
f 59/3/4 60/3/4 62/3/4
f 61/2/4 59/2/4 62/2/4
f 61/3/4 62/3/4 63/3/4
f 60/3/4 49/3/4 64/3/4
f 63/3/4 62/3/4 64/3/4
f 62/3/4 60/3/4 64/3/4
f 67/2/5 66/2/5 65/2/5
f 68/2/5 66/2/5 67/2/5
f 69/1/5 68/1/5 67/1/5
f 70/1/5 68/1/5 69/1/5
f 75/2/5 72/2/5 71/2/5
f 76/2/5 72/2/5 75/2/5
f 78/3/5 74/3/5 73/3/5
f 79/3/5 78/3/5 73/3/5
f 80/3/5 78/3/5 79/3/5
f 81/2/5 75/2/5 71/2/5
f 82/3/5 77/3/5 76/3/5
f 82/2/5 75/2/5 81/2/5
f 82/3/5 76/3/5 75/3/5
f 83/3/5 77/3/5 82/3/5
f 86/2/5 85/2/5 84/2/5
f 87/2/5 85/2/5 86/2/5
f 88/2/6 89/2/6 90/2/6
f 90/2/6 89/2/6 91/2/6
f 92/3/6 93/3/6 94/3/6
f 94/3/6 93/3/6 95/3/6
