# MagicaVoxel @ Ephtracy

# group
o ox

# material
mtllib hospital_interior-0-ox.mtl
usemtl palette

# normals
vn -1 0 0
vn 1 0 0
vn 0 0 1
vn 0 0 -1
vn 0 -1 0
vn 0 1 0

# texcoords
vt 0.947266 0.5
vt 0.982422 0.5

# verts
v -2.4 0.5 -4.8
v -2.4 0.5 -5.7
v -2.4 0.6 -4.8
v -2.4 0.6 -5.7
v -2 5.7 -4.8
v -2 5.7 -5.6
v -2 5.8 -4.8
v -2 5.8 -5.6
v -1.8 0.6 -5.6
v -1.8 0.6 -5.7
v -1.8 5.7 -5.6
v -1.8 5.8 -4.8
v -1.8 5.8 -5.6
v -1.8 6 -4.8
v -1.8 6 -5.7
v -1.5 0.6 -5.6
v -1.5 0.6 -5.7
v -1.5 5.7 -5.6
v -1.5 5.8 -4.8
v -1.5 5.8 -5.6
v -1.5 6 -4.8
v -1.5 6 -5.7
v -1.3 5.7 -4.8
v -1.3 5.7 -5.6
v -1.3 5.8 -4.8
v -1.3 5.8 -5.6
v -0.9 0.5 -4.8
v -0.9 0.5 -5.7
v -0.9 0.6 -4.8
v -0.9 0.6 -5.7
v -2.4 0.5 -4.8
v -2.4 0.6 -4.8
v -2 5.7 -4.8
v -2 5.8 -4.8
v -1.8 5.8 -4.8
v -1.8 6 -4.8
v -1.5 5.8 -4.8
v -1.5 6 -4.8
v -1.3 5.7 -4.8
v -1.3 5.8 -4.8
v -0.9 0.5 -4.8
v -0.9 0.6 -4.8
v -1.8 0.6 -5.6
v -1.8 5.7 -5.6
v -1.5 0.6 -5.6
v -1.5 5.7 -5.6
v -2 5.7 -5.6
v -2 5.8 -5.6
v -1.8 5.7 -5.6
v -1.8 5.8 -5.6
v -1.5 5.7 -5.6
v -1.5 5.8 -5.6
v -1.3 5.7 -5.6
v -1.3 5.8 -5.6
v -2.4 0.5 -5.7
v -2.4 0.6 -5.7
v -1.8 0.5 -5.7
v -1.8 0.6 -5.7
v -1.8 6 -5.7
v -1.5 0.5 -5.7
v -1.5 0.6 -5.7
v -1.5 6 -5.7
v -0.9 0.5 -5.7
v -0.9 0.6 -5.7
v -2.4 0.5 -4.8
v -0.9 0.5 -4.8
v -1.8 0.5 -5.6
v -1.5 0.5 -5.6
v -2.4 0.5 -5.7
v -1.8 0.5 -5.7
v -1.5 0.5 -5.7
v -0.9 0.5 -5.7
v -2 5.7 -4.8
v -1.3 5.7 -4.8
v -2 5.7 -5.6
v -1.8 5.7 -5.6
v -1.5 5.7 -5.6
v -1.3 5.7 -5.6
v -2.4 0.6 -4.8
v -0.9 0.6 -4.8
v -1.8 0.6 -5.6
v -1.5 0.6 -5.6
v -2.4 0.6 -5.7
v -1.8 0.6 -5.7
v -1.5 0.6 -5.7
v -0.9 0.6 -5.7
v -2 5.8 -4.8
v -1.8 5.8 -4.8
v -1.5 5.8 -4.8
v -1.3 5.8 -4.8
v -2 5.8 -5.6
v -1.8 5.8 -5.6
v -1.5 5.8 -5.6
v -1.3 5.8 -5.6
v -1.8 6 -4.8
v -1.5 6 -4.8
v -1.8 6 -5.7
v -1.5 6 -5.7

# faces
f 3/1/1 2/1/1 1/1/1
f 4/1/1 2/1/1 3/1/1
f 7/1/1 6/1/1 5/1/1
f 8/1/1 6/1/1 7/1/1
f 11/2/1 10/2/1 9/2/1
f 13/2/1 10/2/1 11/2/1
f 14/2/1 13/2/1 12/2/1
f 15/2/1 10/2/1 13/2/1
f 15/2/1 13/2/1 14/2/1
f 16/2/2 17/2/2 18/2/2
f 18/2/2 17/2/2 20/2/2
f 19/2/2 20/2/2 21/2/2
f 20/2/2 17/2/2 22/2/2
f 21/2/2 20/2/2 22/2/2
f 23/1/2 24/1/2 25/1/2
f 25/1/2 24/1/2 26/1/2
f 27/1/2 28/1/2 29/1/2
f 29/1/2 28/1/2 30/1/2
f 35/1/3 34/1/3 33/1/3
f 37/1/3 35/1/3 33/1/3
f 37/2/3 36/2/3 35/2/3
f 38/2/3 36/2/3 37/2/3
f 39/1/3 37/1/3 33/1/3
f 40/1/3 37/1/3 39/1/3
f 41/1/3 32/1/3 31/1/3
f 42/1/3 32/1/3 41/1/3
f 45/2/3 44/2/3 43/2/3
f 46/2/3 44/2/3 45/2/3
f 47/1/4 48/1/4 49/1/4
f 49/1/4 48/1/4 50/1/4
f 51/1/4 52/1/4 53/1/4
f 53/1/4 52/1/4 54/1/4
f 55/1/4 56/1/4 57/1/4
f 57/1/4 56/1/4 58/1/4
f 57/2/4 58/2/4 60/2/4
f 58/2/4 59/2/4 60/2/4
f 60/2/4 59/2/4 61/2/4
f 61/2/4 59/2/4 62/2/4
f 60/1/4 61/1/4 63/1/4
f 63/1/4 61/1/4 64/1/4
f 67/1/5 66/1/5 65/1/5
f 68/1/5 66/1/5 67/1/5
f 69/1/5 67/1/5 65/1/5
f 70/2/5 68/2/5 67/2/5
f 70/1/5 67/1/5 69/1/5
f 71/1/5 66/1/5 68/1/5
f 71/2/5 68/2/5 70/2/5
f 72/1/5 66/1/5 71/1/5
f 75/1/5 74/1/5 73/1/5
f 76/1/5 74/1/5 75/1/5
f 77/1/5 74/1/5 76/1/5
f 78/1/5 74/1/5 77/1/5
f 79/1/6 80/1/6 81/1/6
f 81/1/6 80/1/6 82/1/6
f 79/1/6 81/1/6 83/1/6
f 83/1/6 81/1/6 84/1/6
f 82/1/6 80/1/6 85/1/6
f 85/1/6 80/1/6 86/1/6
f 87/1/6 88/1/6 91/1/6
f 91/1/6 88/1/6 92/1/6
f 89/1/6 90/1/6 93/1/6
f 93/1/6 90/1/6 94/1/6
f 95/2/6 96/2/6 97/2/6
f 97/2/6 96/2/6 98/2/6
