# MagicaVoxel @ Ephtracy

# group
o botiquin

# material
mtllib hospital_interior-1-botiquin.mtl
usemtl palette

# normals
vn -1 0 0
vn 1 0 0
vn 0 0 1
vn 0 0 -1
vn 0 -1 0
vn 0 1 0

# texcoords
vt 0.912109 0.5
vt 0.916016 0.5
vt 0.994141 0.5

# verts
v 3.6 3.4 -5
v 3.6 3.4 -6
v 3.6 5.9 -5
v 3.6 5.9 -6
v 6.6 3.4 -5
v 6.6 3.4 -6
v 6.6 4.3 -5
v 6.6 4.3 -5.1
v 6.6 4.9 -5
v 6.6 4.9 -5.1
v 6.6 5.9 -5
v 6.6 5.9 -6
v 3.6 3.4 -5
v 3.6 5.9 -5
v 4.1 4.5 -5
v 4.1 4.8 -5
v 4.7 3.9 -5
v 4.7 4.5 -5
v 4.7 4.8 -5
v 4.7 5.4 -5
v 5 3.9 -5
v 5 4.5 -5
v 5 4.8 -5
v 5 5.4 -5
v 5.6 4.5 -5
v 5.6 4.8 -5
v 6.3 4.3 -5
v 6.3 4.9 -5
v 6.6 3.4 -5
v 6.6 4.3 -5
v 6.6 4.9 -5
v 6.6 5.9 -5
v 3.6 3.4 -6
v 3.6 5.9 -6
v 6.6 3.4 -6
v 6.6 5.9 -6
v 3.6 3.4 -5
v 6.6 3.4 -5
v 3.6 3.4 -6
v 6.6 3.4 -6
v 3.6 5.9 -5
v 6.6 5.9 -5
v 3.6 5.9 -6
v 6.6 5.9 -6

# faces
f 3/1/1 2/1/1 1/1/1
f 4/1/1 2/1/1 3/1/1
f 5/1/2 6/1/2 7/1/2
f 7/1/2 6/1/2 8/1/2
f 7/3/2 8/3/2 9/3/2
f 8/1/2 6/1/2 10/1/2
f 9/3/2 8/3/2 10/3/2
f 9/1/2 10/1/2 11/1/2
f 10/1/2 6/1/2 12/1/2
f 11/1/2 10/1/2 12/1/2
f 15/1/3 14/1/3 13/1/3
f 16/1/3 14/1/3 15/1/3
f 17/1/3 15/1/3 13/1/3
f 18/2/3 16/2/3 15/2/3
f 18/1/3 15/1/3 17/1/3
f 19/1/3 14/1/3 16/1/3
f 19/2/3 16/2/3 18/2/3
f 20/1/3 14/1/3 19/1/3
f 21/2/3 18/2/3 17/2/3
f 21/1/3 17/1/3 13/1/3
f 21/2/3 20/2/3 19/2/3
f 21/2/3 19/2/3 18/2/3
f 22/2/3 20/2/3 21/2/3
f 23/2/3 20/2/3 22/2/3
f 24/1/3 14/1/3 20/1/3
f 24/2/3 20/2/3 23/2/3
f 25/2/3 23/2/3 22/2/3
f 25/1/3 22/1/3 21/1/3
f 26/1/3 24/1/3 23/1/3
f 26/2/3 23/2/3 25/2/3
f 27/1/3 25/1/3 21/1/3
f 27/1/3 26/1/3 25/1/3
f 28/1/3 24/1/3 26/1/3
f 28/1/3 26/1/3 27/1/3
f 29/1/3 21/1/3 13/1/3
f 29/1/3 27/1/3 21/1/3
f 30/3/3 28/3/3 27/3/3
f 30/1/3 27/1/3 29/1/3
f 31/1/3 24/1/3 28/1/3
f 31/3/3 28/3/3 30/3/3
f 32/1/3 14/1/3 24/1/3
f 32/1/3 24/1/3 31/1/3
f 33/1/4 34/1/4 35/1/4
f 35/1/4 34/1/4 36/1/4
f 39/1/5 38/1/5 37/1/5
f 40/1/5 38/1/5 39/1/5
f 41/1/6 42/1/6 43/1/6
f 43/1/6 42/1/6 44/1/6
