# MagicaVoxel @ Ephtracy

# group
o cama

# material
mtllib hospital_interior-8-cama.mtl
usemtl palette

# normals
vn -1 0 0
vn 1 0 0
vn 0 0 1
vn 0 0 -1
vn 0 -1 0
vn 0 1 0

# texcoords
vt 0.939453 0.5
vt 0.970703 0.5
vt 0.974609 0.5

# verts
v 6.8 0.5 0
v 6.8 0.5 -0.3
v 6.8 0.5 -5.7
v 6.8 0.5 -6
v 6.8 1 -0.3
v 6.8 1 -5.7
v 6.8 1.1 -0.3
v 6.8 1.1 -4.6
v 6.8 1.1 -5.7
v 6.8 1.2 -4.6
v 6.8 1.2 -5.7
v 6.8 1.6 -0.3
v 6.8 1.6 -4
v 6.8 1.6 -4.6
v 6.8 1.6 -5.7
v 6.8 1.7 -4
v 6.8 1.7 -4.6
v 6.8 1.8 0
v 6.8 1.8 -0.3
v 6.8 2.3 -5.7
v 6.8 2.3 -6
v 6.9 1.1 -4.6
v 6.9 1.1 -5.7
v 6.9 1.2 -4.6
v 6.9 1.2 -5.7
v 7.3 1.6 -4.7
v 7.3 1.6 -5.6
v 7.3 1.8 -4.7
v 7.3 1.8 -5.6
v 7.4 1.6 -4.6
v 7.4 1.6 -4.7
v 7.4 1.6 -5.6
v 7.4 1.6 -5.7
v 7.4 1.7 -4.6
v 7.4 1.8 -4.6
v 7.4 1.8 -4.7
v 7.4 1.8 -5.6
v 7.4 1.8 -5.7
v 7.5 1.8 -4.9
v 7.5 1.8 -5.4
v 7.5 2 -4.9
v 7.5 2 -5.4
v 7.6 1.8 -4.8
v 7.6 1.8 -4.9
v 7.6 1.8 -5.4
v 7.6 1.8 -5.5
v 7.6 2 -4.8
v 7.6 2 -4.9
v 7.6 2 -5.4
v 7.6 2 -5.5
v 7.7 2 -5
v 7.7 2 -5.3
v 7.7 2.2 -5
v 7.7 2.2 -5.3
v 7.8 2 -4.9
v 7.8 2 -5
v 7.8 2 -5.3
v 7.8 2 -5.4
v 7.8 2.2 -4.9
v 7.8 2.2 -5
v 7.8 2.2 -5.3
v 7.8 2.2 -5.4
v 9.5 0.5 0
v 9.5 0.5 -0.3
v 9.5 0.5 -5.7
v 9.5 0.5 -6
v 9.5 0.9 0
v 9.5 0.9 -0.3
v 9.5 0.9 -5.7
v 9.5 0.9 -6
v 9.5 1.1 0
v 9.5 1.1 -0.1
v 9.5 1.6 0
v 9.5 1.6 -0.1
v 9.6 1.1 -5.9
v 9.6 1.1 -6
v 9.6 2.1 -5.9
v 9.6 2.1 -6
v 7 1.1 -5.9
v 7 1.1 -6
v 7 2.1 -5.9
v 7 2.1 -6
v 7.1 0.5 0
v 7.1 0.5 -0.3
v 7.1 0.5 -5.7
v 7.1 0.5 -6
v 7.1 0.9 0
v 7.1 0.9 -0.3
v 7.1 0.9 -5.7
v 7.1 0.9 -6
v 7.1 1.1 0
v 7.1 1.1 -0.1
v 7.1 1.6 0
v 7.1 1.6 -0.1
v 8.8 2 -4.9
v 8.8 2 -5
v 8.8 2 -5.3
v 8.8 2 -5.4
v 8.8 2.2 -4.9
v 8.8 2.2 -5
v 8.8 2.2 -5.3
v 8.8 2.2 -5.4
v 8.9 2 -5
v 8.9 2 -5.3
v 8.9 2.2 -5
v 8.9 2.2 -5.3
v 9 1.8 -4.8
v 9 1.8 -4.9
v 9 1.8 -5.4
v 9 1.8 -5.5
v 9 2 -4.8
v 9 2 -4.9
v 9 2 -5.4
v 9 2 -5.5
v 9.1 1.8 -4.9
v 9.1 1.8 -5.4
v 9.1 2 -4.9
v 9.1 2 -5.4
v 9.2 1.6 -4.6
v 9.2 1.6 -4.7
v 9.2 1.6 -5.6
v 9.2 1.6 -5.7
v 9.2 1.7 -4.6
v 9.2 1.8 -4.6
v 9.2 1.8 -4.7
v 9.2 1.8 -5.6
v 9.2 1.8 -5.7
v 9.3 1.6 -4.7
v 9.3 1.6 -5.6
v 9.3 1.8 -4.7
v 9.3 1.8 -5.6
v 9.7 1.1 -4.6
v 9.7 1.1 -5.7
v 9.7 1.2 -4.6
v 9.7 1.2 -5.7
v 9.8 0.5 0
v 9.8 0.5 -0.3
v 9.8 0.5 -5.7
v 9.8 0.5 -6
v 9.8 1 -0.3
v 9.8 1 -5.7
v 9.8 1.1 -0.3
v 9.8 1.1 -4.6
v 9.8 1.1 -5.7
v 9.8 1.2 -4.6
v 9.8 1.2 -5.7
v 9.8 1.6 -0.3
v 9.8 1.6 -4
v 9.8 1.6 -4.6
v 9.8 1.6 -5.7
v 9.8 1.7 -4
v 9.8 1.7 -4.6
v 9.8 1.8 0
v 9.8 1.8 -0.3
v 9.8 2.3 -5.7
v 9.8 2.3 -6
v 6.8 0.5 0
v 6.8 1.8 0
v 7.1 0.5 0
v 7.1 0.9 0
v 7.1 1.1 0
v 7.1 1.6 0
v 9.5 0.5 0
v 9.5 0.9 0
v 9.5 1.1 0
v 9.5 1.6 0
v 9.8 0.5 0
v 9.8 1.8 0
v 7.1 1.1 -0.1
v 7.1 1.6 -0.1
v 9.5 1.1 -0.1
v 9.5 1.6 -0.1
v 6.8 1.6 -4
v 6.8 1.7 -4
v 9.8 1.6 -4
v 9.8 1.7 -4
v 7.4 1.7 -4.6
v 7.4 1.8 -4.6
v 9.2 1.7 -4.6
v 9.2 1.8 -4.6
v 7.3 1.6 -4.7
v 7.3 1.8 -4.7
v 7.4 1.6 -4.7
v 7.4 1.8 -4.7
v 9.2 1.6 -4.7
v 9.2 1.8 -4.7
v 9.3 1.6 -4.7
v 9.3 1.8 -4.7
v 7.6 1.8 -4.8
v 7.6 2 -4.8
v 9 1.8 -4.8
v 9 2 -4.8
v 7.5 1.8 -4.9
v 7.5 2 -4.9
v 7.6 1.8 -4.9
v 7.6 2 -4.9
v 7.8 2 -4.9
v 7.8 2.2 -4.9
v 8.8 2 -4.9
v 8.8 2.2 -4.9
v 9 1.8 -4.9
v 9 2 -4.9
v 9.1 1.8 -4.9
v 9.1 2 -4.9
v 7.7 2 -5
v 7.7 2.2 -5
v 7.8 2 -5
v 7.8 2.2 -5
v 8.8 2 -5
v 8.8 2.2 -5
v 8.9 2 -5
v 8.9 2.2 -5
v 6.8 0.5 -5.7
v 6.8 1 -5.7
v 6.8 1.1 -5.7
v 6.8 1.2 -5.7
v 6.8 1.6 -5.7
v 6.8 2.3 -5.7
v 6.9 1.1 -5.7
v 6.9 1.2 -5.7
v 7.1 0.5 -5.7
v 7.1 0.9 -5.7
v 7.4 1.6 -5.7
v 7.4 1.8 -5.7
v 9.2 1.6 -5.7
v 9.2 1.8 -5.7
v 9.5 0.5 -5.7
v 9.5 0.9 -5.7
v 9.7 1.1 -5.7
v 9.7 1.2 -5.7
v 9.8 0.5 -5.7
v 9.8 1 -5.7
v 9.8 1.1 -5.7
v 9.8 1.2 -5.7
v 9.8 1.6 -5.7
v 9.8 2.3 -5.7
v 6.8 0.5 -0.3
v 6.8 1 -0.3
v 6.8 1.6 -0.3
v 6.8 1.8 -0.3
v 7.1 0.5 -0.3
v 7.1 0.9 -0.3
v 9.5 0.5 -0.3
v 9.5 0.9 -0.3
v 9.8 0.5 -0.3
v 9.8 1 -0.3
v 9.8 1.6 -0.3
v 9.8 1.8 -0.3
v 6.8 1.1 -4.6
v 6.8 1.2 -4.6
v 6.8 1.6 -4.6
v 6.8 1.7 -4.6
v 6.9 1.1 -4.6
v 6.9 1.2 -4.6
v 7.4 1.6 -4.6
v 7.4 1.7 -4.6
v 9.2 1.6 -4.6
v 9.2 1.7 -4.6
v 9.7 1.1 -4.6
v 9.7 1.2 -4.6
v 9.8 1.1 -4.6
v 9.8 1.2 -4.6
v 9.8 1.6 -4.6
v 9.8 1.7 -4.6
v 7.7 2 -5.3
v 7.7 2.2 -5.3
v 7.8 2 -5.3
v 7.8 2.2 -5.3
v 8.8 2 -5.3
v 8.8 2.2 -5.3
v 8.9 2 -5.3
v 8.9 2.2 -5.3
v 7.5 1.8 -5.4
v 7.5 2 -5.4
v 7.6 1.8 -5.4
v 7.6 2 -5.4
v 7.8 2 -5.4
v 7.8 2.2 -5.4
v 8.8 2 -5.4
v 8.8 2.2 -5.4
v 9 1.8 -5.4
v 9 2 -5.4
v 9.1 1.8 -5.4
v 9.1 2 -5.4
v 7.6 1.8 -5.5
v 7.6 2 -5.5
v 9 1.8 -5.5
v 9 2 -5.5
v 7.3 1.6 -5.6
v 7.3 1.8 -5.6
v 7.4 1.6 -5.6
v 7.4 1.8 -5.6
v 9.2 1.6 -5.6
v 9.2 1.8 -5.6
v 9.3 1.6 -5.6
v 9.3 1.8 -5.6
v 7 1.1 -5.9
v 7 2.1 -5.9
v 9.6 1.1 -5.9
v 9.6 2.1 -5.9
v 6.8 0.5 -6
v 6.8 2.3 -6
v 7 1.1 -6
v 7 2.1 -6
v 7.1 0.5 -6
v 7.1 0.9 -6
v 9.5 0.5 -6
v 9.5 0.9 -6
v 9.6 1.1 -6
v 9.6 2.1 -6
v 9.8 0.5 -6
v 9.8 2.3 -6
v 6.8 0.5 0
v 7.1 0.5 0
v 9.5 0.5 0
v 9.8 0.5 0
v 6.8 0.5 -0.3
v 7.1 0.5 -0.3
v 9.5 0.5 -0.3
v 9.8 0.5 -0.3
v 6.8 0.5 -5.7
v 7.1 0.5 -5.7
v 9.5 0.5 -5.7
v 9.8 0.5 -5.7
v 6.8 0.5 -6
v 7.1 0.5 -6
v 9.5 0.5 -6
v 9.8 0.5 -6
v 7.1 0.9 0
v 9.5 0.9 0
v 7.1 0.9 -0.3
v 9.5 0.9 -0.3
v 7.1 0.9 -5.7
v 9.5 0.9 -5.7
v 7.1 0.9 -6
v 9.5 0.9 -6
v 6.8 1 -0.3
v 9.8 1 -0.3
v 6.8 1 -5.7
v 9.8 1 -5.7
v 6.8 1.2 -4.6
v 6.9 1.2 -4.6
v 9.7 1.2 -4.6
v 9.8 1.2 -4.6
v 6.8 1.2 -5.7
v 6.9 1.2 -5.7
v 9.7 1.2 -5.7
v 9.8 1.2 -5.7
v 7.1 1.6 0
v 9.5 1.6 0
v 7.1 1.6 -0.1
v 9.5 1.6 -0.1
v 7 2.1 -5.9
v 9.6 2.1 -5.9
v 7 2.1 -6
v 9.6 2.1 -6
v 7.1 1.1 0
v 9.5 1.1 0
v 7.1 1.1 -0.1
v 9.5 1.1 -0.1
v 6.8 1.1 -4.6
v 6.9 1.1 -4.6
v 9.7 1.1 -4.6
v 9.8 1.1 -4.6
v 6.8 1.1 -5.7
v 6.9 1.1 -5.7
v 9.7 1.1 -5.7
v 9.8 1.1 -5.7
v 7 1.1 -5.9
v 9.6 1.1 -5.9
v 7 1.1 -6
v 9.6 1.1 -6
v 6.8 1.6 -0.3
v 9.8 1.6 -0.3
v 6.8 1.6 -4
v 9.8 1.6 -4
v 6.8 1.6 -4.6
v 7.4 1.6 -4.6
v 9.2 1.6 -4.6
v 9.8 1.6 -4.6
v 7.3 1.6 -4.7
v 7.4 1.6 -4.7
v 9.2 1.6 -4.7
v 9.3 1.6 -4.7
v 7.3 1.6 -5.6
v 7.4 1.6 -5.6
v 9.2 1.6 -5.6
v 9.3 1.6 -5.6
v 6.8 1.6 -5.7
v 7.4 1.6 -5.7
v 9.2 1.6 -5.7
v 9.8 1.6 -5.7
v 6.8 1.7 -4
v 9.8 1.7 -4
v 6.8 1.7 -4.6
v 7.4 1.7 -4.6
v 9.2 1.7 -4.6
v 9.8 1.7 -4.6
v 6.8 1.8 0
v 9.8 1.8 0
v 6.8 1.8 -0.3
v 9.8 1.8 -0.3
v 7.4 1.8 -4.6
v 9.2 1.8 -4.6
v 7.3 1.8 -4.7
v 7.4 1.8 -4.7
v 9.2 1.8 -4.7
v 9.3 1.8 -4.7
v 7.6 1.8 -4.8
v 9 1.8 -4.8
v 7.5 1.8 -4.9
v 7.6 1.8 -4.9
v 9 1.8 -4.9
v 9.1 1.8 -4.9
v 7.5 1.8 -5.4
v 7.6 1.8 -5.4
v 9 1.8 -5.4
v 9.1 1.8 -5.4
v 7.6 1.8 -5.5
v 9 1.8 -5.5
v 7.3 1.8 -5.6
v 7.4 1.8 -5.6
v 9.2 1.8 -5.6
v 9.3 1.8 -5.6
v 7.4 1.8 -5.7
v 9.2 1.8 -5.7
v 7.6 2 -4.8
v 9 2 -4.8
v 7.5 2 -4.9
v 7.6 2 -4.9
v 7.8 2 -4.9
v 8.8 2 -4.9
v 9 2 -4.9
v 9.1 2 -4.9
v 7.7 2 -5
v 7.8 2 -5
v 8.8 2 -5
v 8.9 2 -5
v 7.7 2 -5.3
v 7.8 2 -5.3
v 8.8 2 -5.3
v 8.9 2 -5.3
v 7.5 2 -5.4
v 7.6 2 -5.4
v 7.8 2 -5.4
v 8.8 2 -5.4
v 9 2 -5.4
v 9.1 2 -5.4
v 7.6 2 -5.5
v 9 2 -5.5
v 7.8 2.2 -4.9
v 8.8 2.2 -4.9
v 7.7 2.2 -5
v 7.8 2.2 -5
v 8.8 2.2 -5
v 8.9 2.2 -5
v 7.7 2.2 -5.3
v 7.8 2.2 -5.3
v 8.8 2.2 -5.3
v 8.9 2.2 -5.3
v 7.8 2.2 -5.4
v 8.8 2.2 -5.4
v 6.8 2.3 -5.7
v 9.8 2.3 -5.7
v 6.8 2.3 -6
v 9.8 2.3 -6

# faces
f 5/1/1 2/1/1 1/1/1
f 6/1/1 4/1/1 3/1/1
f 7/1/1 5/1/1 1/1/1
f 7/1/1 6/1/1 5/1/1
f 8/1/1 6/1/1 7/1/1
f 9/1/1 4/1/1 6/1/1
f 9/1/1 6/1/1 8/1/1
f 10/2/1 8/2/1 7/2/1
f 11/1/1 4/1/1 9/1/1
f 12/2/1 10/2/1 7/2/1
f 12/1/1 7/1/1 1/1/1
f 13/2/1 10/2/1 12/2/1
f 14/3/1 11/3/1 10/3/1
f 14/2/1 10/2/1 13/2/1
f 15/1/1 4/1/1 11/1/1
f 15/3/1 11/3/1 14/3/1
f 16/2/1 14/2/1 13/2/1
f 17/2/1 14/2/1 16/2/1
f 18/1/1 12/1/1 1/1/1
f 19/1/1 12/1/1 18/1/1
f 20/1/1 4/1/1 15/1/1
f 21/1/1 4/1/1 20/1/1
f 24/3/1 23/3/1 22/3/1
f 25/3/1 23/3/1 24/3/1
f 28/3/1 27/3/1 26/3/1
f 29/3/1 27/3/1 28/3/1
f 34/3/1 31/3/1 30/3/1
f 35/3/1 31/3/1 34/3/1
f 36/3/1 31/3/1 35/3/1
f 37/3/1 33/3/1 32/3/1
f 38/3/1 33/3/1 37/3/1
f 41/3/1 40/3/1 39/3/1
f 42/3/1 40/3/1 41/3/1
f 47/3/1 44/3/1 43/3/1
f 48/3/1 44/3/1 47/3/1
f 49/3/1 46/3/1 45/3/1
f 50/3/1 46/3/1 49/3/1
f 53/3/1 52/3/1 51/3/1
f 54/3/1 52/3/1 53/3/1
f 59/3/1 56/3/1 55/3/1
f 60/3/1 56/3/1 59/3/1
f 61/3/1 58/3/1 57/3/1
f 62/3/1 58/3/1 61/3/1
f 67/1/1 64/1/1 63/1/1
f 68/1/1 64/1/1 67/1/1
f 69/1/1 66/1/1 65/1/1
f 70/1/1 66/1/1 69/1/1
f 73/1/1 72/1/1 71/1/1
f 74/1/1 72/1/1 73/1/1
f 77/1/1 76/1/1 75/1/1
f 78/1/1 76/1/1 77/1/1
f 79/1/2 80/1/2 81/1/2
f 81/1/2 80/1/2 82/1/2
f 83/1/2 84/1/2 87/1/2
f 87/1/2 84/1/2 88/1/2
f 85/1/2 86/1/2 89/1/2
f 89/1/2 86/1/2 90/1/2
f 91/1/2 92/1/2 93/1/2
f 93/1/2 92/1/2 94/1/2
f 95/3/2 96/3/2 99/3/2
f 99/3/2 96/3/2 100/3/2
f 97/3/2 98/3/2 101/3/2
f 101/3/2 98/3/2 102/3/2
f 103/3/2 104/3/2 105/3/2
f 105/3/2 104/3/2 106/3/2
f 107/3/2 108/3/2 111/3/2
f 111/3/2 108/3/2 112/3/2
f 109/3/2 110/3/2 113/3/2
f 113/3/2 110/3/2 114/3/2
f 115/3/2 116/3/2 117/3/2
f 117/3/2 116/3/2 118/3/2
f 119/3/2 120/3/2 123/3/2
f 123/3/2 120/3/2 124/3/2
f 124/3/2 120/3/2 125/3/2
f 121/3/2 122/3/2 126/3/2
f 126/3/2 122/3/2 127/3/2
f 128/3/2 129/3/2 130/3/2
f 130/3/2 129/3/2 131/3/2
f 132/3/2 133/3/2 134/3/2
f 134/3/2 133/3/2 135/3/2
f 136/1/2 137/1/2 140/1/2
f 138/1/2 139/1/2 141/1/2
f 136/1/2 140/1/2 142/1/2
f 140/1/2 141/1/2 142/1/2
f 142/1/2 141/1/2 143/1/2
f 141/1/2 139/1/2 144/1/2
f 143/1/2 141/1/2 144/1/2
f 142/2/2 143/2/2 145/2/2
f 144/1/2 139/1/2 146/1/2
f 142/2/2 145/2/2 147/2/2
f 136/1/2 142/1/2 147/1/2
f 147/2/2 145/2/2 148/2/2
f 145/3/2 146/3/2 149/3/2
f 148/2/2 145/2/2 149/2/2
f 146/1/2 139/1/2 150/1/2
f 149/3/2 146/3/2 150/3/2
f 148/2/2 149/2/2 151/2/2
f 151/2/2 149/2/2 152/2/2
f 136/1/2 147/1/2 153/1/2
f 153/1/2 147/1/2 154/1/2
f 150/1/2 139/1/2 155/1/2
f 155/1/2 139/1/2 156/1/2
f 159/1/3 158/1/3 157/1/3
f 160/1/3 158/1/3 159/1/3
f 161/1/3 158/1/3 160/1/3
f 162/1/3 158/1/3 161/1/3
f 164/1/3 161/1/3 160/1/3
f 165/1/3 161/1/3 164/1/3
f 166/1/3 158/1/3 162/1/3
f 167/1/3 165/1/3 164/1/3
f 167/1/3 166/1/3 165/1/3
f 167/1/3 164/1/3 163/1/3
f 168/1/3 158/1/3 166/1/3
f 168/1/3 166/1/3 167/1/3
f 171/1/3 170/1/3 169/1/3
f 172/1/3 170/1/3 171/1/3
f 175/2/3 174/2/3 173/2/3
f 176/2/3 174/2/3 175/2/3
f 179/3/3 178/3/3 177/3/3
f 180/3/3 178/3/3 179/3/3
f 183/3/3 182/3/3 181/3/3
f 184/3/3 182/3/3 183/3/3
f 187/3/3 186/3/3 185/3/3
f 188/3/3 186/3/3 187/3/3
f 191/3/3 190/3/3 189/3/3
f 192/3/3 190/3/3 191/3/3
f 195/3/3 194/3/3 193/3/3
f 196/3/3 194/3/3 195/3/3
f 199/3/3 198/3/3 197/3/3
f 200/3/3 198/3/3 199/3/3
f 203/3/3 202/3/3 201/3/3
f 204/3/3 202/3/3 203/3/3
f 207/3/3 206/3/3 205/3/3
f 208/3/3 206/3/3 207/3/3
f 211/3/3 210/3/3 209/3/3
f 212/3/3 210/3/3 211/3/3
f 219/1/3 216/1/3 215/1/3
f 220/1/3 216/1/3 219/1/3
f 221/1/3 214/1/3 213/1/3
f 222/1/3 214/1/3 221/1/3
f 223/1/3 218/1/3 217/1/3
f 224/1/3 218/1/3 223/1/3
f 226/1/3 218/1/3 224/1/3
f 228/1/3 214/1/3 222/1/3
f 231/1/3 228/1/3 227/1/3
f 232/1/3 214/1/3 228/1/3
f 232/1/3 228/1/3 231/1/3
f 233/1/3 230/1/3 229/1/3
f 234/1/3 230/1/3 233/1/3
f 235/1/3 226/1/3 225/1/3
f 236/1/3 218/1/3 226/1/3
f 236/1/3 226/1/3 235/1/3
f 237/1/4 238/1/4 241/1/4
f 241/1/4 238/1/4 242/1/4
f 242/1/4 238/1/4 244/1/4
f 243/1/4 244/1/4 245/1/4
f 244/1/4 238/1/4 246/1/4
f 245/1/4 244/1/4 246/1/4
f 239/1/4 240/1/4 247/1/4
f 247/1/4 240/1/4 248/1/4
f 249/2/4 250/2/4 253/2/4
f 253/2/4 250/2/4 254/2/4
f 251/2/4 252/2/4 255/2/4
f 255/2/4 252/2/4 256/2/4
f 259/2/4 260/2/4 261/2/4
f 261/2/4 260/2/4 262/2/4
f 257/2/4 258/2/4 263/2/4
f 263/2/4 258/2/4 264/2/4
f 265/3/4 266/3/4 267/3/4
f 267/3/4 266/3/4 268/3/4
f 269/3/4 270/3/4 271/3/4
f 271/3/4 270/3/4 272/3/4
f 273/3/4 274/3/4 275/3/4
f 275/3/4 274/3/4 276/3/4
f 277/3/4 278/3/4 279/3/4
f 279/3/4 278/3/4 280/3/4
f 281/3/4 282/3/4 283/3/4
f 283/3/4 282/3/4 284/3/4
f 285/3/4 286/3/4 287/3/4
f 287/3/4 286/3/4 288/3/4
f 289/3/4 290/3/4 291/3/4
f 291/3/4 290/3/4 292/3/4
f 293/3/4 294/3/4 295/3/4
f 295/3/4 294/3/4 296/3/4
f 297/1/4 298/1/4 299/1/4
f 299/1/4 298/1/4 300/1/4
f 301/1/4 302/1/4 303/1/4
f 303/1/4 302/1/4 304/1/4
f 301/1/4 303/1/4 305/1/4
f 305/1/4 303/1/4 306/1/4
f 306/1/4 303/1/4 308/1/4
f 308/1/4 303/1/4 309/1/4
f 307/1/4 308/1/4 309/1/4
f 304/1/4 302/1/4 310/1/4
f 307/1/4 309/1/4 311/1/4
f 309/1/4 310/1/4 311/1/4
f 310/1/4 302/1/4 312/1/4
f 311/1/4 310/1/4 312/1/4
f 317/1/5 314/1/5 313/1/5
f 318/1/5 314/1/5 317/1/5
f 319/1/5 316/1/5 315/1/5
f 320/1/5 316/1/5 319/1/5
f 325/1/5 322/1/5 321/1/5
f 326/1/5 322/1/5 325/1/5
f 327/1/5 324/1/5 323/1/5
f 328/1/5 324/1/5 327/1/5
f 331/1/5 330/1/5 329/1/5
f 332/1/5 330/1/5 331/1/5
f 335/1/5 334/1/5 333/1/5
f 336/1/5 334/1/5 335/1/5
f 339/1/5 338/1/5 337/1/5
f 340/1/5 338/1/5 339/1/5
f 345/3/5 342/3/5 341/3/5
f 346/3/5 342/3/5 345/3/5
f 347/3/5 344/3/5 343/3/5
f 348/3/5 344/3/5 347/3/5
f 351/1/5 350/1/5 349/1/5
f 352/1/5 350/1/5 351/1/5
f 355/1/5 354/1/5 353/1/5
f 356/1/5 354/1/5 355/1/5
f 357/1/6 358/1/6 359/1/6
f 359/1/6 358/1/6 360/1/6
f 361/1/6 362/1/6 365/1/6
f 365/1/6 362/1/6 366/1/6
f 363/1/6 364/1/6 367/1/6
f 367/1/6 364/1/6 368/1/6
f 369/1/6 370/1/6 371/1/6
f 371/1/6 370/1/6 372/1/6
f 373/2/6 374/2/6 375/2/6
f 375/2/6 374/2/6 376/2/6
f 377/3/6 378/3/6 381/3/6
f 381/3/6 378/3/6 382/3/6
f 379/3/6 380/3/6 383/3/6
f 383/3/6 380/3/6 384/3/6
f 377/3/6 381/3/6 385/3/6
f 384/3/6 380/3/6 388/3/6
f 385/3/6 386/3/6 389/3/6
f 377/3/6 385/3/6 389/3/6
f 389/3/6 386/3/6 390/3/6
f 387/3/6 388/3/6 391/3/6
f 388/3/6 380/3/6 392/3/6
f 391/3/6 388/3/6 392/3/6
f 393/2/6 394/2/6 395/2/6
f 395/2/6 394/2/6 396/2/6
f 396/2/6 394/2/6 397/2/6
f 397/2/6 394/2/6 398/2/6
f 399/1/6 400/1/6 401/1/6
f 401/1/6 400/1/6 402/1/6
f 403/3/6 404/3/6 406/3/6
f 406/3/6 404/3/6 407/3/6
f 405/3/6 406/3/6 409/3/6
f 407/3/6 408/3/6 409/3/6
f 406/3/6 407/3/6 409/3/6
f 409/3/6 408/3/6 410/3/6
f 405/3/6 409/3/6 411/3/6
f 411/3/6 409/3/6 412/3/6
f 410/3/6 408/3/6 413/3/6
f 413/3/6 408/3/6 414/3/6
f 405/3/6 411/3/6 415/3/6
f 414/3/6 408/3/6 418/3/6
f 415/3/6 416/3/6 419/3/6
f 417/3/6 418/3/6 420/3/6
f 415/3/6 419/3/6 421/3/6
f 419/3/6 420/3/6 421/3/6
f 405/3/6 415/3/6 421/3/6
f 421/3/6 420/3/6 422/3/6
f 420/3/6 418/3/6 423/3/6
f 422/3/6 420/3/6 423/3/6
f 418/3/6 408/3/6 423/3/6
f 423/3/6 408/3/6 424/3/6
f 422/3/6 423/3/6 425/3/6
f 425/3/6 423/3/6 426/3/6
f 427/3/6 428/3/6 430/3/6
f 430/3/6 428/3/6 431/3/6
f 431/3/6 428/3/6 432/3/6
f 432/3/6 428/3/6 433/3/6
f 429/3/6 430/3/6 435/3/6
f 430/3/6 431/3/6 435/3/6
f 435/3/6 431/3/6 436/3/6
f 433/3/6 434/3/6 437/3/6
f 432/3/6 433/3/6 437/3/6
f 437/3/6 434/3/6 438/3/6
f 429/3/6 435/3/6 439/3/6
f 438/3/6 434/3/6 442/3/6
f 439/3/6 440/3/6 443/3/6
f 429/3/6 439/3/6 443/3/6
f 443/3/6 440/3/6 444/3/6
f 444/3/6 440/3/6 445/3/6
f 441/3/6 442/3/6 446/3/6
f 442/3/6 434/3/6 447/3/6
f 446/3/6 442/3/6 447/3/6
f 447/3/6 434/3/6 448/3/6
f 444/3/6 445/3/6 449/3/6
f 445/3/6 446/3/6 449/3/6
f 446/3/6 447/3/6 449/3/6
f 449/3/6 447/3/6 450/3/6
f 451/3/6 452/3/6 454/3/6
f 454/3/6 452/3/6 455/3/6
f 453/3/6 454/3/6 457/3/6
f 455/3/6 456/3/6 457/3/6
f 454/3/6 455/3/6 457/3/6
f 457/3/6 456/3/6 458/3/6
f 458/3/6 456/3/6 459/3/6
f 459/3/6 456/3/6 460/3/6
f 458/3/6 459/3/6 461/3/6
f 461/3/6 459/3/6 462/3/6
f 463/1/6 464/1/6 465/1/6
f 465/1/6 464/1/6 466/1/6
