# MagicaVoxel @ Ephtracy

# group
o 

# material
mtllib gabinete.mtl
usemtl palette

# normals
vn -1 0 0
vn 1 0 0
vn 0 0 1
vn 0 0 -1
vn 0 -1 0
vn 0 1 0

# texcoords
vt 0.373047 0.5
vt 0.841797 0.5
vt 0.919922 0.5
vt 0.958984 0.5
vt 0.970703 0.5
vt 0.974609 0.5
vt 0.978516 0.5
vt 0.986328 0.5
vt 0.994141 0.5

# verts
v 1.4 2 -1.3
v 1.4 2 -2.2
v 1.4 2.1 -1.6
v 1.4 2.1 -1.9
v 1.4 2.2 -1.5
v 1.4 2.2 -1.6
v 1.4 2.2 -1.9
v 1.4 2.2 -2
v 1.4 2.3 -1.4
v 1.4 2.3 -1.5
v 1.4 2.3 -2
v 1.4 2.3 -2.1
v 1.4 2.4 -1.7
v 1.4 2.4 -1.8
v 1.4 2.5 -1.7
v 1.4 2.5 -1.8
v 1.4 2.6 -1.4
v 1.4 2.6 -1.5
v 1.4 2.6 -2
v 1.4 2.6 -2.1
v 1.4 2.7 -1.5
v 1.4 2.7 -1.6
v 1.4 2.7 -1.9
v 1.4 2.7 -2
v 1.4 2.8 -1.6
v 1.4 2.8 -1.9
v 1.4 3.3 -1.4
v 1.4 3.3 -1.5
v 1.4 3.4 -1.4
v 1.4 3.4 -1.5
v 1.4 3.5 -1.4
v 1.4 3.5 -2.1
v 1.4 3.6 -1.4
v 1.4 3.6 -2.1
v 1.4 3.8 -1.3
v 1.4 3.8 -2.2
v 1.5 2.1 -1.6
v 1.5 2.1 -1.9
v 1.5 2.2 -1.5
v 1.5 2.2 -1.6
v 1.5 2.2 -1.9
v 1.5 2.2 -2
v 1.5 2.3 -1.4
v 1.5 2.3 -1.5
v 1.5 2.3 -2
v 1.5 2.3 -2.1
v 1.5 2.4 -1.7
v 1.5 2.4 -1.8
v 1.5 2.5 -1.7
v 1.5 2.5 -1.8
v 1.5 2.6 -1.4
v 1.5 2.6 -1.5
v 1.5 2.6 -2
v 1.5 2.6 -2.1
v 1.5 2.7 -1.5
v 1.5 2.7 -1.6
v 1.5 2.7 -1.9
v 1.5 2.7 -2
v 1.5 2.8 -1.6
v 1.5 2.8 -1.9
v 1.5 3.3 -1.4
v 1.5 3.3 -1.5
v 1.5 3.4 -1.4
v 1.5 3.4 -1.5
v 1.5 3.5 -1.4
v 1.5 3.5 -2.1
v 1.5 3.6 -1.4
v 1.5 3.6 -2.1
v 1.6 3.7 -1.4
v 1.6 3.7 -1.5
v 1.6 3.7 -1.7
v 1.6 3.7 -1.8
v 1.6 3.7 -1.9
v 1.6 3.7 -2.1
v 1.6 3.8 -1.4
v 1.6 3.8 -1.5
v 1.6 3.8 -1.7
v 1.6 3.8 -1.8
v 1.6 3.8 -1.9
v 1.6 3.8 -2.1
v 1.7 2.3 -2.1
v 1.7 2.3 -2.2
v 1.7 3.6 -2.1
v 1.7 3.6 -2.2
v 2.8 2.2 -2.1
v 2.8 2.2 -2.2
v 2.8 3.7 -2.1
v 2.8 3.7 -2.2
v 1.5 3.7 -1.4
v 1.5 3.7 -1.5
v 1.5 3.7 -1.7
v 1.5 3.7 -1.8
v 1.5 3.7 -1.9
v 1.5 3.7 -2.1
v 1.5 3.8 -1.4
v 1.5 3.8 -1.5
v 1.5 3.8 -1.7
v 1.5 3.8 -1.8
v 1.5 3.8 -1.9
v 1.5 3.8 -2.1
v 1.6 2.2 -2.1
v 1.6 2.2 -2.2
v 1.6 3.7 -2.1
v 1.6 3.7 -2.2
v 2.7 2.3 -2.1
v 2.7 2.3 -2.2
v 2.7 3.6 -2.1
v 2.7 3.6 -2.2
v 2.8 2.1 -1.4
v 2.8 2.1 -1.5
v 2.8 2.1 -1.6
v 2.8 2.1 -1.7
v 2.8 2.1 -1.8
v 2.8 2.1 -1.9
v 2.8 2.2 -1.4
v 2.8 2.2 -1.5
v 2.8 2.2 -1.6
v 2.8 2.2 -1.7
v 2.8 2.2 -1.8
v 2.8 2.2 -1.9
v 2.8 2.3 -1.4
v 2.8 2.3 -1.5
v 2.8 2.3 -1.6
v 2.8 2.3 -1.7
v 2.8 2.3 -1.8
v 2.8 2.3 -1.9
v 2.8 2.4 -1.4
v 2.8 2.4 -1.5
v 2.8 2.4 -1.6
v 2.8 2.4 -1.7
v 2.8 2.4 -1.8
v 2.8 2.4 -1.9
v 2.8 2.6 -1.4
v 2.8 2.6 -2
v 2.8 2.8 -1.4
v 2.8 2.8 -2
v 2.8 2.9 -1.4
v 2.8 2.9 -1.6
v 2.8 3.7 -1.4
v 2.8 3.7 -1.6
v 2.9 2 -1.3
v 2.9 2 -2.2
v 2.9 2.1 -1.4
v 2.9 2.1 -1.5
v 2.9 2.1 -1.6
v 2.9 2.1 -1.7
v 2.9 2.1 -1.8
v 2.9 2.1 -1.9
v 2.9 2.2 -1.4
v 2.9 2.2 -1.5
v 2.9 2.2 -1.6
v 2.9 2.2 -1.7
v 2.9 2.2 -1.8
v 2.9 2.2 -1.9
v 2.9 2.3 -1.4
v 2.9 2.3 -1.5
v 2.9 2.3 -1.6
v 2.9 2.3 -1.7
v 2.9 2.3 -1.8
v 2.9 2.3 -1.9
v 2.9 2.4 -1.4
v 2.9 2.4 -1.5
v 2.9 2.4 -1.6
v 2.9 2.4 -1.7
v 2.9 2.4 -1.8
v 2.9 2.4 -1.9
v 2.9 2.6 -1.4
v 2.9 2.6 -2
v 2.9 2.8 -1.4
v 2.9 2.8 -2
v 2.9 2.9 -1.4
v 2.9 2.9 -1.6
v 2.9 3.7 -1.4
v 2.9 3.7 -1.6
v 2.9 3.8 -1.3
v 2.9 3.8 -2.2
v 1.4 2 -1.3
v 1.4 3.8 -1.3
v 2.9 2 -1.3
v 2.9 3.8 -1.3
v 1.4 3.3 -1.5
v 1.4 3.4 -1.5
v 1.5 3.3 -1.5
v 1.5 3.4 -1.5
v 1.5 3.7 -1.5
v 1.5 3.8 -1.5
v 1.6 3.7 -1.5
v 1.6 3.8 -1.5
v 2.8 2.1 -1.5
v 2.8 2.2 -1.5
v 2.8 2.3 -1.5
v 2.8 2.4 -1.5
v 2.9 2.1 -1.5
v 2.9 2.2 -1.5
v 2.9 2.3 -1.5
v 2.9 2.4 -1.5
v 2.8 2.9 -1.6
v 2.8 3.7 -1.6
v 2.9 2.9 -1.6
v 2.9 3.7 -1.6
v 1.4 2.4 -1.7
v 1.4 2.5 -1.7
v 1.5 2.4 -1.7
v 1.5 2.5 -1.7
v 2.8 2.1 -1.7
v 2.8 2.2 -1.7
v 2.8 2.3 -1.7
v 2.8 2.4 -1.7
v 2.9 2.1 -1.7
v 2.9 2.2 -1.7
v 2.9 2.3 -1.7
v 2.9 2.4 -1.7
v 1.5 3.7 -1.8
v 1.5 3.8 -1.8
v 1.6 3.7 -1.8
v 1.6 3.8 -1.8
v 1.4 2.1 -1.9
v 1.4 2.2 -1.9
v 1.4 2.7 -1.9
v 1.4 2.8 -1.9
v 1.5 2.1 -1.9
v 1.5 2.2 -1.9
v 1.5 2.7 -1.9
v 1.5 2.8 -1.9
v 2.8 2.1 -1.9
v 2.8 2.2 -1.9
v 2.8 2.3 -1.9
v 2.8 2.4 -1.9
v 2.9 2.1 -1.9
v 2.9 2.2 -1.9
v 2.9 2.3 -1.9
v 2.9 2.4 -1.9
v 1.4 2.2 -2
v 1.4 2.3 -2
v 1.4 2.6 -2
v 1.4 2.7 -2
v 1.5 2.2 -2
v 1.5 2.3 -2
v 1.5 2.6 -2
v 1.5 2.7 -2
v 2.8 2.6 -2
v 2.8 2.8 -2
v 2.9 2.6 -2
v 2.9 2.8 -2
v 1.4 2.3 -2.1
v 1.4 2.6 -2.1
v 1.4 3.5 -2.1
v 1.4 3.6 -2.1
v 1.5 2.3 -2.1
v 1.5 2.6 -2.1
v 1.5 3.5 -2.1
v 1.5 3.6 -2.1
v 1.5 3.7 -2.1
v 1.5 3.8 -2.1
v 1.6 3.7 -2.1
v 1.6 3.8 -2.1
v 1.4 2.3 -1.4
v 1.4 2.6 -1.4
v 1.4 3.3 -1.4
v 1.4 3.4 -1.4
v 1.4 3.5 -1.4
v 1.4 3.6 -1.4
v 1.5 2.3 -1.4
v 1.5 2.6 -1.4
v 1.5 3.3 -1.4
v 1.5 3.4 -1.4
v 1.5 3.5 -1.4
v 1.5 3.6 -1.4
v 1.5 3.7 -1.4
v 1.5 3.8 -1.4
v 1.6 3.7 -1.4
v 1.6 3.8 -1.4
v 2.8 2.1 -1.4
v 2.8 2.2 -1.4
v 2.8 2.3 -1.4
v 2.8 2.4 -1.4
v 2.8 2.6 -1.4
v 2.8 2.8 -1.4
v 2.8 2.9 -1.4
v 2.8 3.7 -1.4
v 2.9 2.1 -1.4
v 2.9 2.2 -1.4
v 2.9 2.3 -1.4
v 2.9 2.4 -1.4
v 2.9 2.6 -1.4
v 2.9 2.8 -1.4
v 2.9 2.9 -1.4
v 2.9 3.7 -1.4
v 1.4 2.2 -1.5
v 1.4 2.3 -1.5
v 1.4 2.6 -1.5
v 1.4 2.7 -1.5
v 1.5 2.2 -1.5
v 1.5 2.3 -1.5
v 1.5 2.6 -1.5
v 1.5 2.7 -1.5
v 1.4 2.1 -1.6
v 1.4 2.2 -1.6
v 1.4 2.7 -1.6
v 1.4 2.8 -1.6
v 1.5 2.1 -1.6
v 1.5 2.2 -1.6
v 1.5 2.7 -1.6
v 1.5 2.8 -1.6
v 2.8 2.1 -1.6
v 2.8 2.2 -1.6
v 2.8 2.3 -1.6
v 2.8 2.4 -1.6
v 2.9 2.1 -1.6
v 2.9 2.2 -1.6
v 2.9 2.3 -1.6
v 2.9 2.4 -1.6
v 1.5 3.7 -1.7
v 1.5 3.8 -1.7
v 1.6 3.7 -1.7
v 1.6 3.8 -1.7
v 1.4 2.4 -1.8
v 1.4 2.5 -1.8
v 1.5 2.4 -1.8
v 1.5 2.5 -1.8
v 2.8 2.1 -1.8
v 2.8 2.2 -1.8
v 2.8 2.3 -1.8
v 2.8 2.4 -1.8
v 2.9 2.1 -1.8
v 2.9 2.2 -1.8
v 2.9 2.3 -1.8
v 2.9 2.4 -1.8
v 1.5 3.7 -1.9
v 1.5 3.8 -1.9
v 1.6 3.7 -1.9
v 1.6 3.8 -1.9
v 1.6 2.2 -2.1
v 1.6 3.7 -2.1
v 1.7 2.3 -2.1
v 1.7 3.6 -2.1
v 2.7 2.3 -2.1
v 2.7 3.6 -2.1
v 2.8 2.2 -2.1
v 2.8 3.7 -2.1
v 1.4 2 -2.2
v 1.4 3.8 -2.2
v 1.6 2.2 -2.2
v 1.6 3.7 -2.2
v 1.7 2.3 -2.2
v 1.7 3.6 -2.2
v 2.7 2.3 -2.2
v 2.7 3.6 -2.2
v 2.8 2.2 -2.2
v 2.8 3.7 -2.2
v 2.9 2 -2.2
v 2.9 3.8 -2.2
v 1.4 2 -1.3
v 2.9 2 -1.3
v 1.4 2 -2.2
v 2.9 2 -2.2
v 2.8 2.2 -1.4
v 2.9 2.2 -1.4
v 2.8 2.2 -1.5
v 2.9 2.2 -1.5
v 2.8 2.2 -1.6
v 2.9 2.2 -1.6
v 2.8 2.2 -1.7
v 2.9 2.2 -1.7
v 2.8 2.2 -1.8
v 2.9 2.2 -1.8
v 2.8 2.2 -1.9
v 2.9 2.2 -1.9
v 1.7 2.3 -2.1
v 2.7 2.3 -2.1
v 1.7 2.3 -2.2
v 2.7 2.3 -2.2
v 2.8 2.4 -1.4
v 2.9 2.4 -1.4
v 2.8 2.4 -1.5
v 2.9 2.4 -1.5
v 2.8 2.4 -1.6
v 2.9 2.4 -1.6
v 1.4 2.4 -1.7
v 1.5 2.4 -1.7
v 2.8 2.4 -1.7
v 2.9 2.4 -1.7
v 1.4 2.4 -1.8
v 1.5 2.4 -1.8
v 2.8 2.4 -1.8
v 2.9 2.4 -1.8
v 2.8 2.4 -1.9
v 2.9 2.4 -1.9
v 1.4 2.6 -1.4
v 1.5 2.6 -1.4
v 1.4 2.6 -1.5
v 1.5 2.6 -1.5
v 1.4 2.6 -2
v 1.5 2.6 -2
v 1.4 2.6 -2.1
v 1.5 2.6 -2.1
v 1.4 2.7 -1.5
v 1.5 2.7 -1.5
v 1.4 2.7 -1.6
v 1.5 2.7 -1.6
v 1.4 2.7 -1.9
v 1.5 2.7 -1.9
v 1.4 2.7 -2
v 1.5 2.7 -2
v 2.8 2.8 -1.4
v 2.9 2.8 -1.4
v 1.4 2.8 -1.6
v 1.5 2.8 -1.6
v 1.4 2.8 -1.9
v 1.5 2.8 -1.9
v 2.8 2.8 -2
v 2.9 2.8 -2
v 1.4 3.4 -1.4
v 1.5 3.4 -1.4
v 1.4 3.4 -1.5
v 1.5 3.4 -1.5
v 1.4 3.6 -1.4
v 1.5 3.6 -1.4
v 1.4 3.6 -2.1
v 1.5 3.6 -2.1
v 2.8 3.7 -1.4
v 2.9 3.7 -1.4
v 2.8 3.7 -1.6
v 2.9 3.7 -1.6
v 1.6 3.7 -2.1
v 2.8 3.7 -2.1
v 1.6 3.7 -2.2
v 2.8 3.7 -2.2
v 2.8 2.1 -1.4
v 2.9 2.1 -1.4
v 2.8 2.1 -1.5
v 2.9 2.1 -1.5
v 1.4 2.1 -1.6
v 1.5 2.1 -1.6
v 2.8 2.1 -1.6
v 2.9 2.1 -1.6
v 2.8 2.1 -1.7
v 2.9 2.1 -1.7
v 2.8 2.1 -1.8
v 2.9 2.1 -1.8
v 1.4 2.1 -1.9
v 1.5 2.1 -1.9
v 2.8 2.1 -1.9
v 2.9 2.1 -1.9
v 1.4 2.2 -1.5
v 1.5 2.2 -1.5
v 1.4 2.2 -1.6
v 1.5 2.2 -1.6
v 1.4 2.2 -1.9
v 1.5 2.2 -1.9
v 1.4 2.2 -2
v 1.5 2.2 -2
v 1.6 2.2 -2.1
v 2.8 2.2 -2.1
v 1.6 2.2 -2.2
v 2.8 2.2 -2.2
v 1.4 2.3 -1.4
v 1.5 2.3 -1.4
v 2.8 2.3 -1.4
v 2.9 2.3 -1.4
v 1.4 2.3 -1.5
v 1.5 2.3 -1.5
v 2.8 2.3 -1.5
v 2.9 2.3 -1.5
v 2.8 2.3 -1.6
v 2.9 2.3 -1.6
v 2.8 2.3 -1.7
v 2.9 2.3 -1.7
v 2.8 2.3 -1.8
v 2.9 2.3 -1.8
v 2.8 2.3 -1.9
v 2.9 2.3 -1.9
v 1.4 2.3 -2
v 1.5 2.3 -2
v 1.4 2.3 -2.1
v 1.5 2.3 -2.1
v 1.4 2.5 -1.7
v 1.5 2.5 -1.7
v 1.4 2.5 -1.8
v 1.5 2.5 -1.8
v 2.8 2.6 -1.4
v 2.9 2.6 -1.4
v 2.8 2.6 -2
v 2.9 2.6 -2
v 2.8 2.9 -1.4
v 2.9 2.9 -1.4
v 2.8 2.9 -1.6
v 2.9 2.9 -1.6
v 1.4 3.3 -1.4
v 1.5 3.3 -1.4
v 1.4 3.3 -1.5
v 1.5 3.3 -1.5
v 1.4 3.5 -1.4
v 1.5 3.5 -1.4
v 1.4 3.5 -2.1
v 1.5 3.5 -2.1
v 1.7 3.6 -2.1
v 2.7 3.6 -2.1
v 1.7 3.6 -2.2
v 2.7 3.6 -2.2
v 1.5 3.7 -1.4
v 1.6 3.7 -1.4
v 1.5 3.7 -1.5
v 1.6 3.7 -1.5
v 1.5 3.7 -1.7
v 1.6 3.7 -1.7
v 1.5 3.7 -1.8
v 1.6 3.7 -1.8
v 1.5 3.7 -1.9
v 1.6 3.7 -1.9
v 1.5 3.7 -2.1
v 1.6 3.7 -2.1
v 1.4 3.8 -1.3
v 2.9 3.8 -1.3
v 1.5 3.8 -1.4
v 1.6 3.8 -1.4
v 1.5 3.8 -1.5
v 1.6 3.8 -1.5
v 1.5 3.8 -1.7
v 1.6 3.8 -1.7
v 1.5 3.8 -1.8
v 1.6 3.8 -1.8
v 1.5 3.8 -1.9
v 1.6 3.8 -1.9
v 1.5 3.8 -2.1
v 1.6 3.8 -2.1
v 1.4 3.8 -2.2
v 2.9 3.8 -2.2

# faces
f 3/8/1 2/8/1 1/8/1
f 4/8/1 2/8/1 3/8/1
f 5/8/1 3/8/1 1/8/1
f 6/8/1 3/8/1 5/8/1
f 7/8/1 2/8/1 4/8/1
f 8/8/1 2/8/1 7/8/1
f 9/8/1 5/8/1 1/8/1
f 10/8/1 5/8/1 9/8/1
f 11/8/1 2/8/1 8/8/1
f 12/8/1 2/8/1 11/8/1
f 15/9/1 14/9/1 13/9/1
f 16/9/1 14/9/1 15/9/1
f 17/8/1 9/8/1 1/8/1
f 20/8/1 2/8/1 12/8/1
f 21/8/1 18/8/1 17/8/1
f 24/8/1 20/8/1 19/8/1
f 25/8/1 22/8/1 21/8/1
f 26/8/1 24/8/1 23/8/1
f 27/8/1 17/8/1 1/8/1
f 27/8/1 26/8/1 25/8/1
f 27/8/1 25/8/1 21/8/1
f 27/8/1 21/8/1 17/8/1
f 28/8/1 26/8/1 27/8/1
f 29/8/1 27/8/1 1/8/1
f 30/8/1 26/8/1 28/8/1
f 31/8/1 29/8/1 1/8/1
f 31/8/1 30/8/1 29/8/1
f 32/8/1 24/8/1 26/8/1
f 32/8/1 30/8/1 31/8/1
f 32/8/1 2/8/1 20/8/1
f 32/8/1 20/8/1 24/8/1
f 32/8/1 26/8/1 30/8/1
f 33/8/1 31/8/1 1/8/1
f 34/8/1 2/8/1 32/8/1
f 35/8/1 33/8/1 1/8/1
f 35/8/1 34/8/1 33/8/1
f 36/8/1 2/8/1 34/8/1
f 36/8/1 34/8/1 35/8/1
f 40/2/1 38/2/1 37/2/1
f 41/2/1 38/2/1 40/2/1
f 44/2/1 40/2/1 39/2/1
f 44/2/1 42/2/1 41/2/1
f 44/2/1 41/2/1 40/2/1
f 45/2/1 42/2/1 44/2/1
f 47/2/1 44/2/1 43/2/1
f 47/2/1 46/2/1 45/2/1
f 47/2/1 45/2/1 44/2/1
f 48/2/1 46/2/1 47/2/1
f 49/2/1 47/2/1 43/2/1
f 50/2/1 46/2/1 48/2/1
f 51/2/1 49/2/1 43/2/1
f 51/2/1 50/2/1 49/2/1
f 52/2/1 50/2/1 51/2/1
f 53/2/1 46/2/1 50/2/1
f 53/2/1 50/2/1 52/2/1
f 54/2/1 46/2/1 53/2/1
f 55/2/1 53/2/1 52/2/1
f 56/2/1 53/2/1 55/2/1
f 57/2/1 53/2/1 56/2/1
f 58/2/1 53/2/1 57/2/1
f 59/2/1 57/2/1 56/2/1
f 60/2/1 57/2/1 59/2/1
f 63/5/1 62/5/1 61/5/1
f 64/5/1 62/5/1 63/5/1
f 67/5/1 66/5/1 65/5/1
f 68/5/1 66/5/1 67/5/1
f 75/8/1 70/8/1 69/8/1
f 76/8/1 70/8/1 75/8/1
f 77/8/1 72/8/1 71/8/1
f 78/8/1 72/8/1 77/8/1
f 79/8/1 74/8/1 73/8/1
f 80/8/1 74/8/1 79/8/1
f 83/7/1 82/7/1 81/7/1
f 84/7/1 82/7/1 83/7/1
f 87/8/1 86/8/1 85/8/1
f 88/8/1 86/8/1 87/8/1
f 89/8/2 90/8/2 95/8/2
f 95/8/2 90/8/2 96/8/2
f 91/8/2 92/8/2 97/8/2
f 97/8/2 92/8/2 98/8/2
f 93/8/2 94/8/2 99/8/2
f 99/8/2 94/8/2 100/8/2
f 101/8/2 102/8/2 103/8/2
f 103/8/2 102/8/2 104/8/2
f 105/7/2 106/7/2 107/7/2
f 107/7/2 106/7/2 108/7/2
f 109/9/2 110/9/2 115/9/2
f 115/9/2 110/9/2 116/9/2
f 111/9/2 112/9/2 117/9/2
f 117/9/2 112/9/2 118/9/2
f 113/9/2 114/9/2 119/9/2
f 119/9/2 114/9/2 120/9/2
f 121/9/2 122/9/2 127/9/2
f 127/9/2 122/9/2 128/9/2
f 123/9/2 124/9/2 129/9/2
f 129/9/2 124/9/2 130/9/2
f 125/9/2 126/9/2 131/9/2
f 131/9/2 126/9/2 132/9/2
f 133/6/2 134/6/2 135/6/2
f 135/6/2 134/6/2 136/6/2
f 137/1/2 138/1/2 139/1/2
f 139/1/2 138/1/2 140/1/2
f 141/8/2 142/8/2 143/8/2
f 143/8/2 142/8/2 144/8/2
f 144/8/2 142/8/2 145/8/2
f 145/8/2 142/8/2 146/8/2
f 146/8/2 142/8/2 147/8/2
f 147/8/2 142/8/2 148/8/2
f 141/8/2 143/8/2 149/8/2
f 144/8/2 145/8/2 150/8/2
f 150/8/2 145/8/2 151/8/2
f 146/8/2 147/8/2 152/8/2
f 152/8/2 147/8/2 153/8/2
f 148/8/2 142/8/2 154/8/2
f 152/8/2 153/8/2 155/8/2
f 153/8/2 154/8/2 155/8/2
f 150/8/2 151/8/2 155/8/2
f 141/8/2 149/8/2 155/8/2
f 151/8/2 152/8/2 155/8/2
f 149/8/2 150/8/2 155/8/2
f 155/8/2 154/8/2 156/8/2
f 156/8/2 154/8/2 157/8/2
f 157/8/2 154/8/2 158/8/2
f 158/8/2 154/8/2 159/8/2
f 154/8/2 142/8/2 160/8/2
f 159/8/2 154/8/2 160/8/2
f 141/8/2 155/8/2 161/8/2
f 156/8/2 157/8/2 162/8/2
f 162/8/2 157/8/2 163/8/2
f 158/8/2 159/8/2 164/8/2
f 164/8/2 159/8/2 165/8/2
f 160/8/2 142/8/2 166/8/2
f 162/8/2 163/8/2 167/8/2
f 165/8/2 166/8/2 167/8/2
f 164/8/2 165/8/2 167/8/2
f 141/8/2 161/8/2 167/8/2
f 163/8/2 164/8/2 167/8/2
f 161/8/2 162/8/2 167/8/2
f 166/8/2 142/8/2 168/8/2
f 167/8/2 166/8/2 168/8/2
f 141/8/2 167/8/2 169/8/2
f 168/8/2 142/8/2 170/8/2
f 141/8/2 169/8/2 171/8/2
f 169/8/2 170/8/2 171/8/2
f 171/8/2 170/8/2 172/8/2
f 141/8/2 171/8/2 173/8/2
f 172/8/2 170/8/2 174/8/2
f 141/8/2 173/8/2 175/8/2
f 173/8/2 174/8/2 175/8/2
f 170/8/2 142/8/2 176/8/2
f 175/8/2 174/8/2 176/8/2
f 174/8/2 170/8/2 176/8/2
f 179/8/3 178/8/3 177/8/3
f 180/8/3 178/8/3 179/8/3
f 183/8/3 182/8/3 181/8/3
f 184/8/3 182/8/3 183/8/3
f 187/8/3 186/8/3 185/8/3
f 188/8/3 186/8/3 187/8/3
f 193/8/3 190/8/3 189/8/3
f 194/8/3 190/8/3 193/8/3
f 195/8/3 192/8/3 191/8/3
f 196/8/3 192/8/3 195/8/3
f 199/8/3 198/8/3 197/8/3
f 200/8/3 198/8/3 199/8/3
f 203/9/3 202/9/3 201/9/3
f 204/9/3 202/9/3 203/9/3
f 209/8/3 206/8/3 205/8/3
f 210/8/3 206/8/3 209/8/3
f 211/8/3 208/8/3 207/8/3
f 212/8/3 208/8/3 211/8/3
f 215/8/3 214/8/3 213/8/3
f 216/8/3 214/8/3 215/8/3
f 221/8/3 218/8/3 217/8/3
f 222/8/3 218/8/3 221/8/3
f 223/8/3 220/8/3 219/8/3
f 224/8/3 220/8/3 223/8/3
f 229/8/3 226/8/3 225/8/3
f 230/8/3 226/8/3 229/8/3
f 231/8/3 228/8/3 227/8/3
f 232/8/3 228/8/3 231/8/3
f 237/8/3 234/8/3 233/8/3
f 238/8/3 234/8/3 237/8/3
f 239/8/3 236/8/3 235/8/3
f 240/8/3 236/8/3 239/8/3
f 243/8/3 242/8/3 241/8/3
f 244/8/3 242/8/3 243/8/3
f 249/8/3 246/8/3 245/8/3
f 250/8/3 246/8/3 249/8/3
f 251/8/3 248/8/3 247/8/3
f 252/8/3 248/8/3 251/8/3
f 255/8/3 254/8/3 253/8/3
f 256/8/3 254/8/3 255/8/3
f 257/8/4 258/8/4 263/8/4
f 263/8/4 258/8/4 264/8/4
f 259/8/4 260/8/4 265/8/4
f 265/8/4 260/8/4 266/8/4
f 261/8/4 262/8/4 267/8/4
f 267/8/4 262/8/4 268/8/4
f 269/8/4 270/8/4 271/8/4
f 271/8/4 270/8/4 272/8/4
f 273/8/4 274/8/4 281/8/4
f 281/8/4 274/8/4 282/8/4
f 275/8/4 276/8/4 283/8/4
f 283/8/4 276/8/4 284/8/4
f 277/8/4 278/8/4 285/8/4
f 285/8/4 278/8/4 286/8/4
f 279/8/4 280/8/4 287/8/4
f 287/8/4 280/8/4 288/8/4
f 289/8/4 290/8/4 293/8/4
f 293/8/4 290/8/4 294/8/4
f 291/8/4 292/8/4 295/8/4
f 295/8/4 292/8/4 296/8/4
f 297/8/4 298/8/4 301/8/4
f 301/8/4 298/8/4 302/8/4
f 299/8/4 300/8/4 303/8/4
f 303/8/4 300/8/4 304/8/4
f 305/8/4 306/8/4 309/8/4
f 309/8/4 306/8/4 310/8/4
f 307/8/4 308/8/4 311/8/4
f 311/8/4 308/8/4 312/8/4
f 313/8/4 314/8/4 315/8/4
f 315/8/4 314/8/4 316/8/4
f 317/9/4 318/9/4 319/9/4
f 319/9/4 318/9/4 320/9/4
f 321/8/4 322/8/4 325/8/4
f 325/8/4 322/8/4 326/8/4
f 323/8/4 324/8/4 327/8/4
f 327/8/4 324/8/4 328/8/4
f 329/8/4 330/8/4 331/8/4
f 331/8/4 330/8/4 332/8/4
f 333/7/4 334/7/4 335/7/4
f 335/7/4 334/7/4 336/7/4
f 333/7/4 335/7/4 337/7/4
f 336/7/4 334/7/4 338/7/4
f 333/7/4 337/7/4 339/7/4
f 337/7/4 338/7/4 339/7/4
f 338/7/4 334/7/4 340/7/4
f 339/7/4 338/7/4 340/7/4
f 341/8/4 342/8/4 343/8/4
f 343/8/4 342/8/4 344/8/4
f 345/7/4 346/7/4 347/7/4
f 347/7/4 346/7/4 348/7/4
f 341/8/4 343/8/4 349/8/4
f 344/8/4 342/8/4 350/8/4
f 341/8/4 349/8/4 351/8/4
f 349/8/4 350/8/4 351/8/4
f 350/8/4 342/8/4 352/8/4
f 351/8/4 350/8/4 352/8/4
f 355/8/5 354/8/5 353/8/5
f 356/8/5 354/8/5 355/8/5
f 359/8/5 358/8/5 357/8/5
f 360/8/5 358/8/5 359/8/5
f 363/8/5 362/8/5 361/8/5
f 364/8/5 362/8/5 363/8/5
f 367/8/5 366/8/5 365/8/5
f 368/8/5 366/8/5 367/8/5
f 371/7/5 370/7/5 369/7/5
f 372/7/5 370/7/5 371/7/5
f 375/8/5 374/8/5 373/8/5
f 376/8/5 374/8/5 375/8/5
f 381/8/5 378/8/5 377/8/5
f 382/8/5 378/8/5 381/8/5
f 383/9/5 380/9/5 379/9/5
f 384/9/5 380/9/5 383/9/5
f 387/8/5 386/8/5 385/8/5
f 388/8/5 386/8/5 387/8/5
f 391/8/5 390/8/5 389/8/5
f 392/8/5 390/8/5 391/8/5
f 395/8/5 394/8/5 393/8/5
f 396/8/5 394/8/5 395/8/5
f 399/8/5 398/8/5 397/8/5
f 400/8/5 398/8/5 399/8/5
f 403/8/5 402/8/5 401/8/5
f 404/8/5 402/8/5 403/8/5
f 409/8/5 408/8/5 407/8/5
f 410/8/5 408/8/5 409/8/5
f 411/8/5 406/8/5 405/8/5
f 412/8/5 406/8/5 411/8/5
f 415/8/5 414/8/5 413/8/5
f 416/8/5 414/8/5 415/8/5
f 419/8/5 418/8/5 417/8/5
f 420/8/5 418/8/5 419/8/5
f 423/8/5 422/8/5 421/8/5
f 424/8/5 422/8/5 423/8/5
f 427/8/5 426/8/5 425/8/5
f 428/8/5 426/8/5 427/8/5
f 429/8/6 430/8/6 431/8/6
f 431/8/6 430/8/6 432/8/6
f 435/8/6 436/8/6 437/8/6
f 437/8/6 436/8/6 438/8/6
f 433/8/6 434/8/6 441/8/6
f 441/8/6 434/8/6 442/8/6
f 439/8/6 440/8/6 443/8/6
f 443/8/6 440/8/6 444/8/6
f 445/8/6 446/8/6 447/8/6
f 447/8/6 446/8/6 448/8/6
f 449/8/6 450/8/6 451/8/6
f 451/8/6 450/8/6 452/8/6
f 453/8/6 454/8/6 455/8/6
f 455/8/6 454/8/6 456/8/6
f 457/8/6 458/8/6 461/8/6
f 461/8/6 458/8/6 462/8/6
f 459/8/6 460/8/6 463/8/6
f 463/8/6 460/8/6 464/8/6
f 465/8/6 466/8/6 467/8/6
f 467/8/6 466/8/6 468/8/6
f 469/8/6 470/8/6 471/8/6
f 471/8/6 470/8/6 472/8/6
f 473/8/6 474/8/6 475/8/6
f 475/8/6 474/8/6 476/8/6
f 477/9/6 478/9/6 479/9/6
f 479/9/6 478/9/6 480/9/6
f 481/8/6 482/8/6 483/8/6
f 483/8/6 482/8/6 484/8/6
f 485/8/6 486/8/6 487/8/6
f 487/8/6 486/8/6 488/8/6
f 489/8/6 490/8/6 491/8/6
f 491/8/6 490/8/6 492/8/6
f 493/8/6 494/8/6 495/8/6
f 495/8/6 494/8/6 496/8/6
f 497/7/6 498/7/6 499/7/6
f 499/7/6 498/7/6 500/7/6
f 501/9/6 502/9/6 503/9/6
f 503/9/6 502/9/6 504/9/6
f 505/9/6 506/9/6 507/9/6
f 507/9/6 506/9/6 508/9/6
f 509/3/6 510/3/6 511/3/6
f 511/3/6 510/3/6 512/3/6
f 513/8/6 514/8/6 515/8/6
f 515/8/6 514/8/6 516/8/6
f 513/8/6 515/8/6 517/8/6
f 516/8/6 514/8/6 518/8/6
f 513/8/6 517/8/6 519/8/6
f 517/8/6 518/8/6 519/8/6
f 518/8/6 514/8/6 520/8/6
f 519/8/6 518/8/6 520/8/6
f 513/8/6 519/8/6 521/8/6
f 520/8/6 514/8/6 522/8/6
f 513/8/6 521/8/6 523/8/6
f 521/8/6 522/8/6 523/8/6
f 522/8/6 514/8/6 524/8/6
f 523/8/6 522/8/6 524/8/6
f 513/8/6 523/8/6 525/8/6
f 524/8/6 514/8/6 526/8/6
f 513/8/6 525/8/6 527/8/6
f 525/8/6 526/8/6 527/8/6
f 526/8/6 514/8/6 528/8/6
f 527/8/6 526/8/6 528/8/6
