# MagicaVoxel @ Ephtracy

# group
o 

# material
mtllib lampara.mtl
usemtl palette

# normals
vn -1 0 0
vn 1 0 0
vn 0 0 1
vn 0 0 -1
vn 0 -1 0
vn 0 1 0

# texcoords
vt 0.0605469 0.5
vt 0.958984 0.5
vt 0.994141 0.5

# verts
v 1 2 -2
v 1 2 -2.5
v 1 2.1 -2
v 1 2.1 -2.5
v 1 4 -1.8
v 1 4 -2.7
v 1 4.1 -1.8
v 1 4.1 -2.7
v 1.1 2 -1.9
v 1.1 2 -2
v 1.1 2 -2.5
v 1.1 2 -2.6
v 1.1 2.1 -1.9
v 1.1 2.1 -2
v 1.1 2.1 -2.5
v 1.1 2.1 -2.6
v 1.1 4.1 -1.9
v 1.1 4.1 -2.6
v 1.1 4.2 -1.9
v 1.1 4.2 -2.6
v 1.2 2 -1.8
v 1.2 2 -1.9
v 1.2 2 -2.6
v 1.2 2 -2.7
v 1.2 2.1 -1.8
v 1.2 2.1 -1.9
v 1.2 2.1 -2.6
v 1.2 2.1 -2.7
v 1.2 4.2 -2
v 1.2 4.2 -2.5
v 1.2 4.3 -2
v 1.2 4.3 -2.5
v 1.3 2 -1.7
v 1.3 2 -1.8
v 1.3 2 -2.7
v 1.3 2 -2.8
v 1.3 2.1 -1.7
v 1.3 2.1 -1.8
v 1.3 2.1 -2.7
v 1.3 2.1 -2.8
v 1.3 4.3 -2.1
v 1.3 4.3 -2.4
v 1.3 4.4 -2.1
v 1.3 4.4 -2.4
v 1.4 4.4 -2.2
v 1.4 4.4 -2.3
v 1.4 4.5 -2.2
v 1.4 4.5 -2.3
v 1.5 2.1 -2.2
v 1.5 2.1 -2.3
v 1.5 4 -2.2
v 1.5 4 -2.3
v 1.5 4.5 -2.2
v 1.5 4.5 -2.3
v 1.5 4.6 -2.2
v 1.5 4.6 -2.3
v 1.6 2 -2.2
v 1.6 2 -2.3
v 1.6 2.1 -2.2
v 1.6 2.1 -2.3
v 1.5 2 -2.2
v 1.5 2 -2.3
v 1.5 2.1 -2.2
v 1.5 2.1 -2.3
v 1.6 2.1 -2.2
v 1.6 2.1 -2.3
v 1.6 4 -2.2
v 1.6 4 -2.3
v 1.6 4.5 -2.2
v 1.6 4.5 -2.3
v 1.6 4.6 -2.2
v 1.6 4.6 -2.3
v 1.7 4.4 -2.2
v 1.7 4.4 -2.3
v 1.7 4.5 -2.2
v 1.7 4.5 -2.3
v 1.8 2 -1.7
v 1.8 2 -1.8
v 1.8 2 -2.7
v 1.8 2 -2.8
v 1.8 2.1 -1.7
v 1.8 2.1 -1.8
v 1.8 2.1 -2.7
v 1.8 2.1 -2.8
v 1.8 4.3 -2.1
v 1.8 4.3 -2.4
v 1.8 4.4 -2.1
v 1.8 4.4 -2.4
v 1.9 2 -1.8
v 1.9 2 -1.9
v 1.9 2 -2.6
v 1.9 2 -2.7
v 1.9 2.1 -1.8
v 1.9 2.1 -1.9
v 1.9 2.1 -2.6
v 1.9 2.1 -2.7
v 1.9 4.2 -2
v 1.9 4.2 -2.5
v 1.9 4.3 -2
v 1.9 4.3 -2.5
v 2 2 -1.9
v 2 2 -2
v 2 2 -2.5
v 2 2 -2.6
v 2 2.1 -1.9
v 2 2.1 -2
v 2 2.1 -2.5
v 2 2.1 -2.6
v 2 4.1 -1.9
v 2 4.1 -2.6
v 2 4.2 -1.9
v 2 4.2 -2.6
v 2.1 2 -2
v 2.1 2 -2.5
v 2.1 2.1 -2
v 2.1 2.1 -2.5
v 2.1 4 -1.8
v 2.1 4 -2.7
v 2.1 4.1 -1.8
v 2.1 4.1 -2.7
v 1.3 2 -1.7
v 1.3 2.1 -1.7
v 1.8 2 -1.7
v 1.8 2.1 -1.7
v 1 4 -1.8
v 1 4.1 -1.8
v 1.2 2 -1.8
v 1.2 2.1 -1.8
v 1.3 2 -1.8
v 1.3 2.1 -1.8
v 1.8 2 -1.8
v 1.8 2.1 -1.8
v 1.9 2 -1.8
v 1.9 2.1 -1.8
v 2.1 4 -1.8
v 2.1 4.1 -1.8
v 1.1 2 -1.9
v 1.1 2.1 -1.9
v 1.1 4.1 -1.9
v 1.1 4.2 -1.9
v 1.2 2 -1.9
v 1.2 2.1 -1.9
v 1.9 2 -1.9
v 1.9 2.1 -1.9
v 2 2 -1.9
v 2 2.1 -1.9
v 2 4.1 -1.9
v 2 4.2 -1.9
v 1 2 -2
v 1 2.1 -2
v 1.1 2 -2
v 1.1 2.1 -2
v 1.2 4.2 -2
v 1.2 4.3 -2
v 1.9 4.2 -2
v 1.9 4.3 -2
v 2 2 -2
v 2 2.1 -2
v 2.1 2 -2
v 2.1 2.1 -2
v 1.3 4.3 -2.1
v 1.3 4.4 -2.1
v 1.8 4.3 -2.1
v 1.8 4.4 -2.1
v 1.4 4.4 -2.2
v 1.4 4.5 -2.2
v 1.5 2.1 -2.2
v 1.5 4 -2.2
v 1.5 4.5 -2.2
v 1.5 4.6 -2.2
v 1.6 2.1 -2.2
v 1.6 4 -2.2
v 1.6 4.5 -2.2
v 1.6 4.6 -2.2
v 1.7 4.4 -2.2
v 1.7 4.5 -2.2
v 1.5 2 -2.3
v 1.5 2.1 -2.3
v 1.6 2 -2.3
v 1.6 2.1 -2.3
v 1.5 2 -2.2
v 1.5 2.1 -2.2
v 1.6 2 -2.2
v 1.6 2.1 -2.2
v 1.4 4.4 -2.3
v 1.4 4.5 -2.3
v 1.5 2.1 -2.3
v 1.5 4 -2.3
v 1.5 4.5 -2.3
v 1.5 4.6 -2.3
v 1.6 2.1 -2.3
v 1.6 4 -2.3
v 1.6 4.5 -2.3
v 1.6 4.6 -2.3
v 1.7 4.4 -2.3
v 1.7 4.5 -2.3
v 1.3 4.3 -2.4
v 1.3 4.4 -2.4
v 1.8 4.3 -2.4
v 1.8 4.4 -2.4
v 1 2 -2.5
v 1 2.1 -2.5
v 1.1 2 -2.5
v 1.1 2.1 -2.5
v 1.2 4.2 -2.5
v 1.2 4.3 -2.5
v 1.9 4.2 -2.5
v 1.9 4.3 -2.5
v 2 2 -2.5
v 2 2.1 -2.5
v 2.1 2 -2.5
v 2.1 2.1 -2.5
v 1.1 2 -2.6
v 1.1 2.1 -2.6
v 1.1 4.1 -2.6
v 1.1 4.2 -2.6
v 1.2 2 -2.6
v 1.2 2.1 -2.6
v 1.9 2 -2.6
v 1.9 2.1 -2.6
v 2 2 -2.6
v 2 2.1 -2.6
v 2 4.1 -2.6
v 2 4.2 -2.6
v 1 4 -2.7
v 1 4.1 -2.7
v 1.2 2 -2.7
v 1.2 2.1 -2.7
v 1.3 2 -2.7
v 1.3 2.1 -2.7
v 1.8 2 -2.7
v 1.8 2.1 -2.7
v 1.9 2 -2.7
v 1.9 2.1 -2.7
v 2.1 4 -2.7
v 2.1 4.1 -2.7
v 1.3 2 -2.8
v 1.3 2.1 -2.8
v 1.8 2 -2.8
v 1.8 2.1 -2.8
v 1.3 2 -1.7
v 1.8 2 -1.7
v 1.2 2 -1.8
v 1.3 2 -1.8
v 1.8 2 -1.8
v 1.9 2 -1.8
v 1.1 2 -1.9
v 1.2 2 -1.9
v 1.9 2 -1.9
v 2 2 -1.9
v 1 2 -2
v 1.1 2 -2
v 2 2 -2
v 2.1 2 -2
v 1.5 2 -2.2
v 1.6 2 -2.2
v 1.5 2 -2.3
v 1.6 2 -2.3
v 1 2 -2.5
v 1.1 2 -2.5
v 2 2 -2.5
v 2.1 2 -2.5
v 1.1 2 -2.6
v 1.2 2 -2.6
v 1.9 2 -2.6
v 2 2 -2.6
v 1.2 2 -2.7
v 1.3 2 -2.7
v 1.8 2 -2.7
v 1.9 2 -2.7
v 1.3 2 -2.8
v 1.8 2 -2.8
v 1.5 2.1 -2.2
v 1.6 2.1 -2.2
v 1.5 2.1 -2.3
v 1.6 2.1 -2.3
v 1 4 -1.8
v 2.1 4 -1.8
v 1.5 4 -2.2
v 1.6 4 -2.2
v 1.5 4 -2.3
v 1.6 4 -2.3
v 1 4 -2.7
v 2.1 4 -2.7
v 1.3 2.1 -1.7
v 1.8 2.1 -1.7
v 1.2 2.1 -1.8
v 1.3 2.1 -1.8
v 1.8 2.1 -1.8
v 1.9 2.1 -1.8
v 1.1 2.1 -1.9
v 1.2 2.1 -1.9
v 1.9 2.1 -1.9
v 2 2.1 -1.9
v 1 2.1 -2
v 1.1 2.1 -2
v 2 2.1 -2
v 2.1 2.1 -2
v 1.5 2.1 -2.2
v 1.6 2.1 -2.2
v 1.5 2.1 -2.3
v 1.6 2.1 -2.3
v 1 2.1 -2.5
v 1.1 2.1 -2.5
v 2 2.1 -2.5
v 2.1 2.1 -2.5
v 1.1 2.1 -2.6
v 1.2 2.1 -2.6
v 1.9 2.1 -2.6
v 2 2.1 -2.6
v 1.2 2.1 -2.7
v 1.3 2.1 -2.7
v 1.8 2.1 -2.7
v 1.9 2.1 -2.7
v 1.3 2.1 -2.8
v 1.8 2.1 -2.8
v 1 4.1 -1.8
v 2.1 4.1 -1.8
v 1.1 4.1 -1.9
v 2 4.1 -1.9
v 1.1 4.1 -2.6
v 2 4.1 -2.6
v 1 4.1 -2.7
v 2.1 4.1 -2.7
v 1.1 4.2 -1.9
v 2 4.2 -1.9
v 1.2 4.2 -2
v 1.9 4.2 -2
v 1.2 4.2 -2.5
v 1.9 4.2 -2.5
v 1.1 4.2 -2.6
v 2 4.2 -2.6
v 1.2 4.3 -2
v 1.9 4.3 -2
v 1.3 4.3 -2.1
v 1.8 4.3 -2.1
v 1.3 4.3 -2.4
v 1.8 4.3 -2.4
v 1.2 4.3 -2.5
v 1.9 4.3 -2.5
v 1.3 4.4 -2.1
v 1.8 4.4 -2.1
v 1.4 4.4 -2.2
v 1.7 4.4 -2.2
v 1.4 4.4 -2.3
v 1.7 4.4 -2.3
v 1.3 4.4 -2.4
v 1.8 4.4 -2.4
v 1.4 4.5 -2.2
v 1.5 4.5 -2.2
v 1.6 4.5 -2.2
v 1.7 4.5 -2.2
v 1.4 4.5 -2.3
v 1.5 4.5 -2.3
v 1.6 4.5 -2.3
v 1.7 4.5 -2.3
v 1.5 4.6 -2.2
v 1.6 4.6 -2.2
v 1.5 4.6 -2.3
v 1.6 4.6 -2.3

# faces
f 3/3/1 2/3/1 1/3/1
f 4/3/1 2/3/1 3/3/1
f 7/1/1 6/1/1 5/1/1
f 8/1/1 6/1/1 7/1/1
f 13/3/1 10/3/1 9/3/1
f 14/3/1 10/3/1 13/3/1
f 15/3/1 12/3/1 11/3/1
f 16/3/1 12/3/1 15/3/1
f 19/1/1 18/1/1 17/1/1
f 20/1/1 18/1/1 19/1/1
f 25/3/1 22/3/1 21/3/1
f 26/3/1 22/3/1 25/3/1
f 27/3/1 24/3/1 23/3/1
f 28/3/1 24/3/1 27/3/1
f 31/1/1 30/1/1 29/1/1
f 32/1/1 30/1/1 31/1/1
f 37/3/1 34/3/1 33/3/1
f 38/3/1 34/3/1 37/3/1
f 39/3/1 36/3/1 35/3/1
f 40/3/1 36/3/1 39/3/1
f 43/1/1 42/1/1 41/1/1
f 44/1/1 42/1/1 43/1/1
f 47/1/1 46/1/1 45/1/1
f 48/1/1 46/1/1 47/1/1
f 51/3/1 50/3/1 49/3/1
f 52/3/1 50/3/1 51/3/1
f 55/1/1 54/1/1 53/1/1
f 56/1/1 54/1/1 55/1/1
f 59/3/1 58/3/1 57/3/1
f 60/3/1 58/3/1 59/3/1
f 61/3/2 62/3/2 63/3/2
f 63/3/2 62/3/2 64/3/2
f 65/3/2 66/3/2 67/3/2
f 67/3/2 66/3/2 68/3/2
f 69/1/2 70/1/2 71/1/2
f 71/1/2 70/1/2 72/1/2
f 73/1/2 74/1/2 75/1/2
f 75/1/2 74/1/2 76/1/2
f 77/3/2 78/3/2 81/3/2
f 81/3/2 78/3/2 82/3/2
f 79/3/2 80/3/2 83/3/2
f 83/3/2 80/3/2 84/3/2
f 85/1/2 86/1/2 87/1/2
f 87/1/2 86/1/2 88/1/2
f 89/3/2 90/3/2 93/3/2
f 93/3/2 90/3/2 94/3/2
f 91/3/2 92/3/2 95/3/2
f 95/3/2 92/3/2 96/3/2
f 97/1/2 98/1/2 99/1/2
f 99/1/2 98/1/2 100/1/2
f 101/3/2 102/3/2 105/3/2
f 105/3/2 102/3/2 106/3/2
f 103/3/2 104/3/2 107/3/2
f 107/3/2 104/3/2 108/3/2
f 109/1/2 110/1/2 111/1/2
f 111/1/2 110/1/2 112/1/2
f 113/3/2 114/3/2 115/3/2
f 115/3/2 114/3/2 116/3/2
f 117/1/2 118/1/2 119/1/2
f 119/1/2 118/1/2 120/1/2
f 123/3/3 122/3/3 121/3/3
f 124/3/3 122/3/3 123/3/3
f 129/3/3 128/3/3 127/3/3
f 130/3/3 128/3/3 129/3/3
f 133/3/3 132/3/3 131/3/3
f 134/3/3 132/3/3 133/3/3
f 135/1/3 126/1/3 125/1/3
f 136/1/3 126/1/3 135/1/3
f 141/3/3 138/3/3 137/3/3
f 142/3/3 138/3/3 141/3/3
f 145/3/3 144/3/3 143/3/3
f 146/3/3 144/3/3 145/3/3
f 147/1/3 140/1/3 139/1/3
f 148/1/3 140/1/3 147/1/3
f 151/3/3 150/3/3 149/3/3
f 152/3/3 150/3/3 151/3/3
f 155/1/3 154/1/3 153/1/3
f 156/1/3 154/1/3 155/1/3
f 159/3/3 158/3/3 157/3/3
f 160/3/3 158/3/3 159/3/3
f 163/1/3 162/1/3 161/1/3
f 164/1/3 162/1/3 163/1/3
f 169/1/3 166/1/3 165/1/3
f 171/3/3 168/3/3 167/3/3
f 172/3/3 168/3/3 171/3/3
f 173/1/3 170/1/3 169/1/3
f 173/1/3 169/1/3 165/1/3
f 174/1/3 170/1/3 173/1/3
f 175/1/3 173/1/3 165/1/3
f 176/1/3 173/1/3 175/1/3
f 179/3/3 178/3/3 177/3/3
f 180/3/3 178/3/3 179/3/3
f 181/3/4 182/3/4 183/3/4
f 183/3/4 182/3/4 184/3/4
f 185/1/4 186/1/4 189/1/4
f 187/3/4 188/3/4 191/3/4
f 191/3/4 188/3/4 192/3/4
f 189/1/4 190/1/4 193/1/4
f 185/1/4 189/1/4 193/1/4
f 193/1/4 190/1/4 194/1/4
f 185/1/4 193/1/4 195/1/4
f 195/1/4 193/1/4 196/1/4
f 197/1/4 198/1/4 199/1/4
f 199/1/4 198/1/4 200/1/4
f 201/3/4 202/3/4 203/3/4
f 203/3/4 202/3/4 204/3/4
f 205/1/4 206/1/4 207/1/4
f 207/1/4 206/1/4 208/1/4
f 209/3/4 210/3/4 211/3/4
f 211/3/4 210/3/4 212/3/4
f 213/3/4 214/3/4 217/3/4
f 217/3/4 214/3/4 218/3/4
f 219/3/4 220/3/4 221/3/4
f 221/3/4 220/3/4 222/3/4
f 215/1/4 216/1/4 223/1/4
f 223/1/4 216/1/4 224/1/4
f 227/3/4 228/3/4 229/3/4
f 229/3/4 228/3/4 230/3/4
f 231/3/4 232/3/4 233/3/4
f 233/3/4 232/3/4 234/3/4
f 225/1/4 226/1/4 235/1/4
f 235/1/4 226/1/4 236/1/4
f 237/3/4 238/3/4 239/3/4
f 239/3/4 238/3/4 240/3/4
f 244/3/5 242/3/5 241/3/5
f 245/3/5 242/3/5 244/3/5
f 248/3/5 244/3/5 243/3/5
f 248/3/5 246/3/5 245/3/5
f 248/3/5 245/3/5 244/3/5
f 249/3/5 246/3/5 248/3/5
f 252/3/5 248/3/5 247/3/5
f 252/3/5 250/3/5 249/3/5
f 252/3/5 249/3/5 248/3/5
f 253/3/5 250/3/5 252/3/5
f 255/3/5 252/3/5 251/3/5
f 255/3/5 254/3/5 253/3/5
f 255/3/5 253/3/5 252/3/5
f 256/3/5 254/3/5 255/3/5
f 257/3/5 255/3/5 251/3/5
f 258/3/5 254/3/5 256/3/5
f 259/3/5 257/3/5 251/3/5
f 259/3/5 258/3/5 257/3/5
f 260/3/5 258/3/5 259/3/5
f 261/3/5 254/3/5 258/3/5
f 261/3/5 258/3/5 260/3/5
f 262/3/5 254/3/5 261/3/5
f 263/3/5 261/3/5 260/3/5
f 264/3/5 261/3/5 263/3/5
f 265/3/5 261/3/5 264/3/5
f 266/3/5 261/3/5 265/3/5
f 267/3/5 265/3/5 264/3/5
f 268/3/5 265/3/5 267/3/5
f 269/3/5 265/3/5 268/3/5
f 270/3/5 265/3/5 269/3/5
f 271/3/5 269/3/5 268/3/5
f 272/3/5 269/3/5 271/3/5
f 275/3/5 274/3/5 273/3/5
f 276/3/5 274/3/5 275/3/5
f 279/1/5 278/1/5 277/1/5
f 280/1/5 278/1/5 279/1/5
f 281/1/5 279/1/5 277/1/5
f 282/1/5 278/1/5 280/1/5
f 283/1/5 281/1/5 277/1/5
f 283/1/5 282/1/5 281/1/5
f 284/1/5 278/1/5 282/1/5
f 284/1/5 282/1/5 283/1/5
f 285/3/6 286/3/6 288/3/6
f 288/3/6 286/3/6 289/3/6
f 287/3/6 288/3/6 292/3/6
f 289/3/6 290/3/6 292/3/6
f 288/3/6 289/3/6 292/3/6
f 292/3/6 290/3/6 293/3/6
f 291/3/6 292/3/6 296/3/6
f 293/3/6 294/3/6 296/3/6
f 292/3/6 293/3/6 296/3/6
f 296/3/6 294/3/6 297/3/6
f 295/3/6 296/3/6 299/3/6
f 297/3/6 298/3/6 299/3/6
f 296/3/6 297/3/6 299/3/6
f 299/3/6 298/3/6 300/3/6
f 295/3/6 299/3/6 301/3/6
f 300/3/6 298/3/6 302/3/6
f 295/3/6 301/3/6 303/3/6
f 301/3/6 302/3/6 303/3/6
f 303/3/6 302/3/6 304/3/6
f 302/3/6 298/3/6 305/3/6
f 304/3/6 302/3/6 305/3/6
f 305/3/6 298/3/6 306/3/6
f 304/3/6 305/3/6 307/3/6
f 307/3/6 305/3/6 308/3/6
f 308/3/6 305/3/6 309/3/6
f 309/3/6 305/3/6 310/3/6
f 308/3/6 309/3/6 311/3/6
f 311/3/6 309/3/6 312/3/6
f 312/3/6 309/3/6 313/3/6
f 313/3/6 309/3/6 314/3/6
f 312/3/6 313/3/6 315/3/6
f 315/3/6 313/3/6 316/3/6
f 317/1/6 318/1/6 319/1/6
f 319/1/6 318/1/6 320/1/6
f 317/1/6 319/1/6 321/1/6
f 320/1/6 318/1/6 322/1/6
f 317/1/6 321/1/6 323/1/6
f 321/1/6 322/1/6 323/1/6
f 322/1/6 318/1/6 324/1/6
f 323/1/6 322/1/6 324/1/6
f 325/1/6 326/1/6 327/1/6
f 327/1/6 326/1/6 328/1/6
f 325/1/6 327/1/6 329/1/6
f 328/1/6 326/1/6 330/1/6
f 325/1/6 329/1/6 331/1/6
f 329/1/6 330/1/6 331/1/6
f 330/1/6 326/1/6 332/1/6
f 331/1/6 330/1/6 332/1/6
f 333/1/6 334/1/6 335/1/6
f 335/1/6 334/1/6 336/1/6
f 333/1/6 335/1/6 337/1/6
f 336/1/6 334/1/6 338/1/6
f 333/1/6 337/1/6 339/1/6
f 337/1/6 338/1/6 339/1/6
f 338/1/6 334/1/6 340/1/6
f 339/1/6 338/1/6 340/1/6
f 341/1/6 342/1/6 343/1/6
f 343/1/6 342/1/6 344/1/6
f 341/1/6 343/1/6 345/1/6
f 344/1/6 342/1/6 346/1/6
f 341/1/6 345/1/6 347/1/6
f 345/1/6 346/1/6 347/1/6
f 346/1/6 342/1/6 348/1/6
f 347/1/6 346/1/6 348/1/6
f 349/1/6 350/1/6 353/1/6
f 353/1/6 350/1/6 354/1/6
f 351/1/6 352/1/6 355/1/6
f 355/1/6 352/1/6 356/1/6
f 357/1/6 358/1/6 359/1/6
f 359/1/6 358/1/6 360/1/6
