# MagicaVoxel @ Ephtracy

# group
o 

# material
mtllib shop.mtl
usemtl palette

# normals
vn -1 0 0
vn 1 0 0
vn 0 0 1
vn 0 0 -1
vn 0 -1 0
vn 0 1 0

# texcoords
vt 0.0410156 0.5
vt 0.0449219 0.5
vt 0.841797 0.5
vt 0.958984 0.5

# verts
v 4.6 2 -5.6
v 4.6 2 -6.5
v 4.6 2.1 -5.6
v 4.6 2.1 -5.8
v 4.6 2.1 -6.5
v 4.6 3.1 -5.5
v 4.6 3.1 -5.8
v 4.6 3.1 -6.5
v 4.6 3.2 -5.5
v 4.6 3.2 -6.5
v 5 2.7 -5.7
v 5 2.7 -5.8
v 5 2.9 -5.7
v 5 2.9 -5.8
v 5.2 2.3 -5.8
v 5.2 2.3 -6.2
v 5.2 2.5 -5.8
v 5.2 2.5 -6.2
v 5.4 2.1 -5.7
v 5.4 2.1 -5.8
v 5.4 2.7 -5.7
v 5.4 2.7 -5.8
v 5.4 2.9 -5.7
v 5.4 2.9 -5.8
v 5.4 3.1 -5.7
v 5.4 3.1 -5.8
v 7.9 2.7 -5.8
v 7.9 2.7 -5.9
v 7.9 3 -5.8
v 7.9 3 -5.9
v 4.8 2.3 -5.8
v 4.8 2.3 -6.2
v 4.8 2.5 -5.8
v 4.8 2.5 -6.2
v 5.6 2.1 -5.7
v 5.6 2.1 -5.8
v 5.6 3.1 -5.7
v 5.6 3.1 -5.8
v 7.5 2.7 -5.8
v 7.5 2.7 -5.9
v 7.5 3 -5.8
v 7.5 3 -5.9
v 8 2 -5.6
v 8 2 -6.5
v 8 2.1 -5.6
v 8 2.1 -5.8
v 8 2.1 -6.5
v 8 2.6 -5.8
v 8 2.6 -6.2
v 8 3.1 -5.8
v 8 3.1 -6.2
v 8 3.1 -6.5
v 8.1 3.1 -5.5
v 8.1 3.1 -6.5
v 8.1 3.2 -5.5
v 8.1 3.2 -6.5
v 4.6 3.1 -5.5
v 4.6 3.2 -5.5
v 8.1 3.1 -5.5
v 8.1 3.2 -5.5
v 4.6 2 -5.6
v 4.6 2.1 -5.6
v 7 2 -5.6
v 7 2.1 -5.6
v 7.8 2 -5.6
v 7.8 2.1 -5.6
v 7.9 2 -5.6
v 7.9 2.1 -5.6
v 8 2 -5.6
v 8 2.1 -5.6
v 5 2.7 -5.7
v 5 2.9 -5.7
v 5.4 2.1 -5.7
v 5.4 2.7 -5.7
v 5.4 2.9 -5.7
v 5.4 3.1 -5.7
v 5.6 2.1 -5.7
v 5.6 3.1 -5.7
v 4.6 2.1 -5.8
v 4.6 3.1 -5.8
v 4.8 2.1 -5.8
v 4.8 2.3 -5.8
v 4.8 2.5 -5.8
v 4.8 3.1 -5.8
v 4.9 3.1 -5.8
v 5 2.7 -5.8
v 5 2.9 -5.8
v 5.2 2.3 -5.8
v 5.2 2.5 -5.8
v 5.4 2.1 -5.8
v 5.4 2.7 -5.8
v 5.4 2.9 -5.8
v 5.4 3.1 -5.8
v 5.6 2.1 -5.8
v 5.6 3.1 -5.8
v 5.8 2.1 -5.8
v 5.8 2.4 -5.8
v 5.8 2.6 -5.8
v 5.8 3.1 -5.8
v 6 2.1 -5.8
v 6 2.4 -5.8
v 6 2.6 -5.8
v 6 3.1 -5.8
v 6.2 2.1 -5.8
v 6.2 3.1 -5.8
v 6.4 2.1 -5.8
v 6.4 3.1 -5.8
v 6.6 2.2 -5.8
v 6.6 3 -5.8
v 6.9 2.2 -5.8
v 6.9 3 -5.8
v 7 2.1 -5.8
v 7.1 2.1 -5.8
v 7.1 3.1 -5.8
v 7.3 2.1 -5.8
v 7.3 3.1 -5.8
v 7.5 2.1 -5.8
v 7.5 2.6 -5.8
v 7.5 2.7 -5.8
v 7.5 3 -5.8
v 7.9 2.7 -5.8
v 7.9 3 -5.8
v 7.9 3.1 -5.8
v 8 2.1 -5.8
v 8 2.6 -5.8
v 8 3.1 -5.8
v 7.5 2.7 -5.9
v 7.5 3 -5.9
v 7.9 2.7 -5.9
v 7.9 3 -5.9
v 4.8 2.3 -6.2
v 4.8 2.5 -6.2
v 5.2 2.3 -6.2
v 5.2 2.5 -6.2
v 4.6 2 -6.5
v 4.6 2.1 -6.5
v 4.6 3.1 -6.5
v 4.6 3.2 -6.5
v 7 2 -6.5
v 7 2.1 -6.5
v 8 2 -6.5
v 8 2.1 -6.5
v 8 3.1 -6.5
v 8.1 3.1 -6.5
v 8.1 3.2 -6.5
v 4.6 2 -5.6
v 7 2 -5.6
v 7.8 2 -5.6
v 7.9 2 -5.6
v 8 2 -5.6
v 7.8 2 -5.7
v 7.9 2 -5.7
v 4.6 2 -6.5
v 7 2 -6.5
v 8 2 -6.5
v 4.8 2.5 -5.8
v 5.2 2.5 -5.8
v 4.8 2.5 -6.2
v 5.2 2.5 -6.2
v 5 2.7 -5.7
v 5.4 2.7 -5.7
v 5 2.7 -5.8
v 5.4 2.7 -5.8
v 7.5 3 -5.8
v 7.9 3 -5.8
v 7.5 3 -5.9
v 7.9 3 -5.9
v 4.6 3.1 -5.5
v 8.1 3.1 -5.5
v 4.8 3.1 -5.7
v 4.9 3.1 -5.7
v 5.4 3.1 -5.7
v 5.6 3.1 -5.7
v 7.9 3.1 -5.7
v 8 3.1 -5.7
v 4.6 3.1 -5.8
v 4.8 3.1 -5.8
v 4.9 3.1 -5.8
v 5.4 3.1 -5.8
v 5.6 3.1 -5.8
v 5.8 3.1 -5.8
v 6 3.1 -5.8
v 6.2 3.1 -5.8
v 6.4 3.1 -5.8
v 7.1 3.1 -5.8
v 7.3 3.1 -5.8
v 7.9 3.1 -5.8
v 8 3.1 -5.8
v 8 3.1 -6.2
v 8 3.1 -6.5
v 8.1 3.1 -6.5
v 4.6 2.1 -5.6
v 7 2.1 -5.6
v 7.8 2.1 -5.6
v 7.9 2.1 -5.6
v 8 2.1 -5.6
v 5.4 2.1 -5.7
v 5.6 2.1 -5.7
v 7.8 2.1 -5.7
v 7.9 2.1 -5.7
v 4.6 2.1 -5.8
v 4.8 2.1 -5.8
v 5.4 2.1 -5.8
v 5.6 2.1 -5.8
v 5.8 2.1 -5.8
v 6 2.1 -5.8
v 6.2 2.1 -5.8
v 6.4 2.1 -5.8
v 7 2.1 -5.8
v 7.1 2.1 -5.8
v 7.3 2.1 -5.8
v 7.5 2.1 -5.8
v 8 2.1 -5.8
v 4.8 2.3 -5.8
v 5.2 2.3 -5.8
v 4.8 2.3 -6.2
v 5.2 2.3 -6.2
v 7.5 2.7 -5.8
v 7.9 2.7 -5.8
v 7.5 2.7 -5.9
v 7.9 2.7 -5.9
v 5 2.9 -5.7
v 5.4 2.9 -5.7
v 5 2.9 -5.8
v 5.4 2.9 -5.8
v 4.6 3.2 -5.5
v 8.1 3.2 -5.5
v 4.8 3.2 -5.7
v 4.9 3.2 -5.7
v 7.9 3.2 -5.7
v 8 3.2 -5.7
v 7.9 3.2 -5.8
v 8 3.2 -5.8
v 7.9 3.2 -5.9
v 8 3.2 -5.9
v 7.9 3.2 -6.1
v 8 3.2 -6.1
v 4.8 3.2 -6.2
v 4.9 3.2 -6.2
v 4.6 3.2 -6.5
v 8.1 3.2 -6.5

# faces
f 3/1/1 2/1/1 1/1/1
f 4/1/1 2/1/1 3/1/1
f 5/1/1 2/1/1 4/1/1
f 7/3/1 5/3/1 4/3/1
f 8/3/1 5/3/1 7/3/1
f 9/1/1 7/1/1 6/1/1
f 9/1/1 8/1/1 7/1/1
f 10/1/1 8/1/1 9/1/1
f 13/3/1 12/3/1 11/3/1
f 14/3/1 12/3/1 13/3/1
f 17/4/1 16/4/1 15/4/1
f 18/4/1 16/4/1 17/4/1
f 21/3/1 20/3/1 19/3/1
f 22/3/1 20/3/1 21/3/1
f 25/3/1 24/3/1 23/3/1
f 26/3/1 24/3/1 25/3/1
f 29/4/1 28/4/1 27/4/1
f 30/4/1 28/4/1 29/4/1
f 31/3/2 32/3/2 33/3/2
f 33/3/2 32/3/2 34/3/2
f 35/3/2 36/3/2 37/3/2
f 37/3/2 36/3/2 38/3/2
f 39/4/2 40/4/2 41/4/2
f 41/4/2 40/4/2 42/4/2
f 43/2/2 44/2/2 45/2/2
f 45/2/2 44/2/2 46/2/2
f 46/2/2 44/2/2 47/2/2
f 46/3/2 47/3/2 48/3/2
f 48/3/2 47/3/2 49/3/2
f 48/4/2 49/4/2 50/4/2
f 49/3/2 47/3/2 51/3/2
f 50/4/2 49/4/2 51/4/2
f 51/3/2 47/3/2 52/3/2
f 53/1/2 54/1/2 55/1/2
f 55/1/2 54/1/2 56/1/2
f 59/1/3 58/1/3 57/1/3
f 60/1/3 58/1/3 59/1/3
f 63/1/3 62/1/3 61/1/3
f 64/1/3 62/1/3 63/1/3
f 65/2/3 64/2/3 63/2/3
f 66/2/3 64/2/3 65/2/3
f 67/1/3 66/1/3 65/1/3
f 68/1/3 66/1/3 67/1/3
f 69/2/3 68/2/3 67/2/3
f 70/2/3 68/2/3 69/2/3
f 74/3/3 72/3/3 71/3/3
f 75/3/3 72/3/3 74/3/3
f 77/3/3 74/3/3 73/3/3
f 77/3/3 76/3/3 75/3/3
f 77/3/3 75/3/3 74/3/3
f 78/3/3 76/3/3 77/3/3
f 81/3/3 80/3/3 79/3/3
f 82/3/3 80/3/3 81/3/3
f 83/3/3 80/3/3 82/3/3
f 84/3/3 80/3/3 83/3/3
f 85/4/3 84/4/3 83/4/3
f 86/4/3 85/4/3 83/4/3
f 87/4/3 85/4/3 86/4/3
f 88/4/3 82/4/3 81/4/3
f 89/4/3 86/4/3 83/4/3
f 90/4/3 88/4/3 81/4/3
f 90/4/3 89/4/3 88/4/3
f 91/4/3 86/4/3 89/4/3
f 91/4/3 89/4/3 90/4/3
f 92/4/3 85/4/3 87/4/3
f 93/4/3 85/4/3 92/4/3
f 96/4/3 95/4/3 94/4/3
f 97/4/3 95/4/3 96/4/3
f 98/4/3 95/4/3 97/4/3
f 99/4/3 95/4/3 98/4/3
f 100/3/3 97/3/3 96/3/3
f 101/4/3 98/4/3 97/4/3
f 101/3/3 97/3/3 100/3/3
f 102/3/3 99/3/3 98/3/3
f 102/4/3 98/4/3 101/4/3
f 103/3/3 99/3/3 102/3/3
f 104/4/3 101/4/3 100/4/3
f 104/4/3 102/4/3 101/4/3
f 104/4/3 103/4/3 102/4/3
f 105/4/3 103/4/3 104/4/3
f 106/3/3 105/3/3 104/3/3
f 107/3/3 105/3/3 106/3/3
f 108/4/3 107/4/3 106/4/3
f 109/4/3 107/4/3 108/4/3
f 110/4/3 108/4/3 106/4/3
f 110/3/3 109/3/3 108/3/3
f 111/4/3 107/4/3 109/4/3
f 111/3/3 109/3/3 110/3/3
f 112/4/3 110/4/3 106/4/3
f 112/4/3 111/4/3 110/4/3
f 113/4/3 111/4/3 112/4/3
f 114/4/3 107/4/3 111/4/3
f 114/4/3 111/4/3 113/4/3
f 115/3/3 114/3/3 113/3/3
f 116/3/3 114/3/3 115/3/3
f 117/4/3 116/4/3 115/4/3
f 118/4/3 116/4/3 117/4/3
f 119/4/3 116/4/3 118/4/3
f 120/4/3 116/4/3 119/4/3
f 121/4/3 119/4/3 118/4/3
f 122/4/3 116/4/3 120/4/3
f 123/4/3 116/4/3 122/4/3
f 124/3/3 118/3/3 117/3/3
f 125/4/3 121/4/3 118/4/3
f 125/3/3 118/3/3 124/3/3
f 125/4/3 122/4/3 121/4/3
f 125/4/3 123/4/3 122/4/3
f 126/4/3 123/4/3 125/4/3
f 129/3/3 128/3/3 127/3/3
f 130/3/3 128/3/3 129/3/3
f 133/3/3 132/3/3 131/3/3
f 134/3/3 132/3/3 133/3/3
f 135/1/4 136/1/4 139/1/4
f 136/3/4 137/3/4 140/3/4
f 139/1/4 136/1/4 140/1/4
f 139/2/4 140/2/4 141/2/4
f 140/3/4 137/3/4 142/3/4
f 141/2/4 140/2/4 142/2/4
f 137/1/4 138/1/4 143/1/4
f 142/3/4 137/3/4 143/3/4
f 143/1/4 138/1/4 144/1/4
f 144/1/4 138/1/4 145/1/4
f 151/2/5 148/2/5 147/2/5
f 151/1/5 149/1/5 148/1/5
f 152/2/5 150/2/5 149/2/5
f 152/1/5 149/1/5 151/1/5
f 153/1/5 147/1/5 146/1/5
f 154/2/5 151/2/5 147/2/5
f 154/1/5 147/1/5 153/1/5
f 154/2/5 152/2/5 151/2/5
f 155/2/5 150/2/5 152/2/5
f 155/2/5 152/2/5 154/2/5
f 158/4/5 157/4/5 156/4/5
f 159/4/5 157/4/5 158/4/5
f 162/3/5 161/3/5 160/3/5
f 163/3/5 161/3/5 162/3/5
f 166/4/5 165/4/5 164/4/5
f 167/4/5 165/4/5 166/4/5
f 170/1/5 169/1/5 168/1/5
f 171/1/5 169/1/5 170/1/5
f 172/1/5 169/1/5 171/1/5
f 173/1/5 169/1/5 172/1/5
f 174/1/5 169/1/5 173/1/5
f 175/1/5 169/1/5 174/1/5
f 176/1/5 170/1/5 168/1/5
f 177/2/5 171/2/5 170/2/5
f 177/1/5 170/1/5 176/1/5
f 178/1/5 172/1/5 171/1/5
f 178/2/5 171/2/5 177/2/5
f 179/1/5 172/1/5 178/1/5
f 180/1/5 174/1/5 173/1/5
f 181/1/5 174/1/5 180/1/5
f 182/1/5 174/1/5 181/1/5
f 183/1/5 174/1/5 182/1/5
f 184/1/5 174/1/5 183/1/5
f 185/1/5 174/1/5 184/1/5
f 186/1/5 174/1/5 185/1/5
f 187/2/5 175/2/5 174/2/5
f 187/1/5 174/1/5 186/1/5
f 188/1/5 169/1/5 175/1/5
f 188/2/5 175/2/5 187/2/5
f 189/1/5 169/1/5 188/1/5
f 190/1/5 169/1/5 189/1/5
f 191/1/5 169/1/5 190/1/5
f 192/1/6 193/1/6 197/1/6
f 197/1/6 193/1/6 198/1/6
f 193/2/6 194/2/6 199/2/6
f 194/1/6 195/1/6 199/1/6
f 195/2/6 196/2/6 200/2/6
f 199/1/6 195/1/6 200/1/6
f 192/1/6 197/1/6 201/1/6
f 201/1/6 197/1/6 202/1/6
f 202/1/6 197/1/6 203/1/6
f 198/1/6 193/1/6 204/1/6
f 204/1/6 193/1/6 205/1/6
f 205/1/6 193/1/6 206/1/6
f 206/1/6 193/1/6 207/1/6
f 207/1/6 193/1/6 208/1/6
f 193/2/6 199/2/6 209/2/6
f 208/1/6 193/1/6 209/1/6
f 199/2/6 200/2/6 209/2/6
f 209/2/6 200/2/6 210/2/6
f 210/2/6 200/2/6 211/2/6
f 211/2/6 200/2/6 212/2/6
f 200/2/6 196/2/6 213/2/6
f 212/2/6 200/2/6 213/2/6
f 214/4/6 215/4/6 216/4/6
f 216/4/6 215/4/6 217/4/6
f 218/4/6 219/4/6 220/4/6
f 220/4/6 219/4/6 221/4/6
f 222/3/6 223/3/6 224/3/6
f 224/3/6 223/3/6 225/3/6
f 226/1/6 227/1/6 228/1/6
f 228/1/6 227/1/6 229/1/6
f 229/1/6 227/1/6 230/1/6
f 230/1/6 227/1/6 231/1/6
f 229/1/6 230/1/6 232/1/6
f 230/2/6 231/2/6 232/2/6
f 231/1/6 227/1/6 233/1/6
f 232/2/6 231/2/6 233/2/6
f 229/1/6 232/1/6 234/1/6
f 232/1/6 233/1/6 234/1/6
f 233/1/6 227/1/6 235/1/6
f 234/1/6 233/1/6 235/1/6
f 229/1/6 234/1/6 236/1/6
f 234/2/6 235/2/6 236/2/6
f 235/1/6 227/1/6 237/1/6
f 236/2/6 235/2/6 237/2/6
f 226/1/6 228/1/6 238/1/6
f 228/2/6 229/2/6 238/2/6
f 236/1/6 237/1/6 239/1/6
f 238/2/6 229/2/6 239/2/6
f 229/1/6 236/1/6 239/1/6
f 226/1/6 238/1/6 240/1/6
f 238/1/6 239/1/6 240/1/6
f 237/1/6 227/1/6 241/1/6
f 240/1/6 239/1/6 241/1/6
f 239/1/6 237/1/6 241/1/6
