# MagicaVoxel @ Ephtracy

# group
o MetallBox

# material
mtllib LittlePaperTable-0-MetallBox.mtl
usemtl palette

# normals
vn -1 0 0
vn 1 0 0
vn 0 0 1
vn 0 0 -1
vn 0 -1 0
vn 0 1 0

# texcoords
vt 0.919922 0.5
vt 0.923828 0.5
vt 0.927734 0.5

# verts
v -1.2 0.5 1.1
v -1.2 0.5 1
v -1.2 0.5 0.1
v -1.2 1.1 1
v -1.2 1.1 0.1
v -1.2 1.2 1.1
v -1.2 1.2 1
v -1 0.8 1.3
v -1 0.8 1.1
v -1 0.9 1.3
v -1 0.9 1.1
v -0.4 0.8 1.2
v -0.4 0.8 1.1
v -0.4 0.9 1.2
v -0.4 0.9 1.1
v -0.2 0.6 1
v -0.2 0.6 0.2
v -0.2 1.1 1
v -0.2 1.1 0.2
v -1.1 0.6 1
v -1.1 0.6 0.2
v -1.1 1.1 1
v -1.1 1.1 0.2
v -0.9 0.8 1.2
v -0.9 0.8 1.1
v -0.9 0.9 1.2
v -0.9 0.9 1.1
v -0.3 0.8 1.3
v -0.3 0.8 1.1
v -0.3 0.9 1.3
v -0.3 0.9 1.1
v -0.1 0.5 1.1
v -0.1 0.5 1
v -0.1 0.5 0.1
v -0.1 1.1 1
v -0.1 1.1 0.1
v -0.1 1.2 1.1
v -0.1 1.2 1
v -1 0.8 1.3
v -1 0.9 1.3
v -0.3 0.8 1.3
v -0.3 0.9 1.3
v -1.2 0.5 1.1
v -1.2 1.2 1.1
v -1 0.8 1.1
v -1 0.9 1.1
v -0.9 0.8 1.1
v -0.9 0.9 1.1
v -0.4 0.8 1.1
v -0.4 0.9 1.1
v -0.3 0.8 1.1
v -0.3 0.9 1.1
v -0.1 0.5 1.1
v -0.1 1.2 1.1
v -1.1 0.6 0.2
v -1.1 1.1 0.2
v -0.2 0.6 0.2
v -0.2 1.1 0.2
v -0.9 0.8 1.2
v -0.9 0.9 1.2
v -0.4 0.8 1.2
v -0.4 0.9 1.2
v -1.2 1.1 1
v -1.2 1.2 1
v -1.1 0.6 1
v -1.1 1.1 1
v -0.2 0.6 1
v -0.2 1.1 1
v -0.1 1.1 1
v -0.1 1.2 1
v -1.2 0.5 0.1
v -1.2 1.1 0.1
v -0.1 0.5 0.1
v -0.1 1.1 0.1
v -1.2 0.5 1.1
v -0.1 0.5 1.1
v -1.2 0.5 1
v -0.1 0.5 1
v -1.2 0.5 0.1
v -0.1 0.5 0.1
v -1 0.8 1.3
v -0.3 0.8 1.3
v -0.9 0.8 1.2
v -0.4 0.8 1.2
v -1 0.8 1.1
v -0.9 0.8 1.1
v -0.4 0.8 1.1
v -0.3 0.8 1.1
v -1.1 0.6 1
v -0.2 0.6 1
v -1.1 0.6 0.2
v -0.2 0.6 0.2
v -1 0.9 1.3
v -0.3 0.9 1.3
v -0.9 0.9 1.2
v -0.4 0.9 1.2
v -1 0.9 1.1
v -0.9 0.9 1.1
v -0.4 0.9 1.1
v -0.3 0.9 1.1
v -1.2 1.1 1
v -1.1 1.1 1
v -0.2 1.1 1
v -0.1 1.1 1
v -1.1 1.1 0.2
v -0.2 1.1 0.2
v -1.2 1.1 0.1
v -0.1 1.1 0.1
v -1.2 1.2 1.1
v -0.1 1.2 1.1
v -1.2 1.2 1
v -0.1 1.2 1

# faces
f 4/1/1 2/1/1 1/1/1
f 4/2/1 3/2/1 2/2/1
f 5/2/1 3/2/1 4/2/1
f 6/1/1 4/1/1 1/1/1
f 7/1/1 4/1/1 6/1/1
f 10/3/1 9/3/1 8/3/1
f 11/3/1 9/3/1 10/3/1
f 14/3/1 13/3/1 12/3/1
f 15/3/1 13/3/1 14/3/1
f 18/2/1 17/2/1 16/2/1
f 19/2/1 17/2/1 18/2/1
f 20/2/2 21/2/2 22/2/2
f 22/2/2 21/2/2 23/2/2
f 24/3/2 25/3/2 26/3/2
f 26/3/2 25/3/2 27/3/2
f 28/3/2 29/3/2 30/3/2
f 30/3/2 29/3/2 31/3/2
f 32/1/2 33/1/2 35/1/2
f 33/2/2 34/2/2 35/2/2
f 35/2/2 34/2/2 36/2/2
f 32/1/2 35/1/2 37/1/2
f 37/1/2 35/1/2 38/1/2
f 41/3/3 40/3/3 39/3/3
f 42/3/3 40/3/3 41/3/3
f 45/1/3 44/1/3 43/1/3
f 46/1/3 44/1/3 45/1/3
f 47/1/3 45/1/3 43/1/3
f 48/1/3 44/1/3 46/1/3
f 49/1/3 47/1/3 43/1/3
f 49/1/3 48/1/3 47/1/3
f 50/1/3 44/1/3 48/1/3
f 50/1/3 48/1/3 49/1/3
f 51/1/3 49/1/3 43/1/3
f 52/1/3 44/1/3 50/1/3
f 53/1/3 51/1/3 43/1/3
f 53/1/3 52/1/3 51/1/3
f 54/1/3 44/1/3 52/1/3
f 54/1/3 52/1/3 53/1/3
f 57/2/3 56/2/3 55/2/3
f 58/2/3 56/2/3 57/2/3
f 59/3/4 60/3/4 61/3/4
f 61/3/4 60/3/4 62/3/4
f 63/1/4 64/1/4 66/1/4
f 65/1/4 66/1/4 67/1/4
f 66/1/4 64/1/4 68/1/4
f 67/1/4 66/1/4 68/1/4
f 68/1/4 64/1/4 69/1/4
f 69/1/4 64/1/4 70/1/4
f 71/2/4 72/2/4 73/2/4
f 73/2/4 72/2/4 74/2/4
f 77/1/5 76/1/5 75/1/5
f 78/1/5 76/1/5 77/1/5
f 79/2/5 78/2/5 77/2/5
f 80/2/5 78/2/5 79/2/5
f 83/3/5 82/3/5 81/3/5
f 84/3/5 82/3/5 83/3/5
f 85/3/5 83/3/5 81/3/5
f 86/3/5 83/3/5 85/3/5
f 87/3/5 82/3/5 84/3/5
f 88/3/5 82/3/5 87/3/5
f 89/2/6 90/2/6 91/2/6
f 91/2/6 90/2/6 92/2/6
f 93/3/6 94/3/6 95/3/6
f 95/3/6 94/3/6 96/3/6
f 93/3/6 95/3/6 97/3/6
f 97/3/6 95/3/6 98/3/6
f 96/3/6 94/3/6 99/3/6
f 99/3/6 94/3/6 100/3/6
f 101/2/6 102/2/6 105/2/6
f 103/2/6 104/2/6 106/2/6
f 101/2/6 105/2/6 107/2/6
f 105/2/6 106/2/6 107/2/6
f 106/2/6 104/2/6 108/2/6
f 107/2/6 106/2/6 108/2/6
f 109/1/6 110/1/6 111/1/6
f 111/1/6 110/1/6 112/1/6
