# MagicaVoxel @ Ephtracy

# group
o 

# material
mtllib BMW-ORANGE-2.mtl
usemtl palette

# normals
vn -1 0 0
vn 1 0 0
vn 0 -1 0
vn 0 1 0
vn 0 0 -1
vn 0 0 1

# texcoords
vt 0.970703 0.5
vt 0.974609 0.5
vt 0.994141 0.5

# verts
v 10 -31 0
v 10 -26 0
v 10 -32 1
v 10 -31 1
v 10 -26 1
v 10 -25 1
v 10 -33 2
v 10 -32 2
v 10 -25 2
v 10 -24 2
v 10 -34 3
v 10 -33 3
v 10 -24 3
v 10 -23 3
v 10 -34 8
v 10 -33 8
v 10 -24 8
v 10 -23 8
v 10 -33 9
v 10 -32 9
v 10 -25 9
v 10 -24 9
v 10 -32 10
v 10 -31 10
v 10 -26 10
v 10 -25 10
v 10 -31 11
v 10 -26 11
v 14 -31 3
v 14 -29 3
v 14 -28 3
v 14 -26 3
v 14 -30 4
v 14 -29 4
v 14 -28 4
v 14 -27 4
v 14 -31 5
v 14 -30 5
v 14 -27 5
v 14 -26 5
v 14 -31 6
v 14 -30 6
v 14 -27 6
v 14 -26 6
v 14 -30 7
v 14 -29 7
v 14 -28 7
v 14 -27 7
v 14 -31 8
v 14 -29 8
v 14 -28 8
v 14 -26 8
v 15 -29 3
v 15 -28 3
v 15 -30 4
v 15 -29 4
v 15 -28 4
v 15 -27 4
v 15 -31 5
v 15 -30 5
v 15 -27 5
v 15 -26 5
v 15 -31 6
v 15 -30 6
v 15 -27 6
v 15 -26 6
v 15 -30 7
v 15 -29 7
v 15 -28 7
v 15 -27 7
v 15 -29 8
v 15 -28 8
v 17 -31 0
v 17 -26 0
v 17 -32 1
v 17 -31 1
v 17 -26 1
v 17 -25 1
v 17 -33 2
v 17 -32 2
v 17 -31 2
v 17 -26 2
v 17 -25 2
v 17 -24 2
v 17 -34 3
v 17 -33 3
v 17 -32 3
v 17 -31 3
v 17 -26 3
v 17 -25 3
v 17 -24 3
v 17 -23 3
v 17 -34 8
v 17 -33 8
v 17 -32 8
v 17 -31 8
v 17 -26 8
v 17 -25 8
v 17 -24 8
v 17 -23 8
v 17 -33 9
v 17 -32 9
v 17 -31 9
v 17 -26 9
v 17 -25 9
v 17 -24 9
v 17 -32 10
v 17 -31 10
v 17 -26 10
v 17 -25 10
v 17 -31 11
v 17 -26 11
v 10 -34 3
v 10 -34 8
v 17 -34 3
v 17 -34 8
v 10 -33 2
v 10 -33 3
v 10 -33 8
v 10 -33 9
v 17 -33 2
v 17 -33 3
v 17 -33 8
v 17 -33 9
v 10 -32 1
v 10 -32 2
v 10 -32 9
v 10 -32 10
v 17 -32 1
v 17 -32 2
v 17 -32 9
v 17 -32 10
v 10 -31 0
v 10 -31 1
v 10 -31 10
v 10 -31 11
v 17 -31 0
v 17 -31 1
v 17 -31 10
v 17 -31 11
v 14 -30 4
v 14 -30 5
v 14 -30 6
v 14 -30 7
v 15 -30 4
v 15 -30 5
v 15 -30 6
v 15 -30 7
v 14 -29 3
v 14 -29 4
v 14 -29 7
v 14 -29 8
v 15 -29 3
v 15 -29 4
v 15 -29 7
v 15 -29 8
v 14 -26 3
v 14 -26 5
v 14 -26 6
v 14 -26 8
v 15 -26 5
v 15 -26 6
v 17 -26 3
v 17 -26 8
v 14 -31 3
v 14 -31 5
v 14 -31 6
v 14 -31 8
v 15 -31 5
v 15 -31 6
v 17 -31 3
v 17 -31 8
v 14 -28 3
v 14 -28 4
v 14 -28 7
v 14 -28 8
v 15 -28 3
v 15 -28 4
v 15 -28 7
v 15 -28 8
v 14 -27 4
v 14 -27 5
v 14 -27 6
v 14 -27 7
v 15 -27 4
v 15 -27 5
v 15 -27 6
v 15 -27 7
v 10 -26 0
v 10 -26 1
v 10 -26 10
v 10 -26 11
v 17 -26 0
v 17 -26 1
v 17 -26 10
v 17 -26 11
v 10 -25 1
v 10 -25 2
v 10 -25 9
v 10 -25 10
v 17 -25 1
v 17 -25 2
v 17 -25 9
v 17 -25 10
v 10 -24 2
v 10 -24 3
v 10 -24 8
v 10 -24 9
v 17 -24 2
v 17 -24 3
v 17 -24 8
v 17 -24 9
v 10 -23 3
v 10 -23 8
v 17 -23 3
v 17 -23 8
v 10 -31 0
v 17 -31 0
v 10 -26 0
v 17 -26 0
v 10 -32 1
v 17 -32 1
v 10 -31 1
v 17 -31 1
v 10 -26 1
v 17 -26 1
v 10 -25 1
v 17 -25 1
v 10 -33 2
v 17 -33 2
v 10 -32 2
v 17 -32 2
v 10 -25 2
v 17 -25 2
v 10 -24 2
v 17 -24 2
v 10 -34 3
v 17 -34 3
v 10 -33 3
v 17 -33 3
v 10 -24 3
v 17 -24 3
v 10 -23 3
v 17 -23 3
v 14 -30 4
v 15 -30 4
v 14 -29 4
v 15 -29 4
v 14 -28 4
v 15 -28 4
v 14 -27 4
v 15 -27 4
v 14 -31 5
v 15 -31 5
v 14 -30 5
v 15 -30 5
v 14 -27 5
v 15 -27 5
v 14 -26 5
v 15 -26 5
v 14 -31 8
v 17 -31 8
v 14 -29 8
v 15 -29 8
v 14 -28 8
v 15 -28 8
v 14 -26 8
v 17 -26 8
v 14 -31 3
v 17 -31 3
v 14 -29 3
v 15 -29 3
v 14 -28 3
v 15 -28 3
v 14 -26 3
v 17 -26 3
v 14 -31 6
v 15 -31 6
v 14 -30 6
v 15 -30 6
v 14 -27 6
v 15 -27 6
v 14 -26 6
v 15 -26 6
v 14 -30 7
v 15 -30 7
v 14 -29 7
v 15 -29 7
v 14 -28 7
v 15 -28 7
v 14 -27 7
v 15 -27 7
v 10 -34 8
v 17 -34 8
v 10 -33 8
v 17 -33 8
v 10 -24 8
v 17 -24 8
v 10 -23 8
v 17 -23 8
v 10 -33 9
v 17 -33 9
v 10 -32 9
v 17 -32 9
v 10 -25 9
v 17 -25 9
v 10 -24 9
v 17 -24 9
v 10 -32 10
v 17 -32 10
v 10 -31 10
v 17 -31 10
v 10 -26 10
v 17 -26 10
v 10 -25 10
v 17 -25 10
v 10 -31 11
v 17 -31 11
v 10 -26 11
v 17 -26 11

# faces
f 4/3/1 2/3/1 1/3/1
f 5/3/1 2/3/1 4/3/1
f 8/3/1 4/3/1 3/3/1
f 8/3/1 6/3/1 5/3/1
f 8/3/1 5/3/1 4/3/1
f 9/3/1 6/3/1 8/3/1
f 12/3/1 8/3/1 7/3/1
f 12/3/1 10/3/1 9/3/1
f 12/3/1 9/3/1 8/3/1
f 13/3/1 10/3/1 12/3/1
f 15/3/1 12/3/1 11/3/1
f 15/3/1 14/3/1 13/3/1
f 15/3/1 13/3/1 12/3/1
f 16/3/1 14/3/1 15/3/1
f 17/3/1 14/3/1 16/3/1
f 18/3/1 14/3/1 17/3/1
f 19/3/1 17/3/1 16/3/1
f 20/3/1 17/3/1 19/3/1
f 21/3/1 17/3/1 20/3/1
f 22/3/1 17/3/1 21/3/1
f 23/3/1 21/3/1 20/3/1
f 24/3/1 21/3/1 23/3/1
f 25/3/1 21/3/1 24/3/1
f 26/3/1 21/3/1 25/3/1
f 27/3/1 25/3/1 24/3/1
f 28/3/1 25/3/1 27/3/1
f 29/2/2 30/2/2 33/2/2
f 33/2/2 30/2/2 34/2/2
f 31/2/2 32/2/2 35/2/2
f 35/2/2 32/2/2 36/2/2
f 29/2/2 33/2/2 37/2/2
f 37/2/2 33/2/2 38/2/2
f 36/2/2 32/2/2 39/2/2
f 39/2/2 32/2/2 40/2/2
f 41/2/2 42/2/2 45/2/2
f 43/2/2 44/2/2 48/2/2
f 45/2/2 46/2/2 49/2/2
f 41/2/2 45/2/2 49/2/2
f 49/2/2 46/2/2 50/2/2
f 47/2/2 48/2/2 51/2/2
f 48/2/2 44/2/2 52/2/2
f 51/2/2 48/2/2 52/2/2
f 53/1/2 54/1/2 56/1/2
f 56/1/2 54/1/2 57/1/2
f 55/1/2 56/1/2 60/1/2
f 57/1/2 58/1/2 60/1/2
f 56/1/2 57/1/2 60/1/2
f 60/1/2 58/1/2 61/1/2
f 59/1/2 60/1/2 63/1/2
f 61/1/2 62/1/2 63/1/2
f 60/1/2 61/1/2 63/1/2
f 63/1/2 62/1/2 64/1/2
f 64/1/2 62/1/2 65/1/2
f 65/1/2 62/1/2 66/1/2
f 64/1/2 65/1/2 67/1/2
f 67/1/2 65/1/2 68/1/2
f 68/1/2 65/1/2 69/1/2
f 69/1/2 65/1/2 70/1/2
f 68/1/2 69/1/2 71/1/2
f 71/1/2 69/1/2 72/1/2
f 73/3/2 74/3/2 76/3/2
f 76/3/2 74/3/2 77/3/2
f 75/3/2 76/3/2 80/3/2
f 77/3/2 78/3/2 80/3/2
f 76/3/2 77/3/2 80/3/2
f 80/3/2 78/3/2 81/3/2
f 81/3/2 78/3/2 82/3/2
f 82/3/2 78/3/2 83/3/2
f 79/3/2 80/3/2 86/3/2
f 80/3/2 81/3/2 86/3/2
f 86/3/2 81/3/2 87/3/2
f 81/2/2 82/2/2 88/2/2
f 87/3/2 81/3/2 88/3/2
f 83/3/2 84/3/2 89/3/2
f 88/2/2 82/2/2 89/2/2
f 82/3/2 83/3/2 89/3/2
f 89/3/2 84/3/2 90/3/2
f 90/3/2 84/3/2 91/3/2
f 85/3/2 86/3/2 93/3/2
f 86/3/2 87/3/2 93/3/2
f 93/3/2 87/3/2 94/3/2
f 87/2/2 88/2/2 95/2/2
f 94/3/2 87/3/2 95/3/2
f 95/2/2 88/2/2 96/2/2
f 89/2/2 90/2/2 97/2/2
f 91/3/2 92/3/2 98/3/2
f 90/3/2 91/3/2 98/3/2
f 97/2/2 90/2/2 98/2/2
f 98/3/2 92/3/2 99/3/2
f 99/3/2 92/3/2 100/3/2
f 95/3/2 96/3/2 101/3/2
f 94/3/2 95/3/2 101/3/2
f 101/3/2 96/3/2 102/3/2
f 96/2/2 97/2/2 103/2/2
f 102/3/2 96/3/2 103/3/2
f 98/3/2 99/3/2 104/3/2
f 103/2/2 97/2/2 104/2/2
f 97/3/2 98/3/2 104/3/2
f 104/3/2 99/3/2 105/3/2
f 105/3/2 99/3/2 106/3/2
f 102/3/2 103/3/2 107/3/2
f 104/3/2 105/3/2 107/3/2
f 103/3/2 104/3/2 107/3/2
f 107/3/2 105/3/2 108/3/2
f 108/3/2 105/3/2 109/3/2
f 109/3/2 105/3/2 110/3/2
f 108/3/2 109/3/2 111/3/2
f 111/3/2 109/3/2 112/3/2
f 115/3/3 114/3/3 113/3/3
f 116/3/3 114/3/3 115/3/3
f 121/3/3 118/3/3 117/3/3
f 122/3/3 118/3/3 121/3/3
f 123/3/3 120/3/3 119/3/3
f 124/3/3 120/3/3 123/3/3
f 129/3/3 126/3/3 125/3/3
f 130/3/3 126/3/3 129/3/3
f 131/3/3 128/3/3 127/3/3
f 132/3/3 128/3/3 131/3/3
f 137/3/3 134/3/3 133/3/3
f 138/3/3 134/3/3 137/3/3
f 139/3/3 136/3/3 135/3/3
f 140/3/3 136/3/3 139/3/3
f 145/1/3 142/1/3 141/1/3
f 146/1/3 142/1/3 145/1/3
f 147/1/3 144/1/3 143/1/3
f 148/1/3 144/1/3 147/1/3
f 153/1/3 150/1/3 149/1/3
f 154/1/3 150/1/3 153/1/3
f 155/1/3 152/1/3 151/1/3
f 156/1/3 152/1/3 155/1/3
f 161/2/3 158/2/3 157/2/3
f 162/2/3 160/2/3 159/2/3
f 163/2/3 161/2/3 157/2/3
f 163/2/3 162/2/3 161/2/3
f 164/2/3 160/2/3 162/2/3
f 164/2/3 162/2/3 163/2/3
f 165/2/4 166/2/4 169/2/4
f 167/2/4 168/2/4 170/2/4
f 165/2/4 169/2/4 171/2/4
f 169/2/4 170/2/4 171/2/4
f 170/2/4 168/2/4 172/2/4
f 171/2/4 170/2/4 172/2/4
f 173/1/4 174/1/4 177/1/4
f 177/1/4 174/1/4 178/1/4
f 175/1/4 176/1/4 179/1/4
f 179/1/4 176/1/4 180/1/4
f 181/1/4 182/1/4 185/1/4
f 185/1/4 182/1/4 186/1/4
f 183/1/4 184/1/4 187/1/4
f 187/1/4 184/1/4 188/1/4
f 189/3/4 190/3/4 193/3/4
f 193/3/4 190/3/4 194/3/4
f 191/3/4 192/3/4 195/3/4
f 195/3/4 192/3/4 196/3/4
f 197/3/4 198/3/4 201/3/4
f 201/3/4 198/3/4 202/3/4
f 199/3/4 200/3/4 203/3/4
f 203/3/4 200/3/4 204/3/4
f 205/3/4 206/3/4 209/3/4
f 209/3/4 206/3/4 210/3/4
f 207/3/4 208/3/4 211/3/4
f 211/3/4 208/3/4 212/3/4
f 213/3/4 214/3/4 215/3/4
f 215/3/4 214/3/4 216/3/4
f 219/3/5 218/3/5 217/3/5
f 220/3/5 218/3/5 219/3/5
f 223/3/5 222/3/5 221/3/5
f 224/3/5 222/3/5 223/3/5
f 227/3/5 226/3/5 225/3/5
f 228/3/5 226/3/5 227/3/5
f 231/3/5 230/3/5 229/3/5
f 232/3/5 230/3/5 231/3/5
f 235/3/5 234/3/5 233/3/5
f 236/3/5 234/3/5 235/3/5
f 239/3/5 238/3/5 237/3/5
f 240/3/5 238/3/5 239/3/5
f 243/3/5 242/3/5 241/3/5
f 244/3/5 242/3/5 243/3/5
f 247/1/5 246/1/5 245/1/5
f 248/1/5 246/1/5 247/1/5
f 251/1/5 250/1/5 249/1/5
f 252/1/5 250/1/5 251/1/5
f 255/1/5 254/1/5 253/1/5
f 256/1/5 254/1/5 255/1/5
f 259/1/5 258/1/5 257/1/5
f 260/1/5 258/1/5 259/1/5
f 263/2/5 262/2/5 261/2/5
f 264/2/5 262/2/5 263/2/5
f 266/2/5 262/2/5 264/2/5
f 267/2/5 266/2/5 265/2/5
f 268/2/5 262/2/5 266/2/5
f 268/2/5 266/2/5 267/2/5
f 269/2/6 270/2/6 271/2/6
f 271/2/6 270/2/6 272/2/6
f 272/2/6 270/2/6 274/2/6
f 273/2/6 274/2/6 275/2/6
f 274/2/6 270/2/6 276/2/6
f 275/2/6 274/2/6 276/2/6
f 277/1/6 278/1/6 279/1/6
f 279/1/6 278/1/6 280/1/6
f 281/1/6 282/1/6 283/1/6
f 283/1/6 282/1/6 284/1/6
f 285/1/6 286/1/6 287/1/6
f 287/1/6 286/1/6 288/1/6
f 289/1/6 290/1/6 291/1/6
f 291/1/6 290/1/6 292/1/6
f 293/3/6 294/3/6 295/3/6
f 295/3/6 294/3/6 296/3/6
f 297/3/6 298/3/6 299/3/6
f 299/3/6 298/3/6 300/3/6
f 301/3/6 302/3/6 303/3/6
f 303/3/6 302/3/6 304/3/6
f 305/3/6 306/3/6 307/3/6
f 307/3/6 306/3/6 308/3/6
f 309/3/6 310/3/6 311/3/6
f 311/3/6 310/3/6 312/3/6
f 313/3/6 314/3/6 315/3/6
f 315/3/6 314/3/6 316/3/6
f 317/3/6 318/3/6 319/3/6
f 319/3/6 318/3/6 320/3/6
