# MagicaVoxel @ Ephtracy

# group
o 

# material
mtllib alcohol.mtl
usemtl palette

# normals
vn -1 0 0
vn 1 0 0
vn 0 0 1
vn 0 0 -1
vn 0 -1 0
vn 0 1 0

# texcoords
vt 0.826172 0.5
vt 0.970703 0.5

# verts
v 1.8 2 -2.2
v 1.8 2 -2.7
v 1.8 3.5 -2.2
v 1.8 3.5 -2.7
v 1.9 2 -2.1
v 1.9 2 -2.2
v 1.9 2 -2.7
v 1.9 2 -2.8
v 1.9 3.5 -2.1
v 1.9 3.5 -2.2
v 1.9 3.5 -2.7
v 1.9 3.5 -2.8
v 2 2 -2
v 2 2 -2.1
v 2 2 -2.8
v 2 2 -2.9
v 2 3.5 -2
v 2 3.5 -2.1
v 2 3.5 -2.8
v 2 3.5 -2.9
v 2 3.6 -2.1
v 2 3.6 -2.8
v 2.1 2 -1.9
v 2.1 2 -2
v 2.1 2 -2.9
v 2.1 2 -3
v 2.1 3.5 -1.9
v 2.1 3.5 -2
v 2.1 3.5 -2.9
v 2.1 3.5 -3
v 2.1 3.6 -2.2
v 2.1 3.6 -2.7
v 2.1 3.7 -2.2
v 2.1 3.7 -2.7
v 2.2 3.7 -2.3
v 2.2 3.7 -2.6
v 2.2 3.8 -2.3
v 2.2 3.8 -2.6
v 2.2 3.9 -2.3
v 2.2 3.9 -2.6
v 2.4 3.8 -2.4
v 2.4 3.8 -2.5
v 2.4 3.9 -2.4
v 2.4 3.9 -2.5
v 2.3 3.8 -2.4
v 2.3 3.8 -2.5
v 2.3 3.9 -2.4
v 2.3 3.9 -2.5
v 2.5 3.7 -2.3
v 2.5 3.7 -2.6
v 2.5 3.8 -2.3
v 2.5 3.8 -2.6
v 2.5 3.9 -2.3
v 2.5 3.9 -2.6
v 2.6 2 -1.9
v 2.6 2 -2
v 2.6 2 -2.9
v 2.6 2 -3
v 2.6 3.5 -1.9
v 2.6 3.5 -2
v 2.6 3.5 -2.9
v 2.6 3.5 -3
v 2.6 3.6 -2.2
v 2.6 3.6 -2.7
v 2.6 3.7 -2.2
v 2.6 3.7 -2.7
v 2.7 2 -2
v 2.7 2 -2.1
v 2.7 2 -2.8
v 2.7 2 -2.9
v 2.7 3.5 -2
v 2.7 3.5 -2.1
v 2.7 3.5 -2.8
v 2.7 3.5 -2.9
v 2.7 3.6 -2.1
v 2.7 3.6 -2.8
v 2.8 2 -2.1
v 2.8 2 -2.2
v 2.8 2 -2.7
v 2.8 2 -2.8
v 2.8 3.5 -2.1
v 2.8 3.5 -2.2
v 2.8 3.5 -2.7
v 2.8 3.5 -2.8
v 2.9 2 -2.2
v 2.9 2 -2.7
v 2.9 3.5 -2.2
v 2.9 3.5 -2.7
v 2.1 2 -1.9
v 2.1 3.5 -1.9
v 2.6 2 -1.9
v 2.6 3.5 -1.9
v 2 2 -2
v 2 3.5 -2
v 2.1 2 -2
v 2.1 3.5 -2
v 2.6 2 -2
v 2.6 3.5 -2
v 2.7 2 -2
v 2.7 3.5 -2
v 1.9 2 -2.1
v 1.9 3.5 -2.1
v 2 2 -2.1
v 2 3.5 -2.1
v 2 3.6 -2.1
v 2.7 2 -2.1
v 2.7 3.5 -2.1
v 2.7 3.6 -2.1
v 2.8 2 -2.1
v 2.8 3.5 -2.1
v 1.8 2 -2.2
v 1.8 3.5 -2.2
v 1.9 2 -2.2
v 1.9 3.5 -2.2
v 2.1 3.6 -2.2
v 2.1 3.7 -2.2
v 2.6 3.6 -2.2
v 2.6 3.7 -2.2
v 2.8 2 -2.2
v 2.8 3.5 -2.2
v 2.9 2 -2.2
v 2.9 3.5 -2.2
v 2.2 3.7 -2.3
v 2.2 3.8 -2.3
v 2.2 3.9 -2.3
v 2.5 3.7 -2.3
v 2.5 3.8 -2.3
v 2.5 3.9 -2.3
v 2.3 3.8 -2.5
v 2.3 3.9 -2.5
v 2.4 3.8 -2.5
v 2.4 3.9 -2.5
v 2.3 3.8 -2.4
v 2.3 3.9 -2.4
v 2.4 3.8 -2.4
v 2.4 3.9 -2.4
v 2.2 3.7 -2.6
v 2.2 3.8 -2.6
v 2.2 3.9 -2.6
v 2.5 3.7 -2.6
v 2.5 3.8 -2.6
v 2.5 3.9 -2.6
v 1.8 2 -2.7
v 1.8 3.5 -2.7
v 1.9 2 -2.7
v 1.9 3.5 -2.7
v 2.1 3.6 -2.7
v 2.1 3.7 -2.7
v 2.6 3.6 -2.7
v 2.6 3.7 -2.7
v 2.8 2 -2.7
v 2.8 3.5 -2.7
v 2.9 2 -2.7
v 2.9 3.5 -2.7
v 1.9 2 -2.8
v 1.9 3.5 -2.8
v 2 2 -2.8
v 2 3.5 -2.8
v 2 3.6 -2.8
v 2.7 2 -2.8
v 2.7 3.5 -2.8
v 2.7 3.6 -2.8
v 2.8 2 -2.8
v 2.8 3.5 -2.8
v 2 2 -2.9
v 2 3.5 -2.9
v 2.1 2 -2.9
v 2.1 3.5 -2.9
v 2.6 2 -2.9
v 2.6 3.5 -2.9
v 2.7 2 -2.9
v 2.7 3.5 -2.9
v 2.1 2 -3
v 2.1 3.5 -3
v 2.6 2 -3
v 2.6 3.5 -3
v 2.1 2 -1.9
v 2.6 2 -1.9
v 2 2 -2
v 2.1 2 -2
v 2.6 2 -2
v 2.7 2 -2
v 1.9 2 -2.1
v 2 2 -2.1
v 2.7 2 -2.1
v 2.8 2 -2.1
v 1.8 2 -2.2
v 1.9 2 -2.2
v 2.8 2 -2.2
v 2.9 2 -2.2
v 1.8 2 -2.7
v 1.9 2 -2.7
v 2.8 2 -2.7
v 2.9 2 -2.7
v 1.9 2 -2.8
v 2 2 -2.8
v 2.7 2 -2.8
v 2.8 2 -2.8
v 2 2 -2.9
v 2.1 2 -2.9
v 2.6 2 -2.9
v 2.7 2 -2.9
v 2.1 2 -3
v 2.6 2 -3
v 2.1 3.5 -1.9
v 2.6 3.5 -1.9
v 2 3.5 -2
v 2.1 3.5 -2
v 2.6 3.5 -2
v 2.7 3.5 -2
v 1.9 3.5 -2.1
v 2 3.5 -2.1
v 2.7 3.5 -2.1
v 2.8 3.5 -2.1
v 1.8 3.5 -2.2
v 1.9 3.5 -2.2
v 2.8 3.5 -2.2
v 2.9 3.5 -2.2
v 1.8 3.5 -2.7
v 1.9 3.5 -2.7
v 2.8 3.5 -2.7
v 2.9 3.5 -2.7
v 1.9 3.5 -2.8
v 2 3.5 -2.8
v 2.7 3.5 -2.8
v 2.8 3.5 -2.8
v 2 3.5 -2.9
v 2.1 3.5 -2.9
v 2.6 3.5 -2.9
v 2.7 3.5 -2.9
v 2.1 3.5 -3
v 2.6 3.5 -3
v 2 3.6 -2.1
v 2.7 3.6 -2.1
v 2.1 3.6 -2.2
v 2.6 3.6 -2.2
v 2.1 3.6 -2.7
v 2.6 3.6 -2.7
v 2 3.6 -2.8
v 2.7 3.6 -2.8
v 2.1 3.7 -2.2
v 2.6 3.7 -2.2
v 2.2 3.7 -2.3
v 2.5 3.7 -2.3
v 2.2 3.7 -2.6
v 2.5 3.7 -2.6
v 2.1 3.7 -2.7
v 2.6 3.7 -2.7
v 2.3 3.8 -2.4
v 2.4 3.8 -2.4
v 2.3 3.8 -2.5
v 2.4 3.8 -2.5
v 2.2 3.9 -2.3
v 2.5 3.9 -2.3
v 2.3 3.9 -2.4
v 2.4 3.9 -2.4
v 2.3 3.9 -2.5
v 2.4 3.9 -2.5
v 2.2 3.9 -2.6
v 2.5 3.9 -2.6

# faces
f 3/2/1 2/2/1 1/2/1
f 4/2/1 2/2/1 3/2/1
f 9/2/1 6/2/1 5/2/1
f 10/2/1 6/2/1 9/2/1
f 11/2/1 8/2/1 7/2/1
f 12/2/1 8/2/1 11/2/1
f 17/2/1 14/2/1 13/2/1
f 18/2/1 14/2/1 17/2/1
f 19/2/1 16/2/1 15/2/1
f 20/2/1 16/2/1 19/2/1
f 21/2/1 19/2/1 18/2/1
f 22/2/1 19/2/1 21/2/1
f 27/2/1 24/2/1 23/2/1
f 28/2/1 24/2/1 27/2/1
f 29/2/1 26/2/1 25/2/1
f 30/2/1 26/2/1 29/2/1
f 33/2/1 32/2/1 31/2/1
f 34/2/1 32/2/1 33/2/1
f 37/2/1 36/2/1 35/2/1
f 38/2/1 36/2/1 37/2/1
f 39/1/1 38/1/1 37/1/1
f 40/1/1 38/1/1 39/1/1
f 43/1/1 42/1/1 41/1/1
f 44/1/1 42/1/1 43/1/1
f 45/1/2 46/1/2 47/1/2
f 47/1/2 46/1/2 48/1/2
f 49/2/2 50/2/2 51/2/2
f 51/2/2 50/2/2 52/2/2
f 51/1/2 52/1/2 53/1/2
f 53/1/2 52/1/2 54/1/2
f 55/2/2 56/2/2 59/2/2
f 59/2/2 56/2/2 60/2/2
f 57/2/2 58/2/2 61/2/2
f 61/2/2 58/2/2 62/2/2
f 63/2/2 64/2/2 65/2/2
f 65/2/2 64/2/2 66/2/2
f 67/2/2 68/2/2 71/2/2
f 71/2/2 68/2/2 72/2/2
f 69/2/2 70/2/2 73/2/2
f 73/2/2 70/2/2 74/2/2
f 72/2/2 73/2/2 75/2/2
f 75/2/2 73/2/2 76/2/2
f 77/2/2 78/2/2 81/2/2
f 81/2/2 78/2/2 82/2/2
f 79/2/2 80/2/2 83/2/2
f 83/2/2 80/2/2 84/2/2
f 85/2/2 86/2/2 87/2/2
f 87/2/2 86/2/2 88/2/2
f 91/2/3 90/2/3 89/2/3
f 92/2/3 90/2/3 91/2/3
f 95/2/3 94/2/3 93/2/3
f 96/2/3 94/2/3 95/2/3
f 99/2/3 98/2/3 97/2/3
f 100/2/3 98/2/3 99/2/3
f 103/2/3 102/2/3 101/2/3
f 104/2/3 102/2/3 103/2/3
f 107/2/3 105/2/3 104/2/3
f 108/2/3 105/2/3 107/2/3
f 109/2/3 107/2/3 106/2/3
f 110/2/3 107/2/3 109/2/3
f 113/2/3 112/2/3 111/2/3
f 114/2/3 112/2/3 113/2/3
f 117/2/3 116/2/3 115/2/3
f 118/2/3 116/2/3 117/2/3
f 121/2/3 120/2/3 119/2/3
f 122/2/3 120/2/3 121/2/3
f 126/2/3 124/2/3 123/2/3
f 127/1/3 125/1/3 124/1/3
f 127/2/3 124/2/3 126/2/3
f 128/1/3 125/1/3 127/1/3
f 131/1/3 130/1/3 129/1/3
f 132/1/3 130/1/3 131/1/3
f 133/1/4 134/1/4 135/1/4
f 135/1/4 134/1/4 136/1/4
f 137/2/4 138/2/4 140/2/4
f 138/1/4 139/1/4 141/1/4
f 140/2/4 138/2/4 141/2/4
f 141/1/4 139/1/4 142/1/4
f 143/2/4 144/2/4 145/2/4
f 145/2/4 144/2/4 146/2/4
f 147/2/4 148/2/4 149/2/4
f 149/2/4 148/2/4 150/2/4
f 151/2/4 152/2/4 153/2/4
f 153/2/4 152/2/4 154/2/4
f 155/2/4 156/2/4 157/2/4
f 157/2/4 156/2/4 158/2/4
f 158/2/4 159/2/4 161/2/4
f 161/2/4 159/2/4 162/2/4
f 160/2/4 161/2/4 163/2/4
f 163/2/4 161/2/4 164/2/4
f 165/2/4 166/2/4 167/2/4
f 167/2/4 166/2/4 168/2/4
f 169/2/4 170/2/4 171/2/4
f 171/2/4 170/2/4 172/2/4
f 173/2/4 174/2/4 175/2/4
f 175/2/4 174/2/4 176/2/4
f 180/2/5 178/2/5 177/2/5
f 181/2/5 178/2/5 180/2/5
f 184/2/5 180/2/5 179/2/5
f 184/2/5 182/2/5 181/2/5
f 184/2/5 181/2/5 180/2/5
f 185/2/5 182/2/5 184/2/5
f 188/2/5 184/2/5 183/2/5
f 188/2/5 186/2/5 185/2/5
f 188/2/5 185/2/5 184/2/5
f 189/2/5 186/2/5 188/2/5
f 191/2/5 188/2/5 187/2/5
f 191/2/5 190/2/5 189/2/5
f 191/2/5 189/2/5 188/2/5
f 192/2/5 190/2/5 191/2/5
f 193/2/5 190/2/5 192/2/5
f 194/2/5 190/2/5 193/2/5
f 195/2/5 193/2/5 192/2/5
f 196/2/5 193/2/5 195/2/5
f 197/2/5 193/2/5 196/2/5
f 198/2/5 193/2/5 197/2/5
f 199/2/5 197/2/5 196/2/5
f 200/2/5 197/2/5 199/2/5
f 201/2/5 197/2/5 200/2/5
f 202/2/5 197/2/5 201/2/5
f 203/2/5 201/2/5 200/2/5
f 204/2/5 201/2/5 203/2/5
f 205/2/6 206/2/6 208/2/6
f 208/2/6 206/2/6 209/2/6
f 207/2/6 208/2/6 212/2/6
f 209/2/6 210/2/6 212/2/6
f 208/2/6 209/2/6 212/2/6
f 212/2/6 210/2/6 213/2/6
f 211/2/6 212/2/6 216/2/6
f 213/2/6 214/2/6 217/2/6
f 215/2/6 216/2/6 219/2/6
f 216/2/6 212/2/6 220/2/6
f 219/2/6 216/2/6 220/2/6
f 217/2/6 218/2/6 221/2/6
f 213/2/6 217/2/6 221/2/6
f 221/2/6 218/2/6 222/2/6
f 220/2/6 212/2/6 223/2/6
f 223/2/6 212/2/6 224/2/6
f 213/2/6 221/2/6 225/2/6
f 225/2/6 221/2/6 226/2/6
f 224/2/6 225/2/6 227/2/6
f 227/2/6 225/2/6 228/2/6
f 228/2/6 225/2/6 229/2/6
f 229/2/6 225/2/6 230/2/6
f 228/2/6 229/2/6 231/2/6
f 231/2/6 229/2/6 232/2/6
f 233/2/6 234/2/6 235/2/6
f 235/2/6 234/2/6 236/2/6
f 233/2/6 235/2/6 237/2/6
f 236/2/6 234/2/6 238/2/6
f 233/2/6 237/2/6 239/2/6
f 237/2/6 238/2/6 239/2/6
f 238/2/6 234/2/6 240/2/6
f 239/2/6 238/2/6 240/2/6
f 241/2/6 242/2/6 243/2/6
f 243/2/6 242/2/6 244/2/6
f 241/2/6 243/2/6 245/2/6
f 244/2/6 242/2/6 246/2/6
f 241/2/6 245/2/6 247/2/6
f 245/2/6 246/2/6 247/2/6
f 246/2/6 242/2/6 248/2/6
f 247/2/6 246/2/6 248/2/6
f 249/2/6 250/2/6 251/2/6
f 251/2/6 250/2/6 252/2/6
f 253/1/6 254/1/6 255/1/6
f 255/1/6 254/1/6 256/1/6
f 253/1/6 255/1/6 257/1/6
f 256/1/6 254/1/6 258/1/6
f 253/1/6 257/1/6 259/1/6
f 257/1/6 258/1/6 259/1/6
f 258/1/6 254/1/6 260/1/6
f 259/1/6 258/1/6 260/1/6
