# MagicaVoxel @ Ephtracy

# group
o 

# material
mtllib cubrebocas.mtl
usemtl palette

# normals
vn -1 0 0
vn 1 0 0
vn 0 0 1
vn 0 0 -1
vn 0 -1 0
vn 0 1 0

# texcoords
vt 0.826172 0.5
vt 0.958984 0.5

# verts
v 1.9 2 -1.7
v 1.9 2 -2.3
v 1.9 2.4 -1.7
v 1.9 2.4 -2.3
v 2 2 -1.6
v 2 2 -1.7
v 2 2 -2.3
v 2 2 -2.4
v 2 2.4 -1.6
v 2 2.4 -1.7
v 2 2.4 -2.3
v 2 2.4 -2.4
v 2.1 2 -1.5
v 2.1 2 -1.6
v 2.1 2 -2.4
v 2.1 2 -2.5
v 2.1 2.1 -1.5
v 2.1 2.1 -1.6
v 2.1 2.1 -2.4
v 2.1 2.1 -2.5
v 2.1 2.3 -1.5
v 2.1 2.3 -1.6
v 2.1 2.3 -2.4
v 2.1 2.3 -2.5
v 2.1 2.4 -1.5
v 2.1 2.4 -1.6
v 2.1 2.4 -2.4
v 2.1 2.4 -2.5
v 2.2 2 -1.4
v 2.2 2 -1.5
v 2.2 2 -2.5
v 2.2 2 -2.6
v 2.2 2.1 -1.4
v 2.2 2.1 -1.5
v 2.2 2.1 -2.5
v 2.2 2.1 -2.6
v 2.2 2.3 -1.4
v 2.2 2.3 -1.5
v 2.2 2.3 -2.5
v 2.2 2.3 -2.6
v 2.2 2.4 -1.4
v 2.2 2.4 -1.5
v 2.2 2.4 -2.5
v 2.2 2.4 -2.6
v 2.3 2 -1.3
v 2.3 2 -1.4
v 2.3 2 -2.6
v 2.3 2 -2.7
v 2.3 2.1 -1.4
v 2.3 2.1 -2.6
v 2.3 2.3 -1.4
v 2.3 2.3 -2.6
v 2.3 2.4 -1.3
v 2.3 2.4 -1.4
v 2.3 2.4 -2.6
v 2.3 2.4 -2.7
v 2.1 2 -1.6
v 2.1 2 -1.7
v 2.1 2 -2.3
v 2.1 2 -2.4
v 2.1 2.1 -1.6
v 2.1 2.1 -2.4
v 2.1 2.3 -1.6
v 2.1 2.3 -2.4
v 2.1 2.4 -1.6
v 2.1 2.4 -1.7
v 2.1 2.4 -2.3
v 2.1 2.4 -2.4
v 2.2 2 -1.5
v 2.2 2 -1.6
v 2.2 2 -2.4
v 2.2 2 -2.5
v 2.2 2.1 -1.5
v 2.2 2.1 -1.6
v 2.2 2.1 -2.4
v 2.2 2.1 -2.5
v 2.2 2.3 -1.5
v 2.2 2.3 -1.6
v 2.2 2.3 -2.4
v 2.2 2.3 -2.5
v 2.2 2.4 -1.5
v 2.2 2.4 -1.6
v 2.2 2.4 -2.4
v 2.2 2.4 -2.5
v 2.3 2 -1.4
v 2.3 2 -1.5
v 2.3 2 -2.5
v 2.3 2 -2.6
v 2.3 2.1 -1.4
v 2.3 2.1 -1.5
v 2.3 2.1 -2.5
v 2.3 2.1 -2.6
v 2.3 2.3 -1.4
v 2.3 2.3 -1.5
v 2.3 2.3 -2.5
v 2.3 2.3 -2.6
v 2.3 2.4 -1.4
v 2.3 2.4 -1.5
v 2.3 2.4 -2.5
v 2.3 2.4 -2.6
v 2.4 2 -1.3
v 2.4 2 -1.4
v 2.4 2 -2.6
v 2.4 2 -2.7
v 2.4 2.4 -1.3
v 2.4 2.4 -1.4
v 2.4 2.4 -2.6
v 2.4 2.4 -2.7
v 2.3 2 -1.3
v 2.3 2.4 -1.3
v 2.4 2 -1.3
v 2.4 2.4 -1.3
v 2.2 2 -1.4
v 2.2 2.1 -1.4
v 2.2 2.3 -1.4
v 2.2 2.4 -1.4
v 2.3 2 -1.4
v 2.3 2.1 -1.4
v 2.3 2.3 -1.4
v 2.3 2.4 -1.4
v 2.1 2 -1.5
v 2.1 2.1 -1.5
v 2.1 2.3 -1.5
v 2.1 2.4 -1.5
v 2.2 2 -1.5
v 2.2 2.1 -1.5
v 2.2 2.3 -1.5
v 2.2 2.4 -1.5
v 2 2 -1.6
v 2 2.4 -1.6
v 2.1 2 -1.6
v 2.1 2.1 -1.6
v 2.1 2.3 -1.6
v 2.1 2.4 -1.6
v 1.9 2 -1.7
v 1.9 2.4 -1.7
v 2 2 -1.7
v 2 2.4 -1.7
v 2.1 2 -2.4
v 2.1 2.1 -2.4
v 2.1 2.3 -2.4
v 2.1 2.4 -2.4
v 2.2 2 -2.4
v 2.2 2.1 -2.4
v 2.2 2.3 -2.4
v 2.2 2.4 -2.4
v 2.2 2 -2.5
v 2.2 2.1 -2.5
v 2.2 2.3 -2.5
v 2.2 2.4 -2.5
v 2.3 2 -2.5
v 2.3 2.1 -2.5
v 2.3 2.3 -2.5
v 2.3 2.4 -2.5
v 2.3 2 -2.6
v 2.3 2.1 -2.6
v 2.3 2.3 -2.6
v 2.3 2.4 -2.6
v 2.4 2 -2.6
v 2.4 2.4 -2.6
v 2.3 2 -1.4
v 2.3 2.1 -1.4
v 2.3 2.3 -1.4
v 2.3 2.4 -1.4
v 2.4 2 -1.4
v 2.4 2.4 -1.4
v 2.2 2 -1.5
v 2.2 2.1 -1.5
v 2.2 2.3 -1.5
v 2.2 2.4 -1.5
v 2.3 2 -1.5
v 2.3 2.1 -1.5
v 2.3 2.3 -1.5
v 2.3 2.4 -1.5
v 2.1 2 -1.6
v 2.1 2.1 -1.6
v 2.1 2.3 -1.6
v 2.1 2.4 -1.6
v 2.2 2 -1.6
v 2.2 2.1 -1.6
v 2.2 2.3 -1.6
v 2.2 2.4 -1.6
v 1.9 2 -2.3
v 1.9 2.4 -2.3
v 2 2 -2.3
v 2 2.4 -2.3
v 2 2 -2.4
v 2 2.4 -2.4
v 2.1 2 -2.4
v 2.1 2.1 -2.4
v 2.1 2.3 -2.4
v 2.1 2.4 -2.4
v 2.1 2 -2.5
v 2.1 2.1 -2.5
v 2.1 2.3 -2.5
v 2.1 2.4 -2.5
v 2.2 2 -2.5
v 2.2 2.1 -2.5
v 2.2 2.3 -2.5
v 2.2 2.4 -2.5
v 2.2 2 -2.6
v 2.2 2.1 -2.6
v 2.2 2.3 -2.6
v 2.2 2.4 -2.6
v 2.3 2 -2.6
v 2.3 2.1 -2.6
v 2.3 2.3 -2.6
v 2.3 2.4 -2.6
v 2.3 2 -2.7
v 2.3 2.4 -2.7
v 2.4 2 -2.7
v 2.4 2.4 -2.7
v 2.3 2 -1.3
v 2.4 2 -1.3
v 2.2 2 -1.4
v 2.3 2 -1.4
v 2.4 2 -1.4
v 2.1 2 -1.5
v 2.2 2 -1.5
v 2.3 2 -1.5
v 2 2 -1.6
v 2.1 2 -1.6
v 2.2 2 -1.6
v 1.9 2 -1.7
v 2 2 -1.7
v 2.1 2 -1.7
v 1.9 2 -2.3
v 2 2 -2.3
v 2.1 2 -2.3
v 2 2 -2.4
v 2.1 2 -2.4
v 2.2 2 -2.4
v 2.1 2 -2.5
v 2.2 2 -2.5
v 2.3 2 -2.5
v 2.2 2 -2.6
v 2.3 2 -2.6
v 2.4 2 -2.6
v 2.3 2 -2.7
v 2.4 2 -2.7
v 2.2 2.3 -1.4
v 2.3 2.3 -1.4
v 2.1 2.3 -1.5
v 2.2 2.3 -1.5
v 2.3 2.3 -1.5
v 2.1 2.3 -1.6
v 2.2 2.3 -1.6
v 2.1 2.3 -2.4
v 2.2 2.3 -2.4
v 2.1 2.3 -2.5
v 2.2 2.3 -2.5
v 2.3 2.3 -2.5
v 2.2 2.3 -2.6
v 2.3 2.3 -2.6
v 2.2 2.1 -1.4
v 2.3 2.1 -1.4
v 2.1 2.1 -1.5
v 2.2 2.1 -1.5
v 2.3 2.1 -1.5
v 2.1 2.1 -1.6
v 2.2 2.1 -1.6
v 2.1 2.1 -2.4
v 2.2 2.1 -2.4
v 2.1 2.1 -2.5
v 2.2 2.1 -2.5
v 2.3 2.1 -2.5
v 2.2 2.1 -2.6
v 2.3 2.1 -2.6
v 2.3 2.4 -1.3
v 2.4 2.4 -1.3
v 2.2 2.4 -1.4
v 2.3 2.4 -1.4
v 2.4 2.4 -1.4
v 2.1 2.4 -1.5
v 2.2 2.4 -1.5
v 2.3 2.4 -1.5
v 2 2.4 -1.6
v 2.1 2.4 -1.6
v 2.2 2.4 -1.6
v 1.9 2.4 -1.7
v 2 2.4 -1.7
v 2.1 2.4 -1.7
v 1.9 2.4 -2.3
v 2 2.4 -2.3
v 2.1 2.4 -2.3
v 2 2.4 -2.4
v 2.1 2.4 -2.4
v 2.2 2.4 -2.4
v 2.1 2.4 -2.5
v 2.2 2.4 -2.5
v 2.3 2.4 -2.5
v 2.2 2.4 -2.6
v 2.3 2.4 -2.6
v 2.4 2.4 -2.6
v 2.3 2.4 -2.7
v 2.4 2.4 -2.7

# faces
f 3/1/1 2/1/1 1/1/1
f 4/1/1 2/1/1 3/1/1
f 9/2/1 6/2/1 5/2/1
f 10/2/1 6/2/1 9/2/1
f 11/2/1 8/2/1 7/2/1
f 12/2/1 8/2/1 11/2/1
f 17/2/1 14/2/1 13/2/1
f 18/2/1 14/2/1 17/2/1
f 19/2/1 16/2/1 15/2/1
f 20/2/1 16/2/1 19/2/1
f 25/2/1 22/2/1 21/2/1
f 26/2/1 22/2/1 25/2/1
f 27/2/1 24/2/1 23/2/1
f 28/2/1 24/2/1 27/2/1
f 33/2/1 30/2/1 29/2/1
f 34/2/1 30/2/1 33/2/1
f 35/2/1 32/2/1 31/2/1
f 36/2/1 32/2/1 35/2/1
f 41/2/1 38/2/1 37/2/1
f 42/2/1 38/2/1 41/2/1
f 43/2/1 40/2/1 39/2/1
f 44/2/1 40/2/1 43/2/1
f 49/2/1 46/2/1 45/2/1
f 50/2/1 48/2/1 47/2/1
f 51/2/1 49/2/1 45/2/1
f 52/2/1 48/2/1 50/2/1
f 53/2/1 51/2/1 45/2/1
f 54/2/1 51/2/1 53/2/1
f 55/2/1 48/2/1 52/2/1
f 56/2/1 48/2/1 55/2/1
f 57/2/2 58/2/2 61/2/2
f 59/2/2 60/2/2 62/2/2
f 61/2/2 58/2/2 63/2/2
f 59/2/2 62/2/2 64/2/2
f 63/2/2 58/2/2 65/2/2
f 58/1/2 59/1/2 66/1/2
f 65/2/2 58/2/2 66/2/2
f 59/2/2 64/2/2 67/2/2
f 66/1/2 59/1/2 67/1/2
f 67/2/2 64/2/2 68/2/2
f 69/2/2 70/2/2 73/2/2
f 73/2/2 70/2/2 74/2/2
f 71/2/2 72/2/2 75/2/2
f 75/2/2 72/2/2 76/2/2
f 77/2/2 78/2/2 81/2/2
f 81/2/2 78/2/2 82/2/2
f 79/2/2 80/2/2 83/2/2
f 83/2/2 80/2/2 84/2/2
f 85/2/2 86/2/2 89/2/2
f 89/2/2 86/2/2 90/2/2
f 87/2/2 88/2/2 91/2/2
f 91/2/2 88/2/2 92/2/2
f 93/2/2 94/2/2 97/2/2
f 97/2/2 94/2/2 98/2/2
f 95/2/2 96/2/2 99/2/2
f 99/2/2 96/2/2 100/2/2
f 101/2/2 102/2/2 105/2/2
f 105/2/2 102/2/2 106/2/2
f 103/2/2 104/2/2 107/2/2
f 107/2/2 104/2/2 108/2/2
f 111/2/3 110/2/3 109/2/3
f 112/2/3 110/2/3 111/2/3
f 117/2/3 114/2/3 113/2/3
f 118/2/3 114/2/3 117/2/3
f 119/2/3 116/2/3 115/2/3
f 120/2/3 116/2/3 119/2/3
f 125/2/3 122/2/3 121/2/3
f 126/2/3 122/2/3 125/2/3
f 127/2/3 124/2/3 123/2/3
f 128/2/3 124/2/3 127/2/3
f 131/2/3 130/2/3 129/2/3
f 132/2/3 130/2/3 131/2/3
f 133/2/3 130/2/3 132/2/3
f 134/2/3 130/2/3 133/2/3
f 137/1/3 136/1/3 135/1/3
f 138/1/3 136/1/3 137/1/3
f 143/2/3 140/2/3 139/2/3
f 144/2/3 140/2/3 143/2/3
f 145/2/3 142/2/3 141/2/3
f 146/2/3 142/2/3 145/2/3
f 151/2/3 148/2/3 147/2/3
f 152/2/3 148/2/3 151/2/3
f 153/2/3 150/2/3 149/2/3
f 154/2/3 150/2/3 153/2/3
f 159/2/3 156/2/3 155/2/3
f 159/2/3 158/2/3 157/2/3
f 159/2/3 157/2/3 156/2/3
f 160/2/3 158/2/3 159/2/3
f 161/2/4 162/2/4 165/2/4
f 163/2/4 164/2/4 165/2/4
f 162/2/4 163/2/4 165/2/4
f 165/2/4 164/2/4 166/2/4
f 167/2/4 168/2/4 171/2/4
f 171/2/4 168/2/4 172/2/4
f 169/2/4 170/2/4 173/2/4
f 173/2/4 170/2/4 174/2/4
f 175/2/4 176/2/4 179/2/4
f 179/2/4 176/2/4 180/2/4
f 177/2/4 178/2/4 181/2/4
f 181/2/4 178/2/4 182/2/4
f 183/1/4 184/1/4 185/1/4
f 185/1/4 184/1/4 186/1/4
f 187/2/4 188/2/4 189/2/4
f 189/2/4 188/2/4 190/2/4
f 190/2/4 188/2/4 191/2/4
f 191/2/4 188/2/4 192/2/4
f 193/2/4 194/2/4 197/2/4
f 197/2/4 194/2/4 198/2/4
f 195/2/4 196/2/4 199/2/4
f 199/2/4 196/2/4 200/2/4
f 201/2/4 202/2/4 205/2/4
f 205/2/4 202/2/4 206/2/4
f 203/2/4 204/2/4 207/2/4
f 207/2/4 204/2/4 208/2/4
f 209/2/4 210/2/4 211/2/4
f 211/2/4 210/2/4 212/2/4
f 216/2/5 214/2/5 213/2/5
f 217/2/5 214/2/5 216/2/5
f 219/2/5 216/2/5 215/2/5
f 220/2/5 216/2/5 219/2/5
f 222/2/5 219/2/5 218/2/5
f 223/2/5 219/2/5 222/2/5
f 225/2/5 222/2/5 221/2/5
f 226/2/5 222/2/5 225/2/5
f 227/1/5 225/1/5 224/1/5
f 227/1/5 226/1/5 225/1/5
f 228/1/5 226/1/5 227/1/5
f 229/1/5 226/1/5 228/1/5
f 230/2/5 229/2/5 228/2/5
f 231/2/5 229/2/5 230/2/5
f 233/2/5 232/2/5 231/2/5
f 234/2/5 232/2/5 233/2/5
f 236/2/5 235/2/5 234/2/5
f 237/2/5 235/2/5 236/2/5
f 239/2/5 238/2/5 237/2/5
f 240/2/5 238/2/5 239/2/5
f 244/2/5 242/2/5 241/2/5
f 245/2/5 242/2/5 244/2/5
f 246/2/5 244/2/5 243/2/5
f 247/2/5 244/2/5 246/2/5
f 250/2/5 249/2/5 248/2/5
f 251/2/5 249/2/5 250/2/5
f 253/2/5 252/2/5 251/2/5
f 254/2/5 252/2/5 253/2/5
f 255/2/6 256/2/6 258/2/6
f 258/2/6 256/2/6 259/2/6
f 257/2/6 258/2/6 260/2/6
f 260/2/6 258/2/6 261/2/6
f 262/2/6 263/2/6 264/2/6
f 264/2/6 263/2/6 265/2/6
f 265/2/6 266/2/6 267/2/6
f 267/2/6 266/2/6 268/2/6
f 269/2/6 270/2/6 272/2/6
f 272/2/6 270/2/6 273/2/6
f 271/2/6 272/2/6 275/2/6
f 275/2/6 272/2/6 276/2/6
f 274/2/6 275/2/6 278/2/6
f 278/2/6 275/2/6 279/2/6
f 277/2/6 278/2/6 281/2/6
f 281/2/6 278/2/6 282/2/6
f 280/1/6 281/1/6 283/1/6
f 281/1/6 282/1/6 283/1/6
f 283/1/6 282/1/6 284/1/6
f 284/1/6 282/1/6 285/1/6
f 284/2/6 285/2/6 286/2/6
f 286/2/6 285/2/6 287/2/6
f 287/2/6 288/2/6 289/2/6
f 289/2/6 288/2/6 290/2/6
f 290/2/6 291/2/6 292/2/6
f 292/2/6 291/2/6 293/2/6
f 293/2/6 294/2/6 295/2/6
f 295/2/6 294/2/6 296/2/6
