# MagicaVoxel @ Ephtracy

# group
o 

# material
mtllib cubrebocas.mtl
usemtl palette

# normals
vn -1 0 0
vn 1 0 0
vn 0 0 1
vn 0 0 -1
vn 0 -1 0
vn 0 1 0

# texcoords
vt 0.591797 0.5
vt 0.958984 0.5

# verts
v 1.2 2 -2.1
v 1.2 2 -2.6
v 1.2 2.6 -2.1
v 1.2 2.6 -2.6
v 1.3 2 -2.6
v 1.3 2 -2.7
v 1.3 2.6 -2.6
v 1.3 2.6 -2.7
v 1.4 2 -2
v 1.4 2 -2.1
v 1.4 2 -2.7
v 1.4 2 -2.8
v 1.4 2.6 -2
v 1.4 2.6 -2.1
v 1.4 2.6 -2.7
v 1.4 2.6 -2.8
v 1.5 2 -1.8
v 1.5 2 -2
v 1.5 2 -2.8
v 1.5 2 -2.9
v 1.5 2.6 -1.8
v 1.5 2.6 -2
v 1.5 2.6 -2.8
v 1.5 2.6 -2.9
v 1.6 2 -1.7
v 1.6 2 -1.8
v 1.6 2 -2.9
v 1.6 2 -3
v 1.6 2.6 -1.7
v 1.6 2.6 -1.8
v 1.6 2.6 -2.9
v 1.6 2.6 -3
v 1.9 2.2 -1.7
v 1.9 2.2 -1.8
v 1.9 2.4 -1.7
v 1.9 2.4 -1.8
v 2 2.2 -2.9
v 2 2.2 -3
v 2 2.4 -2.9
v 2 2.4 -3
v 1.4 2 -2.1
v 1.4 2 -2.6
v 1.4 2.6 -2.1
v 1.4 2.6 -2.6
v 1.5 2 -2
v 1.5 2 -2.1
v 1.5 2 -2.6
v 1.5 2 -2.7
v 1.5 2.6 -2
v 1.5 2.6 -2.1
v 1.5 2.6 -2.6
v 1.5 2.6 -2.7
v 1.6 2 -1.8
v 1.6 2 -2
v 1.6 2 -2.7
v 1.6 2 -2.8
v 1.6 2.6 -1.8
v 1.6 2.6 -2
v 1.6 2.6 -2.7
v 1.6 2.6 -2.8
v 1.7 2 -1.7
v 1.7 2 -1.8
v 1.7 2 -2.8
v 1.7 2 -2.9
v 1.7 2.1 -1.7
v 1.7 2.1 -1.8
v 1.7 2.2 -1.7
v 1.7 2.2 -1.8
v 1.7 2.4 -1.7
v 1.7 2.4 -1.8
v 1.7 2.5 -1.7
v 1.7 2.5 -1.8
v 1.7 2.6 -1.7
v 1.7 2.6 -1.8
v 1.7 2.6 -2.8
v 1.7 2.6 -2.9
v 1.8 2 -2.9
v 1.8 2 -3
v 1.8 2.1 -2.9
v 1.8 2.1 -3
v 1.8 2.2 -2.9
v 1.8 2.2 -3
v 1.8 2.4 -2.9
v 1.8 2.4 -3
v 1.8 2.5 -2.9
v 1.8 2.5 -3
v 1.8 2.6 -2.9
v 1.8 2.6 -3
v 2 2.1 -1.7
v 2 2.1 -1.8
v 2 2.5 -1.7
v 2 2.5 -1.8
v 2.1 2.1 -2.9
v 2.1 2.1 -3
v 2.1 2.5 -2.9
v 2.1 2.5 -3
v 1.6 2 -1.7
v 1.6 2.6 -1.7
v 1.7 2 -1.7
v 1.7 2.1 -1.7
v 1.7 2.2 -1.7
v 1.7 2.4 -1.7
v 1.7 2.5 -1.7
v 1.7 2.6 -1.7
v 1.9 2.2 -1.7
v 1.9 2.4 -1.7
v 2 2.1 -1.7
v 2 2.5 -1.7
v 1.5 2 -1.8
v 1.5 2.6 -1.8
v 1.6 2 -1.8
v 1.6 2.6 -1.8
v 1.4 2 -2
v 1.4 2.6 -2
v 1.5 2 -2
v 1.5 2.6 -2
v 1.2 2 -2.1
v 1.2 2.6 -2.1
v 1.4 2 -2.1
v 1.4 2.6 -2.1
v 1.4 2 -2.6
v 1.4 2.6 -2.6
v 1.5 2 -2.6
v 1.5 2.6 -2.6
v 1.5 2 -2.7
v 1.5 2.6 -2.7
v 1.6 2 -2.7
v 1.6 2.6 -2.7
v 1.6 2 -2.8
v 1.6 2.6 -2.8
v 1.7 2 -2.8
v 1.7 2.6 -2.8
v 1.7 2 -2.9
v 1.7 2.6 -2.9
v 1.8 2 -2.9
v 1.8 2.1 -2.9
v 1.8 2.2 -2.9
v 1.8 2.4 -2.9
v 1.8 2.5 -2.9
v 1.8 2.6 -2.9
v 2 2.2 -2.9
v 2 2.4 -2.9
v 2.1 2.1 -2.9
v 2.1 2.5 -2.9
v 1.6 2 -1.8
v 1.6 2.6 -1.8
v 1.7 2 -1.8
v 1.7 2.1 -1.8
v 1.7 2.2 -1.8
v 1.7 2.4 -1.8
v 1.7 2.5 -1.8
v 1.7 2.6 -1.8
v 1.9 2.2 -1.8
v 1.9 2.4 -1.8
v 2 2.1 -1.8
v 2 2.5 -1.8
v 1.5 2 -2
v 1.5 2.6 -2
v 1.6 2 -2
v 1.6 2.6 -2
v 1.4 2 -2.1
v 1.4 2.6 -2.1
v 1.5 2 -2.1
v 1.5 2.6 -2.1
v 1.2 2 -2.6
v 1.2 2.6 -2.6
v 1.3 2 -2.6
v 1.3 2.6 -2.6
v 1.3 2 -2.7
v 1.3 2.6 -2.7
v 1.4 2 -2.7
v 1.4 2.6 -2.7
v 1.4 2 -2.8
v 1.4 2.6 -2.8
v 1.5 2 -2.8
v 1.5 2.6 -2.8
v 1.5 2 -2.9
v 1.5 2.6 -2.9
v 1.6 2 -2.9
v 1.6 2.6 -2.9
v 1.6 2 -3
v 1.6 2.6 -3
v 1.8 2 -3
v 1.8 2.1 -3
v 1.8 2.2 -3
v 1.8 2.4 -3
v 1.8 2.5 -3
v 1.8 2.6 -3
v 2 2.2 -3
v 2 2.4 -3
v 2.1 2.1 -3
v 2.1 2.5 -3
v 1.6 2 -1.7
v 1.7 2 -1.7
v 1.5 2 -1.8
v 1.6 2 -1.8
v 1.7 2 -1.8
v 1.4 2 -2
v 1.5 2 -2
v 1.6 2 -2
v 1.2 2 -2.1
v 1.4 2 -2.1
v 1.5 2 -2.1
v 1.2 2 -2.6
v 1.3 2 -2.6
v 1.4 2 -2.6
v 1.5 2 -2.6
v 1.3 2 -2.7
v 1.4 2 -2.7
v 1.5 2 -2.7
v 1.6 2 -2.7
v 1.4 2 -2.8
v 1.5 2 -2.8
v 1.6 2 -2.8
v 1.7 2 -2.8
v 1.5 2 -2.9
v 1.6 2 -2.9
v 1.7 2 -2.9
v 1.8 2 -2.9
v 1.6 2 -3
v 1.8 2 -3
v 1.7 2.1 -1.7
v 2 2.1 -1.7
v 1.7 2.1 -1.8
v 2 2.1 -1.8
v 1.8 2.1 -2.9
v 2.1 2.1 -2.9
v 1.8 2.1 -3
v 2.1 2.1 -3
v 1.7 2.4 -1.7
v 1.9 2.4 -1.7
v 1.7 2.4 -1.8
v 1.9 2.4 -1.8
v 1.8 2.4 -2.9
v 2 2.4 -2.9
v 1.8 2.4 -3
v 2 2.4 -3
v 1.7 2.2 -1.7
v 1.9 2.2 -1.7
v 1.7 2.2 -1.8
v 1.9 2.2 -1.8
v 1.8 2.2 -2.9
v 2 2.2 -2.9
v 1.8 2.2 -3
v 2 2.2 -3
v 1.7 2.5 -1.7
v 2 2.5 -1.7
v 1.7 2.5 -1.8
v 2 2.5 -1.8
v 1.8 2.5 -2.9
v 2.1 2.5 -2.9
v 1.8 2.5 -3
v 2.1 2.5 -3
v 1.6 2.6 -1.7
v 1.7 2.6 -1.7
v 1.5 2.6 -1.8
v 1.6 2.6 -1.8
v 1.7 2.6 -1.8
v 1.4 2.6 -2
v 1.5 2.6 -2
v 1.6 2.6 -2
v 1.2 2.6 -2.1
v 1.4 2.6 -2.1
v 1.5 2.6 -2.1
v 1.2 2.6 -2.6
v 1.3 2.6 -2.6
v 1.4 2.6 -2.6
v 1.5 2.6 -2.6
v 1.3 2.6 -2.7
v 1.4 2.6 -2.7
v 1.5 2.6 -2.7
v 1.6 2.6 -2.7
v 1.4 2.6 -2.8
v 1.5 2.6 -2.8
v 1.6 2.6 -2.8
v 1.7 2.6 -2.8
v 1.5 2.6 -2.9
v 1.6 2.6 -2.9
v 1.7 2.6 -2.9
v 1.8 2.6 -2.9
v 1.6 2.6 -3
v 1.8 2.6 -3

# faces
f 3/1/1 2/1/1 1/1/1
f 4/1/1 2/1/1 3/1/1
f 7/1/1 6/1/1 5/1/1
f 8/1/1 6/1/1 7/1/1
f 13/1/1 10/1/1 9/1/1
f 14/1/1 10/1/1 13/1/1
f 15/1/1 12/1/1 11/1/1
f 16/1/1 12/1/1 15/1/1
f 21/1/1 18/1/1 17/1/1
f 22/1/1 18/1/1 21/1/1
f 23/1/1 20/1/1 19/1/1
f 24/1/1 20/1/1 23/1/1
f 29/1/1 26/1/1 25/1/1
f 30/1/1 26/1/1 29/1/1
f 31/1/1 28/1/1 27/1/1
f 32/1/1 28/1/1 31/1/1
f 35/2/1 34/2/1 33/2/1
f 36/2/1 34/2/1 35/2/1
f 39/2/1 38/2/1 37/2/1
f 40/2/1 38/2/1 39/2/1
f 41/1/2 42/1/2 43/1/2
f 43/1/2 42/1/2 44/1/2
f 45/1/2 46/1/2 49/1/2
f 49/1/2 46/1/2 50/1/2
f 47/1/2 48/1/2 51/1/2
f 51/1/2 48/1/2 52/1/2
f 53/1/2 54/1/2 57/1/2
f 57/1/2 54/1/2 58/1/2
f 55/1/2 56/1/2 59/1/2
f 59/1/2 56/1/2 60/1/2
f 61/1/2 62/1/2 65/1/2
f 65/1/2 62/1/2 66/1/2
f 67/1/2 68/1/2 69/1/2
f 69/1/2 68/1/2 70/1/2
f 71/1/2 72/1/2 73/1/2
f 73/1/2 72/1/2 74/1/2
f 63/1/2 64/1/2 75/1/2
f 75/1/2 64/1/2 76/1/2
f 77/1/2 78/1/2 79/1/2
f 79/1/2 78/1/2 80/1/2
f 81/1/2 82/1/2 83/1/2
f 83/1/2 82/1/2 84/1/2
f 85/1/2 86/1/2 87/1/2
f 87/1/2 86/1/2 88/1/2
f 89/2/2 90/2/2 91/2/2
f 91/2/2 90/2/2 92/2/2
f 93/2/2 94/2/2 95/2/2
f 95/2/2 94/2/2 96/2/2
f 99/1/3 98/1/3 97/1/3
f 100/1/3 98/1/3 99/1/3
f 101/1/3 98/1/3 100/1/3
f 102/1/3 98/1/3 101/1/3
f 103/1/3 98/1/3 102/1/3
f 104/1/3 98/1/3 103/1/3
f 105/2/3 101/2/3 100/2/3
f 106/2/3 103/2/3 102/2/3
f 107/2/3 105/2/3 100/2/3
f 107/2/3 106/2/3 105/2/3
f 108/2/3 103/2/3 106/2/3
f 108/2/3 106/2/3 107/2/3
f 111/1/3 110/1/3 109/1/3
f 112/1/3 110/1/3 111/1/3
f 115/1/3 114/1/3 113/1/3
f 116/1/3 114/1/3 115/1/3
f 119/1/3 118/1/3 117/1/3
f 120/1/3 118/1/3 119/1/3
f 123/1/3 122/1/3 121/1/3
f 124/1/3 122/1/3 123/1/3
f 127/1/3 126/1/3 125/1/3
f 128/1/3 126/1/3 127/1/3
f 131/1/3 130/1/3 129/1/3
f 132/1/3 130/1/3 131/1/3
f 135/1/3 134/1/3 133/1/3
f 136/1/3 134/1/3 135/1/3
f 137/1/3 134/1/3 136/1/3
f 138/1/3 134/1/3 137/1/3
f 139/1/3 134/1/3 138/1/3
f 140/1/3 134/1/3 139/1/3
f 141/2/3 137/2/3 136/2/3
f 142/2/3 139/2/3 138/2/3
f 143/2/3 141/2/3 136/2/3
f 143/2/3 142/2/3 141/2/3
f 144/2/3 139/2/3 142/2/3
f 144/2/3 142/2/3 143/2/3
f 145/1/4 146/1/4 147/1/4
f 147/1/4 146/1/4 148/1/4
f 148/1/4 146/1/4 149/1/4
f 149/1/4 146/1/4 150/1/4
f 150/1/4 146/1/4 151/1/4
f 151/1/4 146/1/4 152/1/4
f 148/2/4 149/2/4 153/2/4
f 150/2/4 151/2/4 154/2/4
f 148/2/4 153/2/4 155/2/4
f 153/2/4 154/2/4 155/2/4
f 154/2/4 151/2/4 156/2/4
f 155/2/4 154/2/4 156/2/4
f 157/1/4 158/1/4 159/1/4
f 159/1/4 158/1/4 160/1/4
f 161/1/4 162/1/4 163/1/4
f 163/1/4 162/1/4 164/1/4
f 165/1/4 166/1/4 167/1/4
f 167/1/4 166/1/4 168/1/4
f 169/1/4 170/1/4 171/1/4
f 171/1/4 170/1/4 172/1/4
f 173/1/4 174/1/4 175/1/4
f 175/1/4 174/1/4 176/1/4
f 177/1/4 178/1/4 179/1/4
f 179/1/4 178/1/4 180/1/4
f 181/1/4 182/1/4 183/1/4
f 183/1/4 182/1/4 184/1/4
f 184/1/4 182/1/4 185/1/4
f 185/1/4 182/1/4 186/1/4
f 186/1/4 182/1/4 187/1/4
f 187/1/4 182/1/4 188/1/4
f 184/2/4 185/2/4 189/2/4
f 186/2/4 187/2/4 190/2/4
f 184/2/4 189/2/4 191/2/4
f 189/2/4 190/2/4 191/2/4
f 190/2/4 187/2/4 192/2/4
f 191/2/4 190/2/4 192/2/4
f 196/1/5 194/1/5 193/1/5
f 197/1/5 194/1/5 196/1/5
f 199/1/5 196/1/5 195/1/5
f 200/1/5 196/1/5 199/1/5
f 202/1/5 199/1/5 198/1/5
f 203/1/5 199/1/5 202/1/5
f 204/1/5 202/1/5 201/1/5
f 205/1/5 202/1/5 204/1/5
f 206/1/5 202/1/5 205/1/5
f 208/1/5 207/1/5 206/1/5
f 208/1/5 206/1/5 205/1/5
f 209/1/5 207/1/5 208/1/5
f 210/1/5 207/1/5 209/1/5
f 212/1/5 210/1/5 209/1/5
f 212/1/5 211/1/5 210/1/5
f 213/1/5 211/1/5 212/1/5
f 214/1/5 211/1/5 213/1/5
f 216/1/5 214/1/5 213/1/5
f 216/1/5 215/1/5 214/1/5
f 217/1/5 215/1/5 216/1/5
f 218/1/5 215/1/5 217/1/5
f 220/1/5 218/1/5 217/1/5
f 220/1/5 219/1/5 218/1/5
f 221/1/5 219/1/5 220/1/5
f 224/2/5 223/2/5 222/2/5
f 225/2/5 223/2/5 224/2/5
f 228/2/5 227/2/5 226/2/5
f 229/2/5 227/2/5 228/2/5
f 232/2/5 231/2/5 230/2/5
f 233/2/5 231/2/5 232/2/5
f 236/2/5 235/2/5 234/2/5
f 237/2/5 235/2/5 236/2/5
f 238/2/6 239/2/6 240/2/6
f 240/2/6 239/2/6 241/2/6
f 242/2/6 243/2/6 244/2/6
f 244/2/6 243/2/6 245/2/6
f 246/2/6 247/2/6 248/2/6
f 248/2/6 247/2/6 249/2/6
f 250/2/6 251/2/6 252/2/6
f 252/2/6 251/2/6 253/2/6
f 254/1/6 255/1/6 257/1/6
f 257/1/6 255/1/6 258/1/6
f 256/1/6 257/1/6 260/1/6
f 260/1/6 257/1/6 261/1/6
f 259/1/6 260/1/6 263/1/6
f 263/1/6 260/1/6 264/1/6
f 262/1/6 263/1/6 265/1/6
f 265/1/6 263/1/6 266/1/6
f 266/1/6 263/1/6 267/1/6
f 267/1/6 268/1/6 269/1/6
f 266/1/6 267/1/6 269/1/6
f 269/1/6 268/1/6 270/1/6
f 270/1/6 268/1/6 271/1/6
f 270/1/6 271/1/6 273/1/6
f 271/1/6 272/1/6 273/1/6
f 273/1/6 272/1/6 274/1/6
f 274/1/6 272/1/6 275/1/6
f 274/1/6 275/1/6 277/1/6
f 275/1/6 276/1/6 277/1/6
f 277/1/6 276/1/6 278/1/6
f 278/1/6 276/1/6 279/1/6
f 278/1/6 279/1/6 281/1/6
f 279/1/6 280/1/6 281/1/6
f 281/1/6 280/1/6 282/1/6
