# MagicaVoxel @ Ephtracy

# group
o MetallStatic

# material
mtllib PaperTable-2-MetallStatic.mtl
usemtl palette

# normals
vn -1 0 0
vn 1 0 0
vn 0 0 1
vn 0 0 -1
vn 0 -1 0
vn 0 1 0

# texcoords
vt 0.923828 0.5
vt 0.927734 0.5
vt 0.978516 0.5

# verts
v 0.8 0 0.5
v 0.8 0 -0.6
v 0.8 2.9 0.5
v 0.8 2.9 -0.6
v 1.1 0.2 0.7
v 1.1 0.2 0.5
v 1.1 0.3 0.7
v 1.1 0.3 0.5
v 1.1 0.8 0.7
v 1.1 0.8 0.5
v 1.1 0.9 0.7
v 1.1 0.9 0.5
v 1.1 1.6 0.7
v 1.1 1.6 0.5
v 1.1 1.7 0.7
v 1.1 1.7 0.5
v 1.1 2.4 0.7
v 1.1 2.4 0.5
v 1.1 2.5 0.7
v 1.1 2.5 0.5
v 1.7 0.2 0.6
v 1.7 0.2 0.5
v 1.7 0.3 0.6
v 1.7 0.3 0.5
v 1.7 0.8 0.6
v 1.7 0.8 0.5
v 1.7 0.9 0.6
v 1.7 0.9 0.5
v 1.7 1.6 0.6
v 1.7 1.6 0.5
v 1.7 1.7 0.6
v 1.7 1.7 0.5
v 1.7 2.4 0.6
v 1.7 2.4 0.5
v 1.7 2.5 0.6
v 1.7 2.5 0.5
v 1.2 0.2 0.6
v 1.2 0.2 0.5
v 1.2 0.3 0.6
v 1.2 0.3 0.5
v 1.2 0.8 0.6
v 1.2 0.8 0.5
v 1.2 0.9 0.6
v 1.2 0.9 0.5
v 1.2 1.6 0.6
v 1.2 1.6 0.5
v 1.2 1.7 0.6
v 1.2 1.7 0.5
v 1.2 2.4 0.6
v 1.2 2.4 0.5
v 1.2 2.5 0.6
v 1.2 2.5 0.5
v 1.8 0.2 0.7
v 1.8 0.2 0.5
v 1.8 0.3 0.7
v 1.8 0.3 0.5
v 1.8 0.8 0.7
v 1.8 0.8 0.5
v 1.8 0.9 0.7
v 1.8 0.9 0.5
v 1.8 1.6 0.7
v 1.8 1.6 0.5
v 1.8 1.7 0.7
v 1.8 1.7 0.5
v 1.8 2.4 0.7
v 1.8 2.4 0.5
v 1.8 2.5 0.7
v 1.8 2.5 0.5
v 2.1 0 0.5
v 2.1 0 -0.6
v 2.1 2.9 0.5
v 2.1 2.9 -0.6
v 1.1 0.2 0.7
v 1.1 0.3 0.7
v 1.1 0.8 0.7
v 1.1 0.9 0.7
v 1.1 1.6 0.7
v 1.1 1.7 0.7
v 1.1 2.4 0.7
v 1.1 2.5 0.7
v 1.8 0.2 0.7
v 1.8 0.3 0.7
v 1.8 0.8 0.7
v 1.8 0.9 0.7
v 1.8 1.6 0.7
v 1.8 1.7 0.7
v 1.8 2.4 0.7
v 1.8 2.5 0.7
v 0.8 0 0.5
v 0.8 2.9 0.5
v 0.9 0.1 0.5
v 0.9 0.4 0.5
v 0.9 0.5 0.5
v 0.9 1.2 0.5
v 0.9 1.3 0.5
v 0.9 2 0.5
v 0.9 2.1 0.5
v 0.9 2.8 0.5
v 1.1 0.2 0.5
v 1.1 0.3 0.5
v 1.1 0.8 0.5
v 1.1 0.9 0.5
v 1.1 1.6 0.5
v 1.1 1.7 0.5
v 1.1 2.4 0.5
v 1.1 2.5 0.5
v 1.2 0.2 0.5
v 1.2 0.3 0.5
v 1.2 0.8 0.5
v 1.2 0.9 0.5
v 1.2 1.6 0.5
v 1.2 1.7 0.5
v 1.2 2.4 0.5
v 1.2 2.5 0.5
v 1.7 0.2 0.5
v 1.7 0.3 0.5
v 1.7 0.8 0.5
v 1.7 0.9 0.5
v 1.7 1.6 0.5
v 1.7 1.7 0.5
v 1.7 2.4 0.5
v 1.7 2.5 0.5
v 1.8 0.2 0.5
v 1.8 0.3 0.5
v 1.8 0.8 0.5
v 1.8 0.9 0.5
v 1.8 1.6 0.5
v 1.8 1.7 0.5
v 1.8 2.4 0.5
v 1.8 2.5 0.5
v 2 0.1 0.5
v 2 0.4 0.5
v 2 0.5 0.5
v 2 1.2 0.5
v 2 1.3 0.5
v 2 2 0.5
v 2 2.1 0.5
v 2 2.8 0.5
v 2.1 0 0.5
v 2.1 2.9 0.5
v 1.2 0.2 0.6
v 1.2 0.3 0.6
v 1.2 0.8 0.6
v 1.2 0.9 0.6
v 1.2 1.6 0.6
v 1.2 1.7 0.6
v 1.2 2.4 0.6
v 1.2 2.5 0.6
v 1.7 0.2 0.6
v 1.7 0.3 0.6
v 1.7 0.8 0.6
v 1.7 0.9 0.6
v 1.7 1.6 0.6
v 1.7 1.7 0.6
v 1.7 2.4 0.6
v 1.7 2.5 0.6
v 0.8 0 -0.6
v 0.8 2.9 -0.6
v 2.1 0 -0.6
v 2.1 2.9 -0.6
v 0.8 0 0.5
v 2.1 0 0.5
v 0.8 0 -0.6
v 2.1 0 -0.6
v 1.1 0.2 0.7
v 1.8 0.2 0.7
v 1.2 0.2 0.6
v 1.7 0.2 0.6
v 1.1 0.2 0.5
v 1.2 0.2 0.5
v 1.7 0.2 0.5
v 1.8 0.2 0.5
v 1.1 0.8 0.7
v 1.8 0.8 0.7
v 1.2 0.8 0.6
v 1.7 0.8 0.6
v 1.1 0.8 0.5
v 1.2 0.8 0.5
v 1.7 0.8 0.5
v 1.8 0.8 0.5
v 1.1 1.6 0.7
v 1.8 1.6 0.7
v 1.2 1.6 0.6
v 1.7 1.6 0.6
v 1.1 1.6 0.5
v 1.2 1.6 0.5
v 1.7 1.6 0.5
v 1.8 1.6 0.5
v 1.1 2.4 0.7
v 1.8 2.4 0.7
v 1.2 2.4 0.6
v 1.7 2.4 0.6
v 1.1 2.4 0.5
v 1.2 2.4 0.5
v 1.7 2.4 0.5
v 1.8 2.4 0.5
v 1.1 0.3 0.7
v 1.8 0.3 0.7
v 1.2 0.3 0.6
v 1.7 0.3 0.6
v 1.1 0.3 0.5
v 1.2 0.3 0.5
v 1.7 0.3 0.5
v 1.8 0.3 0.5
v 1.1 0.9 0.7
v 1.8 0.9 0.7
v 1.2 0.9 0.6
v 1.7 0.9 0.6
v 1.1 0.9 0.5
v 1.2 0.9 0.5
v 1.7 0.9 0.5
v 1.8 0.9 0.5
v 1.1 1.7 0.7
v 1.8 1.7 0.7
v 1.2 1.7 0.6
v 1.7 1.7 0.6
v 1.1 1.7 0.5
v 1.2 1.7 0.5
v 1.7 1.7 0.5
v 1.8 1.7 0.5
v 1.1 2.5 0.7
v 1.8 2.5 0.7
v 1.2 2.5 0.6
v 1.7 2.5 0.6
v 1.1 2.5 0.5
v 1.2 2.5 0.5
v 1.7 2.5 0.5
v 1.8 2.5 0.5
v 0.8 2.9 0.5
v 2.1 2.9 0.5
v 0.8 2.9 -0.6
v 2.1 2.9 -0.6

# faces
f 3/3/1 2/3/1 1/3/1
f 4/3/1 2/3/1 3/3/1
f 7/2/1 6/2/1 5/2/1
f 8/2/1 6/2/1 7/2/1
f 11/2/1 10/2/1 9/2/1
f 12/2/1 10/2/1 11/2/1
f 15/2/1 14/2/1 13/2/1
f 16/2/1 14/2/1 15/2/1
f 19/2/1 18/2/1 17/2/1
f 20/2/1 18/2/1 19/2/1
f 23/2/1 22/2/1 21/2/1
f 24/2/1 22/2/1 23/2/1
f 27/2/1 26/2/1 25/2/1
f 28/2/1 26/2/1 27/2/1
f 31/2/1 30/2/1 29/2/1
f 32/2/1 30/2/1 31/2/1
f 35/2/1 34/2/1 33/2/1
f 36/2/1 34/2/1 35/2/1
f 37/2/2 38/2/2 39/2/2
f 39/2/2 38/2/2 40/2/2
f 41/2/2 42/2/2 43/2/2
f 43/2/2 42/2/2 44/2/2
f 45/2/2 46/2/2 47/2/2
f 47/2/2 46/2/2 48/2/2
f 49/2/2 50/2/2 51/2/2
f 51/2/2 50/2/2 52/2/2
f 53/2/2 54/2/2 55/2/2
f 55/2/2 54/2/2 56/2/2
f 57/2/2 58/2/2 59/2/2
f 59/2/2 58/2/2 60/2/2
f 61/2/2 62/2/2 63/2/2
f 63/2/2 62/2/2 64/2/2
f 65/2/2 66/2/2 67/2/2
f 67/2/2 66/2/2 68/2/2
f 69/3/2 70/3/2 71/3/2
f 71/3/2 70/3/2 72/3/2
f 81/2/3 74/2/3 73/2/3
f 82/2/3 74/2/3 81/2/3
f 83/2/3 76/2/3 75/2/3
f 84/2/3 76/2/3 83/2/3
f 85/2/3 78/2/3 77/2/3
f 86/2/3 78/2/3 85/2/3
f 87/2/3 80/2/3 79/2/3
f 88/2/3 80/2/3 87/2/3
f 91/3/3 90/3/3 89/3/3
f 92/3/3 90/3/3 91/3/3
f 93/3/3 90/3/3 92/3/3
f 94/3/3 90/3/3 93/3/3
f 95/3/3 90/3/3 94/3/3
f 96/3/3 90/3/3 95/3/3
f 97/3/3 90/3/3 96/3/3
f 98/3/3 90/3/3 97/3/3
f 99/1/3 92/1/3 91/1/3
f 100/1/3 92/1/3 99/1/3
f 101/1/3 94/1/3 93/1/3
f 102/1/3 94/1/3 101/1/3
f 103/1/3 96/1/3 95/1/3
f 104/1/3 96/1/3 103/1/3
f 105/1/3 98/1/3 97/1/3
f 106/1/3 98/1/3 105/1/3
f 107/1/3 99/1/3 91/1/3
f 108/1/3 92/1/3 100/1/3
f 109/1/3 101/1/3 93/1/3
f 110/1/3 94/1/3 102/1/3
f 111/1/3 103/1/3 95/1/3
f 112/1/3 96/1/3 104/1/3
f 113/1/3 105/1/3 97/1/3
f 114/1/3 98/1/3 106/1/3
f 115/1/3 107/1/3 91/1/3
f 115/1/3 108/1/3 107/1/3
f 116/1/3 92/1/3 108/1/3
f 116/1/3 108/1/3 115/1/3
f 117/1/3 109/1/3 93/1/3
f 117/1/3 110/1/3 109/1/3
f 118/1/3 94/1/3 110/1/3
f 118/1/3 110/1/3 117/1/3
f 119/1/3 111/1/3 95/1/3
f 119/1/3 112/1/3 111/1/3
f 120/1/3 96/1/3 112/1/3
f 120/1/3 112/1/3 119/1/3
f 121/1/3 114/1/3 113/1/3
f 121/1/3 113/1/3 97/1/3
f 122/1/3 98/1/3 114/1/3
f 122/1/3 114/1/3 121/1/3
f 123/1/3 115/1/3 91/1/3
f 124/1/3 92/1/3 116/1/3
f 125/1/3 117/1/3 93/1/3
f 126/1/3 94/1/3 118/1/3
f 127/1/3 119/1/3 95/1/3
f 128/1/3 96/1/3 120/1/3
f 129/1/3 121/1/3 97/1/3
f 130/1/3 98/1/3 122/1/3
f 131/3/3 91/3/3 89/3/3
f 131/1/3 123/1/3 91/1/3
f 131/1/3 124/1/3 123/1/3
f 132/3/3 93/3/3 92/3/3
f 132/1/3 124/1/3 131/1/3
f 132/1/3 92/1/3 124/1/3
f 133/1/3 125/1/3 93/1/3
f 133/3/3 93/3/3 132/3/3
f 133/1/3 126/1/3 125/1/3
f 134/3/3 95/3/3 94/3/3
f 134/1/3 126/1/3 133/1/3
f 134/1/3 94/1/3 126/1/3
f 135/1/3 127/1/3 95/1/3
f 135/3/3 95/3/3 134/3/3
f 135/1/3 128/1/3 127/1/3
f 136/3/3 97/3/3 96/3/3
f 136/1/3 128/1/3 135/1/3
f 136/1/3 96/1/3 128/1/3
f 137/1/3 130/1/3 129/1/3
f 137/3/3 97/3/3 136/3/3
f 137/1/3 129/1/3 97/1/3
f 138/3/3 90/3/3 98/3/3
f 138/1/3 130/1/3 137/1/3
f 138/1/3 98/1/3 130/1/3
f 139/3/3 136/3/3 135/3/3
f 139/3/3 137/3/3 136/3/3
f 139/3/3 138/3/3 137/3/3
f 139/3/3 131/3/3 89/3/3
f 139/3/3 134/3/3 133/3/3
f 139/3/3 133/3/3 132/3/3
f 139/3/3 135/3/3 134/3/3
f 139/3/3 132/3/3 131/3/3
f 140/3/3 90/3/3 138/3/3
f 140/3/3 138/3/3 139/3/3
f 141/2/4 142/2/4 149/2/4
f 149/2/4 142/2/4 150/2/4
f 143/2/4 144/2/4 151/2/4
f 151/2/4 144/2/4 152/2/4
f 145/2/4 146/2/4 153/2/4
f 153/2/4 146/2/4 154/2/4
f 147/2/4 148/2/4 155/2/4
f 155/2/4 148/2/4 156/2/4
f 157/3/4 158/3/4 159/3/4
f 159/3/4 158/3/4 160/3/4
f 163/3/5 162/3/5 161/3/5
f 164/3/5 162/3/5 163/3/5
f 167/2/5 166/2/5 165/2/5
f 168/2/5 166/2/5 167/2/5
f 169/2/5 167/2/5 165/2/5
f 170/2/5 167/2/5 169/2/5
f 171/2/5 166/2/5 168/2/5
f 172/2/5 166/2/5 171/2/5
f 175/2/5 174/2/5 173/2/5
f 176/2/5 174/2/5 175/2/5
f 177/2/5 175/2/5 173/2/5
f 178/2/5 175/2/5 177/2/5
f 179/2/5 174/2/5 176/2/5
f 180/2/5 174/2/5 179/2/5
f 183/2/5 182/2/5 181/2/5
f 184/2/5 182/2/5 183/2/5
f 185/2/5 183/2/5 181/2/5
f 186/2/5 183/2/5 185/2/5
f 187/2/5 182/2/5 184/2/5
f 188/2/5 182/2/5 187/2/5
f 191/2/5 190/2/5 189/2/5
f 192/2/5 190/2/5 191/2/5
f 193/2/5 191/2/5 189/2/5
f 194/2/5 191/2/5 193/2/5
f 195/2/5 190/2/5 192/2/5
f 196/2/5 190/2/5 195/2/5
f 197/2/6 198/2/6 199/2/6
f 199/2/6 198/2/6 200/2/6
f 197/2/6 199/2/6 201/2/6
f 201/2/6 199/2/6 202/2/6
f 200/2/6 198/2/6 203/2/6
f 203/2/6 198/2/6 204/2/6
f 205/2/6 206/2/6 207/2/6
f 207/2/6 206/2/6 208/2/6
f 205/2/6 207/2/6 209/2/6
f 209/2/6 207/2/6 210/2/6
f 208/2/6 206/2/6 211/2/6
f 211/2/6 206/2/6 212/2/6
f 213/2/6 214/2/6 215/2/6
f 215/2/6 214/2/6 216/2/6
f 213/2/6 215/2/6 217/2/6
f 217/2/6 215/2/6 218/2/6
f 216/2/6 214/2/6 219/2/6
f 219/2/6 214/2/6 220/2/6
f 221/2/6 222/2/6 223/2/6
f 223/2/6 222/2/6 224/2/6
f 221/2/6 223/2/6 225/2/6
f 225/2/6 223/2/6 226/2/6
f 224/2/6 222/2/6 227/2/6
f 227/2/6 222/2/6 228/2/6
f 229/3/6 230/3/6 231/3/6
f 231/3/6 230/3/6 232/3/6
