# MagicaVoxel @ Ephtracy

# group
o Black

# material
mtllib StreetTables-0-Black.mtl
usemtl palette

# normals
vn -1 0 0
vn 1 0 0
vn 0 0 1
vn 0 0 -1
vn 0 -1 0
vn 0 1 0

# texcoords
vt 0.978516 0.5
vt 0.990234 0.5

# verts
v -1 2.1 1
v -1 2.1 -1
v -1 2.2 1
v -1 2.2 -1
v -0.9 0 0.1
v -0.9 0 -0.1
v -0.9 0.1 0.1
v -0.9 0.1 -0.1
v -0.1 0 0.9
v -0.1 0 0.1
v -0.1 0 -0.1
v -0.1 0 -0.9
v -0.1 0.1 0.9
v -0.1 0.1 0.1
v -0.1 0.1 -0.1
v -0.1 0.1 -0.9
v -0.1 2.1 0.1
v -0.1 2.1 -0.1
v 0.1 0 0.9
v 0.1 0 0.1
v 0.1 0 -0.1
v 0.1 0 -0.9
v 0.1 0.1 0.9
v 0.1 0.1 0.1
v 0.1 0.1 -0.1
v 0.1 0.1 -0.9
v 0.1 2.1 0.1
v 0.1 2.1 -0.1
v 0.9 0 0.1
v 0.9 0 -0.1
v 0.9 0.1 0.1
v 0.9 0.1 -0.1
v 1 2.1 1
v 1 2.1 -1
v 1 2.2 1
v 1 2.2 -1
v -1 2.1 1
v -1 2.2 1
v 1 2.1 1
v 1 2.2 1
v -0.1 0 0.9
v -0.1 0.1 0.9
v 0.1 0 0.9
v 0.1 0.1 0.9
v -0.9 0 0.1
v -0.9 0.1 0.1
v -0.1 0 0.1
v -0.1 0.1 0.1
v -0.1 2.1 0.1
v 0.1 0 0.1
v 0.1 0.1 0.1
v 0.1 2.1 0.1
v 0.9 0 0.1
v 0.9 0.1 0.1
v -0.9 0 -0.1
v -0.9 0.1 -0.1
v -0.1 0 -0.1
v -0.1 0.1 -0.1
v -0.1 2.1 -0.1
v 0.1 0 -0.1
v 0.1 0.1 -0.1
v 0.1 2.1 -0.1
v 0.9 0 -0.1
v 0.9 0.1 -0.1
v -0.1 0 -0.9
v -0.1 0.1 -0.9
v 0.1 0 -0.9
v 0.1 0.1 -0.9
v -1 2.1 -1
v -1 2.2 -1
v 1 2.1 -1
v 1 2.2 -1
v -0.1 0 0.9
v 0.1 0 0.9
v -0.9 0 0.1
v -0.1 0 0.1
v 0.1 0 0.1
v 0.9 0 0.1
v -0.9 0 -0.1
v -0.1 0 -0.1
v 0.1 0 -0.1
v 0.9 0 -0.1
v -0.1 0 -0.9
v 0.1 0 -0.9
v -1 2.1 1
v 1 2.1 1
v -0.1 2.1 0.1
v 0.1 2.1 0.1
v -0.1 2.1 -0.1
v 0.1 2.1 -0.1
v -1 2.1 -1
v 1 2.1 -1
v -0.1 0.1 0.9
v 0.1 0.1 0.9
v -0.9 0.1 0.1
v -0.1 0.1 0.1
v 0.1 0.1 0.1
v 0.9 0.1 0.1
v -0.9 0.1 -0.1
v -0.1 0.1 -0.1
v 0.1 0.1 -0.1
v 0.9 0.1 -0.1
v -0.1 0.1 -0.9
v 0.1 0.1 -0.9
v -1 2.2 1
v 1 2.2 1
v -1 2.2 -1
v 1 2.2 -1

# faces
f 3/2/1 2/2/1 1/2/1
f 4/2/1 2/2/1 3/2/1
f 7/1/1 6/1/1 5/1/1
f 8/1/1 6/1/1 7/1/1
f 13/1/1 10/1/1 9/1/1
f 14/1/1 10/1/1 13/1/1
f 15/1/1 12/1/1 11/1/1
f 16/1/1 12/1/1 15/1/1
f 17/1/1 15/1/1 14/1/1
f 18/1/1 15/1/1 17/1/1
f 19/1/2 20/1/2 23/1/2
f 23/1/2 20/1/2 24/1/2
f 21/1/2 22/1/2 25/1/2
f 25/1/2 22/1/2 26/1/2
f 24/1/2 25/1/2 27/1/2
f 27/1/2 25/1/2 28/1/2
f 29/1/2 30/1/2 31/1/2
f 31/1/2 30/1/2 32/1/2
f 33/2/2 34/2/2 35/2/2
f 35/2/2 34/2/2 36/2/2
f 39/2/3 38/2/3 37/2/3
f 40/2/3 38/2/3 39/2/3
f 43/1/3 42/1/3 41/1/3
f 44/1/3 42/1/3 43/1/3
f 47/1/3 46/1/3 45/1/3
f 48/1/3 46/1/3 47/1/3
f 51/1/3 49/1/3 48/1/3
f 52/1/3 49/1/3 51/1/3
f 53/1/3 51/1/3 50/1/3
f 54/1/3 51/1/3 53/1/3
f 55/1/4 56/1/4 57/1/4
f 57/1/4 56/1/4 58/1/4
f 58/1/4 59/1/4 61/1/4
f 61/1/4 59/1/4 62/1/4
f 60/1/4 61/1/4 63/1/4
f 63/1/4 61/1/4 64/1/4
f 65/1/4 66/1/4 67/1/4
f 67/1/4 66/1/4 68/1/4
f 69/2/4 70/2/4 71/2/4
f 71/2/4 70/2/4 72/2/4
f 76/1/5 74/1/5 73/1/5
f 77/1/5 74/1/5 76/1/5
f 79/1/5 76/1/5 75/1/5
f 79/1/5 78/1/5 77/1/5
f 79/1/5 77/1/5 76/1/5
f 80/1/5 78/1/5 79/1/5
f 81/1/5 78/1/5 80/1/5
f 82/1/5 78/1/5 81/1/5
f 83/1/5 81/1/5 80/1/5
f 84/1/5 81/1/5 83/1/5
f 87/2/5 86/2/5 85/2/5
f 88/2/5 86/2/5 87/2/5
f 89/2/5 87/2/5 85/2/5
f 90/2/5 86/2/5 88/2/5
f 91/2/5 89/2/5 85/2/5
f 91/2/5 90/2/5 89/2/5
f 92/2/5 86/2/5 90/2/5
f 92/2/5 90/2/5 91/2/5
f 93/1/6 94/1/6 96/1/6
f 96/1/6 94/1/6 97/1/6
f 95/1/6 96/1/6 99/1/6
f 99/1/6 96/1/6 100/1/6
f 97/1/6 98/1/6 101/1/6
f 101/1/6 98/1/6 102/1/6
f 100/1/6 101/1/6 103/1/6
f 103/1/6 101/1/6 104/1/6
f 105/2/6 106/2/6 107/2/6
f 107/2/6 106/2/6 108/2/6
