# MagicaVoxel @ Ephtracy

# group
o MagazineTable

# material
mtllib HomeTables-8-MagazineTable.mtl
usemtl palette

# normals
vn -1 0 0
vn 1 0 0
vn 0 0 1
vn 0 0 -1
vn 0 -1 0
vn 0 1 0

# texcoords
vt 0.337891 0.5
vt 0.966797 0.5
vt 0.990234 0.5

# verts
v -1 1 -0.3
v -1 1 -2.7
v -1 1.1 -0.3
v -1 1.1 -2.7
v -0.9 0 -0.7
v -0.9 0 -0.9
v -0.9 0 -2.1
v -0.9 0 -2.3
v -0.9 0.2 -0.7
v -0.9 0.2 -0.9
v -0.9 0.2 -2.1
v -0.9 0.2 -2.3
v -0.8 0.2 -0.8
v -0.8 0.2 -0.9
v -0.8 0.2 -1
v -0.8 0.2 -2
v -0.8 0.2 -2.1
v -0.8 0.2 -2.2
v -0.8 0.3 -0.8
v -0.8 0.3 -1
v -0.8 0.3 -2
v -0.8 0.3 -2.2
v -0.7 0.1 -0.9
v -0.7 0.1 -1
v -0.7 0.1 -2
v -0.7 0.1 -2.1
v -0.7 0.2 -0.9
v -0.7 0.2 -1
v -0.7 0.2 -2
v -0.7 0.2 -2.1
v -0.7 0.3 -0.8
v -0.7 0.3 -1
v -0.7 0.3 -2
v -0.7 0.3 -2.2
v -0.7 0.4 -0.8
v -0.7 0.4 -1
v -0.7 0.4 -2
v -0.7 0.4 -2.2
v -0.4 0.3 -1
v -0.4 0.3 -2
v -0.4 0.4 -1
v -0.4 0.4 -2
v -0.3 0.4 -0.9
v -0.3 0.4 -1.1
v -0.3 0.4 -1.9
v -0.3 0.4 -2.1
v -0.3 1 -0.9
v -0.3 1 -1.1
v -0.3 1 -1.9
v -0.3 1 -2.1
v -0.1 0.3 -0.8
v -0.1 0.3 -0.9
v -0.1 0.3 -2.1
v -0.1 0.3 -2.2
v -0.1 0.4 -0.8
v -0.1 0.4 -0.9
v -0.1 0.4 -2.1
v -0.1 0.4 -2.2
v 0.1 0.1 -0.8
v 0.1 0.1 -1
v 0.1 0.1 -2
v 0.1 0.1 -2.2
v 0.1 0.3 -0.8
v 0.1 0.3 -1
v 0.1 0.3 -2
v 0.1 0.3 -2.2
v 0.2 0 -0.7
v 0.2 0 -0.9
v 0.2 0 -2.1
v 0.2 0 -2.3
v 0.2 0.1 -0.8
v 0.2 0.1 -0.9
v 0.2 0.1 -2.1
v 0.2 0.1 -2.2
v 0.2 0.2 -0.7
v 0.2 0.2 -0.8
v 0.2 0.2 -2.2
v 0.2 0.2 -2.3
v -0.7 0 -0.7
v -0.7 0 -0.9
v -0.7 0 -2.1
v -0.7 0 -2.3
v -0.7 0.1 -0.8
v -0.7 0.1 -0.9
v -0.7 0.1 -2.1
v -0.7 0.1 -2.2
v -0.7 0.2 -0.7
v -0.7 0.2 -0.8
v -0.7 0.2 -2.2
v -0.7 0.2 -2.3
v -0.6 0.1 -0.8
v -0.6 0.1 -1
v -0.6 0.1 -2
v -0.6 0.1 -2.2
v -0.6 0.3 -0.8
v -0.6 0.3 -1
v -0.6 0.3 -2
v -0.6 0.3 -2.2
v -0.4 0.3 -0.8
v -0.4 0.3 -0.9
v -0.4 0.3 -2.1
v -0.4 0.3 -2.2
v -0.4 0.4 -0.8
v -0.4 0.4 -0.9
v -0.4 0.4 -2.1
v -0.4 0.4 -2.2
v -0.2 0.4 -0.9
v -0.2 0.4 -1.1
v -0.2 0.4 -1.9
v -0.2 0.4 -2.1
v -0.2 1 -0.9
v -0.2 1 -1.1
v -0.2 1 -1.9
v -0.2 1 -2.1
v -0.1 0.3 -1
v -0.1 0.3 -2
v -0.1 0.4 -1
v -0.1 0.4 -2
v 0.2 0.1 -0.9
v 0.2 0.1 -1
v 0.2 0.1 -2
v 0.2 0.1 -2.1
v 0.2 0.2 -0.9
v 0.2 0.2 -1
v 0.2 0.2 -2
v 0.2 0.2 -2.1
v 0.2 0.3 -0.8
v 0.2 0.3 -1
v 0.2 0.3 -2
v 0.2 0.3 -2.2
v 0.2 0.4 -0.8
v 0.2 0.4 -1
v 0.2 0.4 -2
v 0.2 0.4 -2.2
v 0.3 0.2 -0.8
v 0.3 0.2 -0.9
v 0.3 0.2 -1
v 0.3 0.2 -2
v 0.3 0.2 -2.1
v 0.3 0.2 -2.2
v 0.3 0.3 -0.8
v 0.3 0.3 -1
v 0.3 0.3 -2
v 0.3 0.3 -2.2
v 0.4 0 -0.7
v 0.4 0 -0.9
v 0.4 0 -2.1
v 0.4 0 -2.3
v 0.4 0.2 -0.7
v 0.4 0.2 -0.9
v 0.4 0.2 -2.1
v 0.4 0.2 -2.3
v 0.5 1 -0.3
v 0.5 1 -2.7
v 0.5 1.1 -0.3
v 0.5 1.1 -2.7
v -1 1 -0.3
v -1 1.1 -0.3
v 0.5 1 -0.3
v 0.5 1.1 -0.3
v -0.9 0 -0.7
v -0.9 0.2 -0.7
v -0.7 0 -0.7
v -0.7 0.2 -0.7
v 0.2 0 -0.7
v 0.2 0.2 -0.7
v 0.4 0 -0.7
v 0.4 0.2 -0.7
v -0.8 0.2 -0.8
v -0.8 0.3 -0.8
v -0.7 0.1 -0.8
v -0.7 0.2 -0.8
v -0.7 0.3 -0.8
v -0.7 0.4 -0.8
v -0.6 0.1 -0.8
v -0.6 0.3 -0.8
v -0.4 0.3 -0.8
v -0.4 0.4 -0.8
v -0.1 0.3 -0.8
v -0.1 0.4 -0.8
v 0.1 0.1 -0.8
v 0.1 0.3 -0.8
v 0.2 0.1 -0.8
v 0.2 0.2 -0.8
v 0.2 0.3 -0.8
v 0.2 0.4 -0.8
v 0.3 0.2 -0.8
v 0.3 0.3 -0.8
v -0.4 0.3 -0.9
v -0.4 0.4 -0.9
v -0.3 0.4 -0.9
v -0.3 1 -0.9
v -0.2 0.4 -0.9
v -0.2 1 -0.9
v -0.1 0.3 -0.9
v -0.1 0.4 -0.9
v -0.3 0.4 -1.9
v -0.3 1 -1.9
v -0.2 0.4 -1.9
v -0.2 1 -1.9
v -0.8 0.2 -2
v -0.8 0.3 -2
v -0.7 0.1 -2
v -0.7 0.2 -2
v -0.7 0.3 -2
v -0.7 0.4 -2
v -0.6 0.1 -2
v -0.6 0.3 -2
v -0.4 0.3 -2
v -0.4 0.4 -2
v -0.1 0.3 -2
v -0.1 0.4 -2
v 0.1 0.1 -2
v 0.1 0.3 -2
v 0.2 0.1 -2
v 0.2 0.2 -2
v 0.2 0.3 -2
v 0.2 0.4 -2
v 0.3 0.2 -2
v 0.3 0.3 -2
v -0.9 0 -2.1
v -0.9 0.2 -2.1
v -0.8 0.2 -2.1
v -0.7 0 -2.1
v -0.7 0.1 -2.1
v -0.7 0.2 -2.1
v 0.2 0 -2.1
v 0.2 0.1 -2.1
v 0.2 0.2 -2.1
v 0.3 0.2 -2.1
v 0.4 0 -2.1
v 0.4 0.2 -2.1
v -0.9 0 -0.9
v -0.9 0.2 -0.9
v -0.8 0.2 -0.9
v -0.7 0 -0.9
v -0.7 0.1 -0.9
v -0.7 0.2 -0.9
v 0.2 0 -0.9
v 0.2 0.1 -0.9
v 0.2 0.2 -0.9
v 0.3 0.2 -0.9
v 0.4 0 -0.9
v 0.4 0.2 -0.9
v -0.8 0.2 -1
v -0.8 0.3 -1
v -0.7 0.1 -1
v -0.7 0.2 -1
v -0.7 0.3 -1
v -0.7 0.4 -1
v -0.6 0.1 -1
v -0.6 0.3 -1
v -0.4 0.3 -1
v -0.4 0.4 -1
v -0.1 0.3 -1
v -0.1 0.4 -1
v 0.1 0.1 -1
v 0.1 0.3 -1
v 0.2 0.1 -1
v 0.2 0.2 -1
v 0.2 0.3 -1
v 0.2 0.4 -1
v 0.3 0.2 -1
v 0.3 0.3 -1
v -0.3 0.4 -1.1
v -0.3 1 -1.1
v -0.2 0.4 -1.1
v -0.2 1 -1.1
v -0.4 0.3 -2.1
v -0.4 0.4 -2.1
v -0.3 0.4 -2.1
v -0.3 1 -2.1
v -0.2 0.4 -2.1
v -0.2 1 -2.1
v -0.1 0.3 -2.1
v -0.1 0.4 -2.1
v -0.8 0.2 -2.2
v -0.8 0.3 -2.2
v -0.7 0.1 -2.2
v -0.7 0.2 -2.2
v -0.7 0.3 -2.2
v -0.7 0.4 -2.2
v -0.6 0.1 -2.2
v -0.6 0.3 -2.2
v -0.4 0.3 -2.2
v -0.4 0.4 -2.2
v -0.1 0.3 -2.2
v -0.1 0.4 -2.2
v 0.1 0.1 -2.2
v 0.1 0.3 -2.2
v 0.2 0.1 -2.2
v 0.2 0.2 -2.2
v 0.2 0.3 -2.2
v 0.2 0.4 -2.2
v 0.3 0.2 -2.2
v 0.3 0.3 -2.2
v -0.9 0 -2.3
v -0.9 0.2 -2.3
v -0.7 0 -2.3
v -0.7 0.2 -2.3
v 0.2 0 -2.3
v 0.2 0.2 -2.3
v 0.4 0 -2.3
v 0.4 0.2 -2.3
v -1 1 -2.7
v -1 1.1 -2.7
v 0.5 1 -2.7
v 0.5 1.1 -2.7
v -0.9 0 -0.7
v -0.7 0 -0.7
v 0.2 0 -0.7
v 0.4 0 -0.7
v -0.9 0 -0.9
v -0.7 0 -0.9
v 0.2 0 -0.9
v 0.4 0 -0.9
v -0.9 0 -2.1
v -0.7 0 -2.1
v 0.2 0 -2.1
v 0.4 0 -2.1
v -0.9 0 -2.3
v -0.7 0 -2.3
v 0.2 0 -2.3
v 0.4 0 -2.3
v -0.7 0.1 -0.8
v -0.6 0.1 -0.8
v 0.1 0.1 -0.8
v 0.2 0.1 -0.8
v -0.7 0.1 -0.9
v 0.2 0.1 -0.9
v -0.7 0.1 -1
v -0.6 0.1 -1
v 0.1 0.1 -1
v 0.2 0.1 -1
v -0.7 0.1 -2
v -0.6 0.1 -2
v 0.1 0.1 -2
v 0.2 0.1 -2
v -0.7 0.1 -2.1
v 0.2 0.1 -2.1
v -0.7 0.1 -2.2
v -0.6 0.1 -2.2
v 0.1 0.1 -2.2
v 0.2 0.1 -2.2
v -0.8 0.2 -0.9
v -0.7 0.2 -0.9
v 0.2 0.2 -0.9
v 0.3 0.2 -0.9
v -0.8 0.2 -1
v -0.7 0.2 -1
v 0.2 0.2 -1
v 0.3 0.2 -1
v -0.8 0.2 -2
v -0.7 0.2 -2
v 0.2 0.2 -2
v 0.3 0.2 -2
v -0.8 0.2 -2.1
v -0.7 0.2 -2.1
v 0.2 0.2 -2.1
v 0.3 0.2 -2.1
v -0.6 0.3 -0.8
v -0.4 0.3 -0.8
v -0.1 0.3 -0.8
v 0.1 0.3 -0.8
v -0.4 0.3 -0.9
v -0.1 0.3 -0.9
v -0.6 0.3 -1
v -0.4 0.3 -1
v -0.1 0.3 -1
v 0.1 0.3 -1
v -0.6 0.3 -2
v -0.4 0.3 -2
v -0.1 0.3 -2
v 0.1 0.3 -2
v -0.4 0.3 -2.1
v -0.1 0.3 -2.1
v -0.6 0.3 -2.2
v -0.4 0.3 -2.2
v -0.1 0.3 -2.2
v 0.1 0.3 -2.2
v -1 1 -0.3
v 0.5 1 -0.3
v -0.3 1 -0.9
v -0.2 1 -0.9
v -0.3 1 -1.1
v -0.2 1 -1.1
v -0.3 1 -1.9
v -0.2 1 -1.9
v -0.3 1 -2.1
v -0.2 1 -2.1
v -1 1 -2.7
v 0.5 1 -2.7
v -0.9 0.2 -0.7
v -0.7 0.2 -0.7
v 0.2 0.2 -0.7
v 0.4 0.2 -0.7
v -0.8 0.2 -0.8
v -0.7 0.2 -0.8
v 0.2 0.2 -0.8
v 0.3 0.2 -0.8
v -0.9 0.2 -0.9
v -0.8 0.2 -0.9
v 0.3 0.2 -0.9
v 0.4 0.2 -0.9
v -0.9 0.2 -2.1
v -0.8 0.2 -2.1
v 0.3 0.2 -2.1
v 0.4 0.2 -2.1
v -0.8 0.2 -2.2
v -0.7 0.2 -2.2
v 0.2 0.2 -2.2
v 0.3 0.2 -2.2
v -0.9 0.2 -2.3
v -0.7 0.2 -2.3
v 0.2 0.2 -2.3
v 0.4 0.2 -2.3
v -0.8 0.3 -0.8
v -0.7 0.3 -0.8
v 0.2 0.3 -0.8
v 0.3 0.3 -0.8
v -0.8 0.3 -1
v -0.7 0.3 -1
v 0.2 0.3 -1
v 0.3 0.3 -1
v -0.8 0.3 -2
v -0.7 0.3 -2
v 0.2 0.3 -2
v 0.3 0.3 -2
v -0.8 0.3 -2.2
v -0.7 0.3 -2.2
v 0.2 0.3 -2.2
v 0.3 0.3 -2.2
v -0.7 0.4 -0.8
v -0.4 0.4 -0.8
v -0.1 0.4 -0.8
v 0.2 0.4 -0.8
v -0.4 0.4 -0.9
v -0.3 0.4 -0.9
v -0.2 0.4 -0.9
v -0.1 0.4 -0.9
v -0.7 0.4 -1
v -0.4 0.4 -1
v -0.1 0.4 -1
v 0.2 0.4 -1
v -0.3 0.4 -1.1
v -0.2 0.4 -1.1
v -0.3 0.4 -1.9
v -0.2 0.4 -1.9
v -0.7 0.4 -2
v -0.4 0.4 -2
v -0.1 0.4 -2
v 0.2 0.4 -2
v -0.4 0.4 -2.1
v -0.3 0.4 -2.1
v -0.2 0.4 -2.1
v -0.1 0.4 -2.1
v -0.7 0.4 -2.2
v -0.4 0.4 -2.2
v -0.1 0.4 -2.2
v 0.2 0.4 -2.2
v -1 1.1 -0.3
v 0.5 1.1 -0.3
v -1 1.1 -2.7
v 0.5 1.1 -2.7

# faces
f 3/2/1 2/2/1 1/2/1
f 4/2/1 2/2/1 3/2/1
f 9/3/1 6/3/1 5/3/1
f 10/3/1 6/3/1 9/3/1
f 11/3/1 8/3/1 7/3/1
f 12/3/1 8/3/1 11/3/1
f 19/1/1 14/1/1 13/1/1
f 19/1/1 15/1/1 14/1/1
f 20/1/1 15/1/1 19/1/1
f 21/1/1 18/1/1 17/1/1
f 21/1/1 17/1/1 16/1/1
f 22/1/1 18/1/1 21/1/1
f 27/1/1 24/1/1 23/1/1
f 28/1/1 24/1/1 27/1/1
f 29/1/1 26/1/1 25/1/1
f 30/1/1 26/1/1 29/1/1
f 35/1/1 32/1/1 31/1/1
f 36/1/1 32/1/1 35/1/1
f 37/1/1 34/1/1 33/1/1
f 38/1/1 34/1/1 37/1/1
f 41/1/1 40/1/1 39/1/1
f 42/1/1 40/1/1 41/1/1
f 47/1/1 44/1/1 43/1/1
f 48/1/1 44/1/1 47/1/1
f 49/1/1 46/1/1 45/1/1
f 50/1/1 46/1/1 49/1/1
f 55/1/1 52/1/1 51/1/1
f 56/1/1 52/1/1 55/1/1
f 57/1/1 54/1/1 53/1/1
f 58/1/1 54/1/1 57/1/1
f 63/1/1 60/1/1 59/1/1
f 64/1/1 60/1/1 63/1/1
f 65/1/1 62/1/1 61/1/1
f 66/1/1 62/1/1 65/1/1
f 71/3/1 68/3/1 67/3/1
f 72/3/1 68/3/1 71/3/1
f 73/3/1 70/3/1 69/3/1
f 74/3/1 70/3/1 73/3/1
f 75/3/1 71/3/1 67/3/1
f 76/3/1 71/3/1 75/3/1
f 77/3/1 70/3/1 74/3/1
f 78/3/1 70/3/1 77/3/1
f 79/3/2 80/3/2 83/3/2
f 83/3/2 80/3/2 84/3/2
f 81/3/2 82/3/2 85/3/2
f 85/3/2 82/3/2 86/3/2
f 79/3/2 83/3/2 87/3/2
f 87/3/2 83/3/2 88/3/2
f 86/3/2 82/3/2 89/3/2
f 89/3/2 82/3/2 90/3/2
f 91/1/2 92/1/2 95/1/2
f 95/1/2 92/1/2 96/1/2
f 93/1/2 94/1/2 97/1/2
f 97/1/2 94/1/2 98/1/2
f 99/1/2 100/1/2 103/1/2
f 103/1/2 100/1/2 104/1/2
f 101/1/2 102/1/2 105/1/2
f 105/1/2 102/1/2 106/1/2
f 107/1/2 108/1/2 111/1/2
f 111/1/2 108/1/2 112/1/2
f 109/1/2 110/1/2 113/1/2
f 113/1/2 110/1/2 114/1/2
f 115/1/2 116/1/2 117/1/2
f 117/1/2 116/1/2 118/1/2
f 119/1/2 120/1/2 123/1/2
f 123/1/2 120/1/2 124/1/2
f 121/1/2 122/1/2 125/1/2
f 125/1/2 122/1/2 126/1/2
f 127/1/2 128/1/2 131/1/2
f 131/1/2 128/1/2 132/1/2
f 129/1/2 130/1/2 133/1/2
f 133/1/2 130/1/2 134/1/2
f 135/1/2 136/1/2 141/1/2
f 136/1/2 137/1/2 141/1/2
f 141/1/2 137/1/2 142/1/2
f 139/1/2 140/1/2 143/1/2
f 138/1/2 139/1/2 143/1/2
f 143/1/2 140/1/2 144/1/2
f 145/3/2 146/3/2 149/3/2
f 149/3/2 146/3/2 150/3/2
f 147/3/2 148/3/2 151/3/2
f 151/3/2 148/3/2 152/3/2
f 153/2/2 154/2/2 155/2/2
f 155/2/2 154/2/2 156/2/2
f 159/2/3 158/2/3 157/2/3
f 160/2/3 158/2/3 159/2/3
f 163/3/3 162/3/3 161/3/3
f 164/3/3 162/3/3 163/3/3
f 167/3/3 166/3/3 165/3/3
f 168/3/3 166/3/3 167/3/3
f 172/1/3 170/1/3 169/1/3
f 173/1/3 170/1/3 172/1/3
f 175/1/3 172/1/3 171/1/3
f 175/1/3 174/1/3 173/1/3
f 175/1/3 173/1/3 172/1/3
f 176/1/3 174/1/3 175/1/3
f 177/1/3 174/1/3 176/1/3
f 178/1/3 174/1/3 177/1/3
f 182/1/3 180/1/3 179/1/3
f 183/1/3 182/1/3 181/1/3
f 184/1/3 182/1/3 183/1/3
f 185/1/3 180/1/3 182/1/3
f 185/1/3 182/1/3 184/1/3
f 186/1/3 180/1/3 185/1/3
f 187/1/3 185/1/3 184/1/3
f 188/1/3 185/1/3 187/1/3
f 191/1/3 190/1/3 189/1/3
f 193/1/3 191/1/3 189/1/3
f 193/1/3 192/1/3 191/1/3
f 194/1/3 192/1/3 193/1/3
f 195/1/3 193/1/3 189/1/3
f 196/1/3 193/1/3 195/1/3
f 199/1/3 198/1/3 197/1/3
f 200/1/3 198/1/3 199/1/3
f 204/1/3 202/1/3 201/1/3
f 205/1/3 202/1/3 204/1/3
f 207/1/3 204/1/3 203/1/3
f 207/1/3 206/1/3 205/1/3
f 207/1/3 205/1/3 204/1/3
f 208/1/3 206/1/3 207/1/3
f 209/1/3 206/1/3 208/1/3
f 210/1/3 206/1/3 209/1/3
f 214/1/3 212/1/3 211/1/3
f 215/1/3 214/1/3 213/1/3
f 216/1/3 214/1/3 215/1/3
f 217/1/3 212/1/3 214/1/3
f 217/1/3 214/1/3 216/1/3
f 218/1/3 212/1/3 217/1/3
f 219/1/3 217/1/3 216/1/3
f 220/1/3 217/1/3 219/1/3
f 223/3/3 222/3/3 221/3/3
f 224/3/3 223/3/3 221/3/3
f 225/3/3 223/3/3 224/3/3
f 226/3/3 223/3/3 225/3/3
f 230/3/3 228/3/3 227/3/3
f 230/3/3 229/3/3 228/3/3
f 231/3/3 230/3/3 227/3/3
f 232/3/3 230/3/3 231/3/3
f 233/3/4 234/3/4 235/3/4
f 233/3/4 235/3/4 236/3/4
f 236/3/4 235/3/4 237/3/4
f 237/3/4 235/3/4 238/3/4
f 239/3/4 240/3/4 242/3/4
f 240/3/4 241/3/4 242/3/4
f 239/3/4 242/3/4 243/3/4
f 243/3/4 242/3/4 244/3/4
f 245/1/4 246/1/4 248/1/4
f 248/1/4 246/1/4 249/1/4
f 247/1/4 248/1/4 251/1/4
f 249/1/4 250/1/4 251/1/4
f 248/1/4 249/1/4 251/1/4
f 251/1/4 250/1/4 252/1/4
f 252/1/4 250/1/4 253/1/4
f 253/1/4 250/1/4 254/1/4
f 255/1/4 256/1/4 258/1/4
f 257/1/4 258/1/4 259/1/4
f 259/1/4 258/1/4 260/1/4
f 258/1/4 256/1/4 261/1/4
f 260/1/4 258/1/4 261/1/4
f 261/1/4 256/1/4 262/1/4
f 260/1/4 261/1/4 263/1/4
f 263/1/4 261/1/4 264/1/4
f 265/1/4 266/1/4 267/1/4
f 267/1/4 266/1/4 268/1/4
f 269/1/4 270/1/4 271/1/4
f 269/1/4 271/1/4 273/1/4
f 271/1/4 272/1/4 273/1/4
f 273/1/4 272/1/4 274/1/4
f 269/1/4 273/1/4 275/1/4
f 275/1/4 273/1/4 276/1/4
f 277/1/4 278/1/4 280/1/4
f 280/1/4 278/1/4 281/1/4
f 279/1/4 280/1/4 283/1/4
f 281/1/4 282/1/4 283/1/4
f 280/1/4 281/1/4 283/1/4
f 283/1/4 282/1/4 284/1/4
f 284/1/4 282/1/4 285/1/4
f 285/1/4 282/1/4 286/1/4
f 287/1/4 288/1/4 290/1/4
f 289/1/4 290/1/4 291/1/4
f 291/1/4 290/1/4 292/1/4
f 290/1/4 288/1/4 293/1/4
f 292/1/4 290/1/4 293/1/4
f 293/1/4 288/1/4 294/1/4
f 292/1/4 293/1/4 295/1/4
f 295/1/4 293/1/4 296/1/4
f 297/3/4 298/3/4 299/3/4
f 299/3/4 298/3/4 300/3/4
f 301/3/4 302/3/4 303/3/4
f 303/3/4 302/3/4 304/3/4
f 305/2/4 306/2/4 307/2/4
f 307/2/4 306/2/4 308/2/4
f 313/3/5 310/3/5 309/3/5
f 314/3/5 310/3/5 313/3/5
f 315/3/5 312/3/5 311/3/5
f 316/3/5 312/3/5 315/3/5
f 321/3/5 318/3/5 317/3/5
f 322/3/5 318/3/5 321/3/5
f 323/3/5 320/3/5 319/3/5
f 324/3/5 320/3/5 323/3/5
f 329/1/5 326/1/5 325/1/5
f 330/1/5 328/1/5 327/1/5
f 331/1/5 326/1/5 329/1/5
f 332/1/5 326/1/5 331/1/5
f 333/1/5 330/1/5 327/1/5
f 334/1/5 330/1/5 333/1/5
f 339/1/5 336/1/5 335/1/5
f 340/1/5 338/1/5 337/1/5
f 341/1/5 336/1/5 339/1/5
f 342/1/5 336/1/5 341/1/5
f 343/1/5 340/1/5 337/1/5
f 344/1/5 340/1/5 343/1/5
f 349/1/5 346/1/5 345/1/5
f 350/1/5 346/1/5 349/1/5
f 351/1/5 348/1/5 347/1/5
f 352/1/5 348/1/5 351/1/5
f 357/1/5 354/1/5 353/1/5
f 358/1/5 354/1/5 357/1/5
f 359/1/5 356/1/5 355/1/5
f 360/1/5 356/1/5 359/1/5
f 365/1/5 362/1/5 361/1/5
f 366/1/5 364/1/5 363/1/5
f 367/1/5 365/1/5 361/1/5
f 367/1/5 366/1/5 365/1/5
f 368/1/5 366/1/5 367/1/5
f 369/1/5 364/1/5 366/1/5
f 369/1/5 366/1/5 368/1/5
f 370/1/5 364/1/5 369/1/5
f 372/1/5 369/1/5 368/1/5
f 373/1/5 369/1/5 372/1/5
f 375/1/5 372/1/5 371/1/5
f 375/1/5 374/1/5 373/1/5
f 375/1/5 373/1/5 372/1/5
f 376/1/5 374/1/5 375/1/5
f 377/1/5 375/1/5 371/1/5
f 378/1/5 375/1/5 377/1/5
f 379/1/5 374/1/5 376/1/5
f 380/1/5 374/1/5 379/1/5
f 383/2/5 382/2/5 381/2/5
f 384/2/5 382/2/5 383/2/5
f 385/2/5 383/2/5 381/2/5
f 386/2/5 382/2/5 384/2/5
f 387/2/5 385/2/5 381/2/5
f 387/2/5 386/2/5 385/2/5
f 388/2/5 382/2/5 386/2/5
f 388/2/5 386/2/5 387/2/5
f 389/2/5 387/2/5 381/2/5
f 390/2/5 382/2/5 388/2/5
f 391/2/5 389/2/5 381/2/5
f 391/2/5 390/2/5 389/2/5
f 392/2/5 382/2/5 390/2/5
f 392/2/5 390/2/5 391/2/5
f 393/3/6 394/3/6 397/3/6
f 397/3/6 394/3/6 398/3/6
f 395/3/6 396/3/6 399/3/6
f 399/3/6 396/3/6 400/3/6
f 393/3/6 397/3/6 401/3/6
f 401/3/6 397/3/6 402/3/6
f 400/3/6 396/3/6 403/3/6
f 403/3/6 396/3/6 404/3/6
f 405/3/6 406/3/6 409/3/6
f 407/3/6 408/3/6 412/3/6
f 409/3/6 410/3/6 413/3/6
f 405/3/6 409/3/6 413/3/6
f 413/3/6 410/3/6 414/3/6
f 411/3/6 412/3/6 415/3/6
f 412/3/6 408/3/6 416/3/6
f 415/3/6 412/3/6 416/3/6
f 417/1/6 418/1/6 421/1/6
f 421/1/6 418/1/6 422/1/6
f 419/1/6 420/1/6 423/1/6
f 423/1/6 420/1/6 424/1/6
f 425/1/6 426/1/6 429/1/6
f 429/1/6 426/1/6 430/1/6
f 427/1/6 428/1/6 431/1/6
f 431/1/6 428/1/6 432/1/6
f 433/1/6 434/1/6 437/1/6
f 435/1/6 436/1/6 440/1/6
f 437/1/6 438/1/6 441/1/6
f 433/1/6 437/1/6 441/1/6
f 441/1/6 438/1/6 442/1/6
f 439/1/6 440/1/6 443/1/6
f 440/1/6 436/1/6 443/1/6
f 443/1/6 436/1/6 444/1/6
f 442/1/6 438/1/6 445/1/6
f 439/1/6 443/1/6 446/1/6
f 442/1/6 445/1/6 447/1/6
f 445/1/6 446/1/6 447/1/6
f 446/1/6 443/1/6 448/1/6
f 447/1/6 446/1/6 448/1/6
f 442/1/6 447/1/6 450/1/6
f 448/1/6 443/1/6 451/1/6
f 449/1/6 450/1/6 453/1/6
f 450/1/6 447/1/6 453/1/6
f 453/1/6 447/1/6 454/1/6
f 451/1/6 452/1/6 455/1/6
f 448/1/6 451/1/6 455/1/6
f 455/1/6 452/1/6 456/1/6
f 449/1/6 453/1/6 457/1/6
f 457/1/6 453/1/6 458/1/6
f 456/1/6 452/1/6 459/1/6
f 459/1/6 452/1/6 460/1/6
f 461/2/6 462/2/6 463/2/6
f 463/2/6 462/2/6 464/2/6
